%TF.GenerationSoftware,KiCad,Pcbnew,8.0.4*%
%TF.CreationDate,2024-11-13T23:59:15+03:00*%
%TF.ProjectId,Adapter,41646170-7465-4722-9e6b-696361645f70,rev?*%
%TF.SameCoordinates,Original*%
%TF.FileFunction,Profile,NP*%
%FSLAX46Y46*%
G04 Gerber Fmt 4.6, Leading zero omitted, Abs format (unit mm)*
G04 Created by KiCad (PCBNEW 8.0.4) date 2024-11-13 23:59:15*
%MOMM*%
%LPD*%
G01*
G04 APERTURE LIST*
%TA.AperFunction,Profile*%
%ADD10C,0.500000*%
%TD*%
%TA.AperFunction,Profile*%
%ADD11C,0.100000*%
%TD*%
%ADD12C,0.350000*%
G04 APERTURE END LIST*
D10*
X225103311Y-57421323D02*
X221794079Y-57421320D01*
X79979911Y-129643144D02*
X76676600Y-129643144D01*
X82676600Y-164977852D02*
G75*
G02*
X79698962Y-161964325I0J2977852D01*
G01*
X122544120Y-52620531D02*
X122544997Y-47600003D01*
X169844120Y-52620531D02*
X169844997Y-47600003D01*
X132144114Y-52629904D02*
G75*
G02*
X127344120Y-57421321I-4799854J8444D01*
G01*
X228103311Y-126600000D02*
G75*
G02*
X225103311Y-129600011I-3000211J200D01*
G01*
D11*
X179446010Y-134578900D02*
G75*
G02*
X169845590Y-134578900I-4800210J0D01*
G01*
X169845590Y-134578900D02*
G75*
G02*
X179446010Y-134578900I4800210J0D01*
G01*
D10*
X85000000Y-47600000D02*
X85000000Y-52464469D01*
X73676600Y-60464469D02*
X73676600Y-126643144D01*
X225103311Y-57421323D02*
G75*
G02*
X228103377Y-60421325I-11J-3000077D01*
G01*
X216994127Y-52615748D02*
X217000000Y-47600000D01*
X221794079Y-57421320D02*
G75*
G02*
X216994183Y-52615748I21J4799920D01*
G01*
X222103311Y-162000000D02*
G75*
G02*
X219103309Y-164999911I-3000011J100D01*
G01*
X179444114Y-52629904D02*
G75*
G02*
X174644120Y-57421321I-4799814J8404D01*
G01*
D11*
X132145838Y-134578660D02*
G75*
G02*
X122545882Y-134578660I-4799978J0D01*
G01*
X122545882Y-134578660D02*
G75*
G02*
X132145838Y-134578660I4799978J0D01*
G01*
D10*
X76676600Y-129643144D02*
G75*
G02*
X73676556Y-126643144I0J3000044D01*
G01*
X222103311Y-139199528D02*
X222103311Y-162000000D01*
X82676600Y-164977852D02*
X219103309Y-165000000D01*
X217000000Y-47600000D02*
X179445000Y-47600000D01*
X73676600Y-60464469D02*
G75*
G02*
X76676600Y-57464500I3000000J-31D01*
G01*
X174644120Y-57421320D02*
G75*
G02*
X169844180Y-52620531I-20J4799920D01*
G01*
X179445000Y-47600000D02*
X179444114Y-52629904D01*
X225103311Y-129600000D02*
X221800000Y-129600000D01*
X222103311Y-139199528D02*
G75*
G02*
X221799948Y-129592542I-269651J4799768D01*
G01*
X79979911Y-129643145D02*
G75*
G02*
X79698961Y-139163854I-13721J-4764095D01*
G01*
X85000000Y-52464469D02*
G75*
G02*
X79985832Y-57464470I-5000020J-1D01*
G01*
X122544128Y-52620531D02*
X122544120Y-52620531D01*
X79985832Y-57464470D02*
X76676600Y-57464467D01*
X169844997Y-47600003D02*
X132145000Y-47600000D01*
X169844128Y-52620531D02*
X169844120Y-52620531D01*
X132145000Y-47600000D02*
X132144114Y-52629904D01*
X79698961Y-139163853D02*
X79698961Y-161964325D01*
X122544997Y-47600003D02*
X85000000Y-47600000D01*
X216994131Y-52615748D02*
X216994127Y-52615748D01*
X228103311Y-60421325D02*
X228103311Y-126600000D01*
X127344120Y-57421320D02*
G75*
G02*
X122544180Y-52620531I-20J4799920D01*
G01*
D12*
X188690785Y-142875000D03*
X188690785Y-158625000D03*
X202330785Y-150750000D03*
X215970785Y-142875000D03*
X215970785Y-158625000D03*
X202330785Y-138980000D03*
X202330785Y-140250000D03*
X202330785Y-141520000D03*
X205692000Y-59194000D03*
X184692000Y-59194000D03*
X202692000Y-63134000D03*
X199692000Y-63134000D03*
X196692000Y-63134000D03*
X193692000Y-63134000D03*
X190692000Y-63134000D03*
X187692000Y-63134000D03*
X202692000Y-60134000D03*
X199692000Y-60134000D03*
X196692000Y-60134000D03*
X193692000Y-60134000D03*
X190692000Y-60134000D03*
X187692000Y-60134000D03*
X131028005Y-74929995D03*
X131028005Y-77469995D03*
X131028005Y-80009995D03*
X131028005Y-85089995D03*
X131028005Y-87629995D03*
X131028005Y-90169995D03*
X131028005Y-92709995D03*
X160528000Y-116332000D03*
X160528000Y-113792000D03*
X160528000Y-111252000D03*
X160528000Y-106172000D03*
X160528000Y-103632000D03*
X160528000Y-101092000D03*
X160528000Y-98552000D03*
X113538000Y-116332000D03*
X113538000Y-113792000D03*
X113538000Y-111252000D03*
X113538000Y-106172000D03*
X113538000Y-103632000D03*
X113538000Y-101092000D03*
X113538000Y-98552000D03*
X207553995Y-116332005D03*
X207553995Y-113792005D03*
X207553995Y-111252005D03*
X207553995Y-106172005D03*
X207553995Y-103632005D03*
X207553995Y-101092005D03*
X207553995Y-98552005D03*
X94660000Y-142875000D03*
X94660000Y-158625000D03*
X108300000Y-150750000D03*
X121940000Y-142875000D03*
X121940000Y-158625000D03*
X108300000Y-138980000D03*
X108300000Y-140250000D03*
X108300000Y-141520000D03*
X84038005Y-74929995D03*
X84038005Y-77469995D03*
X84038005Y-80009995D03*
X84038005Y-85089995D03*
X84038005Y-87629995D03*
X84038005Y-90169995D03*
X84038005Y-92709995D03*
X112862000Y-59194000D03*
X91862000Y-59194000D03*
X109862000Y-63134000D03*
X106862000Y-63134000D03*
X103862000Y-63134000D03*
X100862000Y-63134000D03*
X97862000Y-63134000D03*
X94862000Y-63134000D03*
X109862000Y-60134000D03*
X106862000Y-60134000D03*
X103862000Y-60134000D03*
X100862000Y-60134000D03*
X97862000Y-60134000D03*
X94862000Y-60134000D03*
X160782000Y-59194000D03*
X139782000Y-59194000D03*
X157782000Y-63134000D03*
X154782000Y-63134000D03*
X151782000Y-63134000D03*
X148782000Y-63134000D03*
X145782000Y-63134000D03*
X142782000Y-63134000D03*
X157782000Y-60134000D03*
X154782000Y-60134000D03*
X151782000Y-60134000D03*
X148782000Y-60134000D03*
X145782000Y-60134000D03*
X142782000Y-60134000D03*
X178054000Y-74930000D03*
X178054000Y-77470000D03*
X178054000Y-80010000D03*
X178054000Y-85090000D03*
X178054000Y-87630000D03*
X178054000Y-90170000D03*
X178054000Y-92710000D03*
X76750000Y-60500000D03*
X76750000Y-126600000D03*
X100000000Y-52500000D03*
X127350000Y-60500000D03*
X127350000Y-126600000D03*
X174650000Y-60500000D03*
X174650000Y-126600000D03*
X187000000Y-134500000D03*
X225250000Y-60500000D03*
X225250000Y-126600000D03*
X121950000Y-122350000D03*
X87800000Y-71350000D03*
X93800000Y-119650000D03*
X104000000Y-71350000D03*
X89750000Y-119650000D03*
X108050000Y-71350000D03*
X123350000Y-104350000D03*
X123350000Y-111850000D03*
X168950000Y-122350000D03*
X134800000Y-71350000D03*
X140800000Y-119650000D03*
X151000000Y-71350000D03*
X136750000Y-119650000D03*
X155050000Y-71350000D03*
X170350000Y-104350000D03*
X170350000Y-111850000D03*
X215950000Y-122350000D03*
X181800000Y-71350000D03*
X187800000Y-119650000D03*
X198000000Y-71350000D03*
X183750000Y-119650000D03*
X202050000Y-71350000D03*
X217350000Y-104350000D03*
X217350000Y-111850000D03*
X141690785Y-142875000D03*
X141690785Y-158625000D03*
X155330785Y-150750000D03*
X168970785Y-142875000D03*
X168970785Y-158625000D03*
X155330785Y-138980000D03*
X155330785Y-140250000D03*
X155330785Y-141520000D03*
X220726000Y-73279000D03*
X220726000Y-70739000D03*
X220726000Y-68199000D03*
M02*
