%TF.GenerationSoftware,KiCad,Pcbnew,8.0.8*%
%TF.CreationDate,2025-03-11T11:39:27+03:00*%
%TF.ProjectId,Adapter,41646170-7465-4722-9e6b-696361645f70,rev?*%
%TF.SameCoordinates,Original*%
%TF.FileFunction,Copper,L4,Inr*%
%TF.FilePolarity,Positive*%
%FSLAX46Y46*%
G04 Gerber Fmt 4.6, Leading zero omitted, Abs format (unit mm)*
G04 Created by KiCad (PCBNEW 8.0.8) date 2025-03-11 11:39:27*
%MOMM*%
%LPD*%
G01*
G04 APERTURE LIST*
G04 Aperture macros list*
%AMRoundRect*
0 Rectangle with rounded corners*
0 $1 Rounding radius*
0 $2 $3 $4 $5 $6 $7 $8 $9 X,Y pos of 4 corners*
0 Add a 4 corners polygon primitive as box body*
4,1,4,$2,$3,$4,$5,$6,$7,$8,$9,$2,$3,0*
0 Add four circle primitives for the rounded corners*
1,1,$1+$1,$2,$3*
1,1,$1+$1,$4,$5*
1,1,$1+$1,$6,$7*
1,1,$1+$1,$8,$9*
0 Add four rect primitives between the rounded corners*
20,1,$1+$1,$2,$3,$4,$5,0*
20,1,$1+$1,$4,$5,$6,$7,0*
20,1,$1+$1,$6,$7,$8,$9,0*
20,1,$1+$1,$8,$9,$2,$3,0*%
G04 Aperture macros list end*
%TA.AperFunction,ComponentPad*%
%ADD10C,1.000000*%
%TD*%
%TA.AperFunction,ComponentPad*%
%ADD11RoundRect,0.250001X0.499999X0.499999X-0.499999X0.499999X-0.499999X-0.499999X0.499999X-0.499999X0*%
%TD*%
%TA.AperFunction,ComponentPad*%
%ADD12C,1.500000*%
%TD*%
%TA.AperFunction,ComponentPad*%
%ADD13O,2.300000X1.600000*%
%TD*%
%TA.AperFunction,ComponentPad*%
%ADD14C,2.500000*%
%TD*%
%TA.AperFunction,ComponentPad*%
%ADD15O,2.500000X1.800000*%
%TD*%
%TA.AperFunction,ViaPad*%
%ADD16C,0.800000*%
%TD*%
%TA.AperFunction,Conductor*%
%ADD17C,0.500000*%
%TD*%
G04 APERTURE END LIST*
D10*
%TO.N,+5V*%
%TO.C,D15*%
X202330785Y-138980000D03*
%TO.N,GND*%
X202330785Y-140250000D03*
%TO.N,Net-(D15-Output)*%
X202330785Y-141520000D03*
%TD*%
D11*
%TO.N,+15V*%
%TO.C,J4*%
X202692000Y-63134000D03*
D12*
%TO.N,PWM3_L_N*%
X199692000Y-63134000D03*
%TO.N,Temp_C_P*%
X196692000Y-63134000D03*
%TO.N,~{RST}*%
X193692000Y-63134000D03*
%TO.N,PWM3_H_N*%
X190692000Y-63134000D03*
%TO.N,ERR_C_P*%
X187692000Y-63134000D03*
%TO.N,GND*%
X202692000Y-60134000D03*
%TO.N,PWM3_L_P*%
X199692000Y-60134000D03*
%TO.N,Temp_C_N*%
X196692000Y-60134000D03*
%TO.N,Current_C_out*%
X193692000Y-60134000D03*
%TO.N,PWM3_H_P*%
X190692000Y-60134000D03*
%TO.N,ERR_C_N*%
X187692000Y-60134000D03*
%TD*%
D13*
%TO.N,GND*%
%TO.C,D4*%
X131028005Y-74929995D03*
%TO.N,Net-(D4-Vin)*%
X131028005Y-77469995D03*
%TO.N,unconnected-(D4-Ctrl-Pad3)*%
X131028005Y-80009995D03*
%TO.N,N/C*%
X131028005Y-85089995D03*
%TO.N,+15V_H2*%
X131028005Y-87629995D03*
%TO.N,E3*%
X131028005Y-90169995D03*
%TO.N,-15V_H2*%
X131028005Y-92709995D03*
%TD*%
%TO.N,GND*%
%TO.C,D17*%
X160528000Y-116332000D03*
%TO.N,Net-(D17-Vin)*%
X160528000Y-113792000D03*
%TO.N,unconnected-(D17-Ctrl-Pad3)*%
X160528000Y-111252000D03*
%TO.N,N/C*%
X160528000Y-106172000D03*
%TO.N,+15V_L2*%
X160528000Y-103632000D03*
%TO.N,E4*%
X160528000Y-101092000D03*
%TO.N,-15V_L2*%
X160528000Y-98552000D03*
%TD*%
%TO.N,GND*%
%TO.C,D16*%
X113538000Y-116332000D03*
%TO.N,Net-(D16-Vin)*%
X113538000Y-113792000D03*
%TO.N,unconnected-(D16-Ctrl-Pad3)*%
X113538000Y-111252000D03*
%TO.N,N/C*%
X113538000Y-106172000D03*
%TO.N,+15V_L1*%
X113538000Y-103632000D03*
%TO.N,E2*%
X113538000Y-101092000D03*
%TO.N,-15V_L1*%
X113538000Y-98552000D03*
%TD*%
%TO.N,GND*%
%TO.C,D18*%
X207553995Y-116332005D03*
%TO.N,Net-(D18-Vin)*%
X207553995Y-113792005D03*
%TO.N,unconnected-(D18-Ctrl-Pad3)*%
X207553995Y-111252005D03*
%TO.N,N/C*%
X207553995Y-106172005D03*
%TO.N,+15V_L3*%
X207553995Y-103632005D03*
%TO.N,E6*%
X207553995Y-101092005D03*
%TO.N,-15V_L3*%
X207553995Y-98552005D03*
%TD*%
D10*
%TO.N,+5V*%
%TO.C,D11*%
X108300000Y-138980000D03*
%TO.N,GND*%
X108300000Y-140250000D03*
%TO.N,Net-(D11-Output)*%
X108300000Y-141520000D03*
%TD*%
D13*
%TO.N,GND*%
%TO.C,D43*%
X84038005Y-74929995D03*
%TO.N,Net-(D43-Vin)*%
X84038005Y-77469995D03*
%TO.N,unconnected-(D43-Ctrl-Pad3)*%
X84038005Y-80009995D03*
%TO.N,N/C*%
X84038005Y-85089995D03*
%TO.N,+15V_H1*%
X84038005Y-87629995D03*
%TO.N,E1*%
X84038005Y-90169995D03*
%TO.N,-15V_H1*%
X84038005Y-92709995D03*
%TD*%
D11*
%TO.N,+15V*%
%TO.C,J3*%
X109862000Y-63134000D03*
D12*
%TO.N,PWM1_L_N*%
X106862000Y-63134000D03*
%TO.N,Temp_A_P*%
X103862000Y-63134000D03*
%TO.N,~{RST}*%
X100862000Y-63134000D03*
%TO.N,PWM1_H_N*%
X97862000Y-63134000D03*
%TO.N,ERR_A_P*%
X94862000Y-63134000D03*
%TO.N,GND*%
X109862000Y-60134000D03*
%TO.N,PWM1_L_P*%
X106862000Y-60134000D03*
%TO.N,Temp_A_N*%
X103862000Y-60134000D03*
%TO.N,Current_A_out*%
X100862000Y-60134000D03*
%TO.N,PWM1_H_P*%
X97862000Y-60134000D03*
%TO.N,ERR_A_N*%
X94862000Y-60134000D03*
%TD*%
D11*
%TO.N,+15V*%
%TO.C,J5*%
X157782000Y-63134000D03*
D12*
%TO.N,PWM2_L_N*%
X154782000Y-63134000D03*
%TO.N,Temp_B_P*%
X151782000Y-63134000D03*
%TO.N,~{RST}*%
X148782000Y-63134000D03*
%TO.N,PWM2_H_N*%
X145782000Y-63134000D03*
%TO.N,ERR_B_P*%
X142782000Y-63134000D03*
%TO.N,GND*%
X157782000Y-60134000D03*
%TO.N,PWM2_L_P*%
X154782000Y-60134000D03*
%TO.N,Temp_B_N*%
X151782000Y-60134000D03*
%TO.N,Current_B_out*%
X148782000Y-60134000D03*
%TO.N,PWM2_H_P*%
X145782000Y-60134000D03*
%TO.N,ERR_B_N*%
X142782000Y-60134000D03*
%TD*%
D13*
%TO.N,GND*%
%TO.C,D10*%
X178054000Y-74930000D03*
%TO.N,Net-(D10-Vin)*%
X178054000Y-77470000D03*
%TO.N,unconnected-(D10-Ctrl-Pad3)*%
X178054000Y-80010000D03*
%TO.N,N/C*%
X178054000Y-85090000D03*
%TO.N,+15V_H3*%
X178054000Y-87630000D03*
%TO.N,E5*%
X178054000Y-90170000D03*
%TO.N,-15V_H3*%
X178054000Y-92710000D03*
%TD*%
D14*
%TO.N,C1*%
%TO.C,J1*%
X121950000Y-122350000D03*
%TO.N,C2*%
X87800000Y-71350000D03*
%TO.N,E1*%
X93800000Y-119650000D03*
%TO.N,E2*%
X104000000Y-71350000D03*
%TO.N,G1*%
X89750000Y-119650000D03*
%TO.N,G2*%
X108050000Y-71350000D03*
%TO.N,T1*%
X123350000Y-104350000D03*
%TO.N,T2*%
X123350000Y-111850000D03*
%TO.N,C3*%
X168950000Y-122350000D03*
%TO.N,C4*%
X134800000Y-71350000D03*
%TO.N,E3*%
X140800000Y-119650000D03*
%TO.N,E4*%
X151000000Y-71350000D03*
%TO.N,G3*%
X136750000Y-119650000D03*
%TO.N,G4*%
X155050000Y-71350000D03*
%TO.N,T3*%
X170350000Y-104350000D03*
%TO.N,T4*%
X170350000Y-111850000D03*
%TO.N,C5*%
X215950000Y-122350000D03*
%TO.N,C6*%
X181800000Y-71350000D03*
%TO.N,E5*%
X187800000Y-119650000D03*
%TO.N,E6*%
X198000000Y-71350000D03*
%TO.N,G5*%
X183750000Y-119650000D03*
%TO.N,G6*%
X202050000Y-71350000D03*
%TO.N,T5*%
X217350000Y-104350000D03*
%TO.N,T6*%
X217350000Y-111850000D03*
%TD*%
D10*
%TO.N,+5V*%
%TO.C,D14*%
X155330785Y-138980000D03*
%TO.N,GND*%
X155330785Y-140250000D03*
%TO.N,Net-(D14-Output)*%
X155330785Y-141520000D03*
%TD*%
D15*
%TO.N,+15V*%
%TO.C,U1*%
X220726000Y-73279000D03*
%TO.N,GND*%
X220726000Y-70739000D03*
%TO.N,+5V*%
X220726000Y-68199000D03*
%TD*%
D16*
%TO.N,C2*%
X97536000Y-83566000D03*
%TO.N,E1*%
X89408000Y-107188000D03*
X91059000Y-101727000D03*
%TO.N,E2*%
X108458000Y-84179589D03*
X106553000Y-89320000D03*
%TO.N,G1*%
X96139000Y-101727000D03*
%TO.N,G2*%
X101473000Y-89281000D03*
%TO.N,T1*%
X102108000Y-119888000D03*
X98994000Y-125288000D03*
%TO.N,T2*%
X105664000Y-121158000D03*
%TO.N,C4*%
X144526000Y-83566000D03*
%TO.N,E3*%
X138049000Y-101600000D03*
X136652000Y-107188000D03*
%TO.N,E4*%
X153543000Y-89281000D03*
X155194000Y-84582000D03*
%TO.N,G3*%
X143129000Y-101600000D03*
%TO.N,G4*%
X148463000Y-89408000D03*
%TO.N,T3*%
X148844000Y-120269000D03*
X145730000Y-125415000D03*
%TO.N,T4*%
X152400000Y-121158000D03*
%TO.N,C6*%
X191516000Y-83439000D03*
%TO.N,E5*%
X185039000Y-101600000D03*
X183642000Y-107188000D03*
%TO.N,E6*%
X202184000Y-84582000D03*
X200533000Y-89154000D03*
%TO.N,G5*%
X190119000Y-101600000D03*
%TO.N,G6*%
X195453000Y-89408000D03*
%TO.N,T5*%
X195834000Y-120396000D03*
X192532000Y-125222000D03*
%TO.N,T6*%
X199390000Y-121158000D03*
%TO.N,GND*%
X227203000Y-72898000D03*
X199136000Y-118237000D03*
X200152000Y-118237000D03*
X141507541Y-74578541D03*
X119634000Y-90678000D03*
X165862000Y-94996000D03*
X198120000Y-142240000D03*
X164338000Y-131064000D03*
X100203000Y-102997000D03*
X94488000Y-75692000D03*
X194818000Y-72009000D03*
X227203000Y-70866000D03*
X77724000Y-99314000D03*
X207137000Y-124968000D03*
X151257000Y-118237000D03*
X213614000Y-63754000D03*
X188468000Y-75819000D03*
X124372000Y-99060000D03*
X211074000Y-131064000D03*
X160401000Y-125095000D03*
X171200000Y-98806000D03*
X135128000Y-84836000D03*
X141478000Y-75565000D03*
X105156000Y-118237000D03*
X104140000Y-118237000D03*
X173355000Y-100330000D03*
X212598000Y-95250000D03*
X89154000Y-62865000D03*
X126492000Y-100457000D03*
X136906000Y-62865000D03*
X188468000Y-74803000D03*
X191389000Y-89408000D03*
X118618000Y-95250000D03*
X104140000Y-142240000D03*
X168021000Y-63754000D03*
X118872000Y-130048000D03*
X186055000Y-68677000D03*
X91900000Y-51800000D03*
X161986000Y-55306000D03*
X156464000Y-105918000D03*
X119779000Y-63881000D03*
X92202000Y-68677000D03*
X147955000Y-72009000D03*
X144399000Y-89408000D03*
X144600000Y-51800000D03*
X166751000Y-90678000D03*
X151130000Y-142240000D03*
X152500000Y-51800000D03*
X109474000Y-106426000D03*
X227203000Y-69850000D03*
X189400000Y-51900000D03*
X198120000Y-118237000D03*
X97409000Y-89281000D03*
X221869000Y-81280000D03*
X100838000Y-72136000D03*
X203454000Y-106045000D03*
X227203000Y-68834000D03*
X94488000Y-74549000D03*
X194183000Y-103124000D03*
X147193000Y-102870000D03*
X139446000Y-68580000D03*
X197500000Y-51900000D03*
X182372000Y-62865000D03*
X106172000Y-118237000D03*
X213487000Y-90678000D03*
X104600000Y-51800000D03*
X152273000Y-118237000D03*
X79756000Y-100330000D03*
X114234000Y-55306000D03*
X206944000Y-55306000D03*
X227203000Y-71882000D03*
X88138000Y-84836000D03*
X153289000Y-118237000D03*
X182096500Y-84836000D03*
X113538000Y-125095000D03*
%TO.N,+5V*%
X153416000Y-103505000D03*
X106426000Y-103505000D03*
X91366959Y-88318959D03*
X160366554Y-121881826D03*
X116332000Y-55372000D03*
X212598000Y-96520000D03*
X118618000Y-96520000D03*
X191600000Y-51900000D03*
X200533000Y-103505000D03*
X178562000Y-62865000D03*
X227203000Y-67183000D03*
X138303000Y-88392000D03*
X115570000Y-90678000D03*
X177165000Y-100330000D03*
X117602000Y-126746000D03*
X221869000Y-79121000D03*
X185166000Y-88138000D03*
X154700000Y-51800000D03*
X209042000Y-55372000D03*
X106800000Y-51800000D03*
X164084000Y-55372000D03*
X227203000Y-66294000D03*
X144272000Y-69215000D03*
X94200000Y-51800000D03*
X191516000Y-69215000D03*
X209677000Y-90678000D03*
X146900000Y-51800000D03*
X162530000Y-62820000D03*
X164338000Y-127000000D03*
X199700000Y-51900000D03*
X90993000Y-69977000D03*
X165862000Y-96266000D03*
X124372000Y-98044000D03*
X85344000Y-62865000D03*
X114161280Y-63120621D03*
X162941000Y-90678000D03*
X113566439Y-121961330D03*
X207996397Y-62864448D03*
X133096000Y-62865000D03*
X207010000Y-121920000D03*
X184846000Y-69977000D03*
X130429000Y-100457000D03*
X227203000Y-65405000D03*
X211074000Y-126746000D03*
X83820000Y-100330000D03*
X138176000Y-69977000D03*
X77724000Y-98298000D03*
X97583000Y-69389000D03*
X171196000Y-97790000D03*
%TO.N,Net-(U11-+)*%
X193548000Y-123952000D03*
X196596000Y-124460000D03*
%TO.N,Net-(U5-VIA)*%
X195951702Y-128409283D03*
X199136000Y-123444000D03*
%TO.N,+15V*%
X169418000Y-63668000D03*
X150622000Y-110490000D03*
X227203000Y-75692000D03*
X103632000Y-111379000D03*
X197612000Y-111125000D03*
X197612000Y-112141000D03*
X150622000Y-111506000D03*
X227203000Y-74676000D03*
X214884000Y-63668000D03*
X141528800Y-79451200D03*
X103632000Y-109347000D03*
X94488000Y-79502000D03*
X121031000Y-63804000D03*
X141528800Y-78486000D03*
X188468000Y-78536800D03*
X94488000Y-78486000D03*
X103632000Y-110363000D03*
X150622000Y-109474000D03*
X188468000Y-79552800D03*
X197612000Y-110109000D03*
X227203000Y-76708000D03*
%TO.N,+5V_C*%
X199390000Y-129286000D03*
X192024000Y-120142000D03*
X209296000Y-111760000D03*
X192532000Y-127254000D03*
%TO.N,Net-(D31-DESAT)*%
X114808000Y-84328000D03*
X101596303Y-88138000D03*
%TO.N,PWM2_H_P*%
X126619000Y-105410000D03*
%TO.N,PWM2_H_N*%
X130429000Y-105410000D03*
%TO.N,PWM2_L_P*%
X166878000Y-85598000D03*
%TO.N,PWM2_L_N*%
X162814000Y-85598000D03*
%TO.N,PWM1_L_P*%
X119634000Y-85598000D03*
%TO.N,PWM1_L_N*%
X115570000Y-85598000D03*
%TO.N,PWM3_H_P*%
X173355000Y-105410000D03*
%TO.N,PWM3_H_N*%
X177165000Y-105410000D03*
%TO.N,PWM1_H_P*%
X79502000Y-105410000D03*
%TO.N,PWM1_H_N*%
X84074000Y-105410000D03*
%TO.N,PWM3_L_P*%
X213614000Y-85598000D03*
%TO.N,PWM3_L_N*%
X209550000Y-85598000D03*
%TO.N,Temp_A_P*%
X118491000Y-124206000D03*
%TO.N,Temp_A_N*%
X118491000Y-122174000D03*
%TO.N,Net-(D12-A)*%
X115443000Y-59563000D03*
%TO.N,Net-(D13-A)*%
X118237000Y-59563000D03*
%TO.N,-15V_L1*%
X108986934Y-89387066D03*
X100076000Y-120269000D03*
X103355669Y-126215669D03*
X100203000Y-89281000D03*
X105410000Y-131339500D03*
X113792000Y-86614000D03*
X116738000Y-111658000D03*
%TO.N,+15V_L1*%
X104394000Y-84144000D03*
X104013000Y-89281000D03*
%TO.N,+15V_H1*%
X93726000Y-102108000D03*
X93472000Y-107188000D03*
%TO.N,-15V_H1*%
X97409000Y-101727000D03*
X85852000Y-106172000D03*
X85852000Y-102362000D03*
%TO.N,+15V_H2*%
X140462000Y-106426000D03*
X140589000Y-101600000D03*
%TO.N,-15V_H2*%
X144399000Y-101600000D03*
X135382000Y-101600000D03*
X132588000Y-106172000D03*
%TO.N,+15V_H3*%
X187706000Y-106426000D03*
X187452000Y-101600000D03*
%TO.N,-15V_H3*%
X179324000Y-106426000D03*
X191389000Y-101600000D03*
X182372000Y-101600000D03*
%TO.N,PWM_L1*%
X115570000Y-95250000D03*
X94869000Y-89408000D03*
%TO.N,PWM_H1*%
X102616000Y-101600000D03*
X83693000Y-96139000D03*
%TO.N,PWM_L2*%
X162941000Y-95250000D03*
X141859000Y-89408000D03*
%TO.N,PWM_H2*%
X149733000Y-101600000D03*
X130429000Y-96139000D03*
%TO.N,PWM_L3*%
X209677000Y-95123000D03*
X188849000Y-89408000D03*
%TO.N,PWM_H3*%
X196723000Y-101727000D03*
X177165000Y-96012000D03*
%TO.N,Net-(D38-DESAT)*%
X161544000Y-84328000D03*
X148336000Y-88011000D03*
%TO.N,Net-(D44-DESAT)*%
X208534000Y-84328000D03*
X195453000Y-88011000D03*
%TO.N,FLT_A*%
X104902000Y-101600000D03*
X92725997Y-89408000D03*
X95631000Y-72136000D03*
X115443000Y-63795000D03*
%TO.N,RDY_A*%
X116205000Y-65405000D03*
X95631000Y-70866000D03*
X118280000Y-63838000D03*
X103886000Y-101600000D03*
X93726000Y-89408000D03*
%TO.N,Current_A_out*%
X102870000Y-139192000D03*
%TO.N,+15V_L2*%
X151003000Y-89281000D03*
X151130000Y-84494000D03*
%TO.N,+5V_B*%
X145731000Y-127315000D03*
X162532000Y-111760000D03*
X152400000Y-129264500D03*
X145288000Y-120269000D03*
%TO.N,Net-(U6-VIA)*%
X152208000Y-123190000D03*
X148906000Y-128397000D03*
%TO.N,+15V_L3*%
X197993000Y-89281000D03*
X198120000Y-84582000D03*
%TO.N,Net-(D19-A)*%
X121031000Y-59563000D03*
%TO.N,Current_B_out*%
X149860000Y-139192000D03*
%TO.N,Current_C_out*%
X196850000Y-139192000D03*
%TO.N,Net-(U4-+)*%
X146810714Y-124204301D03*
X149230458Y-124483173D03*
%TO.N,+5V_A*%
X105410000Y-129286000D03*
X115316000Y-111760000D03*
X98044000Y-120269000D03*
X98994000Y-127188000D03*
%TO.N,Net-(U8-+)*%
X102559458Y-124483173D03*
X100076000Y-124079000D03*
%TO.N,Net-(U9-VIA)*%
X102235000Y-128397000D03*
X105537000Y-123190000D03*
%TO.N,~{RST}*%
X116078000Y-67818000D03*
X163576000Y-67818000D03*
%TO.N,Temp_B_P*%
X165162000Y-124206000D03*
%TO.N,Temp_B_N*%
X165162000Y-122174000D03*
%TO.N,RDY_B*%
X151003000Y-101600000D03*
X164465000Y-65317000D03*
X142875000Y-70739000D03*
X166624000Y-63668000D03*
X140589000Y-89408000D03*
%TO.N,FLT_B*%
X142748000Y-72136000D03*
X152002846Y-101582414D03*
X139593756Y-89505409D03*
X163830000Y-63668000D03*
%TO.N,RDY_C*%
X189484000Y-70612000D03*
X187579000Y-89408000D03*
X197993000Y-101727000D03*
X212090000Y-63668000D03*
X209931000Y-65278000D03*
%TO.N,FLT_C*%
X209296000Y-63668000D03*
X189484000Y-72009000D03*
X199136000Y-101600000D03*
X186436000Y-89408000D03*
%TO.N,Net-(D27-A)*%
X163830000Y-59436000D03*
%TO.N,Net-(D28-A)*%
X166624000Y-59436000D03*
%TO.N,Net-(D29-A)*%
X169418000Y-59436000D03*
%TO.N,Net-(D30-A)*%
X209296000Y-59436000D03*
%TO.N,Net-(D49-A)*%
X212090000Y-59436000D03*
%TO.N,Net-(D50-A)*%
X214884000Y-59436000D03*
%TO.N,Temp_C_P*%
X211836000Y-124206000D03*
%TO.N,Temp_C_N*%
X211907821Y-122192969D03*
%TO.N,-15V_L3*%
X207264000Y-86614000D03*
X193802000Y-120142000D03*
X196850000Y-126238000D03*
X194183000Y-89408000D03*
X203073000Y-89281000D03*
X210718000Y-111608000D03*
X199390000Y-131318000D03*
%TO.N,-15V_L2*%
X149924959Y-126175959D03*
X146812000Y-120269000D03*
X163982000Y-111608000D03*
X152421500Y-131339500D03*
X147193000Y-89408000D03*
X156083000Y-89200132D03*
X160528000Y-86614000D03*
%TO.N,~{RST_B}*%
X169672000Y-67818000D03*
X150368000Y-106045000D03*
X141224000Y-85090000D03*
X165354000Y-52070000D03*
%TO.N,~{RST_A}*%
X120904000Y-67818000D03*
X94234000Y-84836000D03*
X103378000Y-106172000D03*
X117602000Y-52086000D03*
%TO.N,~{RST_C}*%
X197374000Y-105934000D03*
X210312000Y-52070000D03*
X188214000Y-84836000D03*
X214884000Y-67818000D03*
%TD*%
D17*
%TO.N,FLT_B*%
X141478000Y-80704082D02*
X142378800Y-79803282D01*
X142074000Y-84737918D02*
X141478000Y-84141918D01*
X142378800Y-72505200D02*
X142748000Y-72136000D01*
X142074000Y-86720918D02*
X142074000Y-84737918D01*
X142378800Y-79803282D02*
X142378800Y-72505200D01*
X139593756Y-89201162D02*
X142074000Y-86720918D01*
X139593756Y-89505409D02*
X139593756Y-89201162D01*
X141478000Y-84141918D02*
X141478000Y-80704082D01*
%TO.N,T1*%
X102108000Y-119888000D02*
X112099766Y-119888000D01*
X123350000Y-108637767D02*
X123350000Y-104350000D01*
X112099766Y-119888000D02*
X112691883Y-119295883D01*
X98994000Y-123002000D02*
X98994000Y-125288000D01*
X102108000Y-119888000D02*
X98994000Y-123002000D01*
X112691883Y-119295883D02*
X123350000Y-108637767D01*
%TO.N,T2*%
X112141000Y-121158000D02*
X121449000Y-111850000D01*
X121449000Y-111850000D02*
X123350000Y-111850000D01*
X105664000Y-121158000D02*
X112141000Y-121158000D01*
%TO.N,T3*%
X145730000Y-125415000D02*
X145730000Y-123383000D01*
X159089767Y-119888000D02*
X149225000Y-119888000D01*
X149225000Y-119888000D02*
X148844000Y-120269000D01*
X145730000Y-123383000D02*
X148844000Y-120269000D01*
X170350000Y-104350000D02*
X170350000Y-108627767D01*
X170350000Y-108627767D02*
X159089767Y-119888000D01*
%TO.N,T4*%
X168375500Y-111850000D02*
X170350000Y-111850000D01*
X152400000Y-121158000D02*
X159067500Y-121158000D01*
X159067500Y-121158000D02*
X168375500Y-111850000D01*
%TO.N,T5*%
X192532000Y-125222000D02*
X192532000Y-123698000D01*
X206554284Y-119888000D02*
X215292284Y-111150000D01*
X195834000Y-120396000D02*
X196342000Y-119888000D01*
X215292284Y-111150000D02*
X215292285Y-111150000D01*
X192532000Y-123698000D02*
X195834000Y-120396000D01*
X215292285Y-111150000D02*
X217350000Y-109092285D01*
X196342000Y-119888000D02*
X206554284Y-119888000D01*
X217350000Y-109092285D02*
X217350000Y-104350000D01*
%TO.N,T6*%
X206502000Y-121158000D02*
X215810000Y-111850000D01*
X199390000Y-121158000D02*
X206502000Y-121158000D01*
X215810000Y-111850000D02*
X217350000Y-111850000D01*
%TO.N,Net-(U11-+)*%
X194056000Y-124460000D02*
X193548000Y-123952000D01*
X196596000Y-124460000D02*
X194056000Y-124460000D01*
%TO.N,Net-(U5-VIA)*%
X195951702Y-128409283D02*
X196388799Y-128409283D01*
X199136000Y-125662082D02*
X199136000Y-123444000D01*
X196388799Y-128409283D02*
X199136000Y-125662082D01*
%TO.N,PWM2_H_P*%
X132051668Y-65030000D02*
X136188943Y-65030000D01*
X128148999Y-103880001D02*
X128148999Y-68932669D01*
X142284943Y-58934000D02*
X144582000Y-58934000D01*
X136188943Y-65030000D02*
X142284943Y-58934000D01*
X144582000Y-58934000D02*
X145782000Y-60134000D01*
X126619000Y-105410000D02*
X128148999Y-103880001D01*
X128148999Y-68932669D02*
X132051668Y-65030000D01*
%TO.N,PWM2_H_N*%
X132362332Y-65780000D02*
X136428893Y-65780000D01*
X140274893Y-61934000D02*
X144582000Y-61934000D01*
X130429000Y-105410000D02*
X128899001Y-103880001D01*
X128899001Y-103880001D02*
X128899001Y-69243331D01*
X128899001Y-69243331D02*
X132362332Y-65780000D01*
X144582000Y-61934000D02*
X145782000Y-63134000D01*
X136428893Y-65780000D02*
X140274893Y-61934000D01*
%TO.N,PWM2_L_P*%
X165774000Y-64020082D02*
X165774000Y-63315918D01*
X158272057Y-61341000D02*
X155989000Y-61341000D01*
X165221001Y-83941001D02*
X165221001Y-69116331D01*
X163858332Y-61220000D02*
X158393057Y-61220000D01*
X166064980Y-64311062D02*
X165774000Y-64020082D01*
X165221001Y-69116331D02*
X166043889Y-68293443D01*
X166878000Y-85598000D02*
X165221001Y-83941001D01*
X158393057Y-61220000D02*
X158272057Y-61341000D01*
X166043889Y-68293443D02*
X166043889Y-66000825D01*
X166064980Y-65979734D02*
X166064980Y-64311062D01*
X165864125Y-63225793D02*
X163858332Y-61220000D01*
X165774000Y-63315918D02*
X165864125Y-63225793D01*
X166043889Y-66000825D02*
X166064980Y-65979734D01*
X155989000Y-61341000D02*
X154782000Y-60134000D01*
%TO.N,PWM2_L_N*%
X164470999Y-68805669D02*
X165293889Y-67982779D01*
X160942878Y-61970000D02*
X158578878Y-64334000D01*
X158578878Y-64334000D02*
X155982000Y-64334000D01*
X165024020Y-63446352D02*
X163547668Y-61970000D01*
X163547668Y-61970000D02*
X160942878Y-61970000D01*
X165293889Y-65690193D02*
X165315000Y-65669082D01*
X155982000Y-64334000D02*
X154782000Y-63134000D01*
X165315000Y-65669082D02*
X165315000Y-64621714D01*
X162814000Y-85598000D02*
X164470999Y-83941001D01*
X165315000Y-64621714D02*
X165024020Y-64330734D01*
X164470999Y-83941001D02*
X164470999Y-68805669D01*
X165293889Y-67982779D02*
X165293889Y-65690193D01*
X165024020Y-64330734D02*
X165024020Y-63446352D01*
%TO.N,PWM1_L_P*%
X117042980Y-63132266D02*
X115257714Y-61347000D01*
X119634000Y-85598000D02*
X117977000Y-83941000D01*
X109377943Y-61347000D02*
X108164943Y-60134000D01*
X117884918Y-64645000D02*
X117042980Y-63803062D01*
X117042980Y-63803062D02*
X117042980Y-63132266D01*
X117977000Y-83941000D02*
X117977000Y-64645000D01*
X117977000Y-64645000D02*
X117884918Y-64645000D01*
X115257714Y-61347000D02*
X109377943Y-61347000D01*
X108164943Y-60134000D02*
X106862000Y-60134000D01*
%TO.N,PWM1_L_N*%
X116293000Y-64113714D02*
X116293000Y-63442918D01*
X115570000Y-85598000D02*
X117227000Y-83941000D01*
X112635878Y-62357000D02*
X110658878Y-64334000D01*
X110658878Y-64334000D02*
X108062000Y-64334000D01*
X116293000Y-63442918D02*
X114947082Y-62097000D01*
X112649000Y-62357000D02*
X112635878Y-62357000D01*
X117227000Y-83941000D02*
X117227000Y-65047714D01*
X108062000Y-64334000D02*
X106862000Y-63134000D01*
X114947082Y-62097000D02*
X112909000Y-62097000D01*
X112909000Y-62097000D02*
X112649000Y-62357000D01*
X117227000Y-65047714D02*
X116293000Y-64113714D01*
%TO.N,PWM3_H_P*%
X189492000Y-58934000D02*
X190692000Y-60134000D01*
X179168668Y-64649000D02*
X181790082Y-64649000D01*
X183222000Y-62906943D02*
X187194943Y-58934000D01*
X187194943Y-58934000D02*
X189492000Y-58934000D01*
X181790082Y-64649000D02*
X183222000Y-63217082D01*
X183222000Y-63217082D02*
X183222000Y-62906943D01*
X173355000Y-105410000D02*
X174885000Y-103880000D01*
X174885000Y-68932668D02*
X179168668Y-64649000D01*
X174885000Y-103880000D02*
X174885000Y-68932668D01*
%TO.N,PWM3_H_N*%
X183922000Y-63220000D02*
X185281834Y-61860166D01*
X179479332Y-65399000D02*
X182030032Y-65399000D01*
X182030032Y-65399000D02*
X183922000Y-63507032D01*
X175635000Y-103880000D02*
X175635000Y-69243332D01*
X185281834Y-61860166D02*
X189418166Y-61860166D01*
X183922000Y-63507032D02*
X183922000Y-63220000D01*
X189418166Y-61860166D02*
X190692000Y-63134000D01*
X175635000Y-69243332D02*
X179479332Y-65399000D01*
X177165000Y-105410000D02*
X175635000Y-103880000D01*
%TO.N,PWM1_H_P*%
X82902668Y-64649000D02*
X88649943Y-64649000D01*
X81412999Y-99215331D02*
X78619000Y-96421332D01*
X94364943Y-58934000D02*
X96662000Y-58934000D01*
X88649943Y-64649000D02*
X94364943Y-58934000D01*
X81412999Y-103499001D02*
X81412999Y-99215331D01*
X79502000Y-105410000D02*
X81412999Y-103499001D01*
X78619000Y-96421332D02*
X78619000Y-68932668D01*
X96662000Y-58934000D02*
X97862000Y-60134000D01*
X78619000Y-68932668D02*
X82902668Y-64649000D01*
%TO.N,PWM1_H_N*%
X92647332Y-61934000D02*
X96662000Y-61934000D01*
X79369000Y-96110668D02*
X79369000Y-69243332D01*
X96662000Y-61934000D02*
X97862000Y-63134000D01*
X82163001Y-103499001D02*
X82163001Y-98904669D01*
X82163001Y-98904669D02*
X79369000Y-96110668D01*
X84074000Y-105410000D02*
X82163001Y-103499001D01*
X79369000Y-69243332D02*
X83213332Y-65399000D01*
X83213332Y-65399000D02*
X89182332Y-65399000D01*
X89182332Y-65399000D02*
X92647332Y-61934000D01*
%TO.N,PWM3_L_P*%
X203182057Y-61341000D02*
X200899000Y-61341000D01*
X200899000Y-61341000D02*
X199692000Y-60134000D01*
X213614000Y-85598000D02*
X211957001Y-83941001D01*
X211957001Y-83941001D02*
X211957001Y-64737083D01*
X208943332Y-61093000D02*
X203430057Y-61093000D01*
X210895980Y-63676062D02*
X210895980Y-63005266D01*
X209958734Y-62068020D02*
X209918352Y-62068020D01*
X210895980Y-63005266D02*
X209958734Y-62068020D01*
X209918352Y-62068020D02*
X208943332Y-61093000D01*
X203430057Y-61093000D02*
X203182057Y-61341000D01*
X211957001Y-64737083D02*
X210895980Y-63676062D01*
%TO.N,PWM3_L_N*%
X209550000Y-85598000D02*
X211206999Y-83941001D01*
X206254000Y-61843000D02*
X203708000Y-64389000D01*
X209607668Y-62818000D02*
X208632668Y-61843000D01*
X200947000Y-64389000D02*
X199692000Y-63134000D01*
X210146000Y-63315918D02*
X209648082Y-62818000D01*
X208632668Y-61843000D02*
X206254000Y-61843000D01*
X211206999Y-65047713D02*
X210146000Y-63986714D01*
X210146000Y-63986714D02*
X210146000Y-63315918D01*
X211206999Y-83941001D02*
X211206999Y-65047713D01*
X203708000Y-64389000D02*
X200947000Y-64389000D01*
X209648082Y-62818000D02*
X209607668Y-62818000D01*
%TO.N,FLT_A*%
X109855000Y-90678000D02*
X110744000Y-91567000D01*
X92725997Y-89931997D02*
X93472000Y-90678000D01*
X95084000Y-84483918D02*
X94234000Y-83633918D01*
X95084000Y-86552050D02*
X95084000Y-84483918D01*
X94234000Y-83633918D02*
X94234000Y-80958082D01*
X92725997Y-89408000D02*
X92725997Y-89931997D01*
X96647000Y-67564000D02*
X94742000Y-69469000D01*
X111674000Y-67564000D02*
X96647000Y-67564000D01*
X94234000Y-80958082D02*
X95631000Y-79561082D01*
X95631000Y-79561082D02*
X95631000Y-72136000D01*
X93472000Y-90678000D02*
X109855000Y-90678000D01*
X110744000Y-91567000D02*
X110744000Y-100076000D01*
X110744000Y-100076000D02*
X109220000Y-101600000D01*
X94742000Y-69469000D02*
X94742000Y-71247000D01*
X92725997Y-88910053D02*
X95084000Y-86552050D01*
X94742000Y-71247000D02*
X95631000Y-72136000D01*
X115443000Y-63795000D02*
X111674000Y-67564000D01*
X92725997Y-89408000D02*
X92725997Y-88910053D01*
X109220000Y-101600000D02*
X104902000Y-101600000D01*
%TO.N,RDY_A*%
X95631000Y-70866000D02*
X97536000Y-70866000D01*
X109220000Y-86868000D02*
X111444000Y-89092000D01*
X100138000Y-68264000D02*
X113346000Y-68264000D01*
X104754918Y-102655000D02*
X103886000Y-101786082D01*
X96012000Y-84328000D02*
X98552000Y-86868000D01*
X95250000Y-83566000D02*
X95250000Y-81280000D01*
X96481000Y-71716000D02*
X95631000Y-70866000D01*
X97536000Y-70866000D02*
X100138000Y-68264000D01*
X98552000Y-86868000D02*
X109220000Y-86868000D01*
X96012000Y-84328000D02*
X95250000Y-83566000D01*
X111444000Y-100365950D02*
X109154950Y-102655000D01*
X93726000Y-89348918D02*
X96012000Y-87062918D01*
X109154950Y-102655000D02*
X104754918Y-102655000D01*
X93726000Y-89408000D02*
X93726000Y-89348918D01*
X96481000Y-80049000D02*
X96481000Y-71716000D01*
X95250000Y-81280000D02*
X96481000Y-80049000D01*
X111444000Y-89092000D02*
X111444000Y-100365950D01*
X113346000Y-68264000D02*
X116205000Y-65405000D01*
X103886000Y-101786082D02*
X103886000Y-101600000D01*
X96012000Y-87062918D02*
X96012000Y-84328000D01*
%TO.N,Current_A_out*%
X96520000Y-119126000D02*
X96520000Y-132842000D01*
X110353057Y-58928000D02*
X112072057Y-60647000D01*
X100862000Y-60134000D02*
X102068000Y-58928000D01*
X96520000Y-132842000D02*
X102870000Y-139192000D01*
X112072057Y-60647000D02*
X119076082Y-60647000D01*
X98298000Y-117348000D02*
X96520000Y-119126000D01*
X101854000Y-117348000D02*
X98298000Y-117348000D01*
X117856000Y-108966000D02*
X110236000Y-108966000D01*
X110236000Y-108966000D02*
X101854000Y-117348000D01*
X120904000Y-88900000D02*
X120904000Y-105918000D01*
X102068000Y-58928000D02*
X110353057Y-58928000D01*
X121881000Y-87923000D02*
X120904000Y-88900000D01*
X120904000Y-105918000D02*
X117856000Y-108966000D01*
X119076082Y-60647000D02*
X121881000Y-63451918D01*
X121881000Y-63451918D02*
X121881000Y-87923000D01*
%TO.N,Net-(U6-VIA)*%
X152208000Y-125095000D02*
X152208000Y-123190000D01*
X148906000Y-128397000D02*
X152208000Y-125095000D01*
%TO.N,Current_B_out*%
X148782000Y-60134000D02*
X149982000Y-58934000D01*
X159727000Y-60286000D02*
X168236000Y-60286000D01*
X170688000Y-62738000D02*
X170688000Y-68580000D01*
X170688000Y-68580000D02*
X168656000Y-70612000D01*
X168236000Y-60286000D02*
X170688000Y-62738000D01*
X149982000Y-58934000D02*
X158375000Y-58934000D01*
X148492541Y-117191459D02*
X145190541Y-117191459D01*
X164084000Y-108966000D02*
X156718000Y-108966000D01*
X143256000Y-119126000D02*
X143256000Y-132588000D01*
X156718000Y-108966000D02*
X148492541Y-117191459D01*
X143256000Y-132588000D02*
X149860000Y-139192000D01*
X166878000Y-106172000D02*
X164084000Y-108966000D01*
X168656000Y-95250000D02*
X166878000Y-97028000D01*
X158375000Y-58934000D02*
X159727000Y-60286000D01*
X145190541Y-117191459D02*
X143256000Y-119126000D01*
X168656000Y-70612000D02*
X168656000Y-95250000D01*
X166878000Y-97028000D02*
X166878000Y-106172000D01*
%TO.N,Current_C_out*%
X204812000Y-60286000D02*
X203454000Y-58928000D01*
X214083000Y-60286000D02*
X204812000Y-60286000D01*
X213868000Y-106680000D02*
X213868000Y-99568000D01*
X211582000Y-108966000D02*
X213868000Y-106680000D01*
X216281000Y-62484000D02*
X214083000Y-60286000D01*
X203708000Y-108966000D02*
X211582000Y-108966000D01*
X194818000Y-117856000D02*
X203708000Y-108966000D01*
X191516000Y-117856000D02*
X194818000Y-117856000D01*
X190246000Y-119126000D02*
X191516000Y-117856000D01*
X196850000Y-139192000D02*
X190246000Y-132588000D01*
X213868000Y-99568000D02*
X216281000Y-97155000D01*
X216281000Y-97155000D02*
X216281000Y-62484000D01*
X203454000Y-58928000D02*
X194898000Y-58928000D01*
X194898000Y-58928000D02*
X193692000Y-60134000D01*
X190246000Y-132588000D02*
X190246000Y-119126000D01*
%TO.N,Net-(U4-+)*%
X146810714Y-124204301D02*
X148951586Y-124204301D01*
X148951586Y-124204301D02*
X149230458Y-124483173D01*
%TO.N,Net-(U8-+)*%
X102155285Y-124079000D02*
X102559458Y-124483173D01*
X100076000Y-124079000D02*
X102155285Y-124079000D01*
%TO.N,Net-(U9-VIA)*%
X105537000Y-125236420D02*
X105537000Y-123190000D01*
X102376420Y-128397000D02*
X105537000Y-125236420D01*
X102235000Y-128397000D02*
X102376420Y-128397000D01*
%TO.N,RDY_B*%
X151834350Y-102616000D02*
X155956000Y-102616000D01*
X143598000Y-79574032D02*
X142494000Y-80678032D01*
X161710000Y-68072000D02*
X147828000Y-68072000D01*
X155956000Y-102616000D02*
X158623000Y-99949000D01*
X158623000Y-99949000D02*
X158623000Y-89535000D01*
X164465000Y-65317000D02*
X161710000Y-68072000D01*
X151003000Y-101600000D02*
X151003000Y-101784650D01*
X142875000Y-70739000D02*
X143598000Y-71462000D01*
X155448000Y-86360000D02*
X145034000Y-86360000D01*
X151003000Y-101784650D02*
X151834350Y-102616000D01*
X145034000Y-86360000D02*
X142938500Y-84264500D01*
X145161000Y-70739000D02*
X142875000Y-70739000D01*
X158623000Y-89535000D02*
X155448000Y-86360000D01*
X143598000Y-71462000D02*
X143598000Y-79574032D01*
X142938500Y-84264500D02*
X142938500Y-87058500D01*
X142494000Y-80678032D02*
X142494000Y-83820000D01*
X142938500Y-87058500D02*
X140589000Y-89408000D01*
X147828000Y-68072000D02*
X145161000Y-70739000D01*
X142494000Y-83820000D02*
X142938500Y-84264500D01*
%TO.N,FLT_B*%
X139593756Y-89614838D02*
X140910918Y-90932000D01*
X157861000Y-99568000D02*
X155846586Y-101582414D01*
X142025000Y-70065000D02*
X144780000Y-67310000D01*
X142025000Y-71413000D02*
X142025000Y-70065000D01*
X155846586Y-101582414D02*
X152002846Y-101582414D01*
X142748000Y-72136000D02*
X142025000Y-71413000D01*
X144780000Y-67310000D02*
X160188000Y-67310000D01*
X140910918Y-90932000D02*
X157099000Y-90932000D01*
X139593756Y-89505409D02*
X139593756Y-89614838D01*
X157099000Y-90932000D02*
X157861000Y-91694000D01*
X160188000Y-67310000D02*
X163830000Y-63668000D01*
X157861000Y-91694000D02*
X157861000Y-99568000D01*
%TO.N,RDY_C*%
X205740000Y-100203000D02*
X205740000Y-90170000D01*
X189801500Y-87185500D02*
X189801500Y-84137500D01*
X190334000Y-71462000D02*
X190334000Y-80176000D01*
X197993000Y-101727000D02*
X198921000Y-102655000D01*
X209931000Y-65278000D02*
X205559000Y-69650000D01*
X188722000Y-83058000D02*
X189738000Y-84074000D01*
X198921000Y-102655000D02*
X203288000Y-102655000D01*
X205740000Y-90170000D02*
X201168000Y-85598000D01*
X192351000Y-69650000D02*
X191389000Y-70612000D01*
X189484000Y-70612000D02*
X190334000Y-71462000D01*
X191262000Y-85598000D02*
X189801500Y-84137500D01*
X201168000Y-85598000D02*
X191262000Y-85598000D01*
X188722000Y-81788000D02*
X188722000Y-83058000D01*
X191389000Y-70612000D02*
X189484000Y-70612000D01*
X190334000Y-80176000D02*
X188722000Y-81788000D01*
X203288000Y-102655000D02*
X205740000Y-100203000D01*
X187579000Y-89408000D02*
X189801500Y-87185500D01*
X205559000Y-69650000D02*
X192351000Y-69650000D01*
%TO.N,FLT_C*%
X191770000Y-66929000D02*
X206035000Y-66929000D01*
X206035000Y-66929000D02*
X209296000Y-63668000D01*
X188634000Y-71159000D02*
X188634000Y-70065000D01*
X204978000Y-91821000D02*
X203708000Y-90551000D01*
X189484000Y-79738882D02*
X189484000Y-72009000D01*
X186436000Y-89408000D02*
X186436000Y-89348918D01*
X189064000Y-84483918D02*
X187960000Y-83379918D01*
X188634000Y-70065000D02*
X191770000Y-66929000D01*
X187960000Y-83379918D02*
X187960000Y-81262882D01*
X203708000Y-90551000D02*
X187519918Y-90551000D01*
X187519918Y-90551000D02*
X186436000Y-89467082D01*
X204978000Y-99441000D02*
X204978000Y-91821000D01*
X189484000Y-72009000D02*
X188634000Y-71159000D01*
X187960000Y-81262882D02*
X189484000Y-79738882D01*
X186436000Y-89467082D02*
X186436000Y-89408000D01*
X202819000Y-101600000D02*
X204978000Y-99441000D01*
X199136000Y-101600000D02*
X202819000Y-101600000D01*
X186436000Y-89348918D02*
X189064000Y-86720918D01*
X189064000Y-86720918D02*
X189064000Y-84483918D01*
%TO.N,~{RST_B}*%
X167728000Y-84924000D02*
X167728000Y-69762000D01*
X145542000Y-66040000D02*
X147320000Y-64262000D01*
X147320000Y-64262000D02*
X147320000Y-57912000D01*
X150368000Y-106045000D02*
X153035000Y-106045000D01*
X140462000Y-84328000D02*
X140462000Y-70151057D01*
X155194000Y-108204000D02*
X163322000Y-108204000D01*
X164084000Y-53340000D02*
X165354000Y-52070000D01*
X165608000Y-98044000D02*
X164846000Y-97282000D01*
X167728000Y-88304000D02*
X167728000Y-84924000D01*
X153035000Y-106045000D02*
X155194000Y-108204000D01*
X147320000Y-57912000D02*
X151892000Y-53340000D01*
X163322000Y-108204000D02*
X165608000Y-105918000D01*
X141224000Y-85090000D02*
X140462000Y-84328000D01*
X167728000Y-69762000D02*
X169672000Y-67818000D01*
X151892000Y-53340000D02*
X164084000Y-53340000D01*
X165608000Y-105918000D02*
X165608000Y-98044000D01*
X140462000Y-70151057D02*
X144573057Y-66040000D01*
X164846000Y-91186000D02*
X167728000Y-88304000D01*
X164846000Y-97282000D02*
X164846000Y-91186000D01*
X144573057Y-66040000D02*
X145542000Y-66040000D01*
%TO.N,~{RST_A}*%
X99314000Y-59984943D02*
X105196943Y-54102000D01*
X118110000Y-89916000D02*
X118110000Y-92456000D01*
X117094000Y-107950000D02*
X106172000Y-107950000D01*
X94234000Y-84836000D02*
X93218000Y-83820000D01*
X99314000Y-64516000D02*
X99314000Y-59984943D01*
X93218000Y-83820000D02*
X93218000Y-68580000D01*
X106172000Y-107950000D02*
X104394000Y-106172000D01*
X119888000Y-105156000D02*
X117094000Y-107950000D01*
X105196943Y-54102000D02*
X115586000Y-54102000D01*
X120904000Y-87122000D02*
X118110000Y-89916000D01*
X93218000Y-68580000D02*
X95758000Y-66040000D01*
X97790000Y-66040000D02*
X99314000Y-64516000D01*
X119888000Y-94234000D02*
X119888000Y-105156000D01*
X120904000Y-67818000D02*
X120904000Y-87122000D01*
X95758000Y-66040000D02*
X97790000Y-66040000D01*
X104394000Y-106172000D02*
X103378000Y-106172000D01*
X118110000Y-92456000D02*
X119888000Y-94234000D01*
X115586000Y-54102000D02*
X117602000Y-52086000D01*
%TO.N,~{RST_C}*%
X186690000Y-83312000D02*
X186690000Y-69850000D01*
X186690000Y-69850000D02*
X192278000Y-64262000D01*
X197358000Y-53848000D02*
X208534000Y-53848000D01*
X188214000Y-84836000D02*
X186690000Y-83312000D01*
X211074000Y-107696000D02*
X212598000Y-106172000D01*
X192278000Y-64262000D02*
X192278000Y-58928000D01*
X212598000Y-106172000D02*
X212598000Y-98806000D01*
X197374000Y-105934000D02*
X199136000Y-107696000D01*
X199136000Y-107696000D02*
X211074000Y-107696000D01*
X212598000Y-98806000D02*
X214884000Y-96520000D01*
X208534000Y-53848000D02*
X210312000Y-52070000D01*
X192278000Y-58928000D02*
X197358000Y-53848000D01*
X214884000Y-96520000D02*
X214884000Y-67818000D01*
%TD*%
M02*
