M48
; DRILL file {KiCad 8.0.5-8.0.5-0~ubuntu24.04.1} date 2024-10-22T13:12:23+0300
; FORMAT={-:-/ absolute / metric / decimal}
; #@! TF.CreationDate,2024-10-22T13:12:23+03:00
; #@! TF.GenerationSoftware,Kicad,Pcbnew,8.0.5-8.0.5-0~ubuntu24.04.1
; #@! TF.FileFunction,NonPlated,1,6,NPTH
FMAT,2
METRIC
; #@! TA.AperFunction,NonPlated,NPTH,ComponentDrill
T1C1.020
; #@! TA.AperFunction,NonPlated,NPTH,ComponentDrill
T2C3.500
; #@! TA.AperFunction,NonPlated,NPTH,ComponentDrill
T3C5.500
; #@! TA.AperFunction,NonPlated,NPTH,ComponentDrill
T4C6.000
; #@! TA.AperFunction,NonPlated,NPTH,ComponentDrill
T5C16.000
%
G90
G05
T1
X91.862Y-59.194
X112.862Y-59.194
X139.782Y-59.194
X160.782Y-59.194
X184.692Y-59.194
X205.692Y-59.194
T2
X76.75Y-60.5
X76.75Y-126.6
X127.35Y-60.5
X127.35Y-126.6
X174.65Y-60.5
X174.65Y-126.6
X225.25Y-60.5
X225.25Y-126.6
T3
X100.0Y-52.5
X187.0Y-134.5
T4
X94.66Y-142.875
X94.66Y-158.625
X121.94Y-142.875
X121.94Y-158.625
X141.691Y-142.875
X141.691Y-158.625
X168.971Y-142.875
X168.971Y-158.625
X188.691Y-142.875
X188.691Y-158.625
X215.971Y-142.875
X215.971Y-158.625
T5
X108.3Y-150.75
X155.331Y-150.75
X202.331Y-150.75
M30
