M48
; DRILL file {KiCad 8.0.4} date 2024-11-14T00:05:49+0300
; FORMAT={-:-/ absolute / inch / decimal}
; #@! TF.CreationDate,2024-11-14T00:05:49+03:00
; #@! TF.GenerationSoftware,Kicad,Pcbnew,8.0.4
; #@! TF.FileFunction,NonPlated,1,6,NPTH
FMAT,2
INCH
; #@! TA.AperFunction,NonPlated,NPTH,ComponentDrill
T1C0.0402
; #@! TA.AperFunction,NonPlated,NPTH,ComponentDrill
T2C0.1378
; #@! TA.AperFunction,NonPlated,NPTH,ComponentDrill
T3C0.2165
; #@! TA.AperFunction,NonPlated,NPTH,ComponentDrill
T4C0.2362
; #@! TA.AperFunction,NonPlated,NPTH,ComponentDrill
T5C0.6299
%
G90
G05
T1
X3.6166Y-2.3305
X4.4434Y-2.3305
X5.5032Y-2.3305
X6.33Y-2.3305
X7.2713Y-2.3305
X8.0981Y-2.3305
T2
X3.0217Y-2.3819
X3.0217Y-4.9843
X5.0138Y-2.3819
X5.0138Y-4.9843
X6.876Y-2.3819
X6.876Y-4.9843
X8.8681Y-2.3819
X8.8681Y-4.9843
T3
X3.937Y-2.0669
X7.3622Y-5.2953
T4
X3.7268Y-5.625
X3.7268Y-6.2451
X4.8008Y-5.625
X4.8008Y-6.2451
X5.5784Y-5.625
X5.5784Y-6.2451
X6.6524Y-5.625
X6.6524Y-6.2451
X7.4288Y-5.625
X7.4288Y-6.2451
X8.5028Y-5.625
X8.5028Y-6.2451
T5
X4.2638Y-5.935
X6.1154Y-5.935
X7.9658Y-5.935
M30
