%TF.GenerationSoftware,KiCad,Pcbnew,(6.0.1)*%
%TF.CreationDate,2023-04-20T11:25:51+03:00*%
%TF.ProjectId,Adapter,41646170-7465-4722-9e6b-696361645f70,rev?*%
%TF.SameCoordinates,Original*%
%TF.FileFunction,Copper,L3,Inr*%
%TF.FilePolarity,Positive*%
%FSLAX46Y46*%
G04 Gerber Fmt 4.6, Leading zero omitted, Abs format (unit mm)*
G04 Created by KiCad (PCBNEW (6.0.1)) date 2023-04-20 11:25:51*
%MOMM*%
%LPD*%
G01*
G04 APERTURE LIST*
%TA.AperFunction,ComponentPad*%
%ADD10C,1.500000*%
%TD*%
%TA.AperFunction,ComponentPad*%
%ADD11C,2.500000*%
%TD*%
%TA.AperFunction,ComponentPad*%
%ADD12R,1.500000X2.300000*%
%TD*%
%TA.AperFunction,ComponentPad*%
%ADD13O,1.500000X2.300000*%
%TD*%
%TA.AperFunction,ViaPad*%
%ADD14C,0.800000*%
%TD*%
%TA.AperFunction,Conductor*%
%ADD15C,1.000000*%
%TD*%
%TA.AperFunction,Conductor*%
%ADD16C,0.500000*%
%TD*%
G04 APERTURE END LIST*
D10*
%TO.N,GND*%
%TO.C,D49*%
X113360000Y-100330000D03*
%TO.N,+15V*%
X113360000Y-97790000D03*
%TO.N,unconnected-(D49-Pad3)*%
X113360000Y-95250000D03*
%TO.N,+15V_L1*%
X113360000Y-87630000D03*
%TO.N,E2*%
X113360000Y-85090000D03*
%TO.N,-15V_L1*%
X113360000Y-82550000D03*
%TD*%
%TO.N,GND*%
%TO.C,D52*%
X129210000Y-82374000D03*
%TO.N,+15V*%
X129210000Y-84914000D03*
%TO.N,unconnected-(D52-Pad3)*%
X129210000Y-87454000D03*
%TO.N,+15V_H2*%
X129210000Y-95074000D03*
%TO.N,E3*%
X129210000Y-97614000D03*
%TO.N,-15V_H2*%
X129210000Y-100154000D03*
%TD*%
%TO.N,GND*%
%TO.C,D50*%
X82550000Y-82374000D03*
%TO.N,+15V*%
X82550000Y-84914000D03*
%TO.N,unconnected-(D50-Pad3)*%
X82550000Y-87454000D03*
%TO.N,+15V_H1*%
X82550000Y-95074000D03*
%TO.N,E1*%
X82550000Y-97614000D03*
%TO.N,-15V_H1*%
X82550000Y-100154000D03*
%TD*%
%TO.N,GND*%
%TO.C,D51*%
X161620000Y-100330000D03*
%TO.N,+15V*%
X161620000Y-97790000D03*
%TO.N,unconnected-(D51-Pad3)*%
X161620000Y-95250000D03*
%TO.N,+15V_L2*%
X161620000Y-87630000D03*
%TO.N,E4*%
X161620000Y-85090000D03*
%TO.N,-15V_L2*%
X161620000Y-82550000D03*
%TD*%
%TO.N,GND*%
%TO.C,D53*%
X208915000Y-100506000D03*
%TO.N,+15V*%
X208915000Y-97966000D03*
%TO.N,unconnected-(D53-Pad3)*%
X208915000Y-95426000D03*
%TO.N,+15V_L3*%
X208915000Y-87806000D03*
%TO.N,E6*%
X208915000Y-85266000D03*
%TO.N,-15V_L3*%
X208915000Y-82726000D03*
%TD*%
D11*
%TO.N,C1*%
%TO.C,J1*%
X121950000Y-122350000D03*
%TO.N,C2*%
X87800000Y-71350000D03*
%TO.N,E1*%
X93800000Y-119650000D03*
%TO.N,E2*%
X104000000Y-71350000D03*
%TO.N,G1*%
X89750000Y-119650000D03*
%TO.N,G2*%
X108050000Y-71350000D03*
%TO.N,T1*%
X123350000Y-104350000D03*
%TO.N,T2*%
X123350000Y-111850000D03*
%TO.N,C3*%
X168950000Y-122350000D03*
%TO.N,C4*%
X134800000Y-71350000D03*
%TO.N,E3*%
X140800000Y-119650000D03*
%TO.N,E4*%
X151000000Y-71350000D03*
%TO.N,G3*%
X136750000Y-119650000D03*
%TO.N,G4*%
X155050000Y-71350000D03*
%TO.N,T3*%
X170350000Y-104350000D03*
%TO.N,T4*%
X170350000Y-111850000D03*
%TO.N,C5*%
X215950000Y-122350000D03*
%TO.N,C6*%
X181800000Y-71350000D03*
%TO.N,E5*%
X187800000Y-119650000D03*
%TO.N,E6*%
X198000000Y-71350000D03*
%TO.N,G5*%
X183750000Y-119650000D03*
%TO.N,G6*%
X202050000Y-71350000D03*
%TO.N,T5*%
X217350000Y-104350000D03*
%TO.N,T6*%
X217350000Y-111850000D03*
%TD*%
D10*
%TO.N,GND*%
%TO.C,D54*%
X177470000Y-82374000D03*
%TO.N,+15V*%
X177470000Y-84914000D03*
%TO.N,unconnected-(D54-Pad3)*%
X177470000Y-87454000D03*
%TO.N,+15V_H3*%
X177470000Y-95074000D03*
%TO.N,E5*%
X177470000Y-97614000D03*
%TO.N,-15V_H3*%
X177470000Y-100154000D03*
%TD*%
D12*
%TO.N,+15V*%
%TO.C,U1*%
X50038000Y-56261000D03*
D13*
%TO.N,GND*%
X47498000Y-56261000D03*
%TO.N,+3V3*%
X44958000Y-56261000D03*
%TD*%
D14*
%TO.N,E1*%
X89535000Y-97790000D03*
X86360000Y-116205000D03*
%TO.N,E2*%
X109220000Y-74295000D03*
X105613000Y-84658000D03*
%TO.N,E3*%
X136525000Y-97790000D03*
X133350000Y-116205000D03*
%TO.N,E4*%
X153035000Y-85090000D03*
X156972000Y-74295000D03*
%TO.N,T3*%
X217265500Y-95662500D03*
%TO.N,T4*%
X217186000Y-99552000D03*
%TO.N,E5*%
X181610000Y-116205000D03*
X184785000Y-97790000D03*
%TO.N,E6*%
X205232000Y-74168000D03*
X201295000Y-85090000D03*
X224296000Y-85838000D03*
%TO.N,Net-(C1-Pad1)*%
X59190000Y-105656000D03*
%TO.N,GND*%
X53721000Y-122809000D03*
X101803000Y-97587000D03*
X113284000Y-55880000D03*
X198628000Y-113284000D03*
X70916800Y-69342000D03*
X66040000Y-115849020D03*
X146685000Y-97790000D03*
X61214000Y-92583000D03*
X93425000Y-78660000D03*
X101600000Y-106045000D03*
X196850000Y-106045000D03*
X55880000Y-91821000D03*
X151384000Y-51070000D03*
X204470000Y-97790000D03*
X70866000Y-61722000D03*
X177800000Y-72390000D03*
X130810000Y-72390000D03*
X66548000Y-93472000D03*
X55815000Y-102805000D03*
X50927000Y-66040000D03*
X219456000Y-112776000D03*
X188531500Y-78041500D03*
X112014000Y-51054000D03*
X148590000Y-106045000D03*
X140335000Y-85090000D03*
X133985000Y-85090000D03*
X87122000Y-84963000D03*
X57531000Y-115570000D03*
X66548000Y-86741000D03*
X191135000Y-85090000D03*
X156845000Y-104140000D03*
X201295000Y-107950000D03*
X182245000Y-85090000D03*
X153670000Y-107950000D03*
X142875000Y-85090000D03*
X93421000Y-85166000D03*
X99263000Y-97587000D03*
X93472000Y-69088000D03*
X188595000Y-85090000D03*
X57658000Y-72898000D03*
X109220000Y-98425000D03*
X62230000Y-122809000D03*
X142240000Y-69088000D03*
X194945000Y-97790000D03*
X219521000Y-120585000D03*
X63881000Y-50308000D03*
X156972000Y-120650000D03*
X152654000Y-55896000D03*
X48879000Y-115570000D03*
X47244000Y-131064000D03*
X55880000Y-114046000D03*
X61235500Y-81407000D03*
X84455000Y-73660000D03*
X47244000Y-132461000D03*
X106045000Y-107950000D03*
X63895200Y-58053200D03*
X61214000Y-103505000D03*
X70993000Y-54118000D03*
X109728000Y-120650000D03*
X149225000Y-97790000D03*
X47498000Y-59817000D03*
X140335000Y-78105000D03*
X104140000Y-114046000D03*
X109220000Y-104140000D03*
X189738000Y-51054000D03*
X203200000Y-120396000D03*
X197485000Y-97790000D03*
X63819000Y-65546200D03*
X66548000Y-99949000D03*
X188722000Y-70866000D03*
X156210000Y-97790000D03*
X205105000Y-104140000D03*
X151384000Y-114300000D03*
X191008000Y-55880000D03*
X45069000Y-122936000D03*
X95961000Y-85166000D03*
%TO.N,Net-(C2-Pad1)*%
X59190000Y-112514000D03*
%TO.N,Net-(C3-Pad1)*%
X59198000Y-107950000D03*
%TO.N,Net-(C4-Pad1)*%
X59198000Y-110236000D03*
%TO.N,FAULT_1*%
X57658000Y-77978000D03*
X49149000Y-112903000D03*
%TO.N,FLT_H1*%
X62611000Y-105664000D03*
X84455000Y-69850000D03*
%TO.N,FLT_L1*%
X62611000Y-107950000D03*
X104775000Y-132994020D03*
X106680000Y-111760000D03*
%TO.N,RDY_L1*%
X104775000Y-134112000D03*
X62611000Y-112522000D03*
X106680000Y-114300000D03*
%TO.N,RDY_H1*%
X84455000Y-67310000D03*
X62611000Y-110236000D03*
X92075000Y-77470000D03*
%TO.N,Net-(C6-Pad1)*%
X100330000Y-106680000D03*
%TO.N,Net-(C9-Pad1)*%
X59214000Y-94488000D03*
%TO.N,Net-(C10-Pad1)*%
X59198000Y-101346000D03*
%TO.N,Net-(C11-Pad1)*%
X59214000Y-96773000D03*
%TO.N,Net-(C12-Pad1)*%
X59214000Y-99060000D03*
%TO.N,Net-(C13-Pad1)*%
X59182000Y-83439000D03*
%TO.N,Net-(C14-Pad1)*%
X59182000Y-90297000D03*
%TO.N,Net-(C15-Pad1)*%
X59182000Y-85725000D03*
%TO.N,Net-(C16-Pad1)*%
X59182000Y-88011000D03*
%TO.N,Net-(C18-Pad1)*%
X147320000Y-106680000D03*
%TO.N,Net-(C22-Pad1)*%
X195580000Y-106680000D03*
%TO.N,+15V*%
X48514000Y-136144000D03*
X45974000Y-136144000D03*
%TO.N,+3.3VA*%
X223078500Y-99247500D03*
X221996000Y-85852000D03*
X226806000Y-88916000D03*
X226060000Y-106172000D03*
%TO.N,Net-(D15-Pad1)*%
X100330000Y-111760000D03*
X50165000Y-115570000D03*
X64770000Y-84455000D03*
%TO.N,Net-(D14-Pad1)*%
X66294000Y-73152000D03*
X95250000Y-71120000D03*
X70916800Y-70612000D03*
X64770000Y-83185000D03*
%TO.N,Net-(D2-Pad4)*%
X99060000Y-106045000D03*
X93980000Y-76200000D03*
X70805000Y-85405000D03*
%TO.N,FAULT_2*%
X49149000Y-101727000D03*
X57658000Y-76708000D03*
%TO.N,+3V3*%
X51354000Y-122871000D03*
X226060000Y-112776000D03*
X63881000Y-56531000D03*
X197358000Y-121412000D03*
X122825000Y-73517000D03*
X75835000Y-76565000D03*
X49149000Y-94107000D03*
X135255000Y-85090000D03*
X88392000Y-84963000D03*
X117602000Y-52070000D03*
X156972000Y-52086000D03*
X195326000Y-52324000D03*
X63881000Y-64135000D03*
X49149000Y-80518000D03*
X49149000Y-105283000D03*
X69342000Y-89281000D03*
X59944000Y-122809000D03*
X183515000Y-85090000D03*
X143256000Y-82804000D03*
X154305000Y-97790000D03*
X63804800Y-71882000D03*
X49149000Y-72009000D03*
X210550000Y-108204000D03*
X69295000Y-82216000D03*
X226060000Y-114046000D03*
X169545000Y-73025000D03*
X149352000Y-119126000D03*
X99060000Y-99695000D03*
X69295000Y-95551000D03*
X146050000Y-99695000D03*
X68707000Y-122809000D03*
X115300000Y-108585000D03*
X194310000Y-99695000D03*
X162925000Y-108585000D03*
X202565000Y-97790000D03*
X49149000Y-83058000D03*
X96200000Y-82865000D03*
X106680000Y-98425000D03*
X102108000Y-119126000D03*
X191516000Y-82931000D03*
%TO.N,FAULT_3*%
X57658000Y-75438000D03*
X49149000Y-90678000D03*
%TO.N,Net-(D6-Pad1)*%
X142240000Y-71120000D03*
X66040000Y-89408000D03*
X70866000Y-62992000D03*
%TO.N,Net-(D56-Pad1)*%
X146050000Y-106045000D03*
X140970000Y-76200000D03*
X70800000Y-92390000D03*
%TO.N,Net-(D7-Pad1)*%
X58801000Y-115570000D03*
X147320000Y-111760000D03*
X64770000Y-92202000D03*
%TO.N,FLT_H2*%
X62611000Y-94488000D03*
X130810000Y-74930000D03*
X123571000Y-61087000D03*
X130810000Y-69850000D03*
%TO.N,FLT_L2*%
X154305000Y-111760000D03*
X65278000Y-104902000D03*
X149860000Y-131699000D03*
X62610000Y-96773000D03*
%TO.N,RDY_L2*%
X154305000Y-114300000D03*
X62611000Y-101346000D03*
X149987000Y-132969000D03*
%TO.N,RDY_H2*%
X62611000Y-99060000D03*
X130810000Y-67310000D03*
X139065000Y-77470000D03*
X123571000Y-62420500D03*
X63754000Y-81026000D03*
X133477000Y-77470000D03*
%TO.N,FLT_H3*%
X177800000Y-69850000D03*
X62611000Y-83439000D03*
%TO.N,FLT_L3*%
X62611000Y-85725000D03*
X198755000Y-121412000D03*
X201930000Y-111760000D03*
%TO.N,RDY_L3*%
X201930000Y-114300000D03*
X62611000Y-90297000D03*
X200152000Y-121412000D03*
X65278000Y-103251000D03*
%TO.N,RDY_H3*%
X177800000Y-67310000D03*
X64897000Y-88011000D03*
X187325000Y-77470000D03*
X62611000Y-88011000D03*
X181737000Y-77470000D03*
%TO.N,PWM2_L_P*%
X59452000Y-60087000D03*
X54864000Y-131064000D03*
%TO.N,PWM2_L_N*%
X56134000Y-135382000D03*
X59452000Y-62087000D03*
%TO.N,ERR_P*%
X49784000Y-131064000D03*
X46990000Y-68108000D03*
%TO.N,ERR_N*%
X51054000Y-135382000D03*
X46990000Y-70104000D03*
%TO.N,PWM1_L_P*%
X57404000Y-131064000D03*
X59359800Y-67691000D03*
%TO.N,PWM1_L_N*%
X58674000Y-135382000D03*
X59359800Y-69723000D03*
%TO.N,Net-(D16-Pad1)*%
X191135000Y-70866000D03*
X70993000Y-55388000D03*
X66548000Y-95504000D03*
%TO.N,Net-(D17-Pad1)*%
X69088000Y-117856000D03*
X195580000Y-111760000D03*
X65278000Y-97790000D03*
%TO.N,RST_H1*%
X119380000Y-55626000D03*
X88900000Y-78740000D03*
%TO.N,RST_L1*%
X102108000Y-114046000D03*
X106680000Y-104140000D03*
%TO.N,RST_H2*%
X158750000Y-55896000D03*
X136017000Y-78486000D03*
%TO.N,RST_L2*%
X149098000Y-114300000D03*
X154305000Y-104140000D03*
%TO.N,RST_H3*%
X184404000Y-78486000D03*
X197104000Y-55626000D03*
%TO.N,RST_L3*%
X197358000Y-111760000D03*
X202565000Y-104140000D03*
%TO.N,Reset*%
X159258000Y-120650000D03*
X44704000Y-131064000D03*
X112014000Y-120650000D03*
X185166000Y-51054000D03*
X107442000Y-51054000D03*
X207772000Y-120396000D03*
X146812000Y-51070000D03*
%TO.N,PWM3_L_P*%
X59452000Y-52483000D03*
X52324000Y-131064000D03*
%TO.N,PWM3_L_N*%
X59452000Y-54483000D03*
X53594000Y-135382000D03*
%TO.N,Net-(D18-Pad4)*%
X70866000Y-98806000D03*
X194310000Y-106045000D03*
X189865000Y-76581000D03*
%TO.N,Temp_P*%
X87757000Y-135382000D03*
X218948000Y-124460000D03*
X70612000Y-136144000D03*
%TO.N,Temp_N*%
X70612000Y-131689200D03*
X218948000Y-126492000D03*
%TO.N,-15V_L2*%
X155575000Y-85090000D03*
X146685000Y-85090000D03*
X163195000Y-74295000D03*
%TO.N,Net-(C61-Pad1)*%
X86360000Y-104140000D03*
%TO.N,-15V_L3*%
X217148500Y-91461500D03*
X222128500Y-93847500D03*
X219696000Y-85838000D03*
X211455000Y-74295000D03*
X226806000Y-94218000D03*
X203835000Y-85090000D03*
X194945000Y-85090000D03*
X219456000Y-106172000D03*
%TO.N,-15V_L1*%
X99263000Y-84658000D03*
X108153000Y-85522000D03*
X118745000Y-74295000D03*
%TO.N,Net-(C62-Pad1)*%
X109220000Y-82550000D03*
%TO.N,Net-(C67-Pad1)*%
X133350000Y-104140000D03*
%TO.N,Net-(C68-Pad1)*%
X156845000Y-82550000D03*
%TO.N,Net-(C73-Pad1)*%
X181610000Y-104140000D03*
%TO.N,Net-(C74-Pad1)*%
X205232000Y-82550000D03*
%TO.N,+15V_L1*%
X115570000Y-74295000D03*
X103073000Y-84658000D03*
%TO.N,+15V_H1*%
X82550000Y-108585000D03*
X92075000Y-97790000D03*
%TO.N,-15V_H1*%
X95961000Y-97714000D03*
X86995000Y-97790000D03*
X78740000Y-108585000D03*
%TO.N,+15V_L2*%
X166370000Y-74295000D03*
X150495000Y-85090000D03*
%TO.N,+15V_H2*%
X139065000Y-97790000D03*
X127000000Y-108585000D03*
%TO.N,-15V_H2*%
X133985000Y-97790000D03*
X130810000Y-108585000D03*
X142875000Y-97790000D03*
%TO.N,+15V_L3*%
X214630000Y-74295000D03*
X198755000Y-85090000D03*
%TO.N,+15V_H3*%
X187325000Y-97790000D03*
X174498000Y-108458000D03*
%TO.N,-15V_H3*%
X178054000Y-108458000D03*
X191135000Y-97790000D03*
X182245000Y-97790000D03*
%TO.N,Net-(D12-Pad2)*%
X111760000Y-106680000D03*
%TO.N,Net-(D13-Pad2)*%
X111760000Y-109220000D03*
%TO.N,Net-(D21-Pad2)*%
X79375000Y-74930000D03*
%TO.N,Net-(D22-Pad2)*%
X79375000Y-72390000D03*
%TO.N,Net-(D23-Pad2)*%
X159385000Y-106680000D03*
%TO.N,Net-(D24-Pad2)*%
X159385000Y-109220000D03*
%TO.N,Net-(D25-Pad2)*%
X125984000Y-74930000D03*
%TO.N,Net-(D26-Pad2)*%
X125984000Y-72390000D03*
%TO.N,Net-(D27-Pad2)*%
X207010000Y-106680000D03*
%TO.N,Net-(D28-Pad2)*%
X207010000Y-109220000D03*
%TO.N,Net-(D29-Pad2)*%
X172720000Y-74930000D03*
%TO.N,Net-(D30-Pad2)*%
X172720000Y-72390000D03*
%TD*%
D15*
%TO.N,T3*%
X198089056Y-116586000D02*
X208026000Y-116586000D01*
X179832000Y-106934000D02*
X179832000Y-120396000D01*
X170350000Y-104350000D02*
X177248000Y-104350000D01*
X195580000Y-119095056D02*
X198089056Y-116586000D01*
X195580000Y-119126000D02*
X195580000Y-119095056D01*
X208026000Y-116586000D02*
X213106000Y-111506000D01*
X181610000Y-122174000D02*
X192532000Y-122174000D01*
X177248000Y-104350000D02*
X179832000Y-106934000D01*
X179832000Y-120396000D02*
X181610000Y-122174000D01*
X213106000Y-111506000D02*
X213106000Y-99822000D01*
X192532000Y-122174000D02*
X195580000Y-119126000D01*
X213106000Y-99822000D02*
X217265500Y-95662500D01*
%TO.N,T4*%
X181102000Y-123444000D02*
X193040000Y-123444000D01*
X214305520Y-102432480D02*
X217186000Y-99552000D01*
X214305520Y-112002857D02*
X214305520Y-102432480D01*
X193040000Y-123444000D02*
X198628000Y-117856000D01*
X198628000Y-117856000D02*
X208452377Y-117856000D01*
X170350000Y-111850000D02*
X176112000Y-111850000D01*
X178562000Y-120904000D02*
X181102000Y-123444000D01*
X208452377Y-117856000D02*
X214305520Y-112002857D01*
X176112000Y-111850000D02*
X178562000Y-114300000D01*
X178562000Y-114300000D02*
X178562000Y-120904000D01*
D16*
%TO.N,FAULT_1*%
X53721000Y-103886000D02*
X53721000Y-80772000D01*
X48387000Y-109220000D02*
X53721000Y-103886000D01*
X49149000Y-112903000D02*
X48387000Y-112141000D01*
X56515000Y-77978000D02*
X57658000Y-77978000D01*
X48387000Y-112141000D02*
X48387000Y-109220000D01*
X53721000Y-80772000D02*
X56515000Y-77978000D01*
%TO.N,FLT_L1*%
X91188040Y-132844040D02*
X66294000Y-107950000D01*
X66294000Y-107950000D02*
X62611000Y-107950000D01*
X104625020Y-132844040D02*
X91188040Y-132844040D01*
X104775000Y-132994020D02*
X104625020Y-132844040D01*
%TO.N,RDY_L1*%
X69723000Y-112522000D02*
X62611000Y-112522000D01*
X104183589Y-133604000D02*
X90805000Y-133604000D01*
X104691589Y-134112000D02*
X104183589Y-133604000D01*
X104775000Y-134112000D02*
X104691589Y-134112000D01*
X90805000Y-133604000D02*
X69723000Y-112522000D01*
%TO.N,FAULT_2*%
X52959000Y-93091000D02*
X52959000Y-80417730D01*
X52959000Y-80417730D02*
X56668730Y-76708000D01*
X56668730Y-76708000D02*
X57658000Y-76708000D01*
X48387000Y-97663000D02*
X52959000Y-93091000D01*
X48387000Y-100965000D02*
X48387000Y-97663000D01*
X49149000Y-101727000D02*
X48387000Y-100965000D01*
%TO.N,FAULT_3*%
X52197000Y-83185000D02*
X52197000Y-80137000D01*
X56896000Y-75438000D02*
X57658000Y-75438000D01*
X48387000Y-86995000D02*
X52197000Y-83185000D01*
X52197000Y-80137000D02*
X56896000Y-75438000D01*
X48387000Y-89916000D02*
X48387000Y-86995000D01*
X49149000Y-90678000D02*
X48387000Y-89916000D01*
%TO.N,Net-(D56-Pad1)*%
X70800000Y-92390000D02*
X74676000Y-96266000D01*
X140970000Y-69723000D02*
X136144000Y-64897000D01*
X126084271Y-115570001D02*
X133589270Y-123075000D01*
X120650000Y-115570000D02*
X126084271Y-115570001D01*
X146050000Y-120650000D02*
X146050000Y-106045000D01*
X74676000Y-110109000D02*
X87757000Y-123190000D01*
X136144000Y-64897000D02*
X83185000Y-64897000D01*
X74676000Y-96266000D02*
X74676000Y-110109000D01*
X113030000Y-123190000D02*
X120650000Y-115570000D01*
X79023120Y-69000489D02*
X74676000Y-73347609D01*
X74676000Y-88514000D02*
X70800000Y-92390000D01*
X87757000Y-123190000D02*
X113030000Y-123190000D01*
X140970000Y-76200000D02*
X140970000Y-69723000D01*
X79081511Y-69000489D02*
X79023120Y-69000489D01*
X143625000Y-123075000D02*
X146050000Y-120650000D01*
X83185000Y-64897000D02*
X79081511Y-69000489D01*
X74676000Y-73347609D02*
X74676000Y-88514000D01*
X133589270Y-123075000D02*
X143625000Y-123075000D01*
%TO.N,FLT_H2*%
X62611000Y-92202000D02*
X62611000Y-94488000D01*
X62085011Y-82186989D02*
X61214000Y-83058000D01*
X63841511Y-80176489D02*
X63402120Y-80176489D01*
X123571000Y-61087000D02*
X122809000Y-61849000D01*
X61214000Y-83058000D02*
X61214000Y-90805000D01*
X63402120Y-80176489D02*
X62085011Y-81493598D01*
X61214000Y-90805000D02*
X62611000Y-92202000D01*
X122809000Y-61849000D02*
X82169000Y-61849000D01*
X62085011Y-81493598D02*
X62085011Y-82186989D01*
X82169000Y-61849000D02*
X63841511Y-80176489D01*
%TO.N,FLT_L2*%
X126365000Y-122555000D02*
X121920000Y-127000000D01*
X65405000Y-104902000D02*
X65278000Y-104902000D01*
X147960041Y-129799041D02*
X137345500Y-129799040D01*
X137345500Y-129799040D02*
X130101460Y-122555000D01*
X87503000Y-127000000D02*
X65405000Y-104902000D01*
X121920000Y-127000000D02*
X87503000Y-127000000D01*
X149860000Y-131699000D02*
X147960041Y-129799041D01*
X130101460Y-122555000D02*
X126365000Y-122555000D01*
%TO.N,RDY_L2*%
X87186520Y-127699520D02*
X65913000Y-106426000D01*
X65913000Y-106426000D02*
X65151000Y-106426000D01*
X147458170Y-130498561D02*
X137055749Y-130498559D01*
X126730551Y-123254520D02*
X122285551Y-127699520D01*
X65151000Y-106426000D02*
X62611000Y-103886000D01*
X149987000Y-132969000D02*
X149928609Y-132969000D01*
X122285551Y-127699520D02*
X87186520Y-127699520D01*
X137055749Y-130498559D02*
X129811710Y-123254520D01*
X149928609Y-132969000D02*
X147458170Y-130498561D01*
X129811710Y-123254520D02*
X126730551Y-123254520D01*
X62611000Y-103886000D02*
X62611000Y-101346000D01*
%TO.N,RDY_H2*%
X133477000Y-77470000D02*
X135001000Y-75946000D01*
X63754000Y-81026000D02*
X64008000Y-81026000D01*
X137541000Y-75946000D02*
X139065000Y-77470000D01*
X64008000Y-81026000D02*
X82423000Y-62611000D01*
X123380500Y-62611000D02*
X123571000Y-62420500D01*
X82423000Y-62611000D02*
X123380500Y-62611000D01*
X135001000Y-75946000D02*
X137541000Y-75946000D01*
%TO.N,FLT_H3*%
X62611000Y-83434069D02*
X62611000Y-83439000D01*
X178689000Y-68961000D02*
X178689000Y-66997609D01*
X177800000Y-69850000D02*
X178689000Y-68961000D01*
X175064391Y-63373000D02*
X82672069Y-63373000D01*
X178689000Y-66997609D02*
X175064391Y-63373000D01*
X82672069Y-63373000D02*
X62611000Y-83434069D01*
%TO.N,FLT_L3*%
X179932270Y-126238000D02*
X176819751Y-123125481D01*
X193929000Y-126238000D02*
X179932270Y-126238000D01*
X172784520Y-123125480D02*
X170560489Y-125349511D01*
X87440520Y-123889520D02*
X63627000Y-100076000D01*
X176819751Y-123125481D02*
X172784520Y-123125480D01*
X198755000Y-121412000D02*
X193929000Y-126238000D01*
X63627000Y-86741000D02*
X62611000Y-85725000D01*
X125794520Y-116269520D02*
X120939750Y-116269520D01*
X120939750Y-116269520D02*
X113319750Y-123889520D01*
X170560489Y-125349511D02*
X134874511Y-125349511D01*
X113319750Y-123889520D02*
X87440520Y-123889520D01*
X63627000Y-100076000D02*
X63627000Y-86741000D01*
X134874511Y-125349511D02*
X125794520Y-116269520D01*
%TO.N,RDY_L3*%
X197104000Y-124460000D02*
X200152000Y-121412000D01*
X121229500Y-116969040D02*
X125504770Y-116969040D01*
X179705000Y-127000000D02*
X194310000Y-127000000D01*
X125504770Y-116969040D02*
X134584761Y-126049031D01*
X170850239Y-126049031D02*
X173074270Y-123825000D01*
X196850000Y-124460000D02*
X197104000Y-124460000D01*
X194310000Y-127000000D02*
X196850000Y-124460000D01*
X173074270Y-123825000D02*
X176530000Y-123825000D01*
X65278000Y-103251000D02*
X86616040Y-124589040D01*
X113609500Y-124589040D02*
X121229500Y-116969040D01*
X86616040Y-124589040D02*
X113609500Y-124589040D01*
X134584761Y-126049031D02*
X170850239Y-126049031D01*
X176530000Y-123825000D02*
X179705000Y-127000000D01*
%TO.N,RDY_H3*%
X73787000Y-73247339D02*
X73787000Y-85852000D01*
X174625000Y-64135000D02*
X82899339Y-64135000D01*
X73787000Y-85852000D02*
X71628000Y-88011000D01*
X71628000Y-88011000D02*
X64897000Y-88011000D01*
X82899339Y-64135000D02*
X73787000Y-73247339D01*
X177800000Y-67310000D02*
X174625000Y-64135000D01*
%TO.N,Temp_N*%
X132274521Y-129099521D02*
X120836479Y-129099521D01*
X91898521Y-137999521D02*
X82998521Y-129099521D01*
X111936479Y-137999521D02*
X91898521Y-137999521D01*
X82998521Y-129099521D02*
X77656479Y-129099521D01*
X216340479Y-129099521D02*
X159825479Y-129099521D01*
X70689711Y-131611489D02*
X70612000Y-131689200D01*
X218948000Y-126492000D02*
X216340479Y-129099521D01*
X77656479Y-129099521D02*
X75144511Y-131611489D01*
X138430000Y-135255000D02*
X132274521Y-129099521D01*
X159825479Y-129099521D02*
X153670000Y-135255000D01*
X153670000Y-135255000D02*
X138430000Y-135255000D01*
X75144511Y-131611489D02*
X70689711Y-131611489D01*
X120836479Y-129099521D02*
X111936479Y-137999521D01*
%TD*%
%TA.AperFunction,Conductor*%
%TO.N,-15V_L3*%
G36*
X221100503Y-85364002D02*
G01*
X221146996Y-85417658D01*
X221157100Y-85487932D01*
X221152215Y-85508936D01*
X221102458Y-85662072D01*
X221082496Y-85852000D01*
X221083186Y-85858565D01*
X221100987Y-86027928D01*
X221102458Y-86041928D01*
X221161473Y-86223556D01*
X221256960Y-86388944D01*
X221261378Y-86393851D01*
X221261379Y-86393852D01*
X221380325Y-86525955D01*
X221384747Y-86530866D01*
X221539248Y-86643118D01*
X221545276Y-86645802D01*
X221545278Y-86645803D01*
X221682267Y-86706794D01*
X221713712Y-86720794D01*
X221807113Y-86740647D01*
X221894056Y-86759128D01*
X221894061Y-86759128D01*
X221900513Y-86760500D01*
X222091487Y-86760500D01*
X222097939Y-86759128D01*
X222097944Y-86759128D01*
X222184887Y-86740647D01*
X222278288Y-86720794D01*
X222309733Y-86706794D01*
X222446722Y-86645803D01*
X222446724Y-86645802D01*
X222452752Y-86643118D01*
X222607253Y-86530866D01*
X222611675Y-86525955D01*
X222730621Y-86393852D01*
X222730622Y-86393851D01*
X222735040Y-86388944D01*
X222830527Y-86223556D01*
X222889542Y-86041928D01*
X222891014Y-86027928D01*
X222908814Y-85858565D01*
X222909504Y-85852000D01*
X222889542Y-85662072D01*
X222839785Y-85508936D01*
X222837757Y-85437969D01*
X222874420Y-85377171D01*
X222938132Y-85345845D01*
X222959618Y-85344000D01*
X223327833Y-85344000D01*
X223395954Y-85364002D01*
X223442447Y-85417658D01*
X223452551Y-85487932D01*
X223447666Y-85508936D01*
X223402458Y-85648072D01*
X223401768Y-85654633D01*
X223401768Y-85654635D01*
X223400297Y-85668635D01*
X223382496Y-85838000D01*
X223402458Y-86027928D01*
X223461473Y-86209556D01*
X223556960Y-86374944D01*
X223561378Y-86379851D01*
X223561379Y-86379852D01*
X223573985Y-86393852D01*
X223684747Y-86516866D01*
X223839248Y-86629118D01*
X223845276Y-86631802D01*
X223845278Y-86631803D01*
X223876723Y-86645803D01*
X224013712Y-86706794D01*
X224107112Y-86726647D01*
X224194056Y-86745128D01*
X224194061Y-86745128D01*
X224200513Y-86746500D01*
X224391487Y-86746500D01*
X224397939Y-86745128D01*
X224397944Y-86745128D01*
X224484888Y-86726647D01*
X224578288Y-86706794D01*
X224715277Y-86645803D01*
X224746722Y-86631803D01*
X224746724Y-86631802D01*
X224752752Y-86629118D01*
X224907253Y-86516866D01*
X225018015Y-86393852D01*
X225030621Y-86379852D01*
X225030622Y-86379851D01*
X225035040Y-86374944D01*
X225130527Y-86209556D01*
X225189542Y-86027928D01*
X225209504Y-85838000D01*
X225191703Y-85668635D01*
X225190232Y-85654635D01*
X225190232Y-85654633D01*
X225189542Y-85648072D01*
X225144334Y-85508936D01*
X225142307Y-85437968D01*
X225178969Y-85377171D01*
X225242681Y-85345845D01*
X225264167Y-85344000D01*
X227458000Y-85344000D01*
X227526121Y-85364002D01*
X227572614Y-85417658D01*
X227584000Y-85470000D01*
X227584000Y-88110994D01*
X227563998Y-88179115D01*
X227510342Y-88225608D01*
X227440068Y-88235712D01*
X227383939Y-88212930D01*
X227268094Y-88128763D01*
X227268093Y-88128762D01*
X227262752Y-88124882D01*
X227256724Y-88122198D01*
X227256722Y-88122197D01*
X227094319Y-88049891D01*
X227094318Y-88049891D01*
X227088288Y-88047206D01*
X226994888Y-88027353D01*
X226907944Y-88008872D01*
X226907939Y-88008872D01*
X226901487Y-88007500D01*
X226710513Y-88007500D01*
X226704061Y-88008872D01*
X226704056Y-88008872D01*
X226617113Y-88027353D01*
X226523712Y-88047206D01*
X226517682Y-88049891D01*
X226517681Y-88049891D01*
X226355278Y-88122197D01*
X226355276Y-88122198D01*
X226349248Y-88124882D01*
X226194747Y-88237134D01*
X226066960Y-88379056D01*
X225971473Y-88544444D01*
X225912458Y-88726072D01*
X225892496Y-88916000D01*
X225912458Y-89105928D01*
X225971473Y-89287556D01*
X226066960Y-89452944D01*
X226194747Y-89594866D01*
X226349248Y-89707118D01*
X226355276Y-89709802D01*
X226355278Y-89709803D01*
X226380441Y-89721006D01*
X226523712Y-89784794D01*
X226617112Y-89804647D01*
X226704056Y-89823128D01*
X226704061Y-89823128D01*
X226710513Y-89824500D01*
X226901487Y-89824500D01*
X226907939Y-89823128D01*
X226907944Y-89823128D01*
X226994888Y-89804647D01*
X227088288Y-89784794D01*
X227231559Y-89721006D01*
X227256722Y-89709803D01*
X227256724Y-89709802D01*
X227262752Y-89707118D01*
X227383939Y-89619070D01*
X227450806Y-89595212D01*
X227519958Y-89611292D01*
X227569438Y-89662206D01*
X227584000Y-89721006D01*
X227584000Y-106808000D01*
X227563998Y-106876121D01*
X227510342Y-106922614D01*
X227458000Y-106934000D01*
X226879399Y-106934000D01*
X226811278Y-106913998D01*
X226764785Y-106860342D01*
X226754681Y-106790068D01*
X226785762Y-106723691D01*
X226794621Y-106713852D01*
X226794622Y-106713851D01*
X226799040Y-106708944D01*
X226894527Y-106543556D01*
X226953542Y-106361928D01*
X226973504Y-106172000D01*
X226953542Y-105982072D01*
X226894527Y-105800444D01*
X226799040Y-105635056D01*
X226706290Y-105532046D01*
X226675675Y-105498045D01*
X226675674Y-105498044D01*
X226671253Y-105493134D01*
X226516752Y-105380882D01*
X226510724Y-105378198D01*
X226510722Y-105378197D01*
X226348319Y-105305891D01*
X226348318Y-105305891D01*
X226342288Y-105303206D01*
X226248888Y-105283353D01*
X226161944Y-105264872D01*
X226161939Y-105264872D01*
X226155487Y-105263500D01*
X225964513Y-105263500D01*
X225958061Y-105264872D01*
X225958056Y-105264872D01*
X225871113Y-105283353D01*
X225777712Y-105303206D01*
X225771682Y-105305891D01*
X225771681Y-105305891D01*
X225609278Y-105378197D01*
X225609276Y-105378198D01*
X225603248Y-105380882D01*
X225448747Y-105493134D01*
X225444326Y-105498044D01*
X225444325Y-105498045D01*
X225413711Y-105532046D01*
X225320960Y-105635056D01*
X225225473Y-105800444D01*
X225166458Y-105982072D01*
X225146496Y-106172000D01*
X225166458Y-106361928D01*
X225225473Y-106543556D01*
X225320960Y-106708944D01*
X225325378Y-106713851D01*
X225325379Y-106713852D01*
X225334238Y-106723691D01*
X225364955Y-106787699D01*
X225356190Y-106858152D01*
X225310726Y-106912683D01*
X225240601Y-106934000D01*
X218820000Y-106934000D01*
X218751879Y-106913998D01*
X218705386Y-106860342D01*
X218694000Y-106808000D01*
X218694000Y-105532046D01*
X218714002Y-105463925D01*
X218725262Y-105448976D01*
X218758339Y-105411259D01*
X218899733Y-105191437D01*
X219007083Y-104953129D01*
X219078030Y-104701572D01*
X219081177Y-104676837D01*
X219110616Y-104445421D01*
X219110616Y-104445417D01*
X219111014Y-104442291D01*
X219113431Y-104350000D01*
X219094061Y-104089348D01*
X219036377Y-103834423D01*
X218941647Y-103590823D01*
X218811951Y-103363902D01*
X218721050Y-103248594D01*
X218694585Y-103182716D01*
X218694000Y-103170589D01*
X218694000Y-99247500D01*
X222164996Y-99247500D01*
X222184958Y-99437428D01*
X222243973Y-99619056D01*
X222339460Y-99784444D01*
X222467247Y-99926366D01*
X222621748Y-100038618D01*
X222627776Y-100041302D01*
X222627778Y-100041303D01*
X222790181Y-100113609D01*
X222796212Y-100116294D01*
X222889612Y-100136147D01*
X222976556Y-100154628D01*
X222976561Y-100154628D01*
X222983013Y-100156000D01*
X223173987Y-100156000D01*
X223180439Y-100154628D01*
X223180444Y-100154628D01*
X223267388Y-100136147D01*
X223360788Y-100116294D01*
X223366819Y-100113609D01*
X223529222Y-100041303D01*
X223529224Y-100041302D01*
X223535252Y-100038618D01*
X223689753Y-99926366D01*
X223817540Y-99784444D01*
X223913027Y-99619056D01*
X223972042Y-99437428D01*
X223992004Y-99247500D01*
X223972042Y-99057572D01*
X223913027Y-98875944D01*
X223817540Y-98710556D01*
X223809934Y-98702108D01*
X223694175Y-98573545D01*
X223694174Y-98573544D01*
X223689753Y-98568634D01*
X223535252Y-98456382D01*
X223529224Y-98453698D01*
X223529222Y-98453697D01*
X223366819Y-98381391D01*
X223366818Y-98381391D01*
X223360788Y-98378706D01*
X223267387Y-98358853D01*
X223180444Y-98340372D01*
X223180439Y-98340372D01*
X223173987Y-98339000D01*
X222983013Y-98339000D01*
X222976561Y-98340372D01*
X222976556Y-98340372D01*
X222889613Y-98358853D01*
X222796212Y-98378706D01*
X222790182Y-98381391D01*
X222790181Y-98381391D01*
X222627778Y-98453697D01*
X222627776Y-98453698D01*
X222621748Y-98456382D01*
X222467247Y-98568634D01*
X222462826Y-98573544D01*
X222462825Y-98573545D01*
X222347067Y-98702108D01*
X222339460Y-98710556D01*
X222243973Y-98875944D01*
X222184958Y-99057572D01*
X222164996Y-99247500D01*
X218694000Y-99247500D01*
X218694000Y-93980000D01*
X216534000Y-93980000D01*
X216465879Y-93959998D01*
X216419386Y-93906342D01*
X216408000Y-93854000D01*
X216408000Y-90296000D01*
X216428002Y-90227879D01*
X216481658Y-90181386D01*
X216534000Y-90170000D01*
X218694000Y-90170000D01*
X218694000Y-85470000D01*
X218714002Y-85401879D01*
X218767658Y-85355386D01*
X218820000Y-85344000D01*
X221032382Y-85344000D01*
X221100503Y-85364002D01*
G37*
%TD.AperFunction*%
%TD*%
M02*
