M48
; DRILL file {KiCad (6.0.1)} date Thu Apr 20 11:25:53 2023
; FORMAT={-:-/ absolute / metric / decimal}
; #@! TF.CreationDate,2023-04-20T11:25:53+03:00
; #@! TF.GenerationSoftware,Kicad,Pcbnew,(6.0.1)
; #@! TF.FileFunction,Plated,1,6,PTH
FMAT,2
METRIC
; #@! TA.AperFunction,Plated,PTH,ViaDrill
T1C0.400
; #@! TA.AperFunction,Plated,PTH,ComponentDrill
T2C0.800
; #@! TA.AperFunction,Plated,PTH,ComponentDrill
T3C1.000
; #@! TA.AperFunction,Plated,PTH,ComponentDrill
T4C1.500
%
G90
G05
T1
X44.704Y-131.064
X45.069Y-122.936
X45.974Y-136.144
X46.99Y-68.108
X46.99Y-70.104
X47.244Y-131.064
X47.244Y-132.461
X47.498Y-59.817
X48.514Y-136.144
X48.879Y-115.57
X49.149Y-72.009
X49.149Y-80.518
X49.149Y-83.058
X49.149Y-90.678
X49.149Y-94.107
X49.149Y-101.727
X49.149Y-105.283
X49.149Y-112.903
X49.784Y-131.064
X50.165Y-115.57
X50.927Y-66.04
X51.054Y-135.382
X51.354Y-122.871
X52.324Y-131.064
X53.594Y-135.382
X53.721Y-122.809
X54.864Y-131.064
X55.815Y-102.805
X55.88Y-91.821
X55.88Y-114.046
X56.134Y-135.382
X57.404Y-131.064
X57.531Y-115.57
X57.658Y-72.898
X57.658Y-75.438
X57.658Y-76.708
X57.658Y-77.978
X58.674Y-135.382
X58.801Y-115.57
X59.182Y-83.439
X59.182Y-85.725
X59.182Y-88.011
X59.182Y-90.297
X59.19Y-105.656
X59.19Y-112.514
X59.198Y-101.346
X59.198Y-107.95
X59.198Y-110.236
X59.214Y-94.488
X59.214Y-96.773
X59.214Y-99.06
X59.36Y-67.691
X59.36Y-69.723
X59.452Y-52.483
X59.452Y-54.483
X59.452Y-60.087
X59.452Y-62.087
X59.944Y-122.809
X61.214Y-92.583
X61.214Y-103.505
X61.235Y-81.407
X62.23Y-122.809
X62.61Y-96.773
X62.611Y-83.439
X62.611Y-85.725
X62.611Y-88.011
X62.611Y-90.297
X62.611Y-94.488
X62.611Y-99.06
X62.611Y-101.346
X62.611Y-105.664
X62.611Y-107.95
X62.611Y-110.236
X62.611Y-112.522
X63.754Y-81.026
X63.805Y-71.882
X63.819Y-65.546
X63.881Y-50.308
X63.881Y-56.531
X63.881Y-64.135
X63.895Y-58.053
X64.77Y-83.185
X64.77Y-84.455
X64.77Y-92.202
X64.897Y-88.011
X65.278Y-97.79
X65.278Y-103.251
X65.278Y-104.902
X66.04Y-89.408
X66.04Y-115.849
X66.294Y-73.152
X66.548Y-86.741
X66.548Y-93.472
X66.548Y-95.504
X66.548Y-99.949
X68.707Y-122.809
X69.088Y-117.856
X69.295Y-82.216
X69.295Y-95.551
X69.342Y-89.281
X70.612Y-131.689
X70.612Y-136.144
X70.8Y-92.39
X70.805Y-85.405
X70.866Y-61.722
X70.866Y-62.992
X70.866Y-98.806
X70.917Y-69.342
X70.917Y-70.612
X70.993Y-54.118
X70.993Y-55.388
X75.835Y-76.565
X78.74Y-108.585
X79.375Y-72.39
X79.375Y-74.93
X82.55Y-108.585
X84.455Y-67.31
X84.455Y-69.85
X84.455Y-73.66
X86.36Y-104.14
X86.36Y-116.205
X86.995Y-97.79
X87.122Y-84.963
X87.757Y-135.382
X88.392Y-84.963
X88.9Y-78.74
X89.535Y-97.79
X92.075Y-77.47
X92.075Y-97.79
X93.421Y-85.166
X93.425Y-78.66
X93.472Y-69.088
X93.98Y-76.2
X95.25Y-71.12
X95.961Y-85.166
X95.961Y-97.714
X96.2Y-82.865
X99.06Y-99.695
X99.06Y-106.045
X99.263Y-84.658
X99.263Y-97.587
X100.33Y-106.68
X100.33Y-111.76
X101.6Y-106.045
X101.803Y-97.587
X102.108Y-114.046
X102.108Y-119.126
X103.073Y-84.658
X104.14Y-114.046
X104.775Y-132.994
X104.775Y-134.112
X105.613Y-84.658
X106.045Y-107.95
X106.68Y-98.425
X106.68Y-104.14
X106.68Y-111.76
X106.68Y-114.3
X107.442Y-51.054
X108.153Y-85.522
X109.22Y-74.295
X109.22Y-82.55
X109.22Y-98.425
X109.22Y-104.14
X109.728Y-120.65
X111.76Y-106.68
X111.76Y-109.22
X112.014Y-51.054
X112.014Y-120.65
X113.284Y-55.88
X115.3Y-108.585
X115.57Y-74.295
X117.602Y-52.07
X118.745Y-74.295
X119.38Y-55.626
X122.825Y-73.517
X123.571Y-61.087
X123.571Y-62.42
X125.984Y-72.39
X125.984Y-74.93
X127.0Y-108.585
X130.81Y-67.31
X130.81Y-69.85
X130.81Y-72.39
X130.81Y-74.93
X130.81Y-108.585
X133.35Y-104.14
X133.35Y-116.205
X133.477Y-77.47
X133.985Y-85.09
X133.985Y-97.79
X135.255Y-85.09
X136.017Y-78.486
X136.525Y-97.79
X139.065Y-77.47
X139.065Y-97.79
X140.335Y-78.105
X140.335Y-85.09
X140.97Y-76.2
X142.24Y-69.088
X142.24Y-71.12
X142.875Y-85.09
X142.875Y-97.79
X143.256Y-82.804
X146.05Y-99.695
X146.05Y-106.045
X146.685Y-85.09
X146.685Y-97.79
X146.812Y-51.07
X147.32Y-106.68
X147.32Y-111.76
X148.59Y-106.045
X149.098Y-114.3
X149.225Y-97.79
X149.352Y-119.126
X149.86Y-131.699
X149.987Y-132.969
X150.495Y-85.09
X151.384Y-51.07
X151.384Y-114.3
X152.654Y-55.896
X153.035Y-85.09
X153.67Y-107.95
X154.305Y-97.79
X154.305Y-104.14
X154.305Y-111.76
X154.305Y-114.3
X155.575Y-85.09
X156.21Y-97.79
X156.845Y-82.55
X156.845Y-104.14
X156.972Y-52.086
X156.972Y-74.295
X156.972Y-120.65
X158.75Y-55.896
X159.258Y-120.65
X159.385Y-106.68
X159.385Y-109.22
X162.925Y-108.585
X163.195Y-74.295
X166.37Y-74.295
X169.545Y-73.025
X172.72Y-72.39
X172.72Y-74.93
X174.498Y-108.458
X177.8Y-67.31
X177.8Y-69.85
X177.8Y-72.39
X178.054Y-108.458
X181.61Y-104.14
X181.61Y-116.205
X181.737Y-77.47
X182.245Y-85.09
X182.245Y-97.79
X183.515Y-85.09
X184.404Y-78.486
X184.785Y-97.79
X185.166Y-51.054
X187.325Y-77.47
X187.325Y-97.79
X188.531Y-78.041
X188.595Y-85.09
X188.722Y-70.866
X189.738Y-51.054
X189.865Y-76.581
X191.008Y-55.88
X191.135Y-70.866
X191.135Y-85.09
X191.135Y-97.79
X191.516Y-82.931
X194.31Y-99.695
X194.31Y-106.045
X194.945Y-85.09
X194.945Y-97.79
X195.326Y-52.324
X195.58Y-106.68
X195.58Y-111.76
X196.85Y-106.045
X197.104Y-55.626
X197.358Y-111.76
X197.358Y-121.412
X197.485Y-97.79
X198.628Y-113.284
X198.755Y-85.09
X198.755Y-121.412
X200.152Y-121.412
X201.295Y-85.09
X201.295Y-107.95
X201.93Y-111.76
X201.93Y-114.3
X202.565Y-97.79
X202.565Y-104.14
X203.2Y-120.396
X203.835Y-85.09
X204.47Y-97.79
X205.105Y-104.14
X205.232Y-74.168
X205.232Y-82.55
X207.01Y-106.68
X207.01Y-109.22
X207.772Y-120.396
X210.55Y-108.204
X211.455Y-74.295
X214.63Y-74.295
X217.148Y-91.462
X217.186Y-99.552
X217.266Y-95.662
X218.948Y-124.46
X218.948Y-126.492
X219.456Y-106.172
X219.456Y-112.776
X219.521Y-120.585
X219.696Y-85.838
X221.996Y-85.852
X222.129Y-93.847
X223.078Y-99.248
X224.296Y-85.838
X226.06Y-106.172
X226.06Y-112.776
X226.06Y-114.046
X226.806Y-88.916
X226.806Y-94.218
T2
X82.55Y-82.374
X82.55Y-84.914
X82.55Y-87.454
X82.55Y-95.074
X82.55Y-97.614
X82.55Y-100.154
X113.36Y-82.55
X113.36Y-85.09
X113.36Y-87.63
X113.36Y-95.25
X113.36Y-97.79
X113.36Y-100.33
X129.21Y-82.374
X129.21Y-84.914
X129.21Y-87.454
X129.21Y-95.074
X129.21Y-97.614
X129.21Y-100.154
X161.62Y-82.55
X161.62Y-85.09
X161.62Y-87.63
X161.62Y-95.25
X161.62Y-97.79
X161.62Y-100.33
X177.47Y-82.374
X177.47Y-84.914
X177.47Y-87.454
X177.47Y-95.074
X177.47Y-97.614
X177.47Y-100.154
X208.915Y-82.726
X208.915Y-85.266
X208.915Y-87.806
X208.915Y-95.426
X208.915Y-97.966
X208.915Y-100.506
T3
X44.958Y-56.261
X47.498Y-56.261
X50.038Y-56.261
T4
X87.8Y-71.35
X89.75Y-119.65
X93.8Y-119.65
X104.0Y-71.35
X108.05Y-71.35
X121.95Y-122.35
X123.35Y-104.35
X123.35Y-111.85
X134.8Y-71.35
X136.75Y-119.65
X140.8Y-119.65
X151.0Y-71.35
X155.05Y-71.35
X168.95Y-122.35
X170.35Y-104.35
X170.35Y-111.85
X181.8Y-71.35
X183.75Y-119.65
X187.8Y-119.65
X198.0Y-71.35
X202.05Y-71.35
X215.95Y-122.35
X217.35Y-104.35
X217.35Y-111.85
T0
M30
