%TF.GenerationSoftware,KiCad,Pcbnew,8.0.5-8.0.5-0~ubuntu24.04.1*%
%TF.CreationDate,2024-10-22T13:11:56+03:00*%
%TF.ProjectId,Adapter,41646170-7465-4722-9e6b-696361645f70,rev?*%
%TF.SameCoordinates,Original*%
%TF.FileFunction,Soldermask,Top*%
%TF.FilePolarity,Negative*%
%FSLAX46Y46*%
G04 Gerber Fmt 4.6, Leading zero omitted, Abs format (unit mm)*
G04 Created by KiCad (PCBNEW 8.0.5-8.0.5-0~ubuntu24.04.1) date 2024-10-22 13:11:56*
%MOMM*%
%LPD*%
G01*
G04 APERTURE LIST*
G04 Aperture macros list*
%AMRoundRect*
0 Rectangle with rounded corners*
0 $1 Rounding radius*
0 $2 $3 $4 $5 $6 $7 $8 $9 X,Y pos of 4 corners*
0 Add a 4 corners polygon primitive as box body*
4,1,4,$2,$3,$4,$5,$6,$7,$8,$9,$2,$3,0*
0 Add four circle primitives for the rounded corners*
1,1,$1+$1,$2,$3*
1,1,$1+$1,$4,$5*
1,1,$1+$1,$6,$7*
1,1,$1+$1,$8,$9*
0 Add four rect primitives between the rounded corners*
20,1,$1+$1,$2,$3,$4,$5,0*
20,1,$1+$1,$4,$5,$6,$7,0*
20,1,$1+$1,$6,$7,$8,$9,0*
20,1,$1+$1,$8,$9,$2,$3,0*%
%AMFreePoly0*
4,1,55,0.520945,2.954423,0.860410,2.873969,1.188239,2.754648,1.500000,2.598076,1.791476,2.406370,2.058725,2.182121,2.298133,1.928363,2.506463,1.648527,2.680898,1.346398,2.819078,1.026060,2.919135,0.691848,2.979715,0.348279,3.000000,0.000000,2.979715,-0.348279,2.919135,-0.691848,2.819078,-1.026060,2.680898,-1.346398,2.506463,-1.648527,2.298133,-1.928363,2.058725,-2.182121,
1.791476,-2.406370,1.500000,-2.598076,1.188239,-2.754648,0.860410,-2.873969,0.520945,-2.954423,0.174434,-2.994924,-0.174434,-2.994924,-0.520945,-2.954423,-0.860410,-2.873969,-1.188239,-2.754648,-1.500000,-2.598076,-1.791476,-2.406370,-2.058725,-2.182121,-2.298133,-1.928363,-2.506463,-1.648527,-2.680898,-1.346398,-2.819078,-1.026060,-2.919135,-0.691848,-2.979715,-0.348279,-3.000000,0.000000,
-2.979715,0.348279,-2.919135,0.691848,-2.819078,1.026060,-2.680898,1.346398,-2.506463,1.648527,-2.298133,1.928363,-2.058725,2.182121,-1.791476,2.406370,-1.500000,2.598076,-1.188239,2.754648,-0.860410,2.873969,-0.520945,2.954423,-0.174434,2.994924,0.174434,2.994924,0.520945,2.954423,0.520945,2.954423,$1*%
G04 Aperture macros list end*
%ADD10RoundRect,0.250000X0.450000X-0.350000X0.450000X0.350000X-0.450000X0.350000X-0.450000X-0.350000X0*%
%ADD11RoundRect,0.250000X0.350000X0.450000X-0.350000X0.450000X-0.350000X-0.450000X0.350000X-0.450000X0*%
%ADD12RoundRect,0.150000X0.512500X0.150000X-0.512500X0.150000X-0.512500X-0.150000X0.512500X-0.150000X0*%
%ADD13C,6.000000*%
%ADD14C,16.000000*%
%ADD15FreePoly0,0.000000*%
%ADD16C,1.000000*%
%ADD17RoundRect,0.250000X0.650000X-1.500000X0.650000X1.500000X-0.650000X1.500000X-0.650000X-1.500000X0*%
%ADD18RoundRect,0.250000X-0.412500X-1.100000X0.412500X-1.100000X0.412500X1.100000X-0.412500X1.100000X0*%
%ADD19C,1.020000*%
%ADD20RoundRect,0.250001X0.499999X0.499999X-0.499999X0.499999X-0.499999X-0.499999X0.499999X-0.499999X0*%
%ADD21C,1.500000*%
%ADD22RoundRect,0.250000X-0.450000X0.350000X-0.450000X-0.350000X0.450000X-0.350000X0.450000X0.350000X0*%
%ADD23RoundRect,0.250000X0.625000X-0.400000X0.625000X0.400000X-0.625000X0.400000X-0.625000X-0.400000X0*%
%ADD24RoundRect,0.250000X-0.625000X0.400000X-0.625000X-0.400000X0.625000X-0.400000X0.625000X0.400000X0*%
%ADD25RoundRect,0.250000X-0.475000X0.337500X-0.475000X-0.337500X0.475000X-0.337500X0.475000X0.337500X0*%
%ADD26RoundRect,0.250000X-1.100000X0.412500X-1.100000X-0.412500X1.100000X-0.412500X1.100000X0.412500X0*%
%ADD27RoundRect,0.250000X-0.350000X-0.450000X0.350000X-0.450000X0.350000X0.450000X-0.350000X0.450000X0*%
%ADD28RoundRect,0.250000X0.412500X1.100000X-0.412500X1.100000X-0.412500X-1.100000X0.412500X-1.100000X0*%
%ADD29RoundRect,0.250000X-0.650000X1.500000X-0.650000X-1.500000X0.650000X-1.500000X0.650000X1.500000X0*%
%ADD30O,2.300000X1.600000*%
%ADD31RoundRect,0.150000X-0.825000X-0.150000X0.825000X-0.150000X0.825000X0.150000X-0.825000X0.150000X0*%
%ADD32RoundRect,0.250000X0.450000X-0.325000X0.450000X0.325000X-0.450000X0.325000X-0.450000X-0.325000X0*%
%ADD33RoundRect,0.150000X0.150000X-0.825000X0.150000X0.825000X-0.150000X0.825000X-0.150000X-0.825000X0*%
%ADD34RoundRect,0.150000X0.150000X-0.875000X0.150000X0.875000X-0.150000X0.875000X-0.150000X-0.875000X0*%
%ADD35RoundRect,0.250000X1.100000X-0.412500X1.100000X0.412500X-1.100000X0.412500X-1.100000X-0.412500X0*%
%ADD36RoundRect,0.250000X-0.337500X-0.475000X0.337500X-0.475000X0.337500X0.475000X-0.337500X0.475000X0*%
%ADD37RoundRect,0.250000X0.337500X0.475000X-0.337500X0.475000X-0.337500X-0.475000X0.337500X-0.475000X0*%
%ADD38RoundRect,0.162500X0.162500X-0.617500X0.162500X0.617500X-0.162500X0.617500X-0.162500X-0.617500X0*%
%ADD39RoundRect,0.250000X-0.400000X-1.450000X0.400000X-1.450000X0.400000X1.450000X-0.400000X1.450000X0*%
%ADD40RoundRect,0.150000X-0.150000X0.875000X-0.150000X-0.875000X0.150000X-0.875000X0.150000X0.875000X0*%
%ADD41RoundRect,0.250000X0.400000X1.450000X-0.400000X1.450000X-0.400000X-1.450000X0.400000X-1.450000X0*%
%ADD42RoundRect,0.150000X0.150000X-0.587500X0.150000X0.587500X-0.150000X0.587500X-0.150000X-0.587500X0*%
%ADD43RoundRect,0.150000X-0.150000X0.825000X-0.150000X-0.825000X0.150000X-0.825000X0.150000X0.825000X0*%
%ADD44C,5.500000*%
%ADD45C,2.500000*%
%ADD46RoundRect,0.250000X0.325000X0.450000X-0.325000X0.450000X-0.325000X-0.450000X0.325000X-0.450000X0*%
%ADD47O,2.500000X1.800000*%
G04 APERTURE END LIST*
D10*
%TO.C,R72*%
X104394000Y-123174000D03*
X104394000Y-121174000D03*
%TD*%
D11*
%TO.C,R83*%
X148320000Y-84582000D03*
X146320000Y-84582000D03*
%TD*%
D12*
%TO.C,U8*%
X102229500Y-127188000D03*
X102229500Y-126238000D03*
X102229500Y-125288000D03*
X99954500Y-125288000D03*
X99954500Y-127188000D03*
%TD*%
D13*
%TO.C,D15*%
X188690785Y-142875000D03*
X188690785Y-158625000D03*
D14*
X202330785Y-150750000D03*
D13*
X215970785Y-142875000D03*
D15*
X215970785Y-158625000D03*
D16*
X202330785Y-138980000D03*
X202330785Y-140250000D03*
X202330785Y-141520000D03*
%TD*%
D11*
%TO.C,R82*%
X188071000Y-72136000D03*
X186071000Y-72136000D03*
%TD*%
%TO.C,R68*%
X99552000Y-105156000D03*
X97552000Y-105156000D03*
%TD*%
D17*
%TO.C,D35*%
X97536000Y-115784000D03*
X97536000Y-110784000D03*
%TD*%
D18*
%TO.C,C49*%
X203034500Y-86614000D03*
X206159500Y-86614000D03*
%TD*%
D19*
%TO.C,J4*%
X205692000Y-59194000D03*
X184692000Y-59194000D03*
D20*
X202692000Y-63134000D03*
D21*
X199692000Y-63134000D03*
X196692000Y-63134000D03*
X193692000Y-63134000D03*
X190692000Y-63134000D03*
X187692000Y-63134000D03*
X202692000Y-60134000D03*
X199692000Y-60134000D03*
X196692000Y-60134000D03*
X193692000Y-60134000D03*
X190692000Y-60134000D03*
X187692000Y-60134000D03*
%TD*%
D22*
%TO.C,R101*%
X164084000Y-52086000D03*
X164084000Y-54086000D03*
%TD*%
D23*
%TO.C,R32*%
X154940000Y-77242000D03*
X154940000Y-74142000D03*
%TD*%
D24*
%TO.C,R34*%
X183388000Y-113766000D03*
X183388000Y-116866000D03*
%TD*%
D22*
%TO.C,R56*%
X153416000Y-125238000D03*
X153416000Y-127238000D03*
%TD*%
D17*
%TO.C,D41*%
X144526000Y-115784000D03*
X144526000Y-110784000D03*
%TD*%
D11*
%TO.C,R95*%
X195437000Y-84582000D03*
X193437000Y-84582000D03*
%TD*%
D10*
%TO.C,R3*%
X155194000Y-135366000D03*
X155194000Y-133366000D03*
%TD*%
D25*
%TO.C,C81*%
X102108000Y-121136500D03*
X102108000Y-123211500D03*
%TD*%
D26*
%TO.C,C33*%
X225171000Y-66763500D03*
X225171000Y-69888500D03*
%TD*%
D27*
%TO.C,R1*%
X86249000Y-59309000D03*
X88249000Y-59309000D03*
%TD*%
D10*
%TO.C,R64*%
X98044000Y-123174000D03*
X98044000Y-121174000D03*
%TD*%
D28*
%TO.C,C14*%
X135801500Y-104394000D03*
X132676500Y-104394000D03*
%TD*%
D29*
%TO.C,D48*%
X195326000Y-76240000D03*
X195326000Y-81240000D03*
%TD*%
D30*
%TO.C,D4*%
X131028005Y-74929995D03*
X131028005Y-77469995D03*
X131028005Y-80009995D03*
X131028005Y-85089995D03*
X131028005Y-87629995D03*
X131028005Y-90169995D03*
X131028005Y-92709995D03*
%TD*%
%TO.C,D17*%
X160528000Y-116332000D03*
X160528000Y-113792000D03*
X160528000Y-111252000D03*
X160528000Y-106172000D03*
X160528000Y-103632000D03*
X160528000Y-101092000D03*
X160528000Y-98552000D03*
%TD*%
D23*
%TO.C,R14*%
X110490000Y-77242000D03*
X110490000Y-74142000D03*
%TD*%
D25*
%TO.C,C29*%
X195834000Y-121390500D03*
X195834000Y-123465500D03*
%TD*%
D10*
%TO.C,R102*%
X202946000Y-54086000D03*
X202946000Y-52086000D03*
%TD*%
D22*
%TO.C,R27*%
X200406000Y-125492000D03*
X200406000Y-127492000D03*
%TD*%
D27*
%TO.C,R73*%
X150384000Y-104902000D03*
X152384000Y-104902000D03*
%TD*%
D24*
%TO.C,R51*%
X162560000Y-74142000D03*
X162560000Y-77242000D03*
%TD*%
D23*
%TO.C,R24*%
X152400000Y-77242000D03*
X152400000Y-74142000D03*
%TD*%
D31*
%TO.C,U9*%
X110047000Y-127127000D03*
X110047000Y-128397000D03*
X110047000Y-129667000D03*
X110047000Y-130937000D03*
X114997000Y-130937000D03*
X114997000Y-129667000D03*
X114997000Y-128397000D03*
X114997000Y-127127000D03*
%TD*%
D32*
%TO.C,D12*%
X115443000Y-62620000D03*
X115443000Y-60570000D03*
%TD*%
D25*
%TO.C,C22*%
X110617000Y-133312500D03*
X110617000Y-135387500D03*
%TD*%
D33*
%TO.C,D3*%
X115697000Y-93153000D03*
X116967000Y-93153000D03*
X118237000Y-93153000D03*
X119507000Y-93153000D03*
X119507000Y-88203000D03*
X118237000Y-88203000D03*
X116967000Y-88203000D03*
X115697000Y-88203000D03*
%TD*%
D22*
%TO.C,R99*%
X116332000Y-52086000D03*
X116332000Y-54086000D03*
%TD*%
D30*
%TO.C,D16*%
X113538000Y-116332000D03*
X113538000Y-113792000D03*
X113538000Y-111252000D03*
X113538000Y-106172000D03*
X113538000Y-103632000D03*
X113538000Y-101092000D03*
X113538000Y-98552000D03*
%TD*%
D18*
%TO.C,C44*%
X197954500Y-86614000D03*
X201079500Y-86614000D03*
%TD*%
%TO.C,C15*%
X151091500Y-86614000D03*
X154216500Y-86614000D03*
%TD*%
D25*
%TO.C,C30*%
X198120000Y-125454500D03*
X198120000Y-127529500D03*
%TD*%
D11*
%TO.C,R40*%
X94218000Y-69977000D03*
X92218000Y-69977000D03*
%TD*%
D34*
%TO.C,D32*%
X88519000Y-100154000D03*
X89789000Y-100154000D03*
X91059000Y-100154000D03*
X92329000Y-100154000D03*
X93599000Y-100154000D03*
X94869000Y-100154000D03*
X96139000Y-100154000D03*
X97409000Y-100154000D03*
X97409000Y-90854000D03*
X96139000Y-90854000D03*
X94869000Y-90854000D03*
X93599000Y-90854000D03*
X92329000Y-90854000D03*
X91059000Y-90854000D03*
X89789000Y-90854000D03*
X88519000Y-90854000D03*
%TD*%
D32*
%TO.C,D50*%
X214884000Y-62493000D03*
X214884000Y-60443000D03*
%TD*%
D29*
%TO.C,D58*%
X101346000Y-110784000D03*
X101346000Y-115784000D03*
%TD*%
D35*
%TO.C,C13*%
X135890000Y-78524500D03*
X135890000Y-75399500D03*
%TD*%
D30*
%TO.C,D18*%
X207553995Y-116332005D03*
X207553995Y-113792005D03*
X207553995Y-111252005D03*
X207553995Y-106172005D03*
X207553995Y-103632005D03*
X207553995Y-101092005D03*
X207553995Y-98552005D03*
%TD*%
D11*
%TO.C,R78*%
X188071000Y-69977000D03*
X186071000Y-69977000D03*
%TD*%
D27*
%TO.C,R9*%
X163846000Y-85598000D03*
X165846000Y-85598000D03*
%TD*%
D28*
%TO.C,C31*%
X94057000Y-104394000D03*
X90932000Y-104394000D03*
%TD*%
D24*
%TO.C,R20*%
X138938000Y-113766000D03*
X138938000Y-116866000D03*
%TD*%
D36*
%TO.C,C60*%
X88116500Y-86106000D03*
X90191500Y-86106000D03*
%TD*%
D11*
%TO.C,R10*%
X129524000Y-105410000D03*
X127524000Y-105410000D03*
%TD*%
D36*
%TO.C,C66*%
X135106500Y-86106000D03*
X137181500Y-86106000D03*
%TD*%
D10*
%TO.C,R4*%
X202184000Y-135366000D03*
X202184000Y-133366000D03*
%TD*%
D17*
%TO.C,D59*%
X97536000Y-81240000D03*
X97536000Y-76240000D03*
%TD*%
D11*
%TO.C,R86*%
X188198000Y-85979000D03*
X186198000Y-85979000D03*
%TD*%
D37*
%TO.C,C59*%
X109495500Y-104902000D03*
X107420500Y-104902000D03*
%TD*%
D10*
%TO.C,R57*%
X144780000Y-123174000D03*
X144780000Y-121174000D03*
%TD*%
D11*
%TO.C,R12*%
X176260000Y-105410000D03*
X174260000Y-105410000D03*
%TD*%
D38*
%TO.C,D25*%
X192217000Y-71962000D03*
X193167000Y-71962000D03*
X194117000Y-71962000D03*
X194117000Y-69262000D03*
X192217000Y-69262000D03*
%TD*%
D11*
%TO.C,R62*%
X94218000Y-86106000D03*
X92218000Y-86106000D03*
%TD*%
D39*
%TO.C,L6*%
X198943000Y-110744000D03*
X203393000Y-110744000D03*
%TD*%
D33*
%TO.C,D5*%
X85344000Y-66483000D03*
X86614000Y-66483000D03*
X87884000Y-66483000D03*
X89154000Y-66483000D03*
X89154000Y-61533000D03*
X87884000Y-61533000D03*
X86614000Y-61533000D03*
X85344000Y-61533000D03*
%TD*%
D12*
%TO.C,U11*%
X195955500Y-127442000D03*
X195955500Y-126492000D03*
X195955500Y-125542000D03*
X193680500Y-125542000D03*
X193680500Y-127442000D03*
%TD*%
D24*
%TO.C,R13*%
X89638000Y-113766000D03*
X89638000Y-116866000D03*
%TD*%
D32*
%TO.C,D29*%
X169418000Y-62493000D03*
X169418000Y-60443000D03*
%TD*%
D27*
%TO.C,R93*%
X191532000Y-107442000D03*
X193532000Y-107442000D03*
%TD*%
D35*
%TO.C,C18*%
X186436000Y-78524500D03*
X186436000Y-75399500D03*
%TD*%
D27*
%TO.C,R67*%
X99330000Y-86868000D03*
X101330000Y-86868000D03*
%TD*%
D37*
%TO.C,C57*%
X109495500Y-102616000D03*
X107420500Y-102616000D03*
%TD*%
D38*
%TO.C,D23*%
X145227000Y-71962000D03*
X146177000Y-71962000D03*
X147127000Y-71962000D03*
X147127000Y-69262000D03*
X145227000Y-69262000D03*
%TD*%
D27*
%TO.C,R84*%
X179467000Y-59182000D03*
X181467000Y-59182000D03*
%TD*%
D13*
%TO.C,D11*%
X94660000Y-142875000D03*
X94660000Y-158625000D03*
D14*
X108300000Y-150750000D03*
D13*
X121940000Y-142875000D03*
D15*
X121940000Y-158625000D03*
D16*
X108300000Y-138980000D03*
X108300000Y-140250000D03*
X108300000Y-141520000D03*
%TD*%
D11*
%TO.C,R75*%
X141462000Y-69977000D03*
X139462000Y-69977000D03*
%TD*%
D23*
%TO.C,R44*%
X126238000Y-116866000D03*
X126238000Y-113766000D03*
%TD*%
D24*
%TO.C,R35*%
X180848000Y-113766000D03*
X180848000Y-116866000D03*
%TD*%
D40*
%TO.C,D31*%
X109093000Y-90854000D03*
X107823000Y-90854000D03*
X106553000Y-90854000D03*
X105283000Y-90854000D03*
X104013000Y-90854000D03*
X102743000Y-90854000D03*
X101473000Y-90854000D03*
X100203000Y-90854000D03*
X100203000Y-100154000D03*
X101473000Y-100154000D03*
X102743000Y-100154000D03*
X104013000Y-100154000D03*
X105283000Y-100154000D03*
X106553000Y-100154000D03*
X107823000Y-100154000D03*
X109093000Y-100154000D03*
%TD*%
D41*
%TO.C,L3*%
X139893000Y-81534000D03*
X135443000Y-81534000D03*
%TD*%
D32*
%TO.C,D13*%
X118237000Y-62620000D03*
X118237000Y-60570000D03*
%TD*%
D26*
%TO.C,C16*%
X152400000Y-113753500D03*
X152400000Y-116878500D03*
%TD*%
D34*
%TO.C,D64*%
X135509000Y-100154000D03*
X136779000Y-100154000D03*
X138049000Y-100154000D03*
X139319000Y-100154000D03*
X140589000Y-100154000D03*
X141859000Y-100154000D03*
X143129000Y-100154000D03*
X144399000Y-100154000D03*
X144399000Y-90854000D03*
X143129000Y-90854000D03*
X141859000Y-90854000D03*
X140589000Y-90854000D03*
X139319000Y-90854000D03*
X138049000Y-90854000D03*
X136779000Y-90854000D03*
X135509000Y-90854000D03*
%TD*%
D24*
%TO.C,R52*%
X211963000Y-74142000D03*
X211963000Y-77242000D03*
%TD*%
D30*
%TO.C,D43*%
X84038005Y-74929995D03*
X84038005Y-77469995D03*
X84038005Y-80009995D03*
X84038005Y-85089995D03*
X84038005Y-87629995D03*
X84038005Y-90169995D03*
X84038005Y-92709995D03*
%TD*%
D24*
%TO.C,R7*%
X92202000Y-113766000D03*
X92202000Y-116866000D03*
%TD*%
D26*
%TO.C,C4*%
X105410000Y-113753500D03*
X105410000Y-116878500D03*
%TD*%
D27*
%TO.C,R61*%
X103394000Y-104902000D03*
X105394000Y-104902000D03*
%TD*%
D25*
%TO.C,C56*%
X148844000Y-121136500D03*
X148844000Y-123211500D03*
%TD*%
D19*
%TO.C,J3*%
X112862000Y-59194000D03*
X91862000Y-59194000D03*
D20*
X109862000Y-63134000D03*
D21*
X106862000Y-63134000D03*
X103862000Y-63134000D03*
X100862000Y-63134000D03*
X97862000Y-63134000D03*
X94862000Y-63134000D03*
X109862000Y-60134000D03*
X106862000Y-60134000D03*
X103862000Y-60134000D03*
X100862000Y-60134000D03*
X97862000Y-60134000D03*
X94862000Y-60134000D03*
%TD*%
D37*
%TO.C,C65*%
X156485500Y-104902000D03*
X154410500Y-104902000D03*
%TD*%
D28*
%TO.C,C11*%
X140881500Y-104394000D03*
X137756500Y-104394000D03*
%TD*%
D10*
%TO.C,R98*%
X110236000Y-54086000D03*
X110236000Y-52086000D03*
%TD*%
D35*
%TO.C,C19*%
X182880000Y-78524500D03*
X182880000Y-75399500D03*
%TD*%
D41*
%TO.C,L4*%
X186883000Y-81534000D03*
X182433000Y-81534000D03*
%TD*%
D31*
%TO.C,U5*%
X203519000Y-127127000D03*
X203519000Y-128397000D03*
X203519000Y-129667000D03*
X203519000Y-130937000D03*
X208469000Y-130937000D03*
X208469000Y-129667000D03*
X208469000Y-128397000D03*
X208469000Y-127127000D03*
%TD*%
D24*
%TO.C,R50*%
X165100000Y-74142000D03*
X165100000Y-77242000D03*
%TD*%
D29*
%TO.C,D60*%
X148336000Y-110784000D03*
X148336000Y-115784000D03*
%TD*%
D23*
%TO.C,R42*%
X201803000Y-77242000D03*
X201803000Y-74142000D03*
%TD*%
D24*
%TO.C,R33*%
X185928000Y-113766000D03*
X185928000Y-116866000D03*
%TD*%
D42*
%TO.C,Q2*%
X112334000Y-54023500D03*
X114234000Y-54023500D03*
X113284000Y-52148500D03*
%TD*%
D22*
%TO.C,R109*%
X209042000Y-52086000D03*
X209042000Y-54086000D03*
%TD*%
D18*
%TO.C,C43*%
X156171500Y-86614000D03*
X159296500Y-86614000D03*
%TD*%
D17*
%TO.C,D62*%
X144526000Y-81240000D03*
X144526000Y-76240000D03*
%TD*%
D22*
%TO.C,R29*%
X210820000Y-122444000D03*
X210820000Y-124444000D03*
%TD*%
D31*
%TO.C,D21*%
X156783000Y-121285000D03*
X156783000Y-122555000D03*
X156783000Y-123825000D03*
X156783000Y-125095000D03*
X161733000Y-125095000D03*
X161733000Y-123825000D03*
X161733000Y-122555000D03*
X161733000Y-121285000D03*
%TD*%
D11*
%TO.C,R76*%
X141478000Y-72136000D03*
X139478000Y-72136000D03*
%TD*%
D33*
%TO.C,D24*%
X133096000Y-66483000D03*
X134366000Y-66483000D03*
X135636000Y-66483000D03*
X136906000Y-66483000D03*
X136906000Y-61533000D03*
X135636000Y-61533000D03*
X134366000Y-61533000D03*
X133096000Y-61533000D03*
%TD*%
D25*
%TO.C,C24*%
X157480000Y-133328500D03*
X157480000Y-135403500D03*
%TD*%
D33*
%TO.C,D8*%
X162941000Y-93153000D03*
X164211000Y-93153000D03*
X165481000Y-93153000D03*
X166751000Y-93153000D03*
X166751000Y-88203000D03*
X165481000Y-88203000D03*
X164211000Y-88203000D03*
X162941000Y-88203000D03*
%TD*%
D22*
%TO.C,R58*%
X164084000Y-122190000D03*
X164084000Y-124190000D03*
%TD*%
D29*
%TO.C,D61*%
X195326000Y-110784000D03*
X195326000Y-115784000D03*
%TD*%
D32*
%TO.C,D19*%
X121031000Y-62629000D03*
X121031000Y-60579000D03*
%TD*%
D36*
%TO.C,C72*%
X182096500Y-85979000D03*
X184171500Y-85979000D03*
%TD*%
D10*
%TO.C,R60*%
X151130000Y-123174000D03*
X151130000Y-121174000D03*
%TD*%
D24*
%TO.C,R53*%
X206883000Y-74142000D03*
X206883000Y-77242000D03*
%TD*%
D42*
%TO.C,Q1*%
X160086000Y-54023500D03*
X161986000Y-54023500D03*
X161036000Y-52148500D03*
%TD*%
D27*
%TO.C,R91*%
X193437000Y-86868000D03*
X195437000Y-86868000D03*
%TD*%
D22*
%TO.C,R59*%
X146812000Y-121174000D03*
X146812000Y-123174000D03*
%TD*%
D17*
%TO.C,D63*%
X191516000Y-81240000D03*
X191516000Y-76240000D03*
%TD*%
D36*
%TO.C,C58*%
X88116500Y-88392000D03*
X90191500Y-88392000D03*
%TD*%
D35*
%TO.C,C37*%
X88900000Y-78524500D03*
X88900000Y-75399500D03*
%TD*%
D12*
%TO.C,U4*%
X148965500Y-127315000D03*
X148965500Y-126365000D03*
X148965500Y-125415000D03*
X146690500Y-125415000D03*
X146690500Y-127315000D03*
%TD*%
D25*
%TO.C,C54*%
X151130000Y-125200500D03*
X151130000Y-127275500D03*
%TD*%
D23*
%TO.C,R48*%
X178308000Y-116866000D03*
X178308000Y-113766000D03*
%TD*%
D32*
%TO.C,D27*%
X163830000Y-62493000D03*
X163830000Y-60443000D03*
%TD*%
D27*
%TO.C,R30*%
X116602000Y-85598000D03*
X118602000Y-85598000D03*
%TD*%
D40*
%TO.C,D44*%
X203073000Y-90854000D03*
X201803000Y-90854000D03*
X200533000Y-90854000D03*
X199263000Y-90854000D03*
X197993000Y-90854000D03*
X196723000Y-90854000D03*
X195453000Y-90854000D03*
X194183000Y-90854000D03*
X194183000Y-100154000D03*
X195453000Y-100154000D03*
X196723000Y-100154000D03*
X197993000Y-100154000D03*
X199263000Y-100154000D03*
X200533000Y-100154000D03*
X201803000Y-100154000D03*
X203073000Y-100154000D03*
%TD*%
D35*
%TO.C,C32*%
X225171000Y-75095500D03*
X225171000Y-71970500D03*
%TD*%
D22*
%TO.C,R65*%
X117348000Y-122190000D03*
X117348000Y-124190000D03*
%TD*%
D11*
%TO.C,R31*%
X82788000Y-105410000D03*
X80788000Y-105410000D03*
%TD*%
%TO.C,R39*%
X94218000Y-72136000D03*
X92218000Y-72136000D03*
%TD*%
D23*
%TO.C,R43*%
X131318000Y-116866000D03*
X131318000Y-113766000D03*
%TD*%
D10*
%TO.C,R2*%
X108331000Y-135350000D03*
X108331000Y-133350000D03*
%TD*%
D22*
%TO.C,R63*%
X106680000Y-125238000D03*
X106680000Y-127238000D03*
%TD*%
D27*
%TO.C,R11*%
X210582000Y-85598000D03*
X212582000Y-85598000D03*
%TD*%
D39*
%TO.C,L1*%
X104963000Y-110744000D03*
X109413000Y-110744000D03*
%TD*%
D25*
%TO.C,C26*%
X204470000Y-133328500D03*
X204470000Y-135403500D03*
%TD*%
D36*
%TO.C,C64*%
X135106500Y-88392000D03*
X137181500Y-88392000D03*
%TD*%
D43*
%TO.C,D2*%
X83693000Y-97855000D03*
X82423000Y-97855000D03*
X81153000Y-97855000D03*
X79883000Y-97855000D03*
X79883000Y-102805000D03*
X81153000Y-102805000D03*
X82423000Y-102805000D03*
X83693000Y-102805000D03*
%TD*%
D38*
%TO.C,D1*%
X98237000Y-72089000D03*
X99187000Y-72089000D03*
X100137000Y-72089000D03*
X100137000Y-69389000D03*
X98237000Y-69389000D03*
%TD*%
D11*
%TO.C,R80*%
X146542000Y-105156000D03*
X144542000Y-105156000D03*
%TD*%
D27*
%TO.C,R79*%
X146320000Y-86868000D03*
X148320000Y-86868000D03*
%TD*%
D24*
%TO.C,R54*%
X209423000Y-74142000D03*
X209423000Y-77242000D03*
%TD*%
D19*
%TO.C,J5*%
X160782000Y-59194000D03*
X139782000Y-59194000D03*
D20*
X157782000Y-63134000D03*
D21*
X154782000Y-63134000D03*
X151782000Y-63134000D03*
X148782000Y-63134000D03*
X145782000Y-63134000D03*
X142782000Y-63134000D03*
X157782000Y-60134000D03*
X154782000Y-60134000D03*
X151782000Y-60134000D03*
X148782000Y-60134000D03*
X145782000Y-60134000D03*
X142782000Y-60134000D03*
%TD*%
D22*
%TO.C,R26*%
X193802000Y-121428000D03*
X193802000Y-123428000D03*
%TD*%
D23*
%TO.C,R15*%
X105410000Y-77242000D03*
X105410000Y-74142000D03*
%TD*%
D33*
%TO.C,D6*%
X209677000Y-93153000D03*
X210947000Y-93153000D03*
X212217000Y-93153000D03*
X213487000Y-93153000D03*
X213487000Y-88203000D03*
X212217000Y-88203000D03*
X210947000Y-88203000D03*
X209677000Y-88203000D03*
%TD*%
D27*
%TO.C,R69*%
X97552000Y-107442000D03*
X99552000Y-107442000D03*
%TD*%
D11*
%TO.C,R74*%
X141208000Y-86106000D03*
X139208000Y-86106000D03*
%TD*%
D24*
%TO.C,R21*%
X133858000Y-113766000D03*
X133858000Y-116866000D03*
%TD*%
D26*
%TO.C,C47*%
X199390000Y-113753500D03*
X199390000Y-116878500D03*
%TD*%
D31*
%TO.C,D22*%
X110047000Y-121285000D03*
X110047000Y-122555000D03*
X110047000Y-123825000D03*
X110047000Y-125095000D03*
X114997000Y-125095000D03*
X114997000Y-123825000D03*
X114997000Y-122555000D03*
X114997000Y-121285000D03*
%TD*%
D43*
%TO.C,D7*%
X177165000Y-97855000D03*
X175895000Y-97855000D03*
X174625000Y-97855000D03*
X173355000Y-97855000D03*
X173355000Y-102805000D03*
X174625000Y-102805000D03*
X175895000Y-102805000D03*
X177165000Y-102805000D03*
%TD*%
D23*
%TO.C,R47*%
X173228000Y-116866000D03*
X173228000Y-113766000D03*
%TD*%
D32*
%TO.C,D49*%
X212090000Y-62493000D03*
X212090000Y-60443000D03*
%TD*%
D23*
%TO.C,R46*%
X175768000Y-116866000D03*
X175768000Y-113766000D03*
%TD*%
D30*
%TO.C,D10*%
X178054000Y-74930000D03*
X178054000Y-77470000D03*
X178054000Y-80010000D03*
X178054000Y-85090000D03*
X178054000Y-87630000D03*
X178054000Y-90170000D03*
X178054000Y-92710000D03*
%TD*%
D32*
%TO.C,D28*%
X166624000Y-62493000D03*
X166624000Y-60443000D03*
%TD*%
D11*
%TO.C,R92*%
X193532000Y-105156000D03*
X191532000Y-105156000D03*
%TD*%
D23*
%TO.C,R5*%
X79502000Y-116866000D03*
X79502000Y-113766000D03*
%TD*%
%TO.C,R6*%
X82042000Y-116866000D03*
X82042000Y-113766000D03*
%TD*%
D32*
%TO.C,D30*%
X209296000Y-62493000D03*
X209296000Y-60443000D03*
%TD*%
D28*
%TO.C,C20*%
X182537500Y-104394000D03*
X179412500Y-104394000D03*
%TD*%
D41*
%TO.C,L2*%
X92903000Y-81534000D03*
X88453000Y-81534000D03*
%TD*%
D23*
%TO.C,R23*%
X157480000Y-77242000D03*
X157480000Y-74142000D03*
%TD*%
D44*
%TO.C,J1*%
X76750000Y-60500000D03*
X76750000Y-126600000D03*
X100000000Y-52500000D03*
X127350000Y-60500000D03*
X127350000Y-126600000D03*
X174650000Y-60500000D03*
X174650000Y-126600000D03*
X187000000Y-134500000D03*
X225250000Y-60500000D03*
X225250000Y-126600000D03*
D45*
X121950000Y-122350000D03*
X87800000Y-71350000D03*
X93800000Y-119650000D03*
X104000000Y-71350000D03*
X89750000Y-119650000D03*
X108050000Y-71350000D03*
X123350000Y-104350000D03*
X123350000Y-111850000D03*
X168950000Y-122350000D03*
X134800000Y-71350000D03*
X140800000Y-119650000D03*
X151000000Y-71350000D03*
X136750000Y-119650000D03*
X155050000Y-71350000D03*
X170350000Y-104350000D03*
X170350000Y-111850000D03*
X215950000Y-122350000D03*
X181800000Y-71350000D03*
X187800000Y-119650000D03*
X198000000Y-71350000D03*
X183750000Y-119650000D03*
X202050000Y-71350000D03*
X217350000Y-104350000D03*
X217350000Y-111850000D03*
%TD*%
D27*
%TO.C,R85*%
X197374000Y-104902000D03*
X199374000Y-104902000D03*
%TD*%
D43*
%TO.C,D9*%
X130429000Y-97855000D03*
X129159000Y-97855000D03*
X127889000Y-97855000D03*
X126619000Y-97855000D03*
X126619000Y-102805000D03*
X127889000Y-102805000D03*
X129159000Y-102805000D03*
X130429000Y-102805000D03*
%TD*%
D24*
%TO.C,R8*%
X87122000Y-113766000D03*
X87122000Y-116866000D03*
%TD*%
D28*
%TO.C,C36*%
X88977000Y-104394000D03*
X85852000Y-104394000D03*
%TD*%
D31*
%TO.C,U6*%
X156783000Y-127127000D03*
X156783000Y-128397000D03*
X156783000Y-129667000D03*
X156783000Y-130937000D03*
X161733000Y-130937000D03*
X161733000Y-129667000D03*
X161733000Y-128397000D03*
X161733000Y-127127000D03*
%TD*%
D23*
%TO.C,R66*%
X84582000Y-116866000D03*
X84582000Y-113766000D03*
%TD*%
D11*
%TO.C,R71*%
X101330000Y-84582000D03*
X99330000Y-84582000D03*
%TD*%
D22*
%TO.C,R70*%
X100076000Y-121174000D03*
X100076000Y-123174000D03*
%TD*%
D24*
%TO.C,R49*%
X160020000Y-74142000D03*
X160020000Y-77242000D03*
%TD*%
D26*
%TO.C,C48*%
X202946000Y-113753500D03*
X202946000Y-116878500D03*
%TD*%
D29*
%TO.C,D42*%
X148336000Y-76240000D03*
X148336000Y-81240000D03*
%TD*%
D40*
%TO.C,D38*%
X156083000Y-90854000D03*
X154813000Y-90854000D03*
X153543000Y-90854000D03*
X152273000Y-90854000D03*
X151003000Y-90854000D03*
X149733000Y-90854000D03*
X148463000Y-90854000D03*
X147193000Y-90854000D03*
X147193000Y-100154000D03*
X148463000Y-100154000D03*
X149733000Y-100154000D03*
X151003000Y-100154000D03*
X152273000Y-100154000D03*
X153543000Y-100154000D03*
X154813000Y-100154000D03*
X156083000Y-100154000D03*
%TD*%
D26*
%TO.C,C9*%
X108966000Y-113753500D03*
X108966000Y-116878500D03*
%TD*%
D23*
%TO.C,R16*%
X107950000Y-77242000D03*
X107950000Y-74142000D03*
%TD*%
D35*
%TO.C,C12*%
X139446000Y-78524500D03*
X139446000Y-75399500D03*
%TD*%
%TO.C,C38*%
X92456000Y-78524500D03*
X92456000Y-75399500D03*
%TD*%
D24*
%TO.C,R22*%
X136398000Y-113766000D03*
X136398000Y-116866000D03*
%TD*%
D46*
%TO.C,D51*%
X220735000Y-81280000D03*
X218685000Y-81280000D03*
%TD*%
D18*
%TO.C,C3*%
X104101500Y-86614000D03*
X107226500Y-86614000D03*
%TD*%
D29*
%TO.C,D36*%
X101346000Y-76240000D03*
X101346000Y-81240000D03*
%TD*%
D13*
%TO.C,D14*%
X141690785Y-142875000D03*
X141690785Y-158625000D03*
D14*
X155330785Y-150750000D03*
D13*
X168970785Y-142875000D03*
D15*
X168970785Y-158625000D03*
D16*
X155330785Y-138980000D03*
X155330785Y-140250000D03*
X155330785Y-141520000D03*
%TD*%
D33*
%TO.C,D26*%
X178562000Y-66483000D03*
X179832000Y-66483000D03*
X181102000Y-66483000D03*
X182372000Y-66483000D03*
X182372000Y-61533000D03*
X181102000Y-61533000D03*
X179832000Y-61533000D03*
X178562000Y-61533000D03*
%TD*%
D10*
%TO.C,R100*%
X157988000Y-54086000D03*
X157988000Y-52086000D03*
%TD*%
D37*
%TO.C,C69*%
X203475500Y-102616000D03*
X201400500Y-102616000D03*
%TD*%
D10*
%TO.C,R25*%
X191770000Y-123428000D03*
X191770000Y-121428000D03*
%TD*%
D28*
%TO.C,C17*%
X187871500Y-104394000D03*
X184746500Y-104394000D03*
%TD*%
D42*
%TO.C,Q3*%
X205044000Y-54023500D03*
X206944000Y-54023500D03*
X205994000Y-52148500D03*
%TD*%
D24*
%TO.C,R18*%
X113030000Y-74116000D03*
X113030000Y-77216000D03*
%TD*%
D18*
%TO.C,C10*%
X109181500Y-86614000D03*
X112306500Y-86614000D03*
%TD*%
D27*
%TO.C,R97*%
X218710000Y-79121000D03*
X220710000Y-79121000D03*
%TD*%
D23*
%TO.C,R41*%
X199263000Y-77242000D03*
X199263000Y-74142000D03*
%TD*%
D39*
%TO.C,L5*%
X151953000Y-110744000D03*
X156403000Y-110744000D03*
%TD*%
D23*
%TO.C,R36*%
X204343000Y-77242000D03*
X204343000Y-74142000D03*
%TD*%
D36*
%TO.C,C70*%
X182096500Y-88265000D03*
X184171500Y-88265000D03*
%TD*%
D37*
%TO.C,C71*%
X203475500Y-104902000D03*
X201400500Y-104902000D03*
%TD*%
D47*
%TO.C,U1*%
X220726000Y-73279000D03*
X220726000Y-70739000D03*
X220726000Y-68199000D03*
%TD*%
D37*
%TO.C,C63*%
X156485500Y-102616000D03*
X154410500Y-102616000D03*
%TD*%
D17*
%TO.C,D47*%
X191516000Y-115784000D03*
X191516000Y-110784000D03*
%TD*%
D25*
%TO.C,C79*%
X104394000Y-125200500D03*
X104394000Y-127275500D03*
%TD*%
D27*
%TO.C,R77*%
X134017000Y-59182000D03*
X136017000Y-59182000D03*
%TD*%
D10*
%TO.C,R28*%
X198120000Y-123428000D03*
X198120000Y-121428000D03*
%TD*%
D31*
%TO.C,D20*%
X203519000Y-121539000D03*
X203519000Y-122809000D03*
X203519000Y-124079000D03*
X203519000Y-125349000D03*
X208469000Y-125349000D03*
X208469000Y-124079000D03*
X208469000Y-122809000D03*
X208469000Y-121539000D03*
%TD*%
D23*
%TO.C,R45*%
X128778000Y-116866000D03*
X128778000Y-113766000D03*
%TD*%
D34*
%TO.C,D37*%
X182499000Y-100154000D03*
X183769000Y-100154000D03*
X185039000Y-100154000D03*
X186309000Y-100154000D03*
X187579000Y-100154000D03*
X188849000Y-100154000D03*
X190119000Y-100154000D03*
X191389000Y-100154000D03*
X191389000Y-90854000D03*
X190119000Y-90854000D03*
X188849000Y-90854000D03*
X187579000Y-90854000D03*
X186309000Y-90854000D03*
X185039000Y-90854000D03*
X183769000Y-90854000D03*
X182499000Y-90854000D03*
%TD*%
D26*
%TO.C,C39*%
X155956000Y-113753500D03*
X155956000Y-116878500D03*
%TD*%
D24*
%TO.C,R17*%
X118110000Y-74142000D03*
X118110000Y-77242000D03*
%TD*%
%TO.C,R19*%
X115558000Y-74116000D03*
X115558000Y-77216000D03*
%TD*%
D27*
%TO.C,R81*%
X144542000Y-107442000D03*
X146542000Y-107442000D03*
%TD*%
M02*
