%TF.GenerationSoftware,KiCad,Pcbnew,8.0.5-8.0.5-0~ubuntu24.04.1*%
%TF.CreationDate,2024-10-22T13:11:53+03:00*%
%TF.ProjectId,Adapter,41646170-7465-4722-9e6b-696361645f70,rev?*%
%TF.SameCoordinates,Original*%
%TF.FileFunction,Legend,Bot*%
%TF.FilePolarity,Positive*%
%FSLAX46Y46*%
G04 Gerber Fmt 4.6, Leading zero omitted, Abs format (unit mm)*
G04 Created by KiCad (PCBNEW 8.0.5-8.0.5-0~ubuntu24.04.1) date 2024-10-22 13:11:53*
%MOMM*%
%LPD*%
G01*
G04 APERTURE LIST*
%ADD10C,0.150000*%
%ADD11C,0.120000*%
G04 APERTURE END LIST*
D10*
X128690666Y-98784580D02*
X128738285Y-98832200D01*
X128738285Y-98832200D02*
X128881142Y-98879819D01*
X128881142Y-98879819D02*
X128976380Y-98879819D01*
X128976380Y-98879819D02*
X129119237Y-98832200D01*
X129119237Y-98832200D02*
X129214475Y-98736961D01*
X129214475Y-98736961D02*
X129262094Y-98641723D01*
X129262094Y-98641723D02*
X129309713Y-98451247D01*
X129309713Y-98451247D02*
X129309713Y-98308390D01*
X129309713Y-98308390D02*
X129262094Y-98117914D01*
X129262094Y-98117914D02*
X129214475Y-98022676D01*
X129214475Y-98022676D02*
X129119237Y-97927438D01*
X129119237Y-97927438D02*
X128976380Y-97879819D01*
X128976380Y-97879819D02*
X128881142Y-97879819D01*
X128881142Y-97879819D02*
X128738285Y-97927438D01*
X128738285Y-97927438D02*
X128690666Y-97975057D01*
X127833523Y-97879819D02*
X128023999Y-97879819D01*
X128023999Y-97879819D02*
X128119237Y-97927438D01*
X128119237Y-97927438D02*
X128166856Y-97975057D01*
X128166856Y-97975057D02*
X128262094Y-98117914D01*
X128262094Y-98117914D02*
X128309713Y-98308390D01*
X128309713Y-98308390D02*
X128309713Y-98689342D01*
X128309713Y-98689342D02*
X128262094Y-98784580D01*
X128262094Y-98784580D02*
X128214475Y-98832200D01*
X128214475Y-98832200D02*
X128119237Y-98879819D01*
X128119237Y-98879819D02*
X127928761Y-98879819D01*
X127928761Y-98879819D02*
X127833523Y-98832200D01*
X127833523Y-98832200D02*
X127785904Y-98784580D01*
X127785904Y-98784580D02*
X127738285Y-98689342D01*
X127738285Y-98689342D02*
X127738285Y-98451247D01*
X127738285Y-98451247D02*
X127785904Y-98356009D01*
X127785904Y-98356009D02*
X127833523Y-98308390D01*
X127833523Y-98308390D02*
X127928761Y-98260771D01*
X127928761Y-98260771D02*
X128119237Y-98260771D01*
X128119237Y-98260771D02*
X128214475Y-98308390D01*
X128214475Y-98308390D02*
X128262094Y-98356009D01*
X128262094Y-98356009D02*
X128309713Y-98451247D01*
X141104857Y-74146580D02*
X141152476Y-74194200D01*
X141152476Y-74194200D02*
X141295333Y-74241819D01*
X141295333Y-74241819D02*
X141390571Y-74241819D01*
X141390571Y-74241819D02*
X141533428Y-74194200D01*
X141533428Y-74194200D02*
X141628666Y-74098961D01*
X141628666Y-74098961D02*
X141676285Y-74003723D01*
X141676285Y-74003723D02*
X141723904Y-73813247D01*
X141723904Y-73813247D02*
X141723904Y-73670390D01*
X141723904Y-73670390D02*
X141676285Y-73479914D01*
X141676285Y-73479914D02*
X141628666Y-73384676D01*
X141628666Y-73384676D02*
X141533428Y-73289438D01*
X141533428Y-73289438D02*
X141390571Y-73241819D01*
X141390571Y-73241819D02*
X141295333Y-73241819D01*
X141295333Y-73241819D02*
X141152476Y-73289438D01*
X141152476Y-73289438D02*
X141104857Y-73337057D01*
X140533428Y-73670390D02*
X140628666Y-73622771D01*
X140628666Y-73622771D02*
X140676285Y-73575152D01*
X140676285Y-73575152D02*
X140723904Y-73479914D01*
X140723904Y-73479914D02*
X140723904Y-73432295D01*
X140723904Y-73432295D02*
X140676285Y-73337057D01*
X140676285Y-73337057D02*
X140628666Y-73289438D01*
X140628666Y-73289438D02*
X140533428Y-73241819D01*
X140533428Y-73241819D02*
X140342952Y-73241819D01*
X140342952Y-73241819D02*
X140247714Y-73289438D01*
X140247714Y-73289438D02*
X140200095Y-73337057D01*
X140200095Y-73337057D02*
X140152476Y-73432295D01*
X140152476Y-73432295D02*
X140152476Y-73479914D01*
X140152476Y-73479914D02*
X140200095Y-73575152D01*
X140200095Y-73575152D02*
X140247714Y-73622771D01*
X140247714Y-73622771D02*
X140342952Y-73670390D01*
X140342952Y-73670390D02*
X140533428Y-73670390D01*
X140533428Y-73670390D02*
X140628666Y-73718009D01*
X140628666Y-73718009D02*
X140676285Y-73765628D01*
X140676285Y-73765628D02*
X140723904Y-73860866D01*
X140723904Y-73860866D02*
X140723904Y-74051342D01*
X140723904Y-74051342D02*
X140676285Y-74146580D01*
X140676285Y-74146580D02*
X140628666Y-74194200D01*
X140628666Y-74194200D02*
X140533428Y-74241819D01*
X140533428Y-74241819D02*
X140342952Y-74241819D01*
X140342952Y-74241819D02*
X140247714Y-74194200D01*
X140247714Y-74194200D02*
X140200095Y-74146580D01*
X140200095Y-74146580D02*
X140152476Y-74051342D01*
X140152476Y-74051342D02*
X140152476Y-73860866D01*
X140152476Y-73860866D02*
X140200095Y-73765628D01*
X140200095Y-73765628D02*
X140247714Y-73718009D01*
X140247714Y-73718009D02*
X140342952Y-73670390D01*
X139819142Y-73241819D02*
X139200095Y-73241819D01*
X139200095Y-73241819D02*
X139533428Y-73622771D01*
X139533428Y-73622771D02*
X139390571Y-73622771D01*
X139390571Y-73622771D02*
X139295333Y-73670390D01*
X139295333Y-73670390D02*
X139247714Y-73718009D01*
X139247714Y-73718009D02*
X139200095Y-73813247D01*
X139200095Y-73813247D02*
X139200095Y-74051342D01*
X139200095Y-74051342D02*
X139247714Y-74146580D01*
X139247714Y-74146580D02*
X139295333Y-74194200D01*
X139295333Y-74194200D02*
X139390571Y-74241819D01*
X139390571Y-74241819D02*
X139676285Y-74241819D01*
X139676285Y-74241819D02*
X139771523Y-74194200D01*
X139771523Y-74194200D02*
X139819142Y-74146580D01*
X140057047Y-124533819D02*
X140390380Y-124057628D01*
X140628475Y-124533819D02*
X140628475Y-123533819D01*
X140628475Y-123533819D02*
X140247523Y-123533819D01*
X140247523Y-123533819D02*
X140152285Y-123581438D01*
X140152285Y-123581438D02*
X140104666Y-123629057D01*
X140104666Y-123629057D02*
X140057047Y-123724295D01*
X140057047Y-123724295D02*
X140057047Y-123867152D01*
X140057047Y-123867152D02*
X140104666Y-123962390D01*
X140104666Y-123962390D02*
X140152285Y-124010009D01*
X140152285Y-124010009D02*
X140247523Y-124057628D01*
X140247523Y-124057628D02*
X140628475Y-124057628D01*
X139104666Y-124533819D02*
X139676094Y-124533819D01*
X139390380Y-124533819D02*
X139390380Y-123533819D01*
X139390380Y-123533819D02*
X139485618Y-123676676D01*
X139485618Y-123676676D02*
X139580856Y-123771914D01*
X139580856Y-123771914D02*
X139676094Y-123819533D01*
X138485618Y-123533819D02*
X138390380Y-123533819D01*
X138390380Y-123533819D02*
X138295142Y-123581438D01*
X138295142Y-123581438D02*
X138247523Y-123629057D01*
X138247523Y-123629057D02*
X138199904Y-123724295D01*
X138199904Y-123724295D02*
X138152285Y-123914771D01*
X138152285Y-123914771D02*
X138152285Y-124152866D01*
X138152285Y-124152866D02*
X138199904Y-124343342D01*
X138199904Y-124343342D02*
X138247523Y-124438580D01*
X138247523Y-124438580D02*
X138295142Y-124486200D01*
X138295142Y-124486200D02*
X138390380Y-124533819D01*
X138390380Y-124533819D02*
X138485618Y-124533819D01*
X138485618Y-124533819D02*
X138580856Y-124486200D01*
X138580856Y-124486200D02*
X138628475Y-124438580D01*
X138628475Y-124438580D02*
X138676094Y-124343342D01*
X138676094Y-124343342D02*
X138723713Y-124152866D01*
X138723713Y-124152866D02*
X138723713Y-123914771D01*
X138723713Y-123914771D02*
X138676094Y-123724295D01*
X138676094Y-123724295D02*
X138628475Y-123629057D01*
X138628475Y-123629057D02*
X138580856Y-123581438D01*
X138580856Y-123581438D02*
X138485618Y-123533819D01*
X137247523Y-123533819D02*
X137723713Y-123533819D01*
X137723713Y-123533819D02*
X137771332Y-124010009D01*
X137771332Y-124010009D02*
X137723713Y-123962390D01*
X137723713Y-123962390D02*
X137628475Y-123914771D01*
X137628475Y-123914771D02*
X137390380Y-123914771D01*
X137390380Y-123914771D02*
X137295142Y-123962390D01*
X137295142Y-123962390D02*
X137247523Y-124010009D01*
X137247523Y-124010009D02*
X137199904Y-124105247D01*
X137199904Y-124105247D02*
X137199904Y-124343342D01*
X137199904Y-124343342D02*
X137247523Y-124438580D01*
X137247523Y-124438580D02*
X137295142Y-124486200D01*
X137295142Y-124486200D02*
X137390380Y-124533819D01*
X137390380Y-124533819D02*
X137628475Y-124533819D01*
X137628475Y-124533819D02*
X137723713Y-124486200D01*
X137723713Y-124486200D02*
X137771332Y-124438580D01*
X110751857Y-87989580D02*
X110799476Y-88037200D01*
X110799476Y-88037200D02*
X110942333Y-88084819D01*
X110942333Y-88084819D02*
X111037571Y-88084819D01*
X111037571Y-88084819D02*
X111180428Y-88037200D01*
X111180428Y-88037200D02*
X111275666Y-87941961D01*
X111275666Y-87941961D02*
X111323285Y-87846723D01*
X111323285Y-87846723D02*
X111370904Y-87656247D01*
X111370904Y-87656247D02*
X111370904Y-87513390D01*
X111370904Y-87513390D02*
X111323285Y-87322914D01*
X111323285Y-87322914D02*
X111275666Y-87227676D01*
X111275666Y-87227676D02*
X111180428Y-87132438D01*
X111180428Y-87132438D02*
X111037571Y-87084819D01*
X111037571Y-87084819D02*
X110942333Y-87084819D01*
X110942333Y-87084819D02*
X110799476Y-87132438D01*
X110799476Y-87132438D02*
X110751857Y-87180057D01*
X109894714Y-87084819D02*
X110085190Y-87084819D01*
X110085190Y-87084819D02*
X110180428Y-87132438D01*
X110180428Y-87132438D02*
X110228047Y-87180057D01*
X110228047Y-87180057D02*
X110323285Y-87322914D01*
X110323285Y-87322914D02*
X110370904Y-87513390D01*
X110370904Y-87513390D02*
X110370904Y-87894342D01*
X110370904Y-87894342D02*
X110323285Y-87989580D01*
X110323285Y-87989580D02*
X110275666Y-88037200D01*
X110275666Y-88037200D02*
X110180428Y-88084819D01*
X110180428Y-88084819D02*
X109989952Y-88084819D01*
X109989952Y-88084819D02*
X109894714Y-88037200D01*
X109894714Y-88037200D02*
X109847095Y-87989580D01*
X109847095Y-87989580D02*
X109799476Y-87894342D01*
X109799476Y-87894342D02*
X109799476Y-87656247D01*
X109799476Y-87656247D02*
X109847095Y-87561009D01*
X109847095Y-87561009D02*
X109894714Y-87513390D01*
X109894714Y-87513390D02*
X109989952Y-87465771D01*
X109989952Y-87465771D02*
X110180428Y-87465771D01*
X110180428Y-87465771D02*
X110275666Y-87513390D01*
X110275666Y-87513390D02*
X110323285Y-87561009D01*
X110323285Y-87561009D02*
X110370904Y-87656247D01*
X109418523Y-87180057D02*
X109370904Y-87132438D01*
X109370904Y-87132438D02*
X109275666Y-87084819D01*
X109275666Y-87084819D02*
X109037571Y-87084819D01*
X109037571Y-87084819D02*
X108942333Y-87132438D01*
X108942333Y-87132438D02*
X108894714Y-87180057D01*
X108894714Y-87180057D02*
X108847095Y-87275295D01*
X108847095Y-87275295D02*
X108847095Y-87370533D01*
X108847095Y-87370533D02*
X108894714Y-87513390D01*
X108894714Y-87513390D02*
X109466142Y-88084819D01*
X109466142Y-88084819D02*
X108847095Y-88084819D01*
X87415666Y-66047580D02*
X87463285Y-66095200D01*
X87463285Y-66095200D02*
X87606142Y-66142819D01*
X87606142Y-66142819D02*
X87701380Y-66142819D01*
X87701380Y-66142819D02*
X87844237Y-66095200D01*
X87844237Y-66095200D02*
X87939475Y-65999961D01*
X87939475Y-65999961D02*
X87987094Y-65904723D01*
X87987094Y-65904723D02*
X88034713Y-65714247D01*
X88034713Y-65714247D02*
X88034713Y-65571390D01*
X88034713Y-65571390D02*
X87987094Y-65380914D01*
X87987094Y-65380914D02*
X87939475Y-65285676D01*
X87939475Y-65285676D02*
X87844237Y-65190438D01*
X87844237Y-65190438D02*
X87701380Y-65142819D01*
X87701380Y-65142819D02*
X87606142Y-65142819D01*
X87606142Y-65142819D02*
X87463285Y-65190438D01*
X87463285Y-65190438D02*
X87415666Y-65238057D01*
X86463285Y-66142819D02*
X87034713Y-66142819D01*
X86748999Y-66142819D02*
X86748999Y-65142819D01*
X86748999Y-65142819D02*
X86844237Y-65285676D01*
X86844237Y-65285676D02*
X86939475Y-65380914D01*
X86939475Y-65380914D02*
X87034713Y-65428533D01*
X115897819Y-57015142D02*
X115421628Y-56681809D01*
X115897819Y-56443714D02*
X114897819Y-56443714D01*
X114897819Y-56443714D02*
X114897819Y-56824666D01*
X114897819Y-56824666D02*
X114945438Y-56919904D01*
X114945438Y-56919904D02*
X114993057Y-56967523D01*
X114993057Y-56967523D02*
X115088295Y-57015142D01*
X115088295Y-57015142D02*
X115231152Y-57015142D01*
X115231152Y-57015142D02*
X115326390Y-56967523D01*
X115326390Y-56967523D02*
X115374009Y-56919904D01*
X115374009Y-56919904D02*
X115421628Y-56824666D01*
X115421628Y-56824666D02*
X115421628Y-56443714D01*
X114897819Y-57348476D02*
X114897819Y-57967523D01*
X114897819Y-57967523D02*
X115278771Y-57634190D01*
X115278771Y-57634190D02*
X115278771Y-57777047D01*
X115278771Y-57777047D02*
X115326390Y-57872285D01*
X115326390Y-57872285D02*
X115374009Y-57919904D01*
X115374009Y-57919904D02*
X115469247Y-57967523D01*
X115469247Y-57967523D02*
X115707342Y-57967523D01*
X115707342Y-57967523D02*
X115802580Y-57919904D01*
X115802580Y-57919904D02*
X115850200Y-57872285D01*
X115850200Y-57872285D02*
X115897819Y-57777047D01*
X115897819Y-57777047D02*
X115897819Y-57491333D01*
X115897819Y-57491333D02*
X115850200Y-57396095D01*
X115850200Y-57396095D02*
X115802580Y-57348476D01*
X114897819Y-58300857D02*
X114897819Y-58967523D01*
X114897819Y-58967523D02*
X115897819Y-58538952D01*
X135135857Y-103483580D02*
X135183476Y-103531200D01*
X135183476Y-103531200D02*
X135326333Y-103578819D01*
X135326333Y-103578819D02*
X135421571Y-103578819D01*
X135421571Y-103578819D02*
X135564428Y-103531200D01*
X135564428Y-103531200D02*
X135659666Y-103435961D01*
X135659666Y-103435961D02*
X135707285Y-103340723D01*
X135707285Y-103340723D02*
X135754904Y-103150247D01*
X135754904Y-103150247D02*
X135754904Y-103007390D01*
X135754904Y-103007390D02*
X135707285Y-102816914D01*
X135707285Y-102816914D02*
X135659666Y-102721676D01*
X135659666Y-102721676D02*
X135564428Y-102626438D01*
X135564428Y-102626438D02*
X135421571Y-102578819D01*
X135421571Y-102578819D02*
X135326333Y-102578819D01*
X135326333Y-102578819D02*
X135183476Y-102626438D01*
X135183476Y-102626438D02*
X135135857Y-102674057D01*
X134278714Y-102578819D02*
X134469190Y-102578819D01*
X134469190Y-102578819D02*
X134564428Y-102626438D01*
X134564428Y-102626438D02*
X134612047Y-102674057D01*
X134612047Y-102674057D02*
X134707285Y-102816914D01*
X134707285Y-102816914D02*
X134754904Y-103007390D01*
X134754904Y-103007390D02*
X134754904Y-103388342D01*
X134754904Y-103388342D02*
X134707285Y-103483580D01*
X134707285Y-103483580D02*
X134659666Y-103531200D01*
X134659666Y-103531200D02*
X134564428Y-103578819D01*
X134564428Y-103578819D02*
X134373952Y-103578819D01*
X134373952Y-103578819D02*
X134278714Y-103531200D01*
X134278714Y-103531200D02*
X134231095Y-103483580D01*
X134231095Y-103483580D02*
X134183476Y-103388342D01*
X134183476Y-103388342D02*
X134183476Y-103150247D01*
X134183476Y-103150247D02*
X134231095Y-103055009D01*
X134231095Y-103055009D02*
X134278714Y-103007390D01*
X134278714Y-103007390D02*
X134373952Y-102959771D01*
X134373952Y-102959771D02*
X134564428Y-102959771D01*
X134564428Y-102959771D02*
X134659666Y-103007390D01*
X134659666Y-103007390D02*
X134707285Y-103055009D01*
X134707285Y-103055009D02*
X134754904Y-103150247D01*
X133850142Y-102578819D02*
X133183476Y-102578819D01*
X133183476Y-102578819D02*
X133612047Y-103578819D01*
X181109857Y-66047580D02*
X181157476Y-66095200D01*
X181157476Y-66095200D02*
X181300333Y-66142819D01*
X181300333Y-66142819D02*
X181395571Y-66142819D01*
X181395571Y-66142819D02*
X181538428Y-66095200D01*
X181538428Y-66095200D02*
X181633666Y-65999961D01*
X181633666Y-65999961D02*
X181681285Y-65904723D01*
X181681285Y-65904723D02*
X181728904Y-65714247D01*
X181728904Y-65714247D02*
X181728904Y-65571390D01*
X181728904Y-65571390D02*
X181681285Y-65380914D01*
X181681285Y-65380914D02*
X181633666Y-65285676D01*
X181633666Y-65285676D02*
X181538428Y-65190438D01*
X181538428Y-65190438D02*
X181395571Y-65142819D01*
X181395571Y-65142819D02*
X181300333Y-65142819D01*
X181300333Y-65142819D02*
X181157476Y-65190438D01*
X181157476Y-65190438D02*
X181109857Y-65238057D01*
X180538428Y-65571390D02*
X180633666Y-65523771D01*
X180633666Y-65523771D02*
X180681285Y-65476152D01*
X180681285Y-65476152D02*
X180728904Y-65380914D01*
X180728904Y-65380914D02*
X180728904Y-65333295D01*
X180728904Y-65333295D02*
X180681285Y-65238057D01*
X180681285Y-65238057D02*
X180633666Y-65190438D01*
X180633666Y-65190438D02*
X180538428Y-65142819D01*
X180538428Y-65142819D02*
X180347952Y-65142819D01*
X180347952Y-65142819D02*
X180252714Y-65190438D01*
X180252714Y-65190438D02*
X180205095Y-65238057D01*
X180205095Y-65238057D02*
X180157476Y-65333295D01*
X180157476Y-65333295D02*
X180157476Y-65380914D01*
X180157476Y-65380914D02*
X180205095Y-65476152D01*
X180205095Y-65476152D02*
X180252714Y-65523771D01*
X180252714Y-65523771D02*
X180347952Y-65571390D01*
X180347952Y-65571390D02*
X180538428Y-65571390D01*
X180538428Y-65571390D02*
X180633666Y-65619009D01*
X180633666Y-65619009D02*
X180681285Y-65666628D01*
X180681285Y-65666628D02*
X180728904Y-65761866D01*
X180728904Y-65761866D02*
X180728904Y-65952342D01*
X180728904Y-65952342D02*
X180681285Y-66047580D01*
X180681285Y-66047580D02*
X180633666Y-66095200D01*
X180633666Y-66095200D02*
X180538428Y-66142819D01*
X180538428Y-66142819D02*
X180347952Y-66142819D01*
X180347952Y-66142819D02*
X180252714Y-66095200D01*
X180252714Y-66095200D02*
X180205095Y-66047580D01*
X180205095Y-66047580D02*
X180157476Y-65952342D01*
X180157476Y-65952342D02*
X180157476Y-65761866D01*
X180157476Y-65761866D02*
X180205095Y-65666628D01*
X180205095Y-65666628D02*
X180252714Y-65619009D01*
X180252714Y-65619009D02*
X180347952Y-65571390D01*
X179681285Y-66142819D02*
X179490809Y-66142819D01*
X179490809Y-66142819D02*
X179395571Y-66095200D01*
X179395571Y-66095200D02*
X179347952Y-66047580D01*
X179347952Y-66047580D02*
X179252714Y-65904723D01*
X179252714Y-65904723D02*
X179205095Y-65714247D01*
X179205095Y-65714247D02*
X179205095Y-65333295D01*
X179205095Y-65333295D02*
X179252714Y-65238057D01*
X179252714Y-65238057D02*
X179300333Y-65190438D01*
X179300333Y-65190438D02*
X179395571Y-65142819D01*
X179395571Y-65142819D02*
X179586047Y-65142819D01*
X179586047Y-65142819D02*
X179681285Y-65190438D01*
X179681285Y-65190438D02*
X179728904Y-65238057D01*
X179728904Y-65238057D02*
X179776523Y-65333295D01*
X179776523Y-65333295D02*
X179776523Y-65571390D01*
X179776523Y-65571390D02*
X179728904Y-65666628D01*
X179728904Y-65666628D02*
X179681285Y-65714247D01*
X179681285Y-65714247D02*
X179586047Y-65761866D01*
X179586047Y-65761866D02*
X179395571Y-65761866D01*
X179395571Y-65761866D02*
X179300333Y-65714247D01*
X179300333Y-65714247D02*
X179252714Y-65666628D01*
X179252714Y-65666628D02*
X179205095Y-65571390D01*
X212544819Y-57142142D02*
X212068628Y-56808809D01*
X212544819Y-56570714D02*
X211544819Y-56570714D01*
X211544819Y-56570714D02*
X211544819Y-56951666D01*
X211544819Y-56951666D02*
X211592438Y-57046904D01*
X211592438Y-57046904D02*
X211640057Y-57094523D01*
X211640057Y-57094523D02*
X211735295Y-57142142D01*
X211735295Y-57142142D02*
X211878152Y-57142142D01*
X211878152Y-57142142D02*
X211973390Y-57094523D01*
X211973390Y-57094523D02*
X212021009Y-57046904D01*
X212021009Y-57046904D02*
X212068628Y-56951666D01*
X212068628Y-56951666D02*
X212068628Y-56570714D01*
X212544819Y-57618333D02*
X212544819Y-57808809D01*
X212544819Y-57808809D02*
X212497200Y-57904047D01*
X212497200Y-57904047D02*
X212449580Y-57951666D01*
X212449580Y-57951666D02*
X212306723Y-58046904D01*
X212306723Y-58046904D02*
X212116247Y-58094523D01*
X212116247Y-58094523D02*
X211735295Y-58094523D01*
X211735295Y-58094523D02*
X211640057Y-58046904D01*
X211640057Y-58046904D02*
X211592438Y-57999285D01*
X211592438Y-57999285D02*
X211544819Y-57904047D01*
X211544819Y-57904047D02*
X211544819Y-57713571D01*
X211544819Y-57713571D02*
X211592438Y-57618333D01*
X211592438Y-57618333D02*
X211640057Y-57570714D01*
X211640057Y-57570714D02*
X211735295Y-57523095D01*
X211735295Y-57523095D02*
X211973390Y-57523095D01*
X211973390Y-57523095D02*
X212068628Y-57570714D01*
X212068628Y-57570714D02*
X212116247Y-57618333D01*
X212116247Y-57618333D02*
X212163866Y-57713571D01*
X212163866Y-57713571D02*
X212163866Y-57904047D01*
X212163866Y-57904047D02*
X212116247Y-57999285D01*
X212116247Y-57999285D02*
X212068628Y-58046904D01*
X212068628Y-58046904D02*
X211973390Y-58094523D01*
X211878152Y-58951666D02*
X212544819Y-58951666D01*
X211497200Y-58713571D02*
X212211485Y-58475476D01*
X212211485Y-58475476D02*
X212211485Y-59094523D01*
X108661580Y-128389142D02*
X108709200Y-128341523D01*
X108709200Y-128341523D02*
X108756819Y-128198666D01*
X108756819Y-128198666D02*
X108756819Y-128103428D01*
X108756819Y-128103428D02*
X108709200Y-127960571D01*
X108709200Y-127960571D02*
X108613961Y-127865333D01*
X108613961Y-127865333D02*
X108518723Y-127817714D01*
X108518723Y-127817714D02*
X108328247Y-127770095D01*
X108328247Y-127770095D02*
X108185390Y-127770095D01*
X108185390Y-127770095D02*
X107994914Y-127817714D01*
X107994914Y-127817714D02*
X107899676Y-127865333D01*
X107899676Y-127865333D02*
X107804438Y-127960571D01*
X107804438Y-127960571D02*
X107756819Y-128103428D01*
X107756819Y-128103428D02*
X107756819Y-128198666D01*
X107756819Y-128198666D02*
X107804438Y-128341523D01*
X107804438Y-128341523D02*
X107852057Y-128389142D01*
X107756819Y-128722476D02*
X107756819Y-129389142D01*
X107756819Y-129389142D02*
X108756819Y-128960571D01*
X107756819Y-129674857D02*
X107756819Y-130341523D01*
X107756819Y-130341523D02*
X108756819Y-129912952D01*
X111201580Y-122547142D02*
X111249200Y-122499523D01*
X111249200Y-122499523D02*
X111296819Y-122356666D01*
X111296819Y-122356666D02*
X111296819Y-122261428D01*
X111296819Y-122261428D02*
X111249200Y-122118571D01*
X111249200Y-122118571D02*
X111153961Y-122023333D01*
X111153961Y-122023333D02*
X111058723Y-121975714D01*
X111058723Y-121975714D02*
X110868247Y-121928095D01*
X110868247Y-121928095D02*
X110725390Y-121928095D01*
X110725390Y-121928095D02*
X110534914Y-121975714D01*
X110534914Y-121975714D02*
X110439676Y-122023333D01*
X110439676Y-122023333D02*
X110344438Y-122118571D01*
X110344438Y-122118571D02*
X110296819Y-122261428D01*
X110296819Y-122261428D02*
X110296819Y-122356666D01*
X110296819Y-122356666D02*
X110344438Y-122499523D01*
X110344438Y-122499523D02*
X110392057Y-122547142D01*
X110296819Y-122880476D02*
X110296819Y-123547142D01*
X110296819Y-123547142D02*
X111296819Y-123118571D01*
X110296819Y-124356666D02*
X110296819Y-124166190D01*
X110296819Y-124166190D02*
X110344438Y-124070952D01*
X110344438Y-124070952D02*
X110392057Y-124023333D01*
X110392057Y-124023333D02*
X110534914Y-123928095D01*
X110534914Y-123928095D02*
X110725390Y-123880476D01*
X110725390Y-123880476D02*
X111106342Y-123880476D01*
X111106342Y-123880476D02*
X111201580Y-123928095D01*
X111201580Y-123928095D02*
X111249200Y-123975714D01*
X111249200Y-123975714D02*
X111296819Y-124070952D01*
X111296819Y-124070952D02*
X111296819Y-124261428D01*
X111296819Y-124261428D02*
X111249200Y-124356666D01*
X111249200Y-124356666D02*
X111201580Y-124404285D01*
X111201580Y-124404285D02*
X111106342Y-124451904D01*
X111106342Y-124451904D02*
X110868247Y-124451904D01*
X110868247Y-124451904D02*
X110773009Y-124404285D01*
X110773009Y-124404285D02*
X110725390Y-124356666D01*
X110725390Y-124356666D02*
X110677771Y-124261428D01*
X110677771Y-124261428D02*
X110677771Y-124070952D01*
X110677771Y-124070952D02*
X110725390Y-123975714D01*
X110725390Y-123975714D02*
X110773009Y-123928095D01*
X110773009Y-123928095D02*
X110868247Y-123880476D01*
X184538857Y-70336580D02*
X184586476Y-70384200D01*
X184586476Y-70384200D02*
X184729333Y-70431819D01*
X184729333Y-70431819D02*
X184824571Y-70431819D01*
X184824571Y-70431819D02*
X184967428Y-70384200D01*
X184967428Y-70384200D02*
X185062666Y-70288961D01*
X185062666Y-70288961D02*
X185110285Y-70193723D01*
X185110285Y-70193723D02*
X185157904Y-70003247D01*
X185157904Y-70003247D02*
X185157904Y-69860390D01*
X185157904Y-69860390D02*
X185110285Y-69669914D01*
X185110285Y-69669914D02*
X185062666Y-69574676D01*
X185062666Y-69574676D02*
X184967428Y-69479438D01*
X184967428Y-69479438D02*
X184824571Y-69431819D01*
X184824571Y-69431819D02*
X184729333Y-69431819D01*
X184729333Y-69431819D02*
X184586476Y-69479438D01*
X184586476Y-69479438D02*
X184538857Y-69527057D01*
X183967428Y-69860390D02*
X184062666Y-69812771D01*
X184062666Y-69812771D02*
X184110285Y-69765152D01*
X184110285Y-69765152D02*
X184157904Y-69669914D01*
X184157904Y-69669914D02*
X184157904Y-69622295D01*
X184157904Y-69622295D02*
X184110285Y-69527057D01*
X184110285Y-69527057D02*
X184062666Y-69479438D01*
X184062666Y-69479438D02*
X183967428Y-69431819D01*
X183967428Y-69431819D02*
X183776952Y-69431819D01*
X183776952Y-69431819D02*
X183681714Y-69479438D01*
X183681714Y-69479438D02*
X183634095Y-69527057D01*
X183634095Y-69527057D02*
X183586476Y-69622295D01*
X183586476Y-69622295D02*
X183586476Y-69669914D01*
X183586476Y-69669914D02*
X183634095Y-69765152D01*
X183634095Y-69765152D02*
X183681714Y-69812771D01*
X183681714Y-69812771D02*
X183776952Y-69860390D01*
X183776952Y-69860390D02*
X183967428Y-69860390D01*
X183967428Y-69860390D02*
X184062666Y-69908009D01*
X184062666Y-69908009D02*
X184110285Y-69955628D01*
X184110285Y-69955628D02*
X184157904Y-70050866D01*
X184157904Y-70050866D02*
X184157904Y-70241342D01*
X184157904Y-70241342D02*
X184110285Y-70336580D01*
X184110285Y-70336580D02*
X184062666Y-70384200D01*
X184062666Y-70384200D02*
X183967428Y-70431819D01*
X183967428Y-70431819D02*
X183776952Y-70431819D01*
X183776952Y-70431819D02*
X183681714Y-70384200D01*
X183681714Y-70384200D02*
X183634095Y-70336580D01*
X183634095Y-70336580D02*
X183586476Y-70241342D01*
X183586476Y-70241342D02*
X183586476Y-70050866D01*
X183586476Y-70050866D02*
X183634095Y-69955628D01*
X183634095Y-69955628D02*
X183681714Y-69908009D01*
X183681714Y-69908009D02*
X183776952Y-69860390D01*
X182729333Y-69431819D02*
X182919809Y-69431819D01*
X182919809Y-69431819D02*
X183015047Y-69479438D01*
X183015047Y-69479438D02*
X183062666Y-69527057D01*
X183062666Y-69527057D02*
X183157904Y-69669914D01*
X183157904Y-69669914D02*
X183205523Y-69860390D01*
X183205523Y-69860390D02*
X183205523Y-70241342D01*
X183205523Y-70241342D02*
X183157904Y-70336580D01*
X183157904Y-70336580D02*
X183110285Y-70384200D01*
X183110285Y-70384200D02*
X183015047Y-70431819D01*
X183015047Y-70431819D02*
X182824571Y-70431819D01*
X182824571Y-70431819D02*
X182729333Y-70384200D01*
X182729333Y-70384200D02*
X182681714Y-70336580D01*
X182681714Y-70336580D02*
X182634095Y-70241342D01*
X182634095Y-70241342D02*
X182634095Y-70003247D01*
X182634095Y-70003247D02*
X182681714Y-69908009D01*
X182681714Y-69908009D02*
X182729333Y-69860390D01*
X182729333Y-69860390D02*
X182824571Y-69812771D01*
X182824571Y-69812771D02*
X183015047Y-69812771D01*
X183015047Y-69812771D02*
X183110285Y-69860390D01*
X183110285Y-69860390D02*
X183157904Y-69908009D01*
X183157904Y-69908009D02*
X183205523Y-70003247D01*
X165012666Y-92688580D02*
X165060285Y-92736200D01*
X165060285Y-92736200D02*
X165203142Y-92783819D01*
X165203142Y-92783819D02*
X165298380Y-92783819D01*
X165298380Y-92783819D02*
X165441237Y-92736200D01*
X165441237Y-92736200D02*
X165536475Y-92640961D01*
X165536475Y-92640961D02*
X165584094Y-92545723D01*
X165584094Y-92545723D02*
X165631713Y-92355247D01*
X165631713Y-92355247D02*
X165631713Y-92212390D01*
X165631713Y-92212390D02*
X165584094Y-92021914D01*
X165584094Y-92021914D02*
X165536475Y-91926676D01*
X165536475Y-91926676D02*
X165441237Y-91831438D01*
X165441237Y-91831438D02*
X165298380Y-91783819D01*
X165298380Y-91783819D02*
X165203142Y-91783819D01*
X165203142Y-91783819D02*
X165060285Y-91831438D01*
X165060285Y-91831438D02*
X165012666Y-91879057D01*
X164107904Y-91783819D02*
X164584094Y-91783819D01*
X164584094Y-91783819D02*
X164631713Y-92260009D01*
X164631713Y-92260009D02*
X164584094Y-92212390D01*
X164584094Y-92212390D02*
X164488856Y-92164771D01*
X164488856Y-92164771D02*
X164250761Y-92164771D01*
X164250761Y-92164771D02*
X164155523Y-92212390D01*
X164155523Y-92212390D02*
X164107904Y-92260009D01*
X164107904Y-92260009D02*
X164060285Y-92355247D01*
X164060285Y-92355247D02*
X164060285Y-92593342D01*
X164060285Y-92593342D02*
X164107904Y-92688580D01*
X164107904Y-92688580D02*
X164155523Y-92736200D01*
X164155523Y-92736200D02*
X164250761Y-92783819D01*
X164250761Y-92783819D02*
X164488856Y-92783819D01*
X164488856Y-92783819D02*
X164584094Y-92736200D01*
X164584094Y-92736200D02*
X164631713Y-92688580D01*
X112373580Y-139565142D02*
X112421200Y-139517523D01*
X112421200Y-139517523D02*
X112468819Y-139374666D01*
X112468819Y-139374666D02*
X112468819Y-139279428D01*
X112468819Y-139279428D02*
X112421200Y-139136571D01*
X112421200Y-139136571D02*
X112325961Y-139041333D01*
X112325961Y-139041333D02*
X112230723Y-138993714D01*
X112230723Y-138993714D02*
X112040247Y-138946095D01*
X112040247Y-138946095D02*
X111897390Y-138946095D01*
X111897390Y-138946095D02*
X111706914Y-138993714D01*
X111706914Y-138993714D02*
X111611676Y-139041333D01*
X111611676Y-139041333D02*
X111516438Y-139136571D01*
X111516438Y-139136571D02*
X111468819Y-139279428D01*
X111468819Y-139279428D02*
X111468819Y-139374666D01*
X111468819Y-139374666D02*
X111516438Y-139517523D01*
X111516438Y-139517523D02*
X111564057Y-139565142D01*
X111564057Y-139946095D02*
X111516438Y-139993714D01*
X111516438Y-139993714D02*
X111468819Y-140088952D01*
X111468819Y-140088952D02*
X111468819Y-140327047D01*
X111468819Y-140327047D02*
X111516438Y-140422285D01*
X111516438Y-140422285D02*
X111564057Y-140469904D01*
X111564057Y-140469904D02*
X111659295Y-140517523D01*
X111659295Y-140517523D02*
X111754533Y-140517523D01*
X111754533Y-140517523D02*
X111897390Y-140469904D01*
X111897390Y-140469904D02*
X112468819Y-139898476D01*
X112468819Y-139898476D02*
X112468819Y-140517523D01*
X112468819Y-141469904D02*
X112468819Y-140898476D01*
X112468819Y-141184190D02*
X111468819Y-141184190D01*
X111468819Y-141184190D02*
X111611676Y-141088952D01*
X111611676Y-141088952D02*
X111706914Y-140993714D01*
X111706914Y-140993714D02*
X111754533Y-140898476D01*
X93860857Y-68558580D02*
X93908476Y-68606200D01*
X93908476Y-68606200D02*
X94051333Y-68653819D01*
X94051333Y-68653819D02*
X94146571Y-68653819D01*
X94146571Y-68653819D02*
X94289428Y-68606200D01*
X94289428Y-68606200D02*
X94384666Y-68510961D01*
X94384666Y-68510961D02*
X94432285Y-68415723D01*
X94432285Y-68415723D02*
X94479904Y-68225247D01*
X94479904Y-68225247D02*
X94479904Y-68082390D01*
X94479904Y-68082390D02*
X94432285Y-67891914D01*
X94432285Y-67891914D02*
X94384666Y-67796676D01*
X94384666Y-67796676D02*
X94289428Y-67701438D01*
X94289428Y-67701438D02*
X94146571Y-67653819D01*
X94146571Y-67653819D02*
X94051333Y-67653819D01*
X94051333Y-67653819D02*
X93908476Y-67701438D01*
X93908476Y-67701438D02*
X93860857Y-67749057D01*
X93003714Y-67987152D02*
X93003714Y-68653819D01*
X93241809Y-67606200D02*
X93479904Y-68320485D01*
X93479904Y-68320485D02*
X92860857Y-68320485D01*
X92051333Y-67653819D02*
X92241809Y-67653819D01*
X92241809Y-67653819D02*
X92337047Y-67701438D01*
X92337047Y-67701438D02*
X92384666Y-67749057D01*
X92384666Y-67749057D02*
X92479904Y-67891914D01*
X92479904Y-67891914D02*
X92527523Y-68082390D01*
X92527523Y-68082390D02*
X92527523Y-68463342D01*
X92527523Y-68463342D02*
X92479904Y-68558580D01*
X92479904Y-68558580D02*
X92432285Y-68606200D01*
X92432285Y-68606200D02*
X92337047Y-68653819D01*
X92337047Y-68653819D02*
X92146571Y-68653819D01*
X92146571Y-68653819D02*
X92051333Y-68606200D01*
X92051333Y-68606200D02*
X92003714Y-68558580D01*
X92003714Y-68558580D02*
X91956095Y-68463342D01*
X91956095Y-68463342D02*
X91956095Y-68225247D01*
X91956095Y-68225247D02*
X92003714Y-68130009D01*
X92003714Y-68130009D02*
X92051333Y-68082390D01*
X92051333Y-68082390D02*
X92146571Y-68034771D01*
X92146571Y-68034771D02*
X92337047Y-68034771D01*
X92337047Y-68034771D02*
X92432285Y-68082390D01*
X92432285Y-68082390D02*
X92479904Y-68130009D01*
X92479904Y-68130009D02*
X92527523Y-68225247D01*
X197082580Y-125849142D02*
X197130200Y-125801523D01*
X197130200Y-125801523D02*
X197177819Y-125658666D01*
X197177819Y-125658666D02*
X197177819Y-125563428D01*
X197177819Y-125563428D02*
X197130200Y-125420571D01*
X197130200Y-125420571D02*
X197034961Y-125325333D01*
X197034961Y-125325333D02*
X196939723Y-125277714D01*
X196939723Y-125277714D02*
X196749247Y-125230095D01*
X196749247Y-125230095D02*
X196606390Y-125230095D01*
X196606390Y-125230095D02*
X196415914Y-125277714D01*
X196415914Y-125277714D02*
X196320676Y-125325333D01*
X196320676Y-125325333D02*
X196225438Y-125420571D01*
X196225438Y-125420571D02*
X196177819Y-125563428D01*
X196177819Y-125563428D02*
X196177819Y-125658666D01*
X196177819Y-125658666D02*
X196225438Y-125801523D01*
X196225438Y-125801523D02*
X196273057Y-125849142D01*
X196273057Y-126230095D02*
X196225438Y-126277714D01*
X196225438Y-126277714D02*
X196177819Y-126372952D01*
X196177819Y-126372952D02*
X196177819Y-126611047D01*
X196177819Y-126611047D02*
X196225438Y-126706285D01*
X196225438Y-126706285D02*
X196273057Y-126753904D01*
X196273057Y-126753904D02*
X196368295Y-126801523D01*
X196368295Y-126801523D02*
X196463533Y-126801523D01*
X196463533Y-126801523D02*
X196606390Y-126753904D01*
X196606390Y-126753904D02*
X197177819Y-126182476D01*
X197177819Y-126182476D02*
X197177819Y-126801523D01*
X196606390Y-127372952D02*
X196558771Y-127277714D01*
X196558771Y-127277714D02*
X196511152Y-127230095D01*
X196511152Y-127230095D02*
X196415914Y-127182476D01*
X196415914Y-127182476D02*
X196368295Y-127182476D01*
X196368295Y-127182476D02*
X196273057Y-127230095D01*
X196273057Y-127230095D02*
X196225438Y-127277714D01*
X196225438Y-127277714D02*
X196177819Y-127372952D01*
X196177819Y-127372952D02*
X196177819Y-127563428D01*
X196177819Y-127563428D02*
X196225438Y-127658666D01*
X196225438Y-127658666D02*
X196273057Y-127706285D01*
X196273057Y-127706285D02*
X196368295Y-127753904D01*
X196368295Y-127753904D02*
X196415914Y-127753904D01*
X196415914Y-127753904D02*
X196511152Y-127706285D01*
X196511152Y-127706285D02*
X196558771Y-127658666D01*
X196558771Y-127658666D02*
X196606390Y-127563428D01*
X196606390Y-127563428D02*
X196606390Y-127372952D01*
X196606390Y-127372952D02*
X196654009Y-127277714D01*
X196654009Y-127277714D02*
X196701628Y-127230095D01*
X196701628Y-127230095D02*
X196796866Y-127182476D01*
X196796866Y-127182476D02*
X196987342Y-127182476D01*
X196987342Y-127182476D02*
X197082580Y-127230095D01*
X197082580Y-127230095D02*
X197130200Y-127277714D01*
X197130200Y-127277714D02*
X197177819Y-127372952D01*
X197177819Y-127372952D02*
X197177819Y-127563428D01*
X197177819Y-127563428D02*
X197130200Y-127658666D01*
X197130200Y-127658666D02*
X197082580Y-127706285D01*
X197082580Y-127706285D02*
X196987342Y-127753904D01*
X196987342Y-127753904D02*
X196796866Y-127753904D01*
X196796866Y-127753904D02*
X196701628Y-127706285D01*
X196701628Y-127706285D02*
X196654009Y-127658666D01*
X196654009Y-127658666D02*
X196606390Y-127563428D01*
X181871857Y-103483580D02*
X181919476Y-103531200D01*
X181919476Y-103531200D02*
X182062333Y-103578819D01*
X182062333Y-103578819D02*
X182157571Y-103578819D01*
X182157571Y-103578819D02*
X182300428Y-103531200D01*
X182300428Y-103531200D02*
X182395666Y-103435961D01*
X182395666Y-103435961D02*
X182443285Y-103340723D01*
X182443285Y-103340723D02*
X182490904Y-103150247D01*
X182490904Y-103150247D02*
X182490904Y-103007390D01*
X182490904Y-103007390D02*
X182443285Y-102816914D01*
X182443285Y-102816914D02*
X182395666Y-102721676D01*
X182395666Y-102721676D02*
X182300428Y-102626438D01*
X182300428Y-102626438D02*
X182157571Y-102578819D01*
X182157571Y-102578819D02*
X182062333Y-102578819D01*
X182062333Y-102578819D02*
X181919476Y-102626438D01*
X181919476Y-102626438D02*
X181871857Y-102674057D01*
X181538523Y-102578819D02*
X180871857Y-102578819D01*
X180871857Y-102578819D02*
X181300428Y-103578819D01*
X180586142Y-102578819D02*
X179967095Y-102578819D01*
X179967095Y-102578819D02*
X180300428Y-102959771D01*
X180300428Y-102959771D02*
X180157571Y-102959771D01*
X180157571Y-102959771D02*
X180062333Y-103007390D01*
X180062333Y-103007390D02*
X180014714Y-103055009D01*
X180014714Y-103055009D02*
X179967095Y-103150247D01*
X179967095Y-103150247D02*
X179967095Y-103388342D01*
X179967095Y-103388342D02*
X180014714Y-103483580D01*
X180014714Y-103483580D02*
X180062333Y-103531200D01*
X180062333Y-103531200D02*
X180157571Y-103578819D01*
X180157571Y-103578819D02*
X180443285Y-103578819D01*
X180443285Y-103578819D02*
X180538523Y-103531200D01*
X180538523Y-103531200D02*
X180586142Y-103483580D01*
X205176285Y-85798819D02*
X205176285Y-84798819D01*
X205176285Y-84798819D02*
X204938190Y-84798819D01*
X204938190Y-84798819D02*
X204795333Y-84846438D01*
X204795333Y-84846438D02*
X204700095Y-84941676D01*
X204700095Y-84941676D02*
X204652476Y-85036914D01*
X204652476Y-85036914D02*
X204604857Y-85227390D01*
X204604857Y-85227390D02*
X204604857Y-85370247D01*
X204604857Y-85370247D02*
X204652476Y-85560723D01*
X204652476Y-85560723D02*
X204700095Y-85655961D01*
X204700095Y-85655961D02*
X204795333Y-85751200D01*
X204795333Y-85751200D02*
X204938190Y-85798819D01*
X204938190Y-85798819D02*
X205176285Y-85798819D01*
X203747714Y-85132152D02*
X203747714Y-85798819D01*
X203985809Y-84751200D02*
X204223904Y-85465485D01*
X204223904Y-85465485D02*
X203604857Y-85465485D01*
X202795333Y-84798819D02*
X202985809Y-84798819D01*
X202985809Y-84798819D02*
X203081047Y-84846438D01*
X203081047Y-84846438D02*
X203128666Y-84894057D01*
X203128666Y-84894057D02*
X203223904Y-85036914D01*
X203223904Y-85036914D02*
X203271523Y-85227390D01*
X203271523Y-85227390D02*
X203271523Y-85608342D01*
X203271523Y-85608342D02*
X203223904Y-85703580D01*
X203223904Y-85703580D02*
X203176285Y-85751200D01*
X203176285Y-85751200D02*
X203081047Y-85798819D01*
X203081047Y-85798819D02*
X202890571Y-85798819D01*
X202890571Y-85798819D02*
X202795333Y-85751200D01*
X202795333Y-85751200D02*
X202747714Y-85703580D01*
X202747714Y-85703580D02*
X202700095Y-85608342D01*
X202700095Y-85608342D02*
X202700095Y-85370247D01*
X202700095Y-85370247D02*
X202747714Y-85275009D01*
X202747714Y-85275009D02*
X202795333Y-85227390D01*
X202795333Y-85227390D02*
X202890571Y-85179771D01*
X202890571Y-85179771D02*
X203081047Y-85179771D01*
X203081047Y-85179771D02*
X203176285Y-85227390D01*
X203176285Y-85227390D02*
X203223904Y-85275009D01*
X203223904Y-85275009D02*
X203271523Y-85370247D01*
X215338819Y-57142142D02*
X214862628Y-56808809D01*
X215338819Y-56570714D02*
X214338819Y-56570714D01*
X214338819Y-56570714D02*
X214338819Y-56951666D01*
X214338819Y-56951666D02*
X214386438Y-57046904D01*
X214386438Y-57046904D02*
X214434057Y-57094523D01*
X214434057Y-57094523D02*
X214529295Y-57142142D01*
X214529295Y-57142142D02*
X214672152Y-57142142D01*
X214672152Y-57142142D02*
X214767390Y-57094523D01*
X214767390Y-57094523D02*
X214815009Y-57046904D01*
X214815009Y-57046904D02*
X214862628Y-56951666D01*
X214862628Y-56951666D02*
X214862628Y-56570714D01*
X215338819Y-57618333D02*
X215338819Y-57808809D01*
X215338819Y-57808809D02*
X215291200Y-57904047D01*
X215291200Y-57904047D02*
X215243580Y-57951666D01*
X215243580Y-57951666D02*
X215100723Y-58046904D01*
X215100723Y-58046904D02*
X214910247Y-58094523D01*
X214910247Y-58094523D02*
X214529295Y-58094523D01*
X214529295Y-58094523D02*
X214434057Y-58046904D01*
X214434057Y-58046904D02*
X214386438Y-57999285D01*
X214386438Y-57999285D02*
X214338819Y-57904047D01*
X214338819Y-57904047D02*
X214338819Y-57713571D01*
X214338819Y-57713571D02*
X214386438Y-57618333D01*
X214386438Y-57618333D02*
X214434057Y-57570714D01*
X214434057Y-57570714D02*
X214529295Y-57523095D01*
X214529295Y-57523095D02*
X214767390Y-57523095D01*
X214767390Y-57523095D02*
X214862628Y-57570714D01*
X214862628Y-57570714D02*
X214910247Y-57618333D01*
X214910247Y-57618333D02*
X214957866Y-57713571D01*
X214957866Y-57713571D02*
X214957866Y-57904047D01*
X214957866Y-57904047D02*
X214910247Y-57999285D01*
X214910247Y-57999285D02*
X214862628Y-58046904D01*
X214862628Y-58046904D02*
X214767390Y-58094523D01*
X214338819Y-58951666D02*
X214338819Y-58761190D01*
X214338819Y-58761190D02*
X214386438Y-58665952D01*
X214386438Y-58665952D02*
X214434057Y-58618333D01*
X214434057Y-58618333D02*
X214576914Y-58523095D01*
X214576914Y-58523095D02*
X214767390Y-58475476D01*
X214767390Y-58475476D02*
X215148342Y-58475476D01*
X215148342Y-58475476D02*
X215243580Y-58523095D01*
X215243580Y-58523095D02*
X215291200Y-58570714D01*
X215291200Y-58570714D02*
X215338819Y-58665952D01*
X215338819Y-58665952D02*
X215338819Y-58856428D01*
X215338819Y-58856428D02*
X215291200Y-58951666D01*
X215291200Y-58951666D02*
X215243580Y-58999285D01*
X215243580Y-58999285D02*
X215148342Y-59046904D01*
X215148342Y-59046904D02*
X214910247Y-59046904D01*
X214910247Y-59046904D02*
X214815009Y-58999285D01*
X214815009Y-58999285D02*
X214767390Y-58951666D01*
X214767390Y-58951666D02*
X214719771Y-58856428D01*
X214719771Y-58856428D02*
X214719771Y-58665952D01*
X214719771Y-58665952D02*
X214767390Y-58570714D01*
X214767390Y-58570714D02*
X214815009Y-58523095D01*
X214815009Y-58523095D02*
X214910247Y-58475476D01*
X118244857Y-92815580D02*
X118292476Y-92863200D01*
X118292476Y-92863200D02*
X118435333Y-92910819D01*
X118435333Y-92910819D02*
X118530571Y-92910819D01*
X118530571Y-92910819D02*
X118673428Y-92863200D01*
X118673428Y-92863200D02*
X118768666Y-92767961D01*
X118768666Y-92767961D02*
X118816285Y-92672723D01*
X118816285Y-92672723D02*
X118863904Y-92482247D01*
X118863904Y-92482247D02*
X118863904Y-92339390D01*
X118863904Y-92339390D02*
X118816285Y-92148914D01*
X118816285Y-92148914D02*
X118768666Y-92053676D01*
X118768666Y-92053676D02*
X118673428Y-91958438D01*
X118673428Y-91958438D02*
X118530571Y-91910819D01*
X118530571Y-91910819D02*
X118435333Y-91910819D01*
X118435333Y-91910819D02*
X118292476Y-91958438D01*
X118292476Y-91958438D02*
X118244857Y-92006057D01*
X117911523Y-91910819D02*
X117292476Y-91910819D01*
X117292476Y-91910819D02*
X117625809Y-92291771D01*
X117625809Y-92291771D02*
X117482952Y-92291771D01*
X117482952Y-92291771D02*
X117387714Y-92339390D01*
X117387714Y-92339390D02*
X117340095Y-92387009D01*
X117340095Y-92387009D02*
X117292476Y-92482247D01*
X117292476Y-92482247D02*
X117292476Y-92720342D01*
X117292476Y-92720342D02*
X117340095Y-92815580D01*
X117340095Y-92815580D02*
X117387714Y-92863200D01*
X117387714Y-92863200D02*
X117482952Y-92910819D01*
X117482952Y-92910819D02*
X117768666Y-92910819D01*
X117768666Y-92910819D02*
X117863904Y-92863200D01*
X117863904Y-92863200D02*
X117911523Y-92815580D01*
X116387714Y-91910819D02*
X116863904Y-91910819D01*
X116863904Y-91910819D02*
X116911523Y-92387009D01*
X116911523Y-92387009D02*
X116863904Y-92339390D01*
X116863904Y-92339390D02*
X116768666Y-92291771D01*
X116768666Y-92291771D02*
X116530571Y-92291771D01*
X116530571Y-92291771D02*
X116435333Y-92339390D01*
X116435333Y-92339390D02*
X116387714Y-92387009D01*
X116387714Y-92387009D02*
X116340095Y-92482247D01*
X116340095Y-92482247D02*
X116340095Y-92720342D01*
X116340095Y-92720342D02*
X116387714Y-92815580D01*
X116387714Y-92815580D02*
X116435333Y-92863200D01*
X116435333Y-92863200D02*
X116530571Y-92910819D01*
X116530571Y-92910819D02*
X116768666Y-92910819D01*
X116768666Y-92910819D02*
X116863904Y-92863200D01*
X116863904Y-92863200D02*
X116911523Y-92815580D01*
X202133580Y-128389142D02*
X202181200Y-128341523D01*
X202181200Y-128341523D02*
X202228819Y-128198666D01*
X202228819Y-128198666D02*
X202228819Y-128103428D01*
X202228819Y-128103428D02*
X202181200Y-127960571D01*
X202181200Y-127960571D02*
X202085961Y-127865333D01*
X202085961Y-127865333D02*
X201990723Y-127817714D01*
X201990723Y-127817714D02*
X201800247Y-127770095D01*
X201800247Y-127770095D02*
X201657390Y-127770095D01*
X201657390Y-127770095D02*
X201466914Y-127817714D01*
X201466914Y-127817714D02*
X201371676Y-127865333D01*
X201371676Y-127865333D02*
X201276438Y-127960571D01*
X201276438Y-127960571D02*
X201228819Y-128103428D01*
X201228819Y-128103428D02*
X201228819Y-128198666D01*
X201228819Y-128198666D02*
X201276438Y-128341523D01*
X201276438Y-128341523D02*
X201324057Y-128389142D01*
X201562152Y-129246285D02*
X202228819Y-129246285D01*
X201181200Y-129008190D02*
X201895485Y-128770095D01*
X201895485Y-128770095D02*
X201895485Y-129389142D01*
X201228819Y-129960571D02*
X201228819Y-130055809D01*
X201228819Y-130055809D02*
X201276438Y-130151047D01*
X201276438Y-130151047D02*
X201324057Y-130198666D01*
X201324057Y-130198666D02*
X201419295Y-130246285D01*
X201419295Y-130246285D02*
X201609771Y-130293904D01*
X201609771Y-130293904D02*
X201847866Y-130293904D01*
X201847866Y-130293904D02*
X202038342Y-130246285D01*
X202038342Y-130246285D02*
X202133580Y-130198666D01*
X202133580Y-130198666D02*
X202181200Y-130151047D01*
X202181200Y-130151047D02*
X202228819Y-130055809D01*
X202228819Y-130055809D02*
X202228819Y-129960571D01*
X202228819Y-129960571D02*
X202181200Y-129865333D01*
X202181200Y-129865333D02*
X202133580Y-129817714D01*
X202133580Y-129817714D02*
X202038342Y-129770095D01*
X202038342Y-129770095D02*
X201847866Y-129722476D01*
X201847866Y-129722476D02*
X201609771Y-129722476D01*
X201609771Y-129722476D02*
X201419295Y-129770095D01*
X201419295Y-129770095D02*
X201324057Y-129817714D01*
X201324057Y-129817714D02*
X201276438Y-129865333D01*
X201276438Y-129865333D02*
X201228819Y-129960571D01*
X201271047Y-67637819D02*
X201604380Y-67161628D01*
X201842475Y-67637819D02*
X201842475Y-66637819D01*
X201842475Y-66637819D02*
X201461523Y-66637819D01*
X201461523Y-66637819D02*
X201366285Y-66685438D01*
X201366285Y-66685438D02*
X201318666Y-66733057D01*
X201318666Y-66733057D02*
X201271047Y-66828295D01*
X201271047Y-66828295D02*
X201271047Y-66971152D01*
X201271047Y-66971152D02*
X201318666Y-67066390D01*
X201318666Y-67066390D02*
X201366285Y-67114009D01*
X201366285Y-67114009D02*
X201461523Y-67161628D01*
X201461523Y-67161628D02*
X201842475Y-67161628D01*
X200318666Y-67637819D02*
X200890094Y-67637819D01*
X200604380Y-67637819D02*
X200604380Y-66637819D01*
X200604380Y-66637819D02*
X200699618Y-66780676D01*
X200699618Y-66780676D02*
X200794856Y-66875914D01*
X200794856Y-66875914D02*
X200890094Y-66923533D01*
X199699618Y-66637819D02*
X199604380Y-66637819D01*
X199604380Y-66637819D02*
X199509142Y-66685438D01*
X199509142Y-66685438D02*
X199461523Y-66733057D01*
X199461523Y-66733057D02*
X199413904Y-66828295D01*
X199413904Y-66828295D02*
X199366285Y-67018771D01*
X199366285Y-67018771D02*
X199366285Y-67256866D01*
X199366285Y-67256866D02*
X199413904Y-67447342D01*
X199413904Y-67447342D02*
X199461523Y-67542580D01*
X199461523Y-67542580D02*
X199509142Y-67590200D01*
X199509142Y-67590200D02*
X199604380Y-67637819D01*
X199604380Y-67637819D02*
X199699618Y-67637819D01*
X199699618Y-67637819D02*
X199794856Y-67590200D01*
X199794856Y-67590200D02*
X199842475Y-67542580D01*
X199842475Y-67542580D02*
X199890094Y-67447342D01*
X199890094Y-67447342D02*
X199937713Y-67256866D01*
X199937713Y-67256866D02*
X199937713Y-67018771D01*
X199937713Y-67018771D02*
X199890094Y-66828295D01*
X199890094Y-66828295D02*
X199842475Y-66733057D01*
X199842475Y-66733057D02*
X199794856Y-66685438D01*
X199794856Y-66685438D02*
X199699618Y-66637819D01*
X198794856Y-67066390D02*
X198890094Y-67018771D01*
X198890094Y-67018771D02*
X198937713Y-66971152D01*
X198937713Y-66971152D02*
X198985332Y-66875914D01*
X198985332Y-66875914D02*
X198985332Y-66828295D01*
X198985332Y-66828295D02*
X198937713Y-66733057D01*
X198937713Y-66733057D02*
X198890094Y-66685438D01*
X198890094Y-66685438D02*
X198794856Y-66637819D01*
X198794856Y-66637819D02*
X198604380Y-66637819D01*
X198604380Y-66637819D02*
X198509142Y-66685438D01*
X198509142Y-66685438D02*
X198461523Y-66733057D01*
X198461523Y-66733057D02*
X198413904Y-66828295D01*
X198413904Y-66828295D02*
X198413904Y-66875914D01*
X198413904Y-66875914D02*
X198461523Y-66971152D01*
X198461523Y-66971152D02*
X198509142Y-67018771D01*
X198509142Y-67018771D02*
X198604380Y-67066390D01*
X198604380Y-67066390D02*
X198794856Y-67066390D01*
X198794856Y-67066390D02*
X198890094Y-67114009D01*
X198890094Y-67114009D02*
X198937713Y-67161628D01*
X198937713Y-67161628D02*
X198985332Y-67256866D01*
X198985332Y-67256866D02*
X198985332Y-67447342D01*
X198985332Y-67447342D02*
X198937713Y-67542580D01*
X198937713Y-67542580D02*
X198890094Y-67590200D01*
X198890094Y-67590200D02*
X198794856Y-67637819D01*
X198794856Y-67637819D02*
X198604380Y-67637819D01*
X198604380Y-67637819D02*
X198509142Y-67590200D01*
X198509142Y-67590200D02*
X198461523Y-67542580D01*
X198461523Y-67542580D02*
X198413904Y-67447342D01*
X198413904Y-67447342D02*
X198413904Y-67256866D01*
X198413904Y-67256866D02*
X198461523Y-67161628D01*
X198461523Y-67161628D02*
X198509142Y-67114009D01*
X198509142Y-67114009D02*
X198604380Y-67066390D01*
X113741580Y-128389142D02*
X113789200Y-128341523D01*
X113789200Y-128341523D02*
X113836819Y-128198666D01*
X113836819Y-128198666D02*
X113836819Y-128103428D01*
X113836819Y-128103428D02*
X113789200Y-127960571D01*
X113789200Y-127960571D02*
X113693961Y-127865333D01*
X113693961Y-127865333D02*
X113598723Y-127817714D01*
X113598723Y-127817714D02*
X113408247Y-127770095D01*
X113408247Y-127770095D02*
X113265390Y-127770095D01*
X113265390Y-127770095D02*
X113074914Y-127817714D01*
X113074914Y-127817714D02*
X112979676Y-127865333D01*
X112979676Y-127865333D02*
X112884438Y-127960571D01*
X112884438Y-127960571D02*
X112836819Y-128103428D01*
X112836819Y-128103428D02*
X112836819Y-128198666D01*
X112836819Y-128198666D02*
X112884438Y-128341523D01*
X112884438Y-128341523D02*
X112932057Y-128389142D01*
X112836819Y-128722476D02*
X112836819Y-129389142D01*
X112836819Y-129389142D02*
X113836819Y-128960571D01*
X113265390Y-129912952D02*
X113217771Y-129817714D01*
X113217771Y-129817714D02*
X113170152Y-129770095D01*
X113170152Y-129770095D02*
X113074914Y-129722476D01*
X113074914Y-129722476D02*
X113027295Y-129722476D01*
X113027295Y-129722476D02*
X112932057Y-129770095D01*
X112932057Y-129770095D02*
X112884438Y-129817714D01*
X112884438Y-129817714D02*
X112836819Y-129912952D01*
X112836819Y-129912952D02*
X112836819Y-130103428D01*
X112836819Y-130103428D02*
X112884438Y-130198666D01*
X112884438Y-130198666D02*
X112932057Y-130246285D01*
X112932057Y-130246285D02*
X113027295Y-130293904D01*
X113027295Y-130293904D02*
X113074914Y-130293904D01*
X113074914Y-130293904D02*
X113170152Y-130246285D01*
X113170152Y-130246285D02*
X113217771Y-130198666D01*
X113217771Y-130198666D02*
X113265390Y-130103428D01*
X113265390Y-130103428D02*
X113265390Y-129912952D01*
X113265390Y-129912952D02*
X113313009Y-129817714D01*
X113313009Y-129817714D02*
X113360628Y-129770095D01*
X113360628Y-129770095D02*
X113455866Y-129722476D01*
X113455866Y-129722476D02*
X113646342Y-129722476D01*
X113646342Y-129722476D02*
X113741580Y-129770095D01*
X113741580Y-129770095D02*
X113789200Y-129817714D01*
X113789200Y-129817714D02*
X113836819Y-129912952D01*
X113836819Y-129912952D02*
X113836819Y-130103428D01*
X113836819Y-130103428D02*
X113789200Y-130198666D01*
X113789200Y-130198666D02*
X113741580Y-130246285D01*
X113741580Y-130246285D02*
X113646342Y-130293904D01*
X113646342Y-130293904D02*
X113455866Y-130293904D01*
X113455866Y-130293904D02*
X113360628Y-130246285D01*
X113360628Y-130246285D02*
X113313009Y-130198666D01*
X113313009Y-130198666D02*
X113265390Y-130103428D01*
X186793047Y-124406819D02*
X187126380Y-123930628D01*
X187364475Y-124406819D02*
X187364475Y-123406819D01*
X187364475Y-123406819D02*
X186983523Y-123406819D01*
X186983523Y-123406819D02*
X186888285Y-123454438D01*
X186888285Y-123454438D02*
X186840666Y-123502057D01*
X186840666Y-123502057D02*
X186793047Y-123597295D01*
X186793047Y-123597295D02*
X186793047Y-123740152D01*
X186793047Y-123740152D02*
X186840666Y-123835390D01*
X186840666Y-123835390D02*
X186888285Y-123883009D01*
X186888285Y-123883009D02*
X186983523Y-123930628D01*
X186983523Y-123930628D02*
X187364475Y-123930628D01*
X185840666Y-124406819D02*
X186412094Y-124406819D01*
X186126380Y-124406819D02*
X186126380Y-123406819D01*
X186126380Y-123406819D02*
X186221618Y-123549676D01*
X186221618Y-123549676D02*
X186316856Y-123644914D01*
X186316856Y-123644914D02*
X186412094Y-123692533D01*
X185221618Y-123406819D02*
X185126380Y-123406819D01*
X185126380Y-123406819D02*
X185031142Y-123454438D01*
X185031142Y-123454438D02*
X184983523Y-123502057D01*
X184983523Y-123502057D02*
X184935904Y-123597295D01*
X184935904Y-123597295D02*
X184888285Y-123787771D01*
X184888285Y-123787771D02*
X184888285Y-124025866D01*
X184888285Y-124025866D02*
X184935904Y-124216342D01*
X184935904Y-124216342D02*
X184983523Y-124311580D01*
X184983523Y-124311580D02*
X185031142Y-124359200D01*
X185031142Y-124359200D02*
X185126380Y-124406819D01*
X185126380Y-124406819D02*
X185221618Y-124406819D01*
X185221618Y-124406819D02*
X185316856Y-124359200D01*
X185316856Y-124359200D02*
X185364475Y-124311580D01*
X185364475Y-124311580D02*
X185412094Y-124216342D01*
X185412094Y-124216342D02*
X185459713Y-124025866D01*
X185459713Y-124025866D02*
X185459713Y-123787771D01*
X185459713Y-123787771D02*
X185412094Y-123597295D01*
X185412094Y-123597295D02*
X185364475Y-123502057D01*
X185364475Y-123502057D02*
X185316856Y-123454438D01*
X185316856Y-123454438D02*
X185221618Y-123406819D01*
X184554951Y-123406819D02*
X183888285Y-123406819D01*
X183888285Y-123406819D02*
X184316856Y-124406819D01*
X120649904Y-111904819D02*
X120649904Y-112714342D01*
X120649904Y-112714342D02*
X120602285Y-112809580D01*
X120602285Y-112809580D02*
X120554666Y-112857200D01*
X120554666Y-112857200D02*
X120459428Y-112904819D01*
X120459428Y-112904819D02*
X120268952Y-112904819D01*
X120268952Y-112904819D02*
X120173714Y-112857200D01*
X120173714Y-112857200D02*
X120126095Y-112809580D01*
X120126095Y-112809580D02*
X120078476Y-112714342D01*
X120078476Y-112714342D02*
X120078476Y-111904819D01*
X119697523Y-111904819D02*
X119030857Y-111904819D01*
X119030857Y-111904819D02*
X119459428Y-112904819D01*
X165234857Y-101705580D02*
X165282476Y-101753200D01*
X165282476Y-101753200D02*
X165425333Y-101800819D01*
X165425333Y-101800819D02*
X165520571Y-101800819D01*
X165520571Y-101800819D02*
X165663428Y-101753200D01*
X165663428Y-101753200D02*
X165758666Y-101657961D01*
X165758666Y-101657961D02*
X165806285Y-101562723D01*
X165806285Y-101562723D02*
X165853904Y-101372247D01*
X165853904Y-101372247D02*
X165853904Y-101229390D01*
X165853904Y-101229390D02*
X165806285Y-101038914D01*
X165806285Y-101038914D02*
X165758666Y-100943676D01*
X165758666Y-100943676D02*
X165663428Y-100848438D01*
X165663428Y-100848438D02*
X165520571Y-100800819D01*
X165520571Y-100800819D02*
X165425333Y-100800819D01*
X165425333Y-100800819D02*
X165282476Y-100848438D01*
X165282476Y-100848438D02*
X165234857Y-100896057D01*
X164330095Y-100800819D02*
X164806285Y-100800819D01*
X164806285Y-100800819D02*
X164853904Y-101277009D01*
X164853904Y-101277009D02*
X164806285Y-101229390D01*
X164806285Y-101229390D02*
X164711047Y-101181771D01*
X164711047Y-101181771D02*
X164472952Y-101181771D01*
X164472952Y-101181771D02*
X164377714Y-101229390D01*
X164377714Y-101229390D02*
X164330095Y-101277009D01*
X164330095Y-101277009D02*
X164282476Y-101372247D01*
X164282476Y-101372247D02*
X164282476Y-101610342D01*
X164282476Y-101610342D02*
X164330095Y-101705580D01*
X164330095Y-101705580D02*
X164377714Y-101753200D01*
X164377714Y-101753200D02*
X164472952Y-101800819D01*
X164472952Y-101800819D02*
X164711047Y-101800819D01*
X164711047Y-101800819D02*
X164806285Y-101753200D01*
X164806285Y-101753200D02*
X164853904Y-101705580D01*
X163377714Y-100800819D02*
X163853904Y-100800819D01*
X163853904Y-100800819D02*
X163901523Y-101277009D01*
X163901523Y-101277009D02*
X163853904Y-101229390D01*
X163853904Y-101229390D02*
X163758666Y-101181771D01*
X163758666Y-101181771D02*
X163520571Y-101181771D01*
X163520571Y-101181771D02*
X163425333Y-101229390D01*
X163425333Y-101229390D02*
X163377714Y-101277009D01*
X163377714Y-101277009D02*
X163330095Y-101372247D01*
X163330095Y-101372247D02*
X163330095Y-101610342D01*
X163330095Y-101610342D02*
X163377714Y-101705580D01*
X163377714Y-101705580D02*
X163425333Y-101753200D01*
X163425333Y-101753200D02*
X163520571Y-101800819D01*
X163520571Y-101800819D02*
X163758666Y-101800819D01*
X163758666Y-101800819D02*
X163853904Y-101753200D01*
X163853904Y-101753200D02*
X163901523Y-101705580D01*
X204702580Y-122801142D02*
X204750200Y-122753523D01*
X204750200Y-122753523D02*
X204797819Y-122610666D01*
X204797819Y-122610666D02*
X204797819Y-122515428D01*
X204797819Y-122515428D02*
X204750200Y-122372571D01*
X204750200Y-122372571D02*
X204654961Y-122277333D01*
X204654961Y-122277333D02*
X204559723Y-122229714D01*
X204559723Y-122229714D02*
X204369247Y-122182095D01*
X204369247Y-122182095D02*
X204226390Y-122182095D01*
X204226390Y-122182095D02*
X204035914Y-122229714D01*
X204035914Y-122229714D02*
X203940676Y-122277333D01*
X203940676Y-122277333D02*
X203845438Y-122372571D01*
X203845438Y-122372571D02*
X203797819Y-122515428D01*
X203797819Y-122515428D02*
X203797819Y-122610666D01*
X203797819Y-122610666D02*
X203845438Y-122753523D01*
X203845438Y-122753523D02*
X203893057Y-122801142D01*
X204131152Y-123658285D02*
X204797819Y-123658285D01*
X203750200Y-123420190D02*
X204464485Y-123182095D01*
X204464485Y-123182095D02*
X204464485Y-123801142D01*
X203893057Y-124134476D02*
X203845438Y-124182095D01*
X203845438Y-124182095D02*
X203797819Y-124277333D01*
X203797819Y-124277333D02*
X203797819Y-124515428D01*
X203797819Y-124515428D02*
X203845438Y-124610666D01*
X203845438Y-124610666D02*
X203893057Y-124658285D01*
X203893057Y-124658285D02*
X203988295Y-124705904D01*
X203988295Y-124705904D02*
X204083533Y-124705904D01*
X204083533Y-124705904D02*
X204226390Y-124658285D01*
X204226390Y-124658285D02*
X204797819Y-124086857D01*
X204797819Y-124086857D02*
X204797819Y-124705904D01*
X158694285Y-85798819D02*
X158694285Y-84798819D01*
X158694285Y-84798819D02*
X158456190Y-84798819D01*
X158456190Y-84798819D02*
X158313333Y-84846438D01*
X158313333Y-84846438D02*
X158218095Y-84941676D01*
X158218095Y-84941676D02*
X158170476Y-85036914D01*
X158170476Y-85036914D02*
X158122857Y-85227390D01*
X158122857Y-85227390D02*
X158122857Y-85370247D01*
X158122857Y-85370247D02*
X158170476Y-85560723D01*
X158170476Y-85560723D02*
X158218095Y-85655961D01*
X158218095Y-85655961D02*
X158313333Y-85751200D01*
X158313333Y-85751200D02*
X158456190Y-85798819D01*
X158456190Y-85798819D02*
X158694285Y-85798819D01*
X157265714Y-85132152D02*
X157265714Y-85798819D01*
X157503809Y-84751200D02*
X157741904Y-85465485D01*
X157741904Y-85465485D02*
X157122857Y-85465485D01*
X156551428Y-84798819D02*
X156456190Y-84798819D01*
X156456190Y-84798819D02*
X156360952Y-84846438D01*
X156360952Y-84846438D02*
X156313333Y-84894057D01*
X156313333Y-84894057D02*
X156265714Y-84989295D01*
X156265714Y-84989295D02*
X156218095Y-85179771D01*
X156218095Y-85179771D02*
X156218095Y-85417866D01*
X156218095Y-85417866D02*
X156265714Y-85608342D01*
X156265714Y-85608342D02*
X156313333Y-85703580D01*
X156313333Y-85703580D02*
X156360952Y-85751200D01*
X156360952Y-85751200D02*
X156456190Y-85798819D01*
X156456190Y-85798819D02*
X156551428Y-85798819D01*
X156551428Y-85798819D02*
X156646666Y-85751200D01*
X156646666Y-85751200D02*
X156694285Y-85703580D01*
X156694285Y-85703580D02*
X156741904Y-85608342D01*
X156741904Y-85608342D02*
X156789523Y-85417866D01*
X156789523Y-85417866D02*
X156789523Y-85179771D01*
X156789523Y-85179771D02*
X156741904Y-84989295D01*
X156741904Y-84989295D02*
X156694285Y-84894057D01*
X156694285Y-84894057D02*
X156646666Y-84846438D01*
X156646666Y-84846438D02*
X156551428Y-84798819D01*
X182316285Y-105864819D02*
X182316285Y-104864819D01*
X182316285Y-104864819D02*
X182078190Y-104864819D01*
X182078190Y-104864819D02*
X181935333Y-104912438D01*
X181935333Y-104912438D02*
X181840095Y-105007676D01*
X181840095Y-105007676D02*
X181792476Y-105102914D01*
X181792476Y-105102914D02*
X181744857Y-105293390D01*
X181744857Y-105293390D02*
X181744857Y-105436247D01*
X181744857Y-105436247D02*
X181792476Y-105626723D01*
X181792476Y-105626723D02*
X181840095Y-105721961D01*
X181840095Y-105721961D02*
X181935333Y-105817200D01*
X181935333Y-105817200D02*
X182078190Y-105864819D01*
X182078190Y-105864819D02*
X182316285Y-105864819D01*
X180887714Y-105198152D02*
X180887714Y-105864819D01*
X181125809Y-104817200D02*
X181363904Y-105531485D01*
X181363904Y-105531485D02*
X180744857Y-105531485D01*
X179887714Y-104864819D02*
X180363904Y-104864819D01*
X180363904Y-104864819D02*
X180411523Y-105341009D01*
X180411523Y-105341009D02*
X180363904Y-105293390D01*
X180363904Y-105293390D02*
X180268666Y-105245771D01*
X180268666Y-105245771D02*
X180030571Y-105245771D01*
X180030571Y-105245771D02*
X179935333Y-105293390D01*
X179935333Y-105293390D02*
X179887714Y-105341009D01*
X179887714Y-105341009D02*
X179840095Y-105436247D01*
X179840095Y-105436247D02*
X179840095Y-105674342D01*
X179840095Y-105674342D02*
X179887714Y-105769580D01*
X179887714Y-105769580D02*
X179935333Y-105817200D01*
X179935333Y-105817200D02*
X180030571Y-105864819D01*
X180030571Y-105864819D02*
X180268666Y-105864819D01*
X180268666Y-105864819D02*
X180363904Y-105817200D01*
X180363904Y-105817200D02*
X180411523Y-105769580D01*
X218656819Y-107188095D02*
X219466342Y-107188095D01*
X219466342Y-107188095D02*
X219561580Y-107235714D01*
X219561580Y-107235714D02*
X219609200Y-107283333D01*
X219609200Y-107283333D02*
X219656819Y-107378571D01*
X219656819Y-107378571D02*
X219656819Y-107569047D01*
X219656819Y-107569047D02*
X219609200Y-107664285D01*
X219609200Y-107664285D02*
X219561580Y-107711904D01*
X219561580Y-107711904D02*
X219466342Y-107759523D01*
X219466342Y-107759523D02*
X218656819Y-107759523D01*
X218752057Y-108188095D02*
X218704438Y-108235714D01*
X218704438Y-108235714D02*
X218656819Y-108330952D01*
X218656819Y-108330952D02*
X218656819Y-108569047D01*
X218656819Y-108569047D02*
X218704438Y-108664285D01*
X218704438Y-108664285D02*
X218752057Y-108711904D01*
X218752057Y-108711904D02*
X218847295Y-108759523D01*
X218847295Y-108759523D02*
X218942533Y-108759523D01*
X218942533Y-108759523D02*
X219085390Y-108711904D01*
X219085390Y-108711904D02*
X219656819Y-108140476D01*
X219656819Y-108140476D02*
X219656819Y-108759523D01*
X175426666Y-99009580D02*
X175474285Y-99057200D01*
X175474285Y-99057200D02*
X175617142Y-99104819D01*
X175617142Y-99104819D02*
X175712380Y-99104819D01*
X175712380Y-99104819D02*
X175855237Y-99057200D01*
X175855237Y-99057200D02*
X175950475Y-98961961D01*
X175950475Y-98961961D02*
X175998094Y-98866723D01*
X175998094Y-98866723D02*
X176045713Y-98676247D01*
X176045713Y-98676247D02*
X176045713Y-98533390D01*
X176045713Y-98533390D02*
X175998094Y-98342914D01*
X175998094Y-98342914D02*
X175950475Y-98247676D01*
X175950475Y-98247676D02*
X175855237Y-98152438D01*
X175855237Y-98152438D02*
X175712380Y-98104819D01*
X175712380Y-98104819D02*
X175617142Y-98104819D01*
X175617142Y-98104819D02*
X175474285Y-98152438D01*
X175474285Y-98152438D02*
X175426666Y-98200057D01*
X174855237Y-98533390D02*
X174950475Y-98485771D01*
X174950475Y-98485771D02*
X174998094Y-98438152D01*
X174998094Y-98438152D02*
X175045713Y-98342914D01*
X175045713Y-98342914D02*
X175045713Y-98295295D01*
X175045713Y-98295295D02*
X174998094Y-98200057D01*
X174998094Y-98200057D02*
X174950475Y-98152438D01*
X174950475Y-98152438D02*
X174855237Y-98104819D01*
X174855237Y-98104819D02*
X174664761Y-98104819D01*
X174664761Y-98104819D02*
X174569523Y-98152438D01*
X174569523Y-98152438D02*
X174521904Y-98200057D01*
X174521904Y-98200057D02*
X174474285Y-98295295D01*
X174474285Y-98295295D02*
X174474285Y-98342914D01*
X174474285Y-98342914D02*
X174521904Y-98438152D01*
X174521904Y-98438152D02*
X174569523Y-98485771D01*
X174569523Y-98485771D02*
X174664761Y-98533390D01*
X174664761Y-98533390D02*
X174855237Y-98533390D01*
X174855237Y-98533390D02*
X174950475Y-98581009D01*
X174950475Y-98581009D02*
X174998094Y-98628628D01*
X174998094Y-98628628D02*
X175045713Y-98723866D01*
X175045713Y-98723866D02*
X175045713Y-98914342D01*
X175045713Y-98914342D02*
X174998094Y-99009580D01*
X174998094Y-99009580D02*
X174950475Y-99057200D01*
X174950475Y-99057200D02*
X174855237Y-99104819D01*
X174855237Y-99104819D02*
X174664761Y-99104819D01*
X174664761Y-99104819D02*
X174569523Y-99057200D01*
X174569523Y-99057200D02*
X174521904Y-99009580D01*
X174521904Y-99009580D02*
X174474285Y-98914342D01*
X174474285Y-98914342D02*
X174474285Y-98723866D01*
X174474285Y-98723866D02*
X174521904Y-98628628D01*
X174521904Y-98628628D02*
X174569523Y-98581009D01*
X174569523Y-98581009D02*
X174664761Y-98533390D01*
X209750819Y-57142142D02*
X209274628Y-56808809D01*
X209750819Y-56570714D02*
X208750819Y-56570714D01*
X208750819Y-56570714D02*
X208750819Y-56951666D01*
X208750819Y-56951666D02*
X208798438Y-57046904D01*
X208798438Y-57046904D02*
X208846057Y-57094523D01*
X208846057Y-57094523D02*
X208941295Y-57142142D01*
X208941295Y-57142142D02*
X209084152Y-57142142D01*
X209084152Y-57142142D02*
X209179390Y-57094523D01*
X209179390Y-57094523D02*
X209227009Y-57046904D01*
X209227009Y-57046904D02*
X209274628Y-56951666D01*
X209274628Y-56951666D02*
X209274628Y-56570714D01*
X209750819Y-57618333D02*
X209750819Y-57808809D01*
X209750819Y-57808809D02*
X209703200Y-57904047D01*
X209703200Y-57904047D02*
X209655580Y-57951666D01*
X209655580Y-57951666D02*
X209512723Y-58046904D01*
X209512723Y-58046904D02*
X209322247Y-58094523D01*
X209322247Y-58094523D02*
X208941295Y-58094523D01*
X208941295Y-58094523D02*
X208846057Y-58046904D01*
X208846057Y-58046904D02*
X208798438Y-57999285D01*
X208798438Y-57999285D02*
X208750819Y-57904047D01*
X208750819Y-57904047D02*
X208750819Y-57713571D01*
X208750819Y-57713571D02*
X208798438Y-57618333D01*
X208798438Y-57618333D02*
X208846057Y-57570714D01*
X208846057Y-57570714D02*
X208941295Y-57523095D01*
X208941295Y-57523095D02*
X209179390Y-57523095D01*
X209179390Y-57523095D02*
X209274628Y-57570714D01*
X209274628Y-57570714D02*
X209322247Y-57618333D01*
X209322247Y-57618333D02*
X209369866Y-57713571D01*
X209369866Y-57713571D02*
X209369866Y-57904047D01*
X209369866Y-57904047D02*
X209322247Y-57999285D01*
X209322247Y-57999285D02*
X209274628Y-58046904D01*
X209274628Y-58046904D02*
X209179390Y-58094523D01*
X208750819Y-58713571D02*
X208750819Y-58808809D01*
X208750819Y-58808809D02*
X208798438Y-58904047D01*
X208798438Y-58904047D02*
X208846057Y-58951666D01*
X208846057Y-58951666D02*
X208941295Y-58999285D01*
X208941295Y-58999285D02*
X209131771Y-59046904D01*
X209131771Y-59046904D02*
X209369866Y-59046904D01*
X209369866Y-59046904D02*
X209560342Y-58999285D01*
X209560342Y-58999285D02*
X209655580Y-58951666D01*
X209655580Y-58951666D02*
X209703200Y-58904047D01*
X209703200Y-58904047D02*
X209750819Y-58808809D01*
X209750819Y-58808809D02*
X209750819Y-58713571D01*
X209750819Y-58713571D02*
X209703200Y-58618333D01*
X209703200Y-58618333D02*
X209655580Y-58570714D01*
X209655580Y-58570714D02*
X209560342Y-58523095D01*
X209560342Y-58523095D02*
X209369866Y-58475476D01*
X209369866Y-58475476D02*
X209131771Y-58475476D01*
X209131771Y-58475476D02*
X208941295Y-58523095D01*
X208941295Y-58523095D02*
X208846057Y-58570714D01*
X208846057Y-58570714D02*
X208798438Y-58618333D01*
X208798438Y-58618333D02*
X208750819Y-58713571D01*
X93067047Y-124406819D02*
X93400380Y-123930628D01*
X93638475Y-124406819D02*
X93638475Y-123406819D01*
X93638475Y-123406819D02*
X93257523Y-123406819D01*
X93257523Y-123406819D02*
X93162285Y-123454438D01*
X93162285Y-123454438D02*
X93114666Y-123502057D01*
X93114666Y-123502057D02*
X93067047Y-123597295D01*
X93067047Y-123597295D02*
X93067047Y-123740152D01*
X93067047Y-123740152D02*
X93114666Y-123835390D01*
X93114666Y-123835390D02*
X93162285Y-123883009D01*
X93162285Y-123883009D02*
X93257523Y-123930628D01*
X93257523Y-123930628D02*
X93638475Y-123930628D01*
X92114666Y-124406819D02*
X92686094Y-124406819D01*
X92400380Y-124406819D02*
X92400380Y-123406819D01*
X92400380Y-123406819D02*
X92495618Y-123549676D01*
X92495618Y-123549676D02*
X92590856Y-123644914D01*
X92590856Y-123644914D02*
X92686094Y-123692533D01*
X91495618Y-123406819D02*
X91400380Y-123406819D01*
X91400380Y-123406819D02*
X91305142Y-123454438D01*
X91305142Y-123454438D02*
X91257523Y-123502057D01*
X91257523Y-123502057D02*
X91209904Y-123597295D01*
X91209904Y-123597295D02*
X91162285Y-123787771D01*
X91162285Y-123787771D02*
X91162285Y-124025866D01*
X91162285Y-124025866D02*
X91209904Y-124216342D01*
X91209904Y-124216342D02*
X91257523Y-124311580D01*
X91257523Y-124311580D02*
X91305142Y-124359200D01*
X91305142Y-124359200D02*
X91400380Y-124406819D01*
X91400380Y-124406819D02*
X91495618Y-124406819D01*
X91495618Y-124406819D02*
X91590856Y-124359200D01*
X91590856Y-124359200D02*
X91638475Y-124311580D01*
X91638475Y-124311580D02*
X91686094Y-124216342D01*
X91686094Y-124216342D02*
X91733713Y-124025866D01*
X91733713Y-124025866D02*
X91733713Y-123787771D01*
X91733713Y-123787771D02*
X91686094Y-123597295D01*
X91686094Y-123597295D02*
X91638475Y-123502057D01*
X91638475Y-123502057D02*
X91590856Y-123454438D01*
X91590856Y-123454438D02*
X91495618Y-123406819D01*
X90305142Y-123740152D02*
X90305142Y-124406819D01*
X90543237Y-123359200D02*
X90781332Y-124073485D01*
X90781332Y-124073485D02*
X90162285Y-124073485D01*
X155397580Y-128389142D02*
X155445200Y-128341523D01*
X155445200Y-128341523D02*
X155492819Y-128198666D01*
X155492819Y-128198666D02*
X155492819Y-128103428D01*
X155492819Y-128103428D02*
X155445200Y-127960571D01*
X155445200Y-127960571D02*
X155349961Y-127865333D01*
X155349961Y-127865333D02*
X155254723Y-127817714D01*
X155254723Y-127817714D02*
X155064247Y-127770095D01*
X155064247Y-127770095D02*
X154921390Y-127770095D01*
X154921390Y-127770095D02*
X154730914Y-127817714D01*
X154730914Y-127817714D02*
X154635676Y-127865333D01*
X154635676Y-127865333D02*
X154540438Y-127960571D01*
X154540438Y-127960571D02*
X154492819Y-128103428D01*
X154492819Y-128103428D02*
X154492819Y-128198666D01*
X154492819Y-128198666D02*
X154540438Y-128341523D01*
X154540438Y-128341523D02*
X154588057Y-128389142D01*
X154492819Y-129293904D02*
X154492819Y-128817714D01*
X154492819Y-128817714D02*
X154969009Y-128770095D01*
X154969009Y-128770095D02*
X154921390Y-128817714D01*
X154921390Y-128817714D02*
X154873771Y-128912952D01*
X154873771Y-128912952D02*
X154873771Y-129151047D01*
X154873771Y-129151047D02*
X154921390Y-129246285D01*
X154921390Y-129246285D02*
X154969009Y-129293904D01*
X154969009Y-129293904D02*
X155064247Y-129341523D01*
X155064247Y-129341523D02*
X155302342Y-129341523D01*
X155302342Y-129341523D02*
X155397580Y-129293904D01*
X155397580Y-129293904D02*
X155445200Y-129246285D01*
X155445200Y-129246285D02*
X155492819Y-129151047D01*
X155492819Y-129151047D02*
X155492819Y-128912952D01*
X155492819Y-128912952D02*
X155445200Y-128817714D01*
X155445200Y-128817714D02*
X155397580Y-128770095D01*
X154588057Y-129722476D02*
X154540438Y-129770095D01*
X154540438Y-129770095D02*
X154492819Y-129865333D01*
X154492819Y-129865333D02*
X154492819Y-130103428D01*
X154492819Y-130103428D02*
X154540438Y-130198666D01*
X154540438Y-130198666D02*
X154588057Y-130246285D01*
X154588057Y-130246285D02*
X154683295Y-130293904D01*
X154683295Y-130293904D02*
X154778533Y-130293904D01*
X154778533Y-130293904D02*
X154921390Y-130246285D01*
X154921390Y-130246285D02*
X155492819Y-129674857D01*
X155492819Y-129674857D02*
X155492819Y-130293904D01*
X111323285Y-85798819D02*
X111323285Y-84798819D01*
X111323285Y-84798819D02*
X111085190Y-84798819D01*
X111085190Y-84798819D02*
X110942333Y-84846438D01*
X110942333Y-84846438D02*
X110847095Y-84941676D01*
X110847095Y-84941676D02*
X110799476Y-85036914D01*
X110799476Y-85036914D02*
X110751857Y-85227390D01*
X110751857Y-85227390D02*
X110751857Y-85370247D01*
X110751857Y-85370247D02*
X110799476Y-85560723D01*
X110799476Y-85560723D02*
X110847095Y-85655961D01*
X110847095Y-85655961D02*
X110942333Y-85751200D01*
X110942333Y-85751200D02*
X111085190Y-85798819D01*
X111085190Y-85798819D02*
X111323285Y-85798819D01*
X110418523Y-84798819D02*
X109799476Y-84798819D01*
X109799476Y-84798819D02*
X110132809Y-85179771D01*
X110132809Y-85179771D02*
X109989952Y-85179771D01*
X109989952Y-85179771D02*
X109894714Y-85227390D01*
X109894714Y-85227390D02*
X109847095Y-85275009D01*
X109847095Y-85275009D02*
X109799476Y-85370247D01*
X109799476Y-85370247D02*
X109799476Y-85608342D01*
X109799476Y-85608342D02*
X109847095Y-85703580D01*
X109847095Y-85703580D02*
X109894714Y-85751200D01*
X109894714Y-85751200D02*
X109989952Y-85798819D01*
X109989952Y-85798819D02*
X110275666Y-85798819D01*
X110275666Y-85798819D02*
X110370904Y-85751200D01*
X110370904Y-85751200D02*
X110418523Y-85703580D01*
X108942333Y-85132152D02*
X108942333Y-85798819D01*
X109180428Y-84751200D02*
X109418523Y-85465485D01*
X109418523Y-85465485D02*
X108799476Y-85465485D01*
X167078819Y-57015142D02*
X166602628Y-56681809D01*
X167078819Y-56443714D02*
X166078819Y-56443714D01*
X166078819Y-56443714D02*
X166078819Y-56824666D01*
X166078819Y-56824666D02*
X166126438Y-56919904D01*
X166126438Y-56919904D02*
X166174057Y-56967523D01*
X166174057Y-56967523D02*
X166269295Y-57015142D01*
X166269295Y-57015142D02*
X166412152Y-57015142D01*
X166412152Y-57015142D02*
X166507390Y-56967523D01*
X166507390Y-56967523D02*
X166555009Y-56919904D01*
X166555009Y-56919904D02*
X166602628Y-56824666D01*
X166602628Y-56824666D02*
X166602628Y-56443714D01*
X166507390Y-57586571D02*
X166459771Y-57491333D01*
X166459771Y-57491333D02*
X166412152Y-57443714D01*
X166412152Y-57443714D02*
X166316914Y-57396095D01*
X166316914Y-57396095D02*
X166269295Y-57396095D01*
X166269295Y-57396095D02*
X166174057Y-57443714D01*
X166174057Y-57443714D02*
X166126438Y-57491333D01*
X166126438Y-57491333D02*
X166078819Y-57586571D01*
X166078819Y-57586571D02*
X166078819Y-57777047D01*
X166078819Y-57777047D02*
X166126438Y-57872285D01*
X166126438Y-57872285D02*
X166174057Y-57919904D01*
X166174057Y-57919904D02*
X166269295Y-57967523D01*
X166269295Y-57967523D02*
X166316914Y-57967523D01*
X166316914Y-57967523D02*
X166412152Y-57919904D01*
X166412152Y-57919904D02*
X166459771Y-57872285D01*
X166459771Y-57872285D02*
X166507390Y-57777047D01*
X166507390Y-57777047D02*
X166507390Y-57586571D01*
X166507390Y-57586571D02*
X166555009Y-57491333D01*
X166555009Y-57491333D02*
X166602628Y-57443714D01*
X166602628Y-57443714D02*
X166697866Y-57396095D01*
X166697866Y-57396095D02*
X166888342Y-57396095D01*
X166888342Y-57396095D02*
X166983580Y-57443714D01*
X166983580Y-57443714D02*
X167031200Y-57491333D01*
X167031200Y-57491333D02*
X167078819Y-57586571D01*
X167078819Y-57586571D02*
X167078819Y-57777047D01*
X167078819Y-57777047D02*
X167031200Y-57872285D01*
X167031200Y-57872285D02*
X166983580Y-57919904D01*
X166983580Y-57919904D02*
X166888342Y-57967523D01*
X166888342Y-57967523D02*
X166697866Y-57967523D01*
X166697866Y-57967523D02*
X166602628Y-57919904D01*
X166602628Y-57919904D02*
X166555009Y-57872285D01*
X166555009Y-57872285D02*
X166507390Y-57777047D01*
X166507390Y-58538952D02*
X166459771Y-58443714D01*
X166459771Y-58443714D02*
X166412152Y-58396095D01*
X166412152Y-58396095D02*
X166316914Y-58348476D01*
X166316914Y-58348476D02*
X166269295Y-58348476D01*
X166269295Y-58348476D02*
X166174057Y-58396095D01*
X166174057Y-58396095D02*
X166126438Y-58443714D01*
X166126438Y-58443714D02*
X166078819Y-58538952D01*
X166078819Y-58538952D02*
X166078819Y-58729428D01*
X166078819Y-58729428D02*
X166126438Y-58824666D01*
X166126438Y-58824666D02*
X166174057Y-58872285D01*
X166174057Y-58872285D02*
X166269295Y-58919904D01*
X166269295Y-58919904D02*
X166316914Y-58919904D01*
X166316914Y-58919904D02*
X166412152Y-58872285D01*
X166412152Y-58872285D02*
X166459771Y-58824666D01*
X166459771Y-58824666D02*
X166507390Y-58729428D01*
X166507390Y-58729428D02*
X166507390Y-58538952D01*
X166507390Y-58538952D02*
X166555009Y-58443714D01*
X166555009Y-58443714D02*
X166602628Y-58396095D01*
X166602628Y-58396095D02*
X166697866Y-58348476D01*
X166697866Y-58348476D02*
X166888342Y-58348476D01*
X166888342Y-58348476D02*
X166983580Y-58396095D01*
X166983580Y-58396095D02*
X167031200Y-58443714D01*
X167031200Y-58443714D02*
X167078819Y-58538952D01*
X167078819Y-58538952D02*
X167078819Y-58729428D01*
X167078819Y-58729428D02*
X167031200Y-58824666D01*
X167031200Y-58824666D02*
X166983580Y-58872285D01*
X166983580Y-58872285D02*
X166888342Y-58919904D01*
X166888342Y-58919904D02*
X166697866Y-58919904D01*
X166697866Y-58919904D02*
X166602628Y-58872285D01*
X166602628Y-58872285D02*
X166555009Y-58824666D01*
X166555009Y-58824666D02*
X166507390Y-58729428D01*
X206353580Y-139565142D02*
X206401200Y-139517523D01*
X206401200Y-139517523D02*
X206448819Y-139374666D01*
X206448819Y-139374666D02*
X206448819Y-139279428D01*
X206448819Y-139279428D02*
X206401200Y-139136571D01*
X206401200Y-139136571D02*
X206305961Y-139041333D01*
X206305961Y-139041333D02*
X206210723Y-138993714D01*
X206210723Y-138993714D02*
X206020247Y-138946095D01*
X206020247Y-138946095D02*
X205877390Y-138946095D01*
X205877390Y-138946095D02*
X205686914Y-138993714D01*
X205686914Y-138993714D02*
X205591676Y-139041333D01*
X205591676Y-139041333D02*
X205496438Y-139136571D01*
X205496438Y-139136571D02*
X205448819Y-139279428D01*
X205448819Y-139279428D02*
X205448819Y-139374666D01*
X205448819Y-139374666D02*
X205496438Y-139517523D01*
X205496438Y-139517523D02*
X205544057Y-139565142D01*
X205544057Y-139946095D02*
X205496438Y-139993714D01*
X205496438Y-139993714D02*
X205448819Y-140088952D01*
X205448819Y-140088952D02*
X205448819Y-140327047D01*
X205448819Y-140327047D02*
X205496438Y-140422285D01*
X205496438Y-140422285D02*
X205544057Y-140469904D01*
X205544057Y-140469904D02*
X205639295Y-140517523D01*
X205639295Y-140517523D02*
X205734533Y-140517523D01*
X205734533Y-140517523D02*
X205877390Y-140469904D01*
X205877390Y-140469904D02*
X206448819Y-139898476D01*
X206448819Y-139898476D02*
X206448819Y-140517523D01*
X205448819Y-141422285D02*
X205448819Y-140946095D01*
X205448819Y-140946095D02*
X205925009Y-140898476D01*
X205925009Y-140898476D02*
X205877390Y-140946095D01*
X205877390Y-140946095D02*
X205829771Y-141041333D01*
X205829771Y-141041333D02*
X205829771Y-141279428D01*
X205829771Y-141279428D02*
X205877390Y-141374666D01*
X205877390Y-141374666D02*
X205925009Y-141422285D01*
X205925009Y-141422285D02*
X206020247Y-141469904D01*
X206020247Y-141469904D02*
X206258342Y-141469904D01*
X206258342Y-141469904D02*
X206353580Y-141422285D01*
X206353580Y-141422285D02*
X206401200Y-141374666D01*
X206401200Y-141374666D02*
X206448819Y-141279428D01*
X206448819Y-141279428D02*
X206448819Y-141041333D01*
X206448819Y-141041333D02*
X206401200Y-140946095D01*
X206401200Y-140946095D02*
X206353580Y-140898476D01*
X135580285Y-105864819D02*
X135580285Y-104864819D01*
X135580285Y-104864819D02*
X135342190Y-104864819D01*
X135342190Y-104864819D02*
X135199333Y-104912438D01*
X135199333Y-104912438D02*
X135104095Y-105007676D01*
X135104095Y-105007676D02*
X135056476Y-105102914D01*
X135056476Y-105102914D02*
X135008857Y-105293390D01*
X135008857Y-105293390D02*
X135008857Y-105436247D01*
X135008857Y-105436247D02*
X135056476Y-105626723D01*
X135056476Y-105626723D02*
X135104095Y-105721961D01*
X135104095Y-105721961D02*
X135199333Y-105817200D01*
X135199333Y-105817200D02*
X135342190Y-105864819D01*
X135342190Y-105864819D02*
X135580285Y-105864819D01*
X134675523Y-104864819D02*
X134056476Y-104864819D01*
X134056476Y-104864819D02*
X134389809Y-105245771D01*
X134389809Y-105245771D02*
X134246952Y-105245771D01*
X134246952Y-105245771D02*
X134151714Y-105293390D01*
X134151714Y-105293390D02*
X134104095Y-105341009D01*
X134104095Y-105341009D02*
X134056476Y-105436247D01*
X134056476Y-105436247D02*
X134056476Y-105674342D01*
X134056476Y-105674342D02*
X134104095Y-105769580D01*
X134104095Y-105769580D02*
X134151714Y-105817200D01*
X134151714Y-105817200D02*
X134246952Y-105864819D01*
X134246952Y-105864819D02*
X134532666Y-105864819D01*
X134532666Y-105864819D02*
X134627904Y-105817200D01*
X134627904Y-105817200D02*
X134675523Y-105769580D01*
X133580285Y-105864819D02*
X133389809Y-105864819D01*
X133389809Y-105864819D02*
X133294571Y-105817200D01*
X133294571Y-105817200D02*
X133246952Y-105769580D01*
X133246952Y-105769580D02*
X133151714Y-105626723D01*
X133151714Y-105626723D02*
X133104095Y-105436247D01*
X133104095Y-105436247D02*
X133104095Y-105055295D01*
X133104095Y-105055295D02*
X133151714Y-104960057D01*
X133151714Y-104960057D02*
X133199333Y-104912438D01*
X133199333Y-104912438D02*
X133294571Y-104864819D01*
X133294571Y-104864819D02*
X133485047Y-104864819D01*
X133485047Y-104864819D02*
X133580285Y-104912438D01*
X133580285Y-104912438D02*
X133627904Y-104960057D01*
X133627904Y-104960057D02*
X133675523Y-105055295D01*
X133675523Y-105055295D02*
X133675523Y-105293390D01*
X133675523Y-105293390D02*
X133627904Y-105388628D01*
X133627904Y-105388628D02*
X133580285Y-105436247D01*
X133580285Y-105436247D02*
X133485047Y-105483866D01*
X133485047Y-105483866D02*
X133294571Y-105483866D01*
X133294571Y-105483866D02*
X133199333Y-105436247D01*
X133199333Y-105436247D02*
X133151714Y-105388628D01*
X133151714Y-105388628D02*
X133104095Y-105293390D01*
X146819857Y-72651580D02*
X146867476Y-72699200D01*
X146867476Y-72699200D02*
X147010333Y-72746819D01*
X147010333Y-72746819D02*
X147105571Y-72746819D01*
X147105571Y-72746819D02*
X147248428Y-72699200D01*
X147248428Y-72699200D02*
X147343666Y-72603961D01*
X147343666Y-72603961D02*
X147391285Y-72508723D01*
X147391285Y-72508723D02*
X147438904Y-72318247D01*
X147438904Y-72318247D02*
X147438904Y-72175390D01*
X147438904Y-72175390D02*
X147391285Y-71984914D01*
X147391285Y-71984914D02*
X147343666Y-71889676D01*
X147343666Y-71889676D02*
X147248428Y-71794438D01*
X147248428Y-71794438D02*
X147105571Y-71746819D01*
X147105571Y-71746819D02*
X147010333Y-71746819D01*
X147010333Y-71746819D02*
X146867476Y-71794438D01*
X146867476Y-71794438D02*
X146819857Y-71842057D01*
X146248428Y-72175390D02*
X146343666Y-72127771D01*
X146343666Y-72127771D02*
X146391285Y-72080152D01*
X146391285Y-72080152D02*
X146438904Y-71984914D01*
X146438904Y-71984914D02*
X146438904Y-71937295D01*
X146438904Y-71937295D02*
X146391285Y-71842057D01*
X146391285Y-71842057D02*
X146343666Y-71794438D01*
X146343666Y-71794438D02*
X146248428Y-71746819D01*
X146248428Y-71746819D02*
X146057952Y-71746819D01*
X146057952Y-71746819D02*
X145962714Y-71794438D01*
X145962714Y-71794438D02*
X145915095Y-71842057D01*
X145915095Y-71842057D02*
X145867476Y-71937295D01*
X145867476Y-71937295D02*
X145867476Y-71984914D01*
X145867476Y-71984914D02*
X145915095Y-72080152D01*
X145915095Y-72080152D02*
X145962714Y-72127771D01*
X145962714Y-72127771D02*
X146057952Y-72175390D01*
X146057952Y-72175390D02*
X146248428Y-72175390D01*
X146248428Y-72175390D02*
X146343666Y-72223009D01*
X146343666Y-72223009D02*
X146391285Y-72270628D01*
X146391285Y-72270628D02*
X146438904Y-72365866D01*
X146438904Y-72365866D02*
X146438904Y-72556342D01*
X146438904Y-72556342D02*
X146391285Y-72651580D01*
X146391285Y-72651580D02*
X146343666Y-72699200D01*
X146343666Y-72699200D02*
X146248428Y-72746819D01*
X146248428Y-72746819D02*
X146057952Y-72746819D01*
X146057952Y-72746819D02*
X145962714Y-72699200D01*
X145962714Y-72699200D02*
X145915095Y-72651580D01*
X145915095Y-72651580D02*
X145867476Y-72556342D01*
X145867476Y-72556342D02*
X145867476Y-72365866D01*
X145867476Y-72365866D02*
X145915095Y-72270628D01*
X145915095Y-72270628D02*
X145962714Y-72223009D01*
X145962714Y-72223009D02*
X146057952Y-72175390D01*
X145010333Y-72080152D02*
X145010333Y-72746819D01*
X145248428Y-71699200D02*
X145486523Y-72413485D01*
X145486523Y-72413485D02*
X144867476Y-72413485D01*
X103131580Y-125595142D02*
X103179200Y-125547523D01*
X103179200Y-125547523D02*
X103226819Y-125404666D01*
X103226819Y-125404666D02*
X103226819Y-125309428D01*
X103226819Y-125309428D02*
X103179200Y-125166571D01*
X103179200Y-125166571D02*
X103083961Y-125071333D01*
X103083961Y-125071333D02*
X102988723Y-125023714D01*
X102988723Y-125023714D02*
X102798247Y-124976095D01*
X102798247Y-124976095D02*
X102655390Y-124976095D01*
X102655390Y-124976095D02*
X102464914Y-125023714D01*
X102464914Y-125023714D02*
X102369676Y-125071333D01*
X102369676Y-125071333D02*
X102274438Y-125166571D01*
X102274438Y-125166571D02*
X102226819Y-125309428D01*
X102226819Y-125309428D02*
X102226819Y-125404666D01*
X102226819Y-125404666D02*
X102274438Y-125547523D01*
X102274438Y-125547523D02*
X102322057Y-125595142D01*
X102226819Y-125928476D02*
X102226819Y-126595142D01*
X102226819Y-126595142D02*
X103226819Y-126166571D01*
X102226819Y-127452285D02*
X102226819Y-126976095D01*
X102226819Y-126976095D02*
X102703009Y-126928476D01*
X102703009Y-126928476D02*
X102655390Y-126976095D01*
X102655390Y-126976095D02*
X102607771Y-127071333D01*
X102607771Y-127071333D02*
X102607771Y-127309428D01*
X102607771Y-127309428D02*
X102655390Y-127404666D01*
X102655390Y-127404666D02*
X102703009Y-127452285D01*
X102703009Y-127452285D02*
X102798247Y-127499904D01*
X102798247Y-127499904D02*
X103036342Y-127499904D01*
X103036342Y-127499904D02*
X103131580Y-127452285D01*
X103131580Y-127452285D02*
X103179200Y-127404666D01*
X103179200Y-127404666D02*
X103226819Y-127309428D01*
X103226819Y-127309428D02*
X103226819Y-127071333D01*
X103226819Y-127071333D02*
X103179200Y-126976095D01*
X103179200Y-126976095D02*
X103131580Y-126928476D01*
X164411819Y-57015142D02*
X163935628Y-56681809D01*
X164411819Y-56443714D02*
X163411819Y-56443714D01*
X163411819Y-56443714D02*
X163411819Y-56824666D01*
X163411819Y-56824666D02*
X163459438Y-56919904D01*
X163459438Y-56919904D02*
X163507057Y-56967523D01*
X163507057Y-56967523D02*
X163602295Y-57015142D01*
X163602295Y-57015142D02*
X163745152Y-57015142D01*
X163745152Y-57015142D02*
X163840390Y-56967523D01*
X163840390Y-56967523D02*
X163888009Y-56919904D01*
X163888009Y-56919904D02*
X163935628Y-56824666D01*
X163935628Y-56824666D02*
X163935628Y-56443714D01*
X163840390Y-57586571D02*
X163792771Y-57491333D01*
X163792771Y-57491333D02*
X163745152Y-57443714D01*
X163745152Y-57443714D02*
X163649914Y-57396095D01*
X163649914Y-57396095D02*
X163602295Y-57396095D01*
X163602295Y-57396095D02*
X163507057Y-57443714D01*
X163507057Y-57443714D02*
X163459438Y-57491333D01*
X163459438Y-57491333D02*
X163411819Y-57586571D01*
X163411819Y-57586571D02*
X163411819Y-57777047D01*
X163411819Y-57777047D02*
X163459438Y-57872285D01*
X163459438Y-57872285D02*
X163507057Y-57919904D01*
X163507057Y-57919904D02*
X163602295Y-57967523D01*
X163602295Y-57967523D02*
X163649914Y-57967523D01*
X163649914Y-57967523D02*
X163745152Y-57919904D01*
X163745152Y-57919904D02*
X163792771Y-57872285D01*
X163792771Y-57872285D02*
X163840390Y-57777047D01*
X163840390Y-57777047D02*
X163840390Y-57586571D01*
X163840390Y-57586571D02*
X163888009Y-57491333D01*
X163888009Y-57491333D02*
X163935628Y-57443714D01*
X163935628Y-57443714D02*
X164030866Y-57396095D01*
X164030866Y-57396095D02*
X164221342Y-57396095D01*
X164221342Y-57396095D02*
X164316580Y-57443714D01*
X164316580Y-57443714D02*
X164364200Y-57491333D01*
X164364200Y-57491333D02*
X164411819Y-57586571D01*
X164411819Y-57586571D02*
X164411819Y-57777047D01*
X164411819Y-57777047D02*
X164364200Y-57872285D01*
X164364200Y-57872285D02*
X164316580Y-57919904D01*
X164316580Y-57919904D02*
X164221342Y-57967523D01*
X164221342Y-57967523D02*
X164030866Y-57967523D01*
X164030866Y-57967523D02*
X163935628Y-57919904D01*
X163935628Y-57919904D02*
X163888009Y-57872285D01*
X163888009Y-57872285D02*
X163840390Y-57777047D01*
X163411819Y-58300857D02*
X163411819Y-58967523D01*
X163411819Y-58967523D02*
X164411819Y-58538952D01*
X82430857Y-99009580D02*
X82478476Y-99057200D01*
X82478476Y-99057200D02*
X82621333Y-99104819D01*
X82621333Y-99104819D02*
X82716571Y-99104819D01*
X82716571Y-99104819D02*
X82859428Y-99057200D01*
X82859428Y-99057200D02*
X82954666Y-98961961D01*
X82954666Y-98961961D02*
X83002285Y-98866723D01*
X83002285Y-98866723D02*
X83049904Y-98676247D01*
X83049904Y-98676247D02*
X83049904Y-98533390D01*
X83049904Y-98533390D02*
X83002285Y-98342914D01*
X83002285Y-98342914D02*
X82954666Y-98247676D01*
X82954666Y-98247676D02*
X82859428Y-98152438D01*
X82859428Y-98152438D02*
X82716571Y-98104819D01*
X82716571Y-98104819D02*
X82621333Y-98104819D01*
X82621333Y-98104819D02*
X82478476Y-98152438D01*
X82478476Y-98152438D02*
X82430857Y-98200057D01*
X82097523Y-98104819D02*
X81478476Y-98104819D01*
X81478476Y-98104819D02*
X81811809Y-98485771D01*
X81811809Y-98485771D02*
X81668952Y-98485771D01*
X81668952Y-98485771D02*
X81573714Y-98533390D01*
X81573714Y-98533390D02*
X81526095Y-98581009D01*
X81526095Y-98581009D02*
X81478476Y-98676247D01*
X81478476Y-98676247D02*
X81478476Y-98914342D01*
X81478476Y-98914342D02*
X81526095Y-99009580D01*
X81526095Y-99009580D02*
X81573714Y-99057200D01*
X81573714Y-99057200D02*
X81668952Y-99104819D01*
X81668952Y-99104819D02*
X81954666Y-99104819D01*
X81954666Y-99104819D02*
X82049904Y-99057200D01*
X82049904Y-99057200D02*
X82097523Y-99009580D01*
X80621333Y-98438152D02*
X80621333Y-99104819D01*
X80859428Y-98057200D02*
X81097523Y-98771485D01*
X81097523Y-98771485D02*
X80478476Y-98771485D01*
X167893904Y-111904819D02*
X167893904Y-112714342D01*
X167893904Y-112714342D02*
X167846285Y-112809580D01*
X167846285Y-112809580D02*
X167798666Y-112857200D01*
X167798666Y-112857200D02*
X167703428Y-112904819D01*
X167703428Y-112904819D02*
X167512952Y-112904819D01*
X167512952Y-112904819D02*
X167417714Y-112857200D01*
X167417714Y-112857200D02*
X167370095Y-112809580D01*
X167370095Y-112809580D02*
X167322476Y-112714342D01*
X167322476Y-112714342D02*
X167322476Y-111904819D01*
X166941523Y-111904819D02*
X166322476Y-111904819D01*
X166322476Y-111904819D02*
X166655809Y-112285771D01*
X166655809Y-112285771D02*
X166512952Y-112285771D01*
X166512952Y-112285771D02*
X166417714Y-112333390D01*
X166417714Y-112333390D02*
X166370095Y-112381009D01*
X166370095Y-112381009D02*
X166322476Y-112476247D01*
X166322476Y-112476247D02*
X166322476Y-112714342D01*
X166322476Y-112714342D02*
X166370095Y-112809580D01*
X166370095Y-112809580D02*
X166417714Y-112857200D01*
X166417714Y-112857200D02*
X166512952Y-112904819D01*
X166512952Y-112904819D02*
X166798666Y-112904819D01*
X166798666Y-112904819D02*
X166893904Y-112857200D01*
X166893904Y-112857200D02*
X166941523Y-112809580D01*
X88145857Y-103483580D02*
X88193476Y-103531200D01*
X88193476Y-103531200D02*
X88336333Y-103578819D01*
X88336333Y-103578819D02*
X88431571Y-103578819D01*
X88431571Y-103578819D02*
X88574428Y-103531200D01*
X88574428Y-103531200D02*
X88669666Y-103435961D01*
X88669666Y-103435961D02*
X88717285Y-103340723D01*
X88717285Y-103340723D02*
X88764904Y-103150247D01*
X88764904Y-103150247D02*
X88764904Y-103007390D01*
X88764904Y-103007390D02*
X88717285Y-102816914D01*
X88717285Y-102816914D02*
X88669666Y-102721676D01*
X88669666Y-102721676D02*
X88574428Y-102626438D01*
X88574428Y-102626438D02*
X88431571Y-102578819D01*
X88431571Y-102578819D02*
X88336333Y-102578819D01*
X88336333Y-102578819D02*
X88193476Y-102626438D01*
X88193476Y-102626438D02*
X88145857Y-102674057D01*
X87288714Y-102578819D02*
X87479190Y-102578819D01*
X87479190Y-102578819D02*
X87574428Y-102626438D01*
X87574428Y-102626438D02*
X87622047Y-102674057D01*
X87622047Y-102674057D02*
X87717285Y-102816914D01*
X87717285Y-102816914D02*
X87764904Y-103007390D01*
X87764904Y-103007390D02*
X87764904Y-103388342D01*
X87764904Y-103388342D02*
X87717285Y-103483580D01*
X87717285Y-103483580D02*
X87669666Y-103531200D01*
X87669666Y-103531200D02*
X87574428Y-103578819D01*
X87574428Y-103578819D02*
X87383952Y-103578819D01*
X87383952Y-103578819D02*
X87288714Y-103531200D01*
X87288714Y-103531200D02*
X87241095Y-103483580D01*
X87241095Y-103483580D02*
X87193476Y-103388342D01*
X87193476Y-103388342D02*
X87193476Y-103150247D01*
X87193476Y-103150247D02*
X87241095Y-103055009D01*
X87241095Y-103055009D02*
X87288714Y-103007390D01*
X87288714Y-103007390D02*
X87383952Y-102959771D01*
X87383952Y-102959771D02*
X87574428Y-102959771D01*
X87574428Y-102959771D02*
X87669666Y-103007390D01*
X87669666Y-103007390D02*
X87717285Y-103055009D01*
X87717285Y-103055009D02*
X87764904Y-103150247D01*
X86241095Y-103578819D02*
X86812523Y-103578819D01*
X86526809Y-103578819D02*
X86526809Y-102578819D01*
X86526809Y-102578819D02*
X86622047Y-102721676D01*
X86622047Y-102721676D02*
X86717285Y-102816914D01*
X86717285Y-102816914D02*
X86812523Y-102864533D01*
X211748666Y-92815580D02*
X211796285Y-92863200D01*
X211796285Y-92863200D02*
X211939142Y-92910819D01*
X211939142Y-92910819D02*
X212034380Y-92910819D01*
X212034380Y-92910819D02*
X212177237Y-92863200D01*
X212177237Y-92863200D02*
X212272475Y-92767961D01*
X212272475Y-92767961D02*
X212320094Y-92672723D01*
X212320094Y-92672723D02*
X212367713Y-92482247D01*
X212367713Y-92482247D02*
X212367713Y-92339390D01*
X212367713Y-92339390D02*
X212320094Y-92148914D01*
X212320094Y-92148914D02*
X212272475Y-92053676D01*
X212272475Y-92053676D02*
X212177237Y-91958438D01*
X212177237Y-91958438D02*
X212034380Y-91910819D01*
X212034380Y-91910819D02*
X211939142Y-91910819D01*
X211939142Y-91910819D02*
X211796285Y-91958438D01*
X211796285Y-91958438D02*
X211748666Y-92006057D01*
X211415332Y-91910819D02*
X210748666Y-91910819D01*
X210748666Y-91910819D02*
X211177237Y-92910819D01*
X99353666Y-72778580D02*
X99401285Y-72826200D01*
X99401285Y-72826200D02*
X99544142Y-72873819D01*
X99544142Y-72873819D02*
X99639380Y-72873819D01*
X99639380Y-72873819D02*
X99782237Y-72826200D01*
X99782237Y-72826200D02*
X99877475Y-72730961D01*
X99877475Y-72730961D02*
X99925094Y-72635723D01*
X99925094Y-72635723D02*
X99972713Y-72445247D01*
X99972713Y-72445247D02*
X99972713Y-72302390D01*
X99972713Y-72302390D02*
X99925094Y-72111914D01*
X99925094Y-72111914D02*
X99877475Y-72016676D01*
X99877475Y-72016676D02*
X99782237Y-71921438D01*
X99782237Y-71921438D02*
X99639380Y-71873819D01*
X99639380Y-71873819D02*
X99544142Y-71873819D01*
X99544142Y-71873819D02*
X99401285Y-71921438D01*
X99401285Y-71921438D02*
X99353666Y-71969057D01*
X98972713Y-71969057D02*
X98925094Y-71921438D01*
X98925094Y-71921438D02*
X98829856Y-71873819D01*
X98829856Y-71873819D02*
X98591761Y-71873819D01*
X98591761Y-71873819D02*
X98496523Y-71921438D01*
X98496523Y-71921438D02*
X98448904Y-71969057D01*
X98448904Y-71969057D02*
X98401285Y-72064295D01*
X98401285Y-72064295D02*
X98401285Y-72159533D01*
X98401285Y-72159533D02*
X98448904Y-72302390D01*
X98448904Y-72302390D02*
X99020332Y-72873819D01*
X99020332Y-72873819D02*
X98401285Y-72873819D01*
X169872819Y-57015142D02*
X169396628Y-56681809D01*
X169872819Y-56443714D02*
X168872819Y-56443714D01*
X168872819Y-56443714D02*
X168872819Y-56824666D01*
X168872819Y-56824666D02*
X168920438Y-56919904D01*
X168920438Y-56919904D02*
X168968057Y-56967523D01*
X168968057Y-56967523D02*
X169063295Y-57015142D01*
X169063295Y-57015142D02*
X169206152Y-57015142D01*
X169206152Y-57015142D02*
X169301390Y-56967523D01*
X169301390Y-56967523D02*
X169349009Y-56919904D01*
X169349009Y-56919904D02*
X169396628Y-56824666D01*
X169396628Y-56824666D02*
X169396628Y-56443714D01*
X169301390Y-57586571D02*
X169253771Y-57491333D01*
X169253771Y-57491333D02*
X169206152Y-57443714D01*
X169206152Y-57443714D02*
X169110914Y-57396095D01*
X169110914Y-57396095D02*
X169063295Y-57396095D01*
X169063295Y-57396095D02*
X168968057Y-57443714D01*
X168968057Y-57443714D02*
X168920438Y-57491333D01*
X168920438Y-57491333D02*
X168872819Y-57586571D01*
X168872819Y-57586571D02*
X168872819Y-57777047D01*
X168872819Y-57777047D02*
X168920438Y-57872285D01*
X168920438Y-57872285D02*
X168968057Y-57919904D01*
X168968057Y-57919904D02*
X169063295Y-57967523D01*
X169063295Y-57967523D02*
X169110914Y-57967523D01*
X169110914Y-57967523D02*
X169206152Y-57919904D01*
X169206152Y-57919904D02*
X169253771Y-57872285D01*
X169253771Y-57872285D02*
X169301390Y-57777047D01*
X169301390Y-57777047D02*
X169301390Y-57586571D01*
X169301390Y-57586571D02*
X169349009Y-57491333D01*
X169349009Y-57491333D02*
X169396628Y-57443714D01*
X169396628Y-57443714D02*
X169491866Y-57396095D01*
X169491866Y-57396095D02*
X169682342Y-57396095D01*
X169682342Y-57396095D02*
X169777580Y-57443714D01*
X169777580Y-57443714D02*
X169825200Y-57491333D01*
X169825200Y-57491333D02*
X169872819Y-57586571D01*
X169872819Y-57586571D02*
X169872819Y-57777047D01*
X169872819Y-57777047D02*
X169825200Y-57872285D01*
X169825200Y-57872285D02*
X169777580Y-57919904D01*
X169777580Y-57919904D02*
X169682342Y-57967523D01*
X169682342Y-57967523D02*
X169491866Y-57967523D01*
X169491866Y-57967523D02*
X169396628Y-57919904D01*
X169396628Y-57919904D02*
X169349009Y-57872285D01*
X169349009Y-57872285D02*
X169301390Y-57777047D01*
X169872819Y-58443714D02*
X169872819Y-58634190D01*
X169872819Y-58634190D02*
X169825200Y-58729428D01*
X169825200Y-58729428D02*
X169777580Y-58777047D01*
X169777580Y-58777047D02*
X169634723Y-58872285D01*
X169634723Y-58872285D02*
X169444247Y-58919904D01*
X169444247Y-58919904D02*
X169063295Y-58919904D01*
X169063295Y-58919904D02*
X168968057Y-58872285D01*
X168968057Y-58872285D02*
X168920438Y-58824666D01*
X168920438Y-58824666D02*
X168872819Y-58729428D01*
X168872819Y-58729428D02*
X168872819Y-58538952D01*
X168872819Y-58538952D02*
X168920438Y-58443714D01*
X168920438Y-58443714D02*
X168968057Y-58396095D01*
X168968057Y-58396095D02*
X169063295Y-58348476D01*
X169063295Y-58348476D02*
X169301390Y-58348476D01*
X169301390Y-58348476D02*
X169396628Y-58396095D01*
X169396628Y-58396095D02*
X169444247Y-58443714D01*
X169444247Y-58443714D02*
X169491866Y-58538952D01*
X169491866Y-58538952D02*
X169491866Y-58729428D01*
X169491866Y-58729428D02*
X169444247Y-58824666D01*
X169444247Y-58824666D02*
X169396628Y-58872285D01*
X169396628Y-58872285D02*
X169301390Y-58919904D01*
X118691819Y-57015142D02*
X118215628Y-56681809D01*
X118691819Y-56443714D02*
X117691819Y-56443714D01*
X117691819Y-56443714D02*
X117691819Y-56824666D01*
X117691819Y-56824666D02*
X117739438Y-56919904D01*
X117739438Y-56919904D02*
X117787057Y-56967523D01*
X117787057Y-56967523D02*
X117882295Y-57015142D01*
X117882295Y-57015142D02*
X118025152Y-57015142D01*
X118025152Y-57015142D02*
X118120390Y-56967523D01*
X118120390Y-56967523D02*
X118168009Y-56919904D01*
X118168009Y-56919904D02*
X118215628Y-56824666D01*
X118215628Y-56824666D02*
X118215628Y-56443714D01*
X117691819Y-57348476D02*
X117691819Y-57967523D01*
X117691819Y-57967523D02*
X118072771Y-57634190D01*
X118072771Y-57634190D02*
X118072771Y-57777047D01*
X118072771Y-57777047D02*
X118120390Y-57872285D01*
X118120390Y-57872285D02*
X118168009Y-57919904D01*
X118168009Y-57919904D02*
X118263247Y-57967523D01*
X118263247Y-57967523D02*
X118501342Y-57967523D01*
X118501342Y-57967523D02*
X118596580Y-57919904D01*
X118596580Y-57919904D02*
X118644200Y-57872285D01*
X118644200Y-57872285D02*
X118691819Y-57777047D01*
X118691819Y-57777047D02*
X118691819Y-57491333D01*
X118691819Y-57491333D02*
X118644200Y-57396095D01*
X118644200Y-57396095D02*
X118596580Y-57348476D01*
X118120390Y-58538952D02*
X118072771Y-58443714D01*
X118072771Y-58443714D02*
X118025152Y-58396095D01*
X118025152Y-58396095D02*
X117929914Y-58348476D01*
X117929914Y-58348476D02*
X117882295Y-58348476D01*
X117882295Y-58348476D02*
X117787057Y-58396095D01*
X117787057Y-58396095D02*
X117739438Y-58443714D01*
X117739438Y-58443714D02*
X117691819Y-58538952D01*
X117691819Y-58538952D02*
X117691819Y-58729428D01*
X117691819Y-58729428D02*
X117739438Y-58824666D01*
X117739438Y-58824666D02*
X117787057Y-58872285D01*
X117787057Y-58872285D02*
X117882295Y-58919904D01*
X117882295Y-58919904D02*
X117929914Y-58919904D01*
X117929914Y-58919904D02*
X118025152Y-58872285D01*
X118025152Y-58872285D02*
X118072771Y-58824666D01*
X118072771Y-58824666D02*
X118120390Y-58729428D01*
X118120390Y-58729428D02*
X118120390Y-58538952D01*
X118120390Y-58538952D02*
X118168009Y-58443714D01*
X118168009Y-58443714D02*
X118215628Y-58396095D01*
X118215628Y-58396095D02*
X118310866Y-58348476D01*
X118310866Y-58348476D02*
X118501342Y-58348476D01*
X118501342Y-58348476D02*
X118596580Y-58396095D01*
X118596580Y-58396095D02*
X118644200Y-58443714D01*
X118644200Y-58443714D02*
X118691819Y-58538952D01*
X118691819Y-58538952D02*
X118691819Y-58729428D01*
X118691819Y-58729428D02*
X118644200Y-58824666D01*
X118644200Y-58824666D02*
X118596580Y-58872285D01*
X118596580Y-58872285D02*
X118501342Y-58919904D01*
X118501342Y-58919904D02*
X118310866Y-58919904D01*
X118310866Y-58919904D02*
X118215628Y-58872285D01*
X118215628Y-58872285D02*
X118168009Y-58824666D01*
X118168009Y-58824666D02*
X118120390Y-58729428D01*
X193809857Y-72651580D02*
X193857476Y-72699200D01*
X193857476Y-72699200D02*
X194000333Y-72746819D01*
X194000333Y-72746819D02*
X194095571Y-72746819D01*
X194095571Y-72746819D02*
X194238428Y-72699200D01*
X194238428Y-72699200D02*
X194333666Y-72603961D01*
X194333666Y-72603961D02*
X194381285Y-72508723D01*
X194381285Y-72508723D02*
X194428904Y-72318247D01*
X194428904Y-72318247D02*
X194428904Y-72175390D01*
X194428904Y-72175390D02*
X194381285Y-71984914D01*
X194381285Y-71984914D02*
X194333666Y-71889676D01*
X194333666Y-71889676D02*
X194238428Y-71794438D01*
X194238428Y-71794438D02*
X194095571Y-71746819D01*
X194095571Y-71746819D02*
X194000333Y-71746819D01*
X194000333Y-71746819D02*
X193857476Y-71794438D01*
X193857476Y-71794438D02*
X193809857Y-71842057D01*
X193238428Y-72175390D02*
X193333666Y-72127771D01*
X193333666Y-72127771D02*
X193381285Y-72080152D01*
X193381285Y-72080152D02*
X193428904Y-71984914D01*
X193428904Y-71984914D02*
X193428904Y-71937295D01*
X193428904Y-71937295D02*
X193381285Y-71842057D01*
X193381285Y-71842057D02*
X193333666Y-71794438D01*
X193333666Y-71794438D02*
X193238428Y-71746819D01*
X193238428Y-71746819D02*
X193047952Y-71746819D01*
X193047952Y-71746819D02*
X192952714Y-71794438D01*
X192952714Y-71794438D02*
X192905095Y-71842057D01*
X192905095Y-71842057D02*
X192857476Y-71937295D01*
X192857476Y-71937295D02*
X192857476Y-71984914D01*
X192857476Y-71984914D02*
X192905095Y-72080152D01*
X192905095Y-72080152D02*
X192952714Y-72127771D01*
X192952714Y-72127771D02*
X193047952Y-72175390D01*
X193047952Y-72175390D02*
X193238428Y-72175390D01*
X193238428Y-72175390D02*
X193333666Y-72223009D01*
X193333666Y-72223009D02*
X193381285Y-72270628D01*
X193381285Y-72270628D02*
X193428904Y-72365866D01*
X193428904Y-72365866D02*
X193428904Y-72556342D01*
X193428904Y-72556342D02*
X193381285Y-72651580D01*
X193381285Y-72651580D02*
X193333666Y-72699200D01*
X193333666Y-72699200D02*
X193238428Y-72746819D01*
X193238428Y-72746819D02*
X193047952Y-72746819D01*
X193047952Y-72746819D02*
X192952714Y-72699200D01*
X192952714Y-72699200D02*
X192905095Y-72651580D01*
X192905095Y-72651580D02*
X192857476Y-72556342D01*
X192857476Y-72556342D02*
X192857476Y-72365866D01*
X192857476Y-72365866D02*
X192905095Y-72270628D01*
X192905095Y-72270628D02*
X192952714Y-72223009D01*
X192952714Y-72223009D02*
X193047952Y-72175390D01*
X192286047Y-72175390D02*
X192381285Y-72127771D01*
X192381285Y-72127771D02*
X192428904Y-72080152D01*
X192428904Y-72080152D02*
X192476523Y-71984914D01*
X192476523Y-71984914D02*
X192476523Y-71937295D01*
X192476523Y-71937295D02*
X192428904Y-71842057D01*
X192428904Y-71842057D02*
X192381285Y-71794438D01*
X192381285Y-71794438D02*
X192286047Y-71746819D01*
X192286047Y-71746819D02*
X192095571Y-71746819D01*
X192095571Y-71746819D02*
X192000333Y-71794438D01*
X192000333Y-71794438D02*
X191952714Y-71842057D01*
X191952714Y-71842057D02*
X191905095Y-71937295D01*
X191905095Y-71937295D02*
X191905095Y-71984914D01*
X191905095Y-71984914D02*
X191952714Y-72080152D01*
X191952714Y-72080152D02*
X192000333Y-72127771D01*
X192000333Y-72127771D02*
X192095571Y-72175390D01*
X192095571Y-72175390D02*
X192286047Y-72175390D01*
X192286047Y-72175390D02*
X192381285Y-72223009D01*
X192381285Y-72223009D02*
X192428904Y-72270628D01*
X192428904Y-72270628D02*
X192476523Y-72365866D01*
X192476523Y-72365866D02*
X192476523Y-72556342D01*
X192476523Y-72556342D02*
X192428904Y-72651580D01*
X192428904Y-72651580D02*
X192381285Y-72699200D01*
X192381285Y-72699200D02*
X192286047Y-72746819D01*
X192286047Y-72746819D02*
X192095571Y-72746819D01*
X192095571Y-72746819D02*
X192000333Y-72699200D01*
X192000333Y-72699200D02*
X191952714Y-72651580D01*
X191952714Y-72651580D02*
X191905095Y-72556342D01*
X191905095Y-72556342D02*
X191905095Y-72365866D01*
X191905095Y-72365866D02*
X191952714Y-72270628D01*
X191952714Y-72270628D02*
X192000333Y-72223009D01*
X192000333Y-72223009D02*
X192095571Y-72175390D01*
X157937580Y-122547142D02*
X157985200Y-122499523D01*
X157985200Y-122499523D02*
X158032819Y-122356666D01*
X158032819Y-122356666D02*
X158032819Y-122261428D01*
X158032819Y-122261428D02*
X157985200Y-122118571D01*
X157985200Y-122118571D02*
X157889961Y-122023333D01*
X157889961Y-122023333D02*
X157794723Y-121975714D01*
X157794723Y-121975714D02*
X157604247Y-121928095D01*
X157604247Y-121928095D02*
X157461390Y-121928095D01*
X157461390Y-121928095D02*
X157270914Y-121975714D01*
X157270914Y-121975714D02*
X157175676Y-122023333D01*
X157175676Y-122023333D02*
X157080438Y-122118571D01*
X157080438Y-122118571D02*
X157032819Y-122261428D01*
X157032819Y-122261428D02*
X157032819Y-122356666D01*
X157032819Y-122356666D02*
X157080438Y-122499523D01*
X157080438Y-122499523D02*
X157128057Y-122547142D01*
X157032819Y-123451904D02*
X157032819Y-122975714D01*
X157032819Y-122975714D02*
X157509009Y-122928095D01*
X157509009Y-122928095D02*
X157461390Y-122975714D01*
X157461390Y-122975714D02*
X157413771Y-123070952D01*
X157413771Y-123070952D02*
X157413771Y-123309047D01*
X157413771Y-123309047D02*
X157461390Y-123404285D01*
X157461390Y-123404285D02*
X157509009Y-123451904D01*
X157509009Y-123451904D02*
X157604247Y-123499523D01*
X157604247Y-123499523D02*
X157842342Y-123499523D01*
X157842342Y-123499523D02*
X157937580Y-123451904D01*
X157937580Y-123451904D02*
X157985200Y-123404285D01*
X157985200Y-123404285D02*
X158032819Y-123309047D01*
X158032819Y-123309047D02*
X158032819Y-123070952D01*
X158032819Y-123070952D02*
X157985200Y-122975714D01*
X157985200Y-122975714D02*
X157937580Y-122928095D01*
X158032819Y-124451904D02*
X158032819Y-123880476D01*
X158032819Y-124166190D02*
X157032819Y-124166190D01*
X157032819Y-124166190D02*
X157175676Y-124070952D01*
X157175676Y-124070952D02*
X157270914Y-123975714D01*
X157270914Y-123975714D02*
X157318533Y-123880476D01*
X204604857Y-87989580D02*
X204652476Y-88037200D01*
X204652476Y-88037200D02*
X204795333Y-88084819D01*
X204795333Y-88084819D02*
X204890571Y-88084819D01*
X204890571Y-88084819D02*
X205033428Y-88037200D01*
X205033428Y-88037200D02*
X205128666Y-87941961D01*
X205128666Y-87941961D02*
X205176285Y-87846723D01*
X205176285Y-87846723D02*
X205223904Y-87656247D01*
X205223904Y-87656247D02*
X205223904Y-87513390D01*
X205223904Y-87513390D02*
X205176285Y-87322914D01*
X205176285Y-87322914D02*
X205128666Y-87227676D01*
X205128666Y-87227676D02*
X205033428Y-87132438D01*
X205033428Y-87132438D02*
X204890571Y-87084819D01*
X204890571Y-87084819D02*
X204795333Y-87084819D01*
X204795333Y-87084819D02*
X204652476Y-87132438D01*
X204652476Y-87132438D02*
X204604857Y-87180057D01*
X204271523Y-87084819D02*
X203604857Y-87084819D01*
X203604857Y-87084819D02*
X204033428Y-88084819D01*
X202795333Y-87418152D02*
X202795333Y-88084819D01*
X203033428Y-87037200D02*
X203271523Y-87751485D01*
X203271523Y-87751485D02*
X202652476Y-87751485D01*
X157995857Y-87989580D02*
X158043476Y-88037200D01*
X158043476Y-88037200D02*
X158186333Y-88084819D01*
X158186333Y-88084819D02*
X158281571Y-88084819D01*
X158281571Y-88084819D02*
X158424428Y-88037200D01*
X158424428Y-88037200D02*
X158519666Y-87941961D01*
X158519666Y-87941961D02*
X158567285Y-87846723D01*
X158567285Y-87846723D02*
X158614904Y-87656247D01*
X158614904Y-87656247D02*
X158614904Y-87513390D01*
X158614904Y-87513390D02*
X158567285Y-87322914D01*
X158567285Y-87322914D02*
X158519666Y-87227676D01*
X158519666Y-87227676D02*
X158424428Y-87132438D01*
X158424428Y-87132438D02*
X158281571Y-87084819D01*
X158281571Y-87084819D02*
X158186333Y-87084819D01*
X158186333Y-87084819D02*
X158043476Y-87132438D01*
X158043476Y-87132438D02*
X157995857Y-87180057D01*
X157138714Y-87084819D02*
X157329190Y-87084819D01*
X157329190Y-87084819D02*
X157424428Y-87132438D01*
X157424428Y-87132438D02*
X157472047Y-87180057D01*
X157472047Y-87180057D02*
X157567285Y-87322914D01*
X157567285Y-87322914D02*
X157614904Y-87513390D01*
X157614904Y-87513390D02*
X157614904Y-87894342D01*
X157614904Y-87894342D02*
X157567285Y-87989580D01*
X157567285Y-87989580D02*
X157519666Y-88037200D01*
X157519666Y-88037200D02*
X157424428Y-88084819D01*
X157424428Y-88084819D02*
X157233952Y-88084819D01*
X157233952Y-88084819D02*
X157138714Y-88037200D01*
X157138714Y-88037200D02*
X157091095Y-87989580D01*
X157091095Y-87989580D02*
X157043476Y-87894342D01*
X157043476Y-87894342D02*
X157043476Y-87656247D01*
X157043476Y-87656247D02*
X157091095Y-87561009D01*
X157091095Y-87561009D02*
X157138714Y-87513390D01*
X157138714Y-87513390D02*
X157233952Y-87465771D01*
X157233952Y-87465771D02*
X157424428Y-87465771D01*
X157424428Y-87465771D02*
X157519666Y-87513390D01*
X157519666Y-87513390D02*
X157567285Y-87561009D01*
X157567285Y-87561009D02*
X157614904Y-87656247D01*
X156472047Y-87513390D02*
X156567285Y-87465771D01*
X156567285Y-87465771D02*
X156614904Y-87418152D01*
X156614904Y-87418152D02*
X156662523Y-87322914D01*
X156662523Y-87322914D02*
X156662523Y-87275295D01*
X156662523Y-87275295D02*
X156614904Y-87180057D01*
X156614904Y-87180057D02*
X156567285Y-87132438D01*
X156567285Y-87132438D02*
X156472047Y-87084819D01*
X156472047Y-87084819D02*
X156281571Y-87084819D01*
X156281571Y-87084819D02*
X156186333Y-87132438D01*
X156186333Y-87132438D02*
X156138714Y-87180057D01*
X156138714Y-87180057D02*
X156091095Y-87275295D01*
X156091095Y-87275295D02*
X156091095Y-87322914D01*
X156091095Y-87322914D02*
X156138714Y-87418152D01*
X156138714Y-87418152D02*
X156186333Y-87465771D01*
X156186333Y-87465771D02*
X156281571Y-87513390D01*
X156281571Y-87513390D02*
X156472047Y-87513390D01*
X156472047Y-87513390D02*
X156567285Y-87561009D01*
X156567285Y-87561009D02*
X156614904Y-87608628D01*
X156614904Y-87608628D02*
X156662523Y-87703866D01*
X156662523Y-87703866D02*
X156662523Y-87894342D01*
X156662523Y-87894342D02*
X156614904Y-87989580D01*
X156614904Y-87989580D02*
X156567285Y-88037200D01*
X156567285Y-88037200D02*
X156472047Y-88084819D01*
X156472047Y-88084819D02*
X156281571Y-88084819D01*
X156281571Y-88084819D02*
X156186333Y-88037200D01*
X156186333Y-88037200D02*
X156138714Y-87989580D01*
X156138714Y-87989580D02*
X156091095Y-87894342D01*
X156091095Y-87894342D02*
X156091095Y-87703866D01*
X156091095Y-87703866D02*
X156138714Y-87608628D01*
X156138714Y-87608628D02*
X156186333Y-87561009D01*
X156186333Y-87561009D02*
X156281571Y-87513390D01*
X159363580Y-139565142D02*
X159411200Y-139517523D01*
X159411200Y-139517523D02*
X159458819Y-139374666D01*
X159458819Y-139374666D02*
X159458819Y-139279428D01*
X159458819Y-139279428D02*
X159411200Y-139136571D01*
X159411200Y-139136571D02*
X159315961Y-139041333D01*
X159315961Y-139041333D02*
X159220723Y-138993714D01*
X159220723Y-138993714D02*
X159030247Y-138946095D01*
X159030247Y-138946095D02*
X158887390Y-138946095D01*
X158887390Y-138946095D02*
X158696914Y-138993714D01*
X158696914Y-138993714D02*
X158601676Y-139041333D01*
X158601676Y-139041333D02*
X158506438Y-139136571D01*
X158506438Y-139136571D02*
X158458819Y-139279428D01*
X158458819Y-139279428D02*
X158458819Y-139374666D01*
X158458819Y-139374666D02*
X158506438Y-139517523D01*
X158506438Y-139517523D02*
X158554057Y-139565142D01*
X158554057Y-139946095D02*
X158506438Y-139993714D01*
X158506438Y-139993714D02*
X158458819Y-140088952D01*
X158458819Y-140088952D02*
X158458819Y-140327047D01*
X158458819Y-140327047D02*
X158506438Y-140422285D01*
X158506438Y-140422285D02*
X158554057Y-140469904D01*
X158554057Y-140469904D02*
X158649295Y-140517523D01*
X158649295Y-140517523D02*
X158744533Y-140517523D01*
X158744533Y-140517523D02*
X158887390Y-140469904D01*
X158887390Y-140469904D02*
X159458819Y-139898476D01*
X159458819Y-139898476D02*
X159458819Y-140517523D01*
X158458819Y-140850857D02*
X158458819Y-141469904D01*
X158458819Y-141469904D02*
X158839771Y-141136571D01*
X158839771Y-141136571D02*
X158839771Y-141279428D01*
X158839771Y-141279428D02*
X158887390Y-141374666D01*
X158887390Y-141374666D02*
X158935009Y-141422285D01*
X158935009Y-141422285D02*
X159030247Y-141469904D01*
X159030247Y-141469904D02*
X159268342Y-141469904D01*
X159268342Y-141469904D02*
X159363580Y-141422285D01*
X159363580Y-141422285D02*
X159411200Y-141374666D01*
X159411200Y-141374666D02*
X159458819Y-141279428D01*
X159458819Y-141279428D02*
X159458819Y-140993714D01*
X159458819Y-140993714D02*
X159411200Y-140898476D01*
X159411200Y-140898476D02*
X159363580Y-140850857D01*
X88590285Y-105864819D02*
X88590285Y-104864819D01*
X88590285Y-104864819D02*
X88352190Y-104864819D01*
X88352190Y-104864819D02*
X88209333Y-104912438D01*
X88209333Y-104912438D02*
X88114095Y-105007676D01*
X88114095Y-105007676D02*
X88066476Y-105102914D01*
X88066476Y-105102914D02*
X88018857Y-105293390D01*
X88018857Y-105293390D02*
X88018857Y-105436247D01*
X88018857Y-105436247D02*
X88066476Y-105626723D01*
X88066476Y-105626723D02*
X88114095Y-105721961D01*
X88114095Y-105721961D02*
X88209333Y-105817200D01*
X88209333Y-105817200D02*
X88352190Y-105864819D01*
X88352190Y-105864819D02*
X88590285Y-105864819D01*
X87685523Y-104864819D02*
X87066476Y-104864819D01*
X87066476Y-104864819D02*
X87399809Y-105245771D01*
X87399809Y-105245771D02*
X87256952Y-105245771D01*
X87256952Y-105245771D02*
X87161714Y-105293390D01*
X87161714Y-105293390D02*
X87114095Y-105341009D01*
X87114095Y-105341009D02*
X87066476Y-105436247D01*
X87066476Y-105436247D02*
X87066476Y-105674342D01*
X87066476Y-105674342D02*
X87114095Y-105769580D01*
X87114095Y-105769580D02*
X87161714Y-105817200D01*
X87161714Y-105817200D02*
X87256952Y-105864819D01*
X87256952Y-105864819D02*
X87542666Y-105864819D01*
X87542666Y-105864819D02*
X87637904Y-105817200D01*
X87637904Y-105817200D02*
X87685523Y-105769580D01*
X86733142Y-104864819D02*
X86114095Y-104864819D01*
X86114095Y-104864819D02*
X86447428Y-105245771D01*
X86447428Y-105245771D02*
X86304571Y-105245771D01*
X86304571Y-105245771D02*
X86209333Y-105293390D01*
X86209333Y-105293390D02*
X86161714Y-105341009D01*
X86161714Y-105341009D02*
X86114095Y-105436247D01*
X86114095Y-105436247D02*
X86114095Y-105674342D01*
X86114095Y-105674342D02*
X86161714Y-105769580D01*
X86161714Y-105769580D02*
X86209333Y-105817200D01*
X86209333Y-105817200D02*
X86304571Y-105864819D01*
X86304571Y-105864819D02*
X86590285Y-105864819D01*
X86590285Y-105864819D02*
X86685523Y-105817200D01*
X86685523Y-105817200D02*
X86733142Y-105769580D01*
X107291047Y-67637819D02*
X107624380Y-67161628D01*
X107862475Y-67637819D02*
X107862475Y-66637819D01*
X107862475Y-66637819D02*
X107481523Y-66637819D01*
X107481523Y-66637819D02*
X107386285Y-66685438D01*
X107386285Y-66685438D02*
X107338666Y-66733057D01*
X107338666Y-66733057D02*
X107291047Y-66828295D01*
X107291047Y-66828295D02*
X107291047Y-66971152D01*
X107291047Y-66971152D02*
X107338666Y-67066390D01*
X107338666Y-67066390D02*
X107386285Y-67114009D01*
X107386285Y-67114009D02*
X107481523Y-67161628D01*
X107481523Y-67161628D02*
X107862475Y-67161628D01*
X106338666Y-67637819D02*
X106910094Y-67637819D01*
X106624380Y-67637819D02*
X106624380Y-66637819D01*
X106624380Y-66637819D02*
X106719618Y-66780676D01*
X106719618Y-66780676D02*
X106814856Y-66875914D01*
X106814856Y-66875914D02*
X106910094Y-66923533D01*
X105719618Y-66637819D02*
X105624380Y-66637819D01*
X105624380Y-66637819D02*
X105529142Y-66685438D01*
X105529142Y-66685438D02*
X105481523Y-66733057D01*
X105481523Y-66733057D02*
X105433904Y-66828295D01*
X105433904Y-66828295D02*
X105386285Y-67018771D01*
X105386285Y-67018771D02*
X105386285Y-67256866D01*
X105386285Y-67256866D02*
X105433904Y-67447342D01*
X105433904Y-67447342D02*
X105481523Y-67542580D01*
X105481523Y-67542580D02*
X105529142Y-67590200D01*
X105529142Y-67590200D02*
X105624380Y-67637819D01*
X105624380Y-67637819D02*
X105719618Y-67637819D01*
X105719618Y-67637819D02*
X105814856Y-67590200D01*
X105814856Y-67590200D02*
X105862475Y-67542580D01*
X105862475Y-67542580D02*
X105910094Y-67447342D01*
X105910094Y-67447342D02*
X105957713Y-67256866D01*
X105957713Y-67256866D02*
X105957713Y-67018771D01*
X105957713Y-67018771D02*
X105910094Y-66828295D01*
X105910094Y-66828295D02*
X105862475Y-66733057D01*
X105862475Y-66733057D02*
X105814856Y-66685438D01*
X105814856Y-66685438D02*
X105719618Y-66637819D01*
X105052951Y-66637819D02*
X104433904Y-66637819D01*
X104433904Y-66637819D02*
X104767237Y-67018771D01*
X104767237Y-67018771D02*
X104624380Y-67018771D01*
X104624380Y-67018771D02*
X104529142Y-67066390D01*
X104529142Y-67066390D02*
X104481523Y-67114009D01*
X104481523Y-67114009D02*
X104433904Y-67209247D01*
X104433904Y-67209247D02*
X104433904Y-67447342D01*
X104433904Y-67447342D02*
X104481523Y-67542580D01*
X104481523Y-67542580D02*
X104529142Y-67590200D01*
X104529142Y-67590200D02*
X104624380Y-67637819D01*
X104624380Y-67637819D02*
X104910094Y-67637819D01*
X104910094Y-67637819D02*
X105005332Y-67590200D01*
X105005332Y-67590200D02*
X105052951Y-67542580D01*
X121485819Y-57015142D02*
X121009628Y-56681809D01*
X121485819Y-56443714D02*
X120485819Y-56443714D01*
X120485819Y-56443714D02*
X120485819Y-56824666D01*
X120485819Y-56824666D02*
X120533438Y-56919904D01*
X120533438Y-56919904D02*
X120581057Y-56967523D01*
X120581057Y-56967523D02*
X120676295Y-57015142D01*
X120676295Y-57015142D02*
X120819152Y-57015142D01*
X120819152Y-57015142D02*
X120914390Y-56967523D01*
X120914390Y-56967523D02*
X120962009Y-56919904D01*
X120962009Y-56919904D02*
X121009628Y-56824666D01*
X121009628Y-56824666D02*
X121009628Y-56443714D01*
X120485819Y-57919904D02*
X120485819Y-57443714D01*
X120485819Y-57443714D02*
X120962009Y-57396095D01*
X120962009Y-57396095D02*
X120914390Y-57443714D01*
X120914390Y-57443714D02*
X120866771Y-57538952D01*
X120866771Y-57538952D02*
X120866771Y-57777047D01*
X120866771Y-57777047D02*
X120914390Y-57872285D01*
X120914390Y-57872285D02*
X120962009Y-57919904D01*
X120962009Y-57919904D02*
X121057247Y-57967523D01*
X121057247Y-57967523D02*
X121295342Y-57967523D01*
X121295342Y-57967523D02*
X121390580Y-57919904D01*
X121390580Y-57919904D02*
X121438200Y-57872285D01*
X121438200Y-57872285D02*
X121485819Y-57777047D01*
X121485819Y-57777047D02*
X121485819Y-57538952D01*
X121485819Y-57538952D02*
X121438200Y-57443714D01*
X121438200Y-57443714D02*
X121390580Y-57396095D01*
X120485819Y-58872285D02*
X120485819Y-58396095D01*
X120485819Y-58396095D02*
X120962009Y-58348476D01*
X120962009Y-58348476D02*
X120914390Y-58396095D01*
X120914390Y-58396095D02*
X120866771Y-58491333D01*
X120866771Y-58491333D02*
X120866771Y-58729428D01*
X120866771Y-58729428D02*
X120914390Y-58824666D01*
X120914390Y-58824666D02*
X120962009Y-58872285D01*
X120962009Y-58872285D02*
X121057247Y-58919904D01*
X121057247Y-58919904D02*
X121295342Y-58919904D01*
X121295342Y-58919904D02*
X121390580Y-58872285D01*
X121390580Y-58872285D02*
X121438200Y-58824666D01*
X121438200Y-58824666D02*
X121485819Y-58729428D01*
X121485819Y-58729428D02*
X121485819Y-58491333D01*
X121485819Y-58491333D02*
X121438200Y-58396095D01*
X121438200Y-58396095D02*
X121390580Y-58348476D01*
X187713857Y-74273580D02*
X187761476Y-74321200D01*
X187761476Y-74321200D02*
X187904333Y-74368819D01*
X187904333Y-74368819D02*
X187999571Y-74368819D01*
X187999571Y-74368819D02*
X188142428Y-74321200D01*
X188142428Y-74321200D02*
X188237666Y-74225961D01*
X188237666Y-74225961D02*
X188285285Y-74130723D01*
X188285285Y-74130723D02*
X188332904Y-73940247D01*
X188332904Y-73940247D02*
X188332904Y-73797390D01*
X188332904Y-73797390D02*
X188285285Y-73606914D01*
X188285285Y-73606914D02*
X188237666Y-73511676D01*
X188237666Y-73511676D02*
X188142428Y-73416438D01*
X188142428Y-73416438D02*
X187999571Y-73368819D01*
X187999571Y-73368819D02*
X187904333Y-73368819D01*
X187904333Y-73368819D02*
X187761476Y-73416438D01*
X187761476Y-73416438D02*
X187713857Y-73464057D01*
X187142428Y-73797390D02*
X187237666Y-73749771D01*
X187237666Y-73749771D02*
X187285285Y-73702152D01*
X187285285Y-73702152D02*
X187332904Y-73606914D01*
X187332904Y-73606914D02*
X187332904Y-73559295D01*
X187332904Y-73559295D02*
X187285285Y-73464057D01*
X187285285Y-73464057D02*
X187237666Y-73416438D01*
X187237666Y-73416438D02*
X187142428Y-73368819D01*
X187142428Y-73368819D02*
X186951952Y-73368819D01*
X186951952Y-73368819D02*
X186856714Y-73416438D01*
X186856714Y-73416438D02*
X186809095Y-73464057D01*
X186809095Y-73464057D02*
X186761476Y-73559295D01*
X186761476Y-73559295D02*
X186761476Y-73606914D01*
X186761476Y-73606914D02*
X186809095Y-73702152D01*
X186809095Y-73702152D02*
X186856714Y-73749771D01*
X186856714Y-73749771D02*
X186951952Y-73797390D01*
X186951952Y-73797390D02*
X187142428Y-73797390D01*
X187142428Y-73797390D02*
X187237666Y-73845009D01*
X187237666Y-73845009D02*
X187285285Y-73892628D01*
X187285285Y-73892628D02*
X187332904Y-73987866D01*
X187332904Y-73987866D02*
X187332904Y-74178342D01*
X187332904Y-74178342D02*
X187285285Y-74273580D01*
X187285285Y-74273580D02*
X187237666Y-74321200D01*
X187237666Y-74321200D02*
X187142428Y-74368819D01*
X187142428Y-74368819D02*
X186951952Y-74368819D01*
X186951952Y-74368819D02*
X186856714Y-74321200D01*
X186856714Y-74321200D02*
X186809095Y-74273580D01*
X186809095Y-74273580D02*
X186761476Y-74178342D01*
X186761476Y-74178342D02*
X186761476Y-73987866D01*
X186761476Y-73987866D02*
X186809095Y-73892628D01*
X186809095Y-73892628D02*
X186856714Y-73845009D01*
X186856714Y-73845009D02*
X186951952Y-73797390D01*
X186428142Y-73368819D02*
X185761476Y-73368819D01*
X185761476Y-73368819D02*
X186190047Y-74368819D01*
X117990857Y-101832580D02*
X118038476Y-101880200D01*
X118038476Y-101880200D02*
X118181333Y-101927819D01*
X118181333Y-101927819D02*
X118276571Y-101927819D01*
X118276571Y-101927819D02*
X118419428Y-101880200D01*
X118419428Y-101880200D02*
X118514666Y-101784961D01*
X118514666Y-101784961D02*
X118562285Y-101689723D01*
X118562285Y-101689723D02*
X118609904Y-101499247D01*
X118609904Y-101499247D02*
X118609904Y-101356390D01*
X118609904Y-101356390D02*
X118562285Y-101165914D01*
X118562285Y-101165914D02*
X118514666Y-101070676D01*
X118514666Y-101070676D02*
X118419428Y-100975438D01*
X118419428Y-100975438D02*
X118276571Y-100927819D01*
X118276571Y-100927819D02*
X118181333Y-100927819D01*
X118181333Y-100927819D02*
X118038476Y-100975438D01*
X118038476Y-100975438D02*
X117990857Y-101023057D01*
X117419428Y-101356390D02*
X117514666Y-101308771D01*
X117514666Y-101308771D02*
X117562285Y-101261152D01*
X117562285Y-101261152D02*
X117609904Y-101165914D01*
X117609904Y-101165914D02*
X117609904Y-101118295D01*
X117609904Y-101118295D02*
X117562285Y-101023057D01*
X117562285Y-101023057D02*
X117514666Y-100975438D01*
X117514666Y-100975438D02*
X117419428Y-100927819D01*
X117419428Y-100927819D02*
X117228952Y-100927819D01*
X117228952Y-100927819D02*
X117133714Y-100975438D01*
X117133714Y-100975438D02*
X117086095Y-101023057D01*
X117086095Y-101023057D02*
X117038476Y-101118295D01*
X117038476Y-101118295D02*
X117038476Y-101165914D01*
X117038476Y-101165914D02*
X117086095Y-101261152D01*
X117086095Y-101261152D02*
X117133714Y-101308771D01*
X117133714Y-101308771D02*
X117228952Y-101356390D01*
X117228952Y-101356390D02*
X117419428Y-101356390D01*
X117419428Y-101356390D02*
X117514666Y-101404009D01*
X117514666Y-101404009D02*
X117562285Y-101451628D01*
X117562285Y-101451628D02*
X117609904Y-101546866D01*
X117609904Y-101546866D02*
X117609904Y-101737342D01*
X117609904Y-101737342D02*
X117562285Y-101832580D01*
X117562285Y-101832580D02*
X117514666Y-101880200D01*
X117514666Y-101880200D02*
X117419428Y-101927819D01*
X117419428Y-101927819D02*
X117228952Y-101927819D01*
X117228952Y-101927819D02*
X117133714Y-101880200D01*
X117133714Y-101880200D02*
X117086095Y-101832580D01*
X117086095Y-101832580D02*
X117038476Y-101737342D01*
X117038476Y-101737342D02*
X117038476Y-101546866D01*
X117038476Y-101546866D02*
X117086095Y-101451628D01*
X117086095Y-101451628D02*
X117133714Y-101404009D01*
X117133714Y-101404009D02*
X117228952Y-101356390D01*
X116419428Y-100927819D02*
X116324190Y-100927819D01*
X116324190Y-100927819D02*
X116228952Y-100975438D01*
X116228952Y-100975438D02*
X116181333Y-101023057D01*
X116181333Y-101023057D02*
X116133714Y-101118295D01*
X116133714Y-101118295D02*
X116086095Y-101308771D01*
X116086095Y-101308771D02*
X116086095Y-101546866D01*
X116086095Y-101546866D02*
X116133714Y-101737342D01*
X116133714Y-101737342D02*
X116181333Y-101832580D01*
X116181333Y-101832580D02*
X116228952Y-101880200D01*
X116228952Y-101880200D02*
X116324190Y-101927819D01*
X116324190Y-101927819D02*
X116419428Y-101927819D01*
X116419428Y-101927819D02*
X116514666Y-101880200D01*
X116514666Y-101880200D02*
X116562285Y-101832580D01*
X116562285Y-101832580D02*
X116609904Y-101737342D01*
X116609904Y-101737342D02*
X116657523Y-101546866D01*
X116657523Y-101546866D02*
X116657523Y-101308771D01*
X116657523Y-101308771D02*
X116609904Y-101118295D01*
X116609904Y-101118295D02*
X116562285Y-101023057D01*
X116562285Y-101023057D02*
X116514666Y-100975438D01*
X116514666Y-100975438D02*
X116419428Y-100927819D01*
X135643857Y-66047580D02*
X135691476Y-66095200D01*
X135691476Y-66095200D02*
X135834333Y-66142819D01*
X135834333Y-66142819D02*
X135929571Y-66142819D01*
X135929571Y-66142819D02*
X136072428Y-66095200D01*
X136072428Y-66095200D02*
X136167666Y-65999961D01*
X136167666Y-65999961D02*
X136215285Y-65904723D01*
X136215285Y-65904723D02*
X136262904Y-65714247D01*
X136262904Y-65714247D02*
X136262904Y-65571390D01*
X136262904Y-65571390D02*
X136215285Y-65380914D01*
X136215285Y-65380914D02*
X136167666Y-65285676D01*
X136167666Y-65285676D02*
X136072428Y-65190438D01*
X136072428Y-65190438D02*
X135929571Y-65142819D01*
X135929571Y-65142819D02*
X135834333Y-65142819D01*
X135834333Y-65142819D02*
X135691476Y-65190438D01*
X135691476Y-65190438D02*
X135643857Y-65238057D01*
X135072428Y-65571390D02*
X135167666Y-65523771D01*
X135167666Y-65523771D02*
X135215285Y-65476152D01*
X135215285Y-65476152D02*
X135262904Y-65380914D01*
X135262904Y-65380914D02*
X135262904Y-65333295D01*
X135262904Y-65333295D02*
X135215285Y-65238057D01*
X135215285Y-65238057D02*
X135167666Y-65190438D01*
X135167666Y-65190438D02*
X135072428Y-65142819D01*
X135072428Y-65142819D02*
X134881952Y-65142819D01*
X134881952Y-65142819D02*
X134786714Y-65190438D01*
X134786714Y-65190438D02*
X134739095Y-65238057D01*
X134739095Y-65238057D02*
X134691476Y-65333295D01*
X134691476Y-65333295D02*
X134691476Y-65380914D01*
X134691476Y-65380914D02*
X134739095Y-65476152D01*
X134739095Y-65476152D02*
X134786714Y-65523771D01*
X134786714Y-65523771D02*
X134881952Y-65571390D01*
X134881952Y-65571390D02*
X135072428Y-65571390D01*
X135072428Y-65571390D02*
X135167666Y-65619009D01*
X135167666Y-65619009D02*
X135215285Y-65666628D01*
X135215285Y-65666628D02*
X135262904Y-65761866D01*
X135262904Y-65761866D02*
X135262904Y-65952342D01*
X135262904Y-65952342D02*
X135215285Y-66047580D01*
X135215285Y-66047580D02*
X135167666Y-66095200D01*
X135167666Y-66095200D02*
X135072428Y-66142819D01*
X135072428Y-66142819D02*
X134881952Y-66142819D01*
X134881952Y-66142819D02*
X134786714Y-66095200D01*
X134786714Y-66095200D02*
X134739095Y-66047580D01*
X134739095Y-66047580D02*
X134691476Y-65952342D01*
X134691476Y-65952342D02*
X134691476Y-65761866D01*
X134691476Y-65761866D02*
X134739095Y-65666628D01*
X134739095Y-65666628D02*
X134786714Y-65619009D01*
X134786714Y-65619009D02*
X134881952Y-65571390D01*
X133786714Y-65142819D02*
X134262904Y-65142819D01*
X134262904Y-65142819D02*
X134310523Y-65619009D01*
X134310523Y-65619009D02*
X134262904Y-65571390D01*
X134262904Y-65571390D02*
X134167666Y-65523771D01*
X134167666Y-65523771D02*
X133929571Y-65523771D01*
X133929571Y-65523771D02*
X133834333Y-65571390D01*
X133834333Y-65571390D02*
X133786714Y-65619009D01*
X133786714Y-65619009D02*
X133739095Y-65714247D01*
X133739095Y-65714247D02*
X133739095Y-65952342D01*
X133739095Y-65952342D02*
X133786714Y-66047580D01*
X133786714Y-66047580D02*
X133834333Y-66095200D01*
X133834333Y-66095200D02*
X133929571Y-66142819D01*
X133929571Y-66142819D02*
X134167666Y-66142819D01*
X134167666Y-66142819D02*
X134262904Y-66095200D01*
X134262904Y-66095200D02*
X134310523Y-66047580D01*
X154535047Y-67637819D02*
X154868380Y-67161628D01*
X155106475Y-67637819D02*
X155106475Y-66637819D01*
X155106475Y-66637819D02*
X154725523Y-66637819D01*
X154725523Y-66637819D02*
X154630285Y-66685438D01*
X154630285Y-66685438D02*
X154582666Y-66733057D01*
X154582666Y-66733057D02*
X154535047Y-66828295D01*
X154535047Y-66828295D02*
X154535047Y-66971152D01*
X154535047Y-66971152D02*
X154582666Y-67066390D01*
X154582666Y-67066390D02*
X154630285Y-67114009D01*
X154630285Y-67114009D02*
X154725523Y-67161628D01*
X154725523Y-67161628D02*
X155106475Y-67161628D01*
X153582666Y-67637819D02*
X154154094Y-67637819D01*
X153868380Y-67637819D02*
X153868380Y-66637819D01*
X153868380Y-66637819D02*
X153963618Y-66780676D01*
X153963618Y-66780676D02*
X154058856Y-66875914D01*
X154058856Y-66875914D02*
X154154094Y-66923533D01*
X152963618Y-66637819D02*
X152868380Y-66637819D01*
X152868380Y-66637819D02*
X152773142Y-66685438D01*
X152773142Y-66685438D02*
X152725523Y-66733057D01*
X152725523Y-66733057D02*
X152677904Y-66828295D01*
X152677904Y-66828295D02*
X152630285Y-67018771D01*
X152630285Y-67018771D02*
X152630285Y-67256866D01*
X152630285Y-67256866D02*
X152677904Y-67447342D01*
X152677904Y-67447342D02*
X152725523Y-67542580D01*
X152725523Y-67542580D02*
X152773142Y-67590200D01*
X152773142Y-67590200D02*
X152868380Y-67637819D01*
X152868380Y-67637819D02*
X152963618Y-67637819D01*
X152963618Y-67637819D02*
X153058856Y-67590200D01*
X153058856Y-67590200D02*
X153106475Y-67542580D01*
X153106475Y-67542580D02*
X153154094Y-67447342D01*
X153154094Y-67447342D02*
X153201713Y-67256866D01*
X153201713Y-67256866D02*
X153201713Y-67018771D01*
X153201713Y-67018771D02*
X153154094Y-66828295D01*
X153154094Y-66828295D02*
X153106475Y-66733057D01*
X153106475Y-66733057D02*
X153058856Y-66685438D01*
X153058856Y-66685438D02*
X152963618Y-66637819D01*
X151773142Y-66637819D02*
X151963618Y-66637819D01*
X151963618Y-66637819D02*
X152058856Y-66685438D01*
X152058856Y-66685438D02*
X152106475Y-66733057D01*
X152106475Y-66733057D02*
X152201713Y-66875914D01*
X152201713Y-66875914D02*
X152249332Y-67066390D01*
X152249332Y-67066390D02*
X152249332Y-67447342D01*
X152249332Y-67447342D02*
X152201713Y-67542580D01*
X152201713Y-67542580D02*
X152154094Y-67590200D01*
X152154094Y-67590200D02*
X152058856Y-67637819D01*
X152058856Y-67637819D02*
X151868380Y-67637819D01*
X151868380Y-67637819D02*
X151773142Y-67590200D01*
X151773142Y-67590200D02*
X151725523Y-67542580D01*
X151725523Y-67542580D02*
X151677904Y-67447342D01*
X151677904Y-67447342D02*
X151677904Y-67209247D01*
X151677904Y-67209247D02*
X151725523Y-67114009D01*
X151725523Y-67114009D02*
X151773142Y-67066390D01*
X151773142Y-67066390D02*
X151868380Y-67018771D01*
X151868380Y-67018771D02*
X152058856Y-67018771D01*
X152058856Y-67018771D02*
X152154094Y-67066390D01*
X152154094Y-67066390D02*
X152201713Y-67114009D01*
X152201713Y-67114009D02*
X152249332Y-67209247D01*
X207213580Y-128389142D02*
X207261200Y-128341523D01*
X207261200Y-128341523D02*
X207308819Y-128198666D01*
X207308819Y-128198666D02*
X207308819Y-128103428D01*
X207308819Y-128103428D02*
X207261200Y-127960571D01*
X207261200Y-127960571D02*
X207165961Y-127865333D01*
X207165961Y-127865333D02*
X207070723Y-127817714D01*
X207070723Y-127817714D02*
X206880247Y-127770095D01*
X206880247Y-127770095D02*
X206737390Y-127770095D01*
X206737390Y-127770095D02*
X206546914Y-127817714D01*
X206546914Y-127817714D02*
X206451676Y-127865333D01*
X206451676Y-127865333D02*
X206356438Y-127960571D01*
X206356438Y-127960571D02*
X206308819Y-128103428D01*
X206308819Y-128103428D02*
X206308819Y-128198666D01*
X206308819Y-128198666D02*
X206356438Y-128341523D01*
X206356438Y-128341523D02*
X206404057Y-128389142D01*
X206642152Y-129246285D02*
X207308819Y-129246285D01*
X206261200Y-129008190D02*
X206975485Y-128770095D01*
X206975485Y-128770095D02*
X206975485Y-129389142D01*
X207308819Y-130293904D02*
X207308819Y-129722476D01*
X207308819Y-130008190D02*
X206308819Y-130008190D01*
X206308819Y-130008190D02*
X206451676Y-129912952D01*
X206451676Y-129912952D02*
X206546914Y-129817714D01*
X206546914Y-129817714D02*
X206594533Y-129722476D01*
X160477580Y-128389142D02*
X160525200Y-128341523D01*
X160525200Y-128341523D02*
X160572819Y-128198666D01*
X160572819Y-128198666D02*
X160572819Y-128103428D01*
X160572819Y-128103428D02*
X160525200Y-127960571D01*
X160525200Y-127960571D02*
X160429961Y-127865333D01*
X160429961Y-127865333D02*
X160334723Y-127817714D01*
X160334723Y-127817714D02*
X160144247Y-127770095D01*
X160144247Y-127770095D02*
X160001390Y-127770095D01*
X160001390Y-127770095D02*
X159810914Y-127817714D01*
X159810914Y-127817714D02*
X159715676Y-127865333D01*
X159715676Y-127865333D02*
X159620438Y-127960571D01*
X159620438Y-127960571D02*
X159572819Y-128103428D01*
X159572819Y-128103428D02*
X159572819Y-128198666D01*
X159572819Y-128198666D02*
X159620438Y-128341523D01*
X159620438Y-128341523D02*
X159668057Y-128389142D01*
X159572819Y-129293904D02*
X159572819Y-128817714D01*
X159572819Y-128817714D02*
X160049009Y-128770095D01*
X160049009Y-128770095D02*
X160001390Y-128817714D01*
X160001390Y-128817714D02*
X159953771Y-128912952D01*
X159953771Y-128912952D02*
X159953771Y-129151047D01*
X159953771Y-129151047D02*
X160001390Y-129246285D01*
X160001390Y-129246285D02*
X160049009Y-129293904D01*
X160049009Y-129293904D02*
X160144247Y-129341523D01*
X160144247Y-129341523D02*
X160382342Y-129341523D01*
X160382342Y-129341523D02*
X160477580Y-129293904D01*
X160477580Y-129293904D02*
X160525200Y-129246285D01*
X160525200Y-129246285D02*
X160572819Y-129151047D01*
X160572819Y-129151047D02*
X160572819Y-128912952D01*
X160572819Y-128912952D02*
X160525200Y-128817714D01*
X160525200Y-128817714D02*
X160477580Y-128770095D01*
X159572819Y-129674857D02*
X159572819Y-130293904D01*
X159572819Y-130293904D02*
X159953771Y-129960571D01*
X159953771Y-129960571D02*
X159953771Y-130103428D01*
X159953771Y-130103428D02*
X160001390Y-130198666D01*
X160001390Y-130198666D02*
X160049009Y-130246285D01*
X160049009Y-130246285D02*
X160144247Y-130293904D01*
X160144247Y-130293904D02*
X160382342Y-130293904D01*
X160382342Y-130293904D02*
X160477580Y-130246285D01*
X160477580Y-130246285D02*
X160525200Y-130198666D01*
X160525200Y-130198666D02*
X160572819Y-130103428D01*
X160572819Y-130103428D02*
X160572819Y-129817714D01*
X160572819Y-129817714D02*
X160525200Y-129722476D01*
X160525200Y-129722476D02*
X160477580Y-129674857D01*
X211970857Y-101705580D02*
X212018476Y-101753200D01*
X212018476Y-101753200D02*
X212161333Y-101800819D01*
X212161333Y-101800819D02*
X212256571Y-101800819D01*
X212256571Y-101800819D02*
X212399428Y-101753200D01*
X212399428Y-101753200D02*
X212494666Y-101657961D01*
X212494666Y-101657961D02*
X212542285Y-101562723D01*
X212542285Y-101562723D02*
X212589904Y-101372247D01*
X212589904Y-101372247D02*
X212589904Y-101229390D01*
X212589904Y-101229390D02*
X212542285Y-101038914D01*
X212542285Y-101038914D02*
X212494666Y-100943676D01*
X212494666Y-100943676D02*
X212399428Y-100848438D01*
X212399428Y-100848438D02*
X212256571Y-100800819D01*
X212256571Y-100800819D02*
X212161333Y-100800819D01*
X212161333Y-100800819D02*
X212018476Y-100848438D01*
X212018476Y-100848438D02*
X211970857Y-100896057D01*
X211589904Y-100896057D02*
X211542285Y-100848438D01*
X211542285Y-100848438D02*
X211447047Y-100800819D01*
X211447047Y-100800819D02*
X211208952Y-100800819D01*
X211208952Y-100800819D02*
X211113714Y-100848438D01*
X211113714Y-100848438D02*
X211066095Y-100896057D01*
X211066095Y-100896057D02*
X211018476Y-100991295D01*
X211018476Y-100991295D02*
X211018476Y-101086533D01*
X211018476Y-101086533D02*
X211066095Y-101229390D01*
X211066095Y-101229390D02*
X211637523Y-101800819D01*
X211637523Y-101800819D02*
X211018476Y-101800819D01*
X210685142Y-100800819D02*
X210018476Y-100800819D01*
X210018476Y-100800819D02*
X210447047Y-101800819D01*
X149867580Y-125595142D02*
X149915200Y-125547523D01*
X149915200Y-125547523D02*
X149962819Y-125404666D01*
X149962819Y-125404666D02*
X149962819Y-125309428D01*
X149962819Y-125309428D02*
X149915200Y-125166571D01*
X149915200Y-125166571D02*
X149819961Y-125071333D01*
X149819961Y-125071333D02*
X149724723Y-125023714D01*
X149724723Y-125023714D02*
X149534247Y-124976095D01*
X149534247Y-124976095D02*
X149391390Y-124976095D01*
X149391390Y-124976095D02*
X149200914Y-125023714D01*
X149200914Y-125023714D02*
X149105676Y-125071333D01*
X149105676Y-125071333D02*
X149010438Y-125166571D01*
X149010438Y-125166571D02*
X148962819Y-125309428D01*
X148962819Y-125309428D02*
X148962819Y-125404666D01*
X148962819Y-125404666D02*
X149010438Y-125547523D01*
X149010438Y-125547523D02*
X149058057Y-125595142D01*
X148962819Y-126499904D02*
X148962819Y-126023714D01*
X148962819Y-126023714D02*
X149439009Y-125976095D01*
X149439009Y-125976095D02*
X149391390Y-126023714D01*
X149391390Y-126023714D02*
X149343771Y-126118952D01*
X149343771Y-126118952D02*
X149343771Y-126357047D01*
X149343771Y-126357047D02*
X149391390Y-126452285D01*
X149391390Y-126452285D02*
X149439009Y-126499904D01*
X149439009Y-126499904D02*
X149534247Y-126547523D01*
X149534247Y-126547523D02*
X149772342Y-126547523D01*
X149772342Y-126547523D02*
X149867580Y-126499904D01*
X149867580Y-126499904D02*
X149915200Y-126452285D01*
X149915200Y-126452285D02*
X149962819Y-126357047D01*
X149962819Y-126357047D02*
X149962819Y-126118952D01*
X149962819Y-126118952D02*
X149915200Y-126023714D01*
X149915200Y-126023714D02*
X149867580Y-125976095D01*
X148962819Y-127166571D02*
X148962819Y-127261809D01*
X148962819Y-127261809D02*
X149010438Y-127357047D01*
X149010438Y-127357047D02*
X149058057Y-127404666D01*
X149058057Y-127404666D02*
X149153295Y-127452285D01*
X149153295Y-127452285D02*
X149343771Y-127499904D01*
X149343771Y-127499904D02*
X149581866Y-127499904D01*
X149581866Y-127499904D02*
X149772342Y-127452285D01*
X149772342Y-127452285D02*
X149867580Y-127404666D01*
X149867580Y-127404666D02*
X149915200Y-127357047D01*
X149915200Y-127357047D02*
X149962819Y-127261809D01*
X149962819Y-127261809D02*
X149962819Y-127166571D01*
X149962819Y-127166571D02*
X149915200Y-127071333D01*
X149915200Y-127071333D02*
X149867580Y-127023714D01*
X149867580Y-127023714D02*
X149772342Y-126976095D01*
X149772342Y-126976095D02*
X149581866Y-126928476D01*
X149581866Y-126928476D02*
X149343771Y-126928476D01*
X149343771Y-126928476D02*
X149153295Y-126976095D01*
X149153295Y-126976095D02*
X149058057Y-127023714D01*
X149058057Y-127023714D02*
X149010438Y-127071333D01*
X149010438Y-127071333D02*
X148962819Y-127166571D01*
X137929857Y-70336580D02*
X137977476Y-70384200D01*
X137977476Y-70384200D02*
X138120333Y-70431819D01*
X138120333Y-70431819D02*
X138215571Y-70431819D01*
X138215571Y-70431819D02*
X138358428Y-70384200D01*
X138358428Y-70384200D02*
X138453666Y-70288961D01*
X138453666Y-70288961D02*
X138501285Y-70193723D01*
X138501285Y-70193723D02*
X138548904Y-70003247D01*
X138548904Y-70003247D02*
X138548904Y-69860390D01*
X138548904Y-69860390D02*
X138501285Y-69669914D01*
X138501285Y-69669914D02*
X138453666Y-69574676D01*
X138453666Y-69574676D02*
X138358428Y-69479438D01*
X138358428Y-69479438D02*
X138215571Y-69431819D01*
X138215571Y-69431819D02*
X138120333Y-69431819D01*
X138120333Y-69431819D02*
X137977476Y-69479438D01*
X137977476Y-69479438D02*
X137929857Y-69527057D01*
X137358428Y-69860390D02*
X137453666Y-69812771D01*
X137453666Y-69812771D02*
X137501285Y-69765152D01*
X137501285Y-69765152D02*
X137548904Y-69669914D01*
X137548904Y-69669914D02*
X137548904Y-69622295D01*
X137548904Y-69622295D02*
X137501285Y-69527057D01*
X137501285Y-69527057D02*
X137453666Y-69479438D01*
X137453666Y-69479438D02*
X137358428Y-69431819D01*
X137358428Y-69431819D02*
X137167952Y-69431819D01*
X137167952Y-69431819D02*
X137072714Y-69479438D01*
X137072714Y-69479438D02*
X137025095Y-69527057D01*
X137025095Y-69527057D02*
X136977476Y-69622295D01*
X136977476Y-69622295D02*
X136977476Y-69669914D01*
X136977476Y-69669914D02*
X137025095Y-69765152D01*
X137025095Y-69765152D02*
X137072714Y-69812771D01*
X137072714Y-69812771D02*
X137167952Y-69860390D01*
X137167952Y-69860390D02*
X137358428Y-69860390D01*
X137358428Y-69860390D02*
X137453666Y-69908009D01*
X137453666Y-69908009D02*
X137501285Y-69955628D01*
X137501285Y-69955628D02*
X137548904Y-70050866D01*
X137548904Y-70050866D02*
X137548904Y-70241342D01*
X137548904Y-70241342D02*
X137501285Y-70336580D01*
X137501285Y-70336580D02*
X137453666Y-70384200D01*
X137453666Y-70384200D02*
X137358428Y-70431819D01*
X137358428Y-70431819D02*
X137167952Y-70431819D01*
X137167952Y-70431819D02*
X137072714Y-70384200D01*
X137072714Y-70384200D02*
X137025095Y-70336580D01*
X137025095Y-70336580D02*
X136977476Y-70241342D01*
X136977476Y-70241342D02*
X136977476Y-70050866D01*
X136977476Y-70050866D02*
X137025095Y-69955628D01*
X137025095Y-69955628D02*
X137072714Y-69908009D01*
X137072714Y-69908009D02*
X137167952Y-69860390D01*
X136596523Y-69527057D02*
X136548904Y-69479438D01*
X136548904Y-69479438D02*
X136453666Y-69431819D01*
X136453666Y-69431819D02*
X136215571Y-69431819D01*
X136215571Y-69431819D02*
X136120333Y-69479438D01*
X136120333Y-69479438D02*
X136072714Y-69527057D01*
X136072714Y-69527057D02*
X136025095Y-69622295D01*
X136025095Y-69622295D02*
X136025095Y-69717533D01*
X136025095Y-69717533D02*
X136072714Y-69860390D01*
X136072714Y-69860390D02*
X136644142Y-70431819D01*
X136644142Y-70431819D02*
X136025095Y-70431819D01*
X93860857Y-74273580D02*
X93908476Y-74321200D01*
X93908476Y-74321200D02*
X94051333Y-74368819D01*
X94051333Y-74368819D02*
X94146571Y-74368819D01*
X94146571Y-74368819D02*
X94289428Y-74321200D01*
X94289428Y-74321200D02*
X94384666Y-74225961D01*
X94384666Y-74225961D02*
X94432285Y-74130723D01*
X94432285Y-74130723D02*
X94479904Y-73940247D01*
X94479904Y-73940247D02*
X94479904Y-73797390D01*
X94479904Y-73797390D02*
X94432285Y-73606914D01*
X94432285Y-73606914D02*
X94384666Y-73511676D01*
X94384666Y-73511676D02*
X94289428Y-73416438D01*
X94289428Y-73416438D02*
X94146571Y-73368819D01*
X94146571Y-73368819D02*
X94051333Y-73368819D01*
X94051333Y-73368819D02*
X93908476Y-73416438D01*
X93908476Y-73416438D02*
X93860857Y-73464057D01*
X93003714Y-73702152D02*
X93003714Y-74368819D01*
X93241809Y-73321200D02*
X93479904Y-74035485D01*
X93479904Y-74035485D02*
X92860857Y-74035485D01*
X92003714Y-73368819D02*
X92479904Y-73368819D01*
X92479904Y-73368819D02*
X92527523Y-73845009D01*
X92527523Y-73845009D02*
X92479904Y-73797390D01*
X92479904Y-73797390D02*
X92384666Y-73749771D01*
X92384666Y-73749771D02*
X92146571Y-73749771D01*
X92146571Y-73749771D02*
X92051333Y-73797390D01*
X92051333Y-73797390D02*
X92003714Y-73845009D01*
X92003714Y-73845009D02*
X91956095Y-73940247D01*
X91956095Y-73940247D02*
X91956095Y-74178342D01*
X91956095Y-74178342D02*
X92003714Y-74273580D01*
X92003714Y-74273580D02*
X92051333Y-74321200D01*
X92051333Y-74321200D02*
X92146571Y-74368819D01*
X92146571Y-74368819D02*
X92384666Y-74368819D01*
X92384666Y-74368819D02*
X92479904Y-74321200D01*
X92479904Y-74321200D02*
X92527523Y-74273580D01*
D11*
%TO.C,C6*%
X128262748Y-99595000D02*
X128785252Y-99595000D01*
X128262748Y-101065000D02*
X128785252Y-101065000D01*
%TO.C,C83*%
X140216748Y-71401000D02*
X140739252Y-71401000D01*
X140216748Y-72871000D02*
X140739252Y-72871000D01*
%TO.C,R105*%
X138710936Y-121439000D02*
X139165064Y-121439000D01*
X138710936Y-122909000D02*
X139165064Y-122909000D01*
%TO.C,C62*%
X106418748Y-86895000D02*
X106941252Y-86895000D01*
X106418748Y-88365000D02*
X106941252Y-88365000D01*
%TO.C,C1*%
X87510252Y-63273000D02*
X86987748Y-63273000D01*
X87510252Y-64743000D02*
X86987748Y-64743000D01*
%TO.C,R37*%
X114708000Y-61822064D02*
X114708000Y-61367936D01*
X116178000Y-61822064D02*
X116178000Y-61367936D01*
%TO.C,C67*%
X138183252Y-102389000D02*
X137660748Y-102389000D01*
X138183252Y-103859000D02*
X137660748Y-103859000D01*
%TO.C,C89*%
X180728252Y-63273000D02*
X180205748Y-63273000D01*
X180728252Y-64743000D02*
X180205748Y-64743000D01*
%TO.C,R94*%
X211355000Y-61695064D02*
X211355000Y-61240936D01*
X212825000Y-61695064D02*
X212825000Y-61240936D01*
%TO.C,C77*%
X109247000Y-129293252D02*
X109247000Y-128770748D01*
X110717000Y-129293252D02*
X110717000Y-128770748D01*
%TO.C,C76*%
X111787000Y-123451252D02*
X111787000Y-122928748D01*
X113257000Y-123451252D02*
X113257000Y-122928748D01*
%TO.C,C86*%
X186809748Y-69242000D02*
X187332252Y-69242000D01*
X186809748Y-70712000D02*
X187332252Y-70712000D01*
%TO.C,C5*%
X165107252Y-89943000D02*
X164584748Y-89943000D01*
X165107252Y-91413000D02*
X164584748Y-91413000D01*
%TO.C,C21*%
X109501000Y-140469252D02*
X109501000Y-139946748D01*
X110971000Y-140469252D02*
X110971000Y-139946748D01*
%TO.C,C46*%
X92956748Y-69242000D02*
X93479252Y-69242000D01*
X92956748Y-70712000D02*
X93479252Y-70712000D01*
%TO.C,C28*%
X194083000Y-126230748D02*
X194083000Y-126753252D01*
X195553000Y-126230748D02*
X195553000Y-126753252D01*
%TO.C,C73*%
X185046252Y-102389000D02*
X184523748Y-102389000D01*
X185046252Y-103859000D02*
X184523748Y-103859000D01*
%TO.C,D46*%
X198502000Y-84344000D02*
X202512000Y-84344000D01*
X198502000Y-86344000D02*
X202512000Y-86344000D01*
X202512000Y-86344000D02*
X202512000Y-84344000D01*
%TO.C,R96*%
X214149000Y-61695064D02*
X214149000Y-61240936D01*
X215619000Y-61695064D02*
X215619000Y-61240936D01*
%TO.C,C35*%
X117863252Y-89943000D02*
X117340748Y-89943000D01*
X117863252Y-91413000D02*
X117340748Y-91413000D01*
%TO.C,C40*%
X202719000Y-129293252D02*
X202719000Y-128770748D01*
X204189000Y-129293252D02*
X204189000Y-128770748D01*
%TO.C,R108*%
X200379064Y-68099000D02*
X199924936Y-68099000D01*
X200379064Y-69569000D02*
X199924936Y-69569000D01*
%TO.C,C78*%
X114327000Y-129293252D02*
X114327000Y-128770748D01*
X115797000Y-129293252D02*
X115797000Y-128770748D01*
%TO.C,R107*%
X185446936Y-121439000D02*
X185901064Y-121439000D01*
X185446936Y-122909000D02*
X185901064Y-122909000D01*
%TO.C,U7*%
X121798000Y-104540000D02*
X118038000Y-104540000D01*
X121798000Y-105800000D02*
X121798000Y-104540000D01*
X121798000Y-110100000D02*
X121798000Y-111360000D01*
X121798000Y-111360000D02*
X118038000Y-111360000D01*
X116998000Y-111590000D02*
X116518000Y-111590000D01*
X116758000Y-111260000D01*
X116998000Y-111590000D01*
G36*
X116998000Y-111590000D02*
G01*
X116518000Y-111590000D01*
X116758000Y-111260000D01*
X116998000Y-111590000D01*
G37*
%TO.C,C55*%
X164853252Y-102389000D02*
X164330748Y-102389000D01*
X164853252Y-103859000D02*
X164330748Y-103859000D01*
%TO.C,C42*%
X205259000Y-123705252D02*
X205259000Y-123182748D01*
X206729000Y-123705252D02*
X206729000Y-123182748D01*
%TO.C,D40*%
X151766000Y-84344000D02*
X155776000Y-84344000D01*
X151766000Y-86344000D02*
X155776000Y-86344000D01*
X155776000Y-86344000D02*
X155776000Y-84344000D01*
%TO.C,D45*%
X182911500Y-104410000D02*
X182911500Y-106410000D01*
X186921500Y-104410000D02*
X182911500Y-104410000D01*
X186921500Y-106410000D02*
X182911500Y-106410000D01*
%TO.C,U2*%
X215778000Y-104540000D02*
X212018000Y-104540000D01*
X215778000Y-105800000D02*
X215778000Y-104540000D01*
X215778000Y-110100000D02*
X215778000Y-111360000D01*
X215778000Y-111360000D02*
X212018000Y-111360000D01*
X210978000Y-111590000D02*
X210498000Y-111590000D01*
X210738000Y-111260000D01*
X210978000Y-111590000D01*
G36*
X210978000Y-111590000D02*
G01*
X210498000Y-111590000D01*
X210738000Y-111260000D01*
X210978000Y-111590000D01*
G37*
%TO.C,C8*%
X174998748Y-99595000D02*
X175521252Y-99595000D01*
X174998748Y-101065000D02*
X175521252Y-101065000D01*
%TO.C,R90*%
X208561000Y-61695064D02*
X208561000Y-61240936D01*
X210031000Y-61695064D02*
X210031000Y-61240936D01*
%TO.C,R104*%
X91720936Y-121439000D02*
X92175064Y-121439000D01*
X91720936Y-122909000D02*
X92175064Y-122909000D01*
%TO.C,C52*%
X155983000Y-129293252D02*
X155983000Y-128770748D01*
X157453000Y-129293252D02*
X157453000Y-128770748D01*
%TO.C,D34*%
X104522000Y-84344000D02*
X108532000Y-84344000D01*
X104522000Y-86344000D02*
X108532000Y-86344000D01*
X108532000Y-86344000D02*
X108532000Y-84344000D01*
%TO.C,R88*%
X165889000Y-61695064D02*
X165889000Y-61240936D01*
X167359000Y-61695064D02*
X167359000Y-61240936D01*
%TO.C,C25*%
X203481000Y-140469252D02*
X203481000Y-139946748D01*
X204951000Y-140469252D02*
X204951000Y-139946748D01*
%TO.C,D39*%
X136070000Y-104410000D02*
X136070000Y-106410000D01*
X140080000Y-104410000D02*
X136070000Y-104410000D01*
X140080000Y-106410000D02*
X136070000Y-106410000D01*
%TO.C,C84*%
X146438252Y-69877000D02*
X145915748Y-69877000D01*
X146438252Y-71347000D02*
X145915748Y-71347000D01*
%TO.C,C75*%
X100357000Y-125976748D02*
X100357000Y-126499252D01*
X101827000Y-125976748D02*
X101827000Y-126499252D01*
%TO.C,R87*%
X163095000Y-61695064D02*
X163095000Y-61240936D01*
X164565000Y-61695064D02*
X164565000Y-61240936D01*
%TO.C,C34*%
X81526748Y-99595000D02*
X82049252Y-99595000D01*
X81526748Y-101065000D02*
X82049252Y-101065000D01*
%TO.C,U3*%
X169042000Y-104540000D02*
X165282000Y-104540000D01*
X169042000Y-105800000D02*
X169042000Y-104540000D01*
X169042000Y-110100000D02*
X169042000Y-111360000D01*
X169042000Y-111360000D02*
X165282000Y-111360000D01*
X164242000Y-111590000D02*
X163762000Y-111590000D01*
X164002000Y-111260000D01*
X164242000Y-111590000D01*
G36*
X164242000Y-111590000D02*
G01*
X163762000Y-111590000D01*
X164002000Y-111260000D01*
X164242000Y-111590000D01*
G37*
%TO.C,C61*%
X91193252Y-102389000D02*
X90670748Y-102389000D01*
X91193252Y-103859000D02*
X90670748Y-103859000D01*
%TO.C,C7*%
X211843252Y-89943000D02*
X211320748Y-89943000D01*
X211843252Y-91413000D02*
X211320748Y-91413000D01*
%TO.C,C2*%
X99448252Y-70004000D02*
X98925748Y-70004000D01*
X99448252Y-71474000D02*
X98925748Y-71474000D01*
%TO.C,R89*%
X168683000Y-61695064D02*
X168683000Y-61240936D01*
X170153000Y-61695064D02*
X170153000Y-61240936D01*
%TO.C,R38*%
X117502000Y-61806064D02*
X117502000Y-61351936D01*
X118972000Y-61806064D02*
X118972000Y-61351936D01*
%TO.C,C88*%
X193428252Y-69877000D02*
X192905748Y-69877000D01*
X193428252Y-71347000D02*
X192905748Y-71347000D01*
%TO.C,C51*%
X158523000Y-123451252D02*
X158523000Y-122928748D01*
X159993000Y-123451252D02*
X159993000Y-122928748D01*
%TO.C,C74*%
X200398748Y-86895000D02*
X200921252Y-86895000D01*
X200398748Y-88365000D02*
X200921252Y-88365000D01*
%TO.C,C68*%
X153662748Y-86895000D02*
X154185252Y-86895000D01*
X153662748Y-88365000D02*
X154185252Y-88365000D01*
%TO.C,C23*%
X156491000Y-140469252D02*
X156491000Y-139946748D01*
X157961000Y-140469252D02*
X157961000Y-139946748D01*
%TO.C,D33*%
X89080000Y-104410000D02*
X89080000Y-106410000D01*
X93090000Y-104410000D02*
X89080000Y-104410000D01*
X93090000Y-106410000D02*
X89080000Y-106410000D01*
%TO.C,R103*%
X106399064Y-68099000D02*
X105944936Y-68099000D01*
X106399064Y-69569000D02*
X105944936Y-69569000D01*
%TO.C,R55*%
X120296000Y-61806064D02*
X120296000Y-61351936D01*
X121766000Y-61806064D02*
X121766000Y-61351936D01*
%TO.C,C87*%
X186809748Y-71401000D02*
X187332252Y-71401000D01*
X186809748Y-72871000D02*
X187332252Y-72871000D01*
%TO.C,C80*%
X117609252Y-102389000D02*
X117086748Y-102389000D01*
X117609252Y-103859000D02*
X117086748Y-103859000D01*
%TO.C,C85*%
X135262252Y-63273000D02*
X134739748Y-63273000D01*
X135262252Y-64743000D02*
X134739748Y-64743000D01*
%TO.C,R106*%
X153643064Y-68099000D02*
X153188936Y-68099000D01*
X153643064Y-69569000D02*
X153188936Y-69569000D01*
%TO.C,C41*%
X207799000Y-129293252D02*
X207799000Y-128770748D01*
X209269000Y-129293252D02*
X209269000Y-128770748D01*
%TO.C,C53*%
X161063000Y-129293252D02*
X161063000Y-128770748D01*
X162533000Y-129293252D02*
X162533000Y-128770748D01*
%TO.C,C27*%
X211589252Y-102389000D02*
X211066748Y-102389000D01*
X211589252Y-103859000D02*
X211066748Y-103859000D01*
%TO.C,C50*%
X147093000Y-125976748D02*
X147093000Y-126499252D01*
X148563000Y-125976748D02*
X148563000Y-126499252D01*
%TO.C,C82*%
X140200748Y-69242000D02*
X140723252Y-69242000D01*
X140200748Y-70712000D02*
X140723252Y-70712000D01*
%TO.C,C45*%
X92956748Y-71401000D02*
X93479252Y-71401000D01*
X92956748Y-72871000D02*
X93479252Y-72871000D01*
%TD*%
M02*
