%TF.GenerationSoftware,KiCad,Pcbnew,(6.0.1)*%
%TF.CreationDate,2023-04-20T11:25:51+03:00*%
%TF.ProjectId,Adapter,41646170-7465-4722-9e6b-696361645f70,rev?*%
%TF.SameCoordinates,Original*%
%TF.FileFunction,Paste,Bot*%
%TF.FilePolarity,Positive*%
%FSLAX46Y46*%
G04 Gerber Fmt 4.6, Leading zero omitted, Abs format (unit mm)*
G04 Created by KiCad (PCBNEW (6.0.1)) date 2023-04-20 11:25:51*
%MOMM*%
%LPD*%
G01*
G04 APERTURE LIST*
G04 Aperture macros list*
%AMRoundRect*
0 Rectangle with rounded corners*
0 $1 Rounding radius*
0 $2 $3 $4 $5 $6 $7 $8 $9 X,Y pos of 4 corners*
0 Add a 4 corners polygon primitive as box body*
4,1,4,$2,$3,$4,$5,$6,$7,$8,$9,$2,$3,0*
0 Add four circle primitives for the rounded corners*
1,1,$1+$1,$2,$3*
1,1,$1+$1,$4,$5*
1,1,$1+$1,$6,$7*
1,1,$1+$1,$8,$9*
0 Add four rect primitives between the rounded corners*
20,1,$1+$1,$2,$3,$4,$5,0*
20,1,$1+$1,$4,$5,$6,$7,0*
20,1,$1+$1,$6,$7,$8,$9,0*
20,1,$1+$1,$8,$9,$2,$3,0*%
G04 Aperture macros list end*
%ADD10RoundRect,0.250000X-0.475000X0.337500X-0.475000X-0.337500X0.475000X-0.337500X0.475000X0.337500X0*%
%ADD11RoundRect,0.250000X0.350000X0.450000X-0.350000X0.450000X-0.350000X-0.450000X0.350000X-0.450000X0*%
%ADD12RoundRect,0.250000X0.337500X0.475000X-0.337500X0.475000X-0.337500X-0.475000X0.337500X-0.475000X0*%
%ADD13RoundRect,0.250000X0.475000X-0.337500X0.475000X0.337500X-0.475000X0.337500X-0.475000X-0.337500X0*%
%ADD14RoundRect,0.250000X-0.350000X-0.450000X0.350000X-0.450000X0.350000X0.450000X-0.350000X0.450000X0*%
%ADD15RoundRect,0.250000X-0.337500X-0.475000X0.337500X-0.475000X0.337500X0.475000X-0.337500X0.475000X0*%
%ADD16RoundRect,0.150000X0.825000X0.150000X-0.825000X0.150000X-0.825000X-0.150000X0.825000X-0.150000X0*%
G04 APERTURE END LIST*
D10*
%TO.C,C6*%
X100330000Y-108182500D03*
X100330000Y-110257500D03*
%TD*%
D11*
%TO.C,R58*%
X171180000Y-74930000D03*
X169180000Y-74930000D03*
%TD*%
D10*
%TO.C,C94*%
X147320000Y-101832500D03*
X147320000Y-103907500D03*
%TD*%
D11*
%TO.C,R105*%
X139684000Y-116713000D03*
X137684000Y-116713000D03*
%TD*%
D12*
%TO.C,C107*%
X195093500Y-54610000D03*
X193018500Y-54610000D03*
%TD*%
%TO.C,C62*%
X107717500Y-82550000D03*
X105642500Y-82550000D03*
%TD*%
D13*
%TO.C,C23*%
X190500000Y-81047500D03*
X190500000Y-78972500D03*
%TD*%
D14*
%TO.C,R13*%
X59198000Y-83439000D03*
X61198000Y-83439000D03*
%TD*%
%TO.C,R37*%
X113300000Y-106680000D03*
X115300000Y-106680000D03*
%TD*%
D15*
%TO.C,C49*%
X155807500Y-111760000D03*
X157882500Y-111760000D03*
%TD*%
%TO.C,C67*%
X134852500Y-100330000D03*
X136927500Y-100330000D03*
%TD*%
D14*
%TO.C,R45*%
X160925000Y-106680000D03*
X162925000Y-106680000D03*
%TD*%
D10*
%TO.C,C93*%
X100330000Y-101832500D03*
X100330000Y-103907500D03*
%TD*%
D14*
%TO.C,R15*%
X59182000Y-88011000D03*
X61182000Y-88011000D03*
%TD*%
D12*
%TO.C,C24*%
X68982500Y-97790000D03*
X66907500Y-97790000D03*
%TD*%
%TO.C,C56*%
X176043500Y-67310000D03*
X173968500Y-67310000D03*
%TD*%
%TO.C,C20*%
X68982500Y-91440000D03*
X66907500Y-91440000D03*
%TD*%
D16*
%TO.C,D4*%
X55815000Y-94107000D03*
X55815000Y-95377000D03*
X55815000Y-96647000D03*
X55815000Y-97917000D03*
X55815000Y-99187000D03*
X55815000Y-100457000D03*
X55815000Y-101727000D03*
X50865000Y-101727000D03*
X50865000Y-100457000D03*
X50865000Y-99187000D03*
X50865000Y-97917000D03*
X50865000Y-96647000D03*
X50865000Y-95377000D03*
X50865000Y-94107000D03*
%TD*%
D15*
%TO.C,C46*%
X108182500Y-114300000D03*
X110257500Y-114300000D03*
%TD*%
D13*
%TO.C,C28*%
X222428500Y-97537500D03*
X222428500Y-95462500D03*
%TD*%
D15*
%TO.C,C73*%
X182477500Y-100330000D03*
X184552500Y-100330000D03*
%TD*%
D14*
%TO.C,R44*%
X80915000Y-72390000D03*
X82915000Y-72390000D03*
%TD*%
D12*
%TO.C,C57*%
X108987500Y-100330000D03*
X106912500Y-100330000D03*
%TD*%
D14*
%TO.C,R4*%
X59198000Y-112522000D03*
X61198000Y-112522000D03*
%TD*%
D11*
%TO.C,R46*%
X157845000Y-109220000D03*
X155845000Y-109220000D03*
%TD*%
D13*
%TO.C,C35*%
X66217800Y-69744500D03*
X66217800Y-67669500D03*
%TD*%
D12*
%TO.C,C40*%
X223795500Y-106934000D03*
X221720500Y-106934000D03*
%TD*%
D14*
%TO.C,R108*%
X199025000Y-74295000D03*
X201025000Y-74295000D03*
%TD*%
D15*
%TO.C,C54*%
X203432500Y-114300000D03*
X205507500Y-114300000D03*
%TD*%
%TO.C,C53*%
X203432500Y-111760000D03*
X205507500Y-111760000D03*
%TD*%
D12*
%TO.C,C52*%
X129307500Y-67310000D03*
X127232500Y-67310000D03*
%TD*%
D11*
%TO.C,R107*%
X186928000Y-116840000D03*
X184928000Y-116840000D03*
%TD*%
%TO.C,R42*%
X77835000Y-74930000D03*
X75835000Y-74930000D03*
%TD*%
D12*
%TO.C,C55*%
X176043500Y-69850000D03*
X173968500Y-69850000D03*
%TD*%
D10*
%TO.C,C22*%
X195580000Y-108182500D03*
X195580000Y-110257500D03*
%TD*%
D15*
%TO.C,C104*%
X102340500Y-116840000D03*
X104415500Y-116840000D03*
%TD*%
D10*
%TO.C,C42*%
X222758000Y-117072500D03*
X222758000Y-119147500D03*
%TD*%
D11*
%TO.C,R50*%
X124825000Y-74930000D03*
X122825000Y-74930000D03*
%TD*%
D14*
%TO.C,R1*%
X59198000Y-105664000D03*
X61198000Y-105664000D03*
%TD*%
D10*
%TO.C,C95*%
X195580000Y-101832500D03*
X195580000Y-103907500D03*
%TD*%
D14*
%TO.C,R7*%
X59214000Y-99060000D03*
X61214000Y-99060000D03*
%TD*%
D12*
%TO.C,C8*%
X68982500Y-84455000D03*
X66907500Y-84455000D03*
%TD*%
%TO.C,C103*%
X117369500Y-54610000D03*
X115294500Y-54610000D03*
%TD*%
D15*
%TO.C,C106*%
X197844500Y-116840000D03*
X199919500Y-116840000D03*
%TD*%
%TO.C,C58*%
X86592500Y-82550000D03*
X88667500Y-82550000D03*
%TD*%
D11*
%TO.C,R104*%
X92694000Y-116586000D03*
X90694000Y-116586000D03*
%TD*%
D12*
%TO.C,C51*%
X129307500Y-69850000D03*
X127232500Y-69850000D03*
%TD*%
D14*
%TO.C,R53*%
X208550000Y-106680000D03*
X210550000Y-106680000D03*
%TD*%
D13*
%TO.C,C25*%
X53340000Y-77745500D03*
X53340000Y-75670500D03*
%TD*%
D12*
%TO.C,C43*%
X66442500Y-121920000D03*
X64367500Y-121920000D03*
%TD*%
D14*
%TO.C,R2*%
X59198000Y-107950000D03*
X61198000Y-107950000D03*
%TD*%
D13*
%TO.C,C19*%
X142240000Y-81047500D03*
X142240000Y-78972500D03*
%TD*%
D14*
%TO.C,R8*%
X59198000Y-101346000D03*
X61198000Y-101346000D03*
%TD*%
D16*
%TO.C,D5*%
X55815000Y-83058000D03*
X55815000Y-84328000D03*
X55815000Y-85598000D03*
X55815000Y-86868000D03*
X55815000Y-88138000D03*
X55815000Y-89408000D03*
X55815000Y-90678000D03*
X50865000Y-90678000D03*
X50865000Y-89408000D03*
X50865000Y-88138000D03*
X50865000Y-86868000D03*
X50865000Y-85598000D03*
X50865000Y-84328000D03*
X50865000Y-83058000D03*
%TD*%
D11*
%TO.C,R54*%
X205470000Y-109220000D03*
X203470000Y-109220000D03*
%TD*%
D14*
%TO.C,R5*%
X59214000Y-94488000D03*
X61214000Y-94488000D03*
%TD*%
D15*
%TO.C,C64*%
X133582500Y-82550000D03*
X135657500Y-82550000D03*
%TD*%
D12*
%TO.C,C34*%
X49297500Y-121920000D03*
X47222500Y-121920000D03*
%TD*%
D14*
%TO.C,R14*%
X59198000Y-85725000D03*
X61198000Y-85725000D03*
%TD*%
D13*
%TO.C,C26*%
X53340000Y-70252500D03*
X53340000Y-68177500D03*
%TD*%
D15*
%TO.C,C61*%
X87227500Y-100330000D03*
X89302500Y-100330000D03*
%TD*%
D13*
%TO.C,C7*%
X95250000Y-81047500D03*
X95250000Y-78972500D03*
%TD*%
D12*
%TO.C,C31*%
X57933500Y-121920000D03*
X55858500Y-121920000D03*
%TD*%
D14*
%TO.C,R16*%
X59198000Y-90297000D03*
X61198000Y-90297000D03*
%TD*%
D12*
%TO.C,C102*%
X156739500Y-54610000D03*
X154664500Y-54610000D03*
%TD*%
D11*
%TO.C,R38*%
X110220000Y-109220000D03*
X108220000Y-109220000D03*
%TD*%
D15*
%TO.C,C105*%
X149584500Y-116840000D03*
X151659500Y-116840000D03*
%TD*%
D14*
%TO.C,R52*%
X127270000Y-72390000D03*
X129270000Y-72390000D03*
%TD*%
%TO.C,R60*%
X174006000Y-72390000D03*
X176006000Y-72390000D03*
%TD*%
D13*
%TO.C,C39*%
X66294000Y-62124500D03*
X66294000Y-60049500D03*
%TD*%
D12*
%TO.C,C74*%
X203475500Y-82550000D03*
X201400500Y-82550000D03*
%TD*%
D16*
%TO.C,D1*%
X55815000Y-105283000D03*
X55815000Y-106553000D03*
X55815000Y-107823000D03*
X55815000Y-109093000D03*
X55815000Y-110363000D03*
X55815000Y-111633000D03*
X55815000Y-112903000D03*
X50865000Y-112903000D03*
X50865000Y-111633000D03*
X50865000Y-110363000D03*
X50865000Y-109093000D03*
X50865000Y-107823000D03*
X50865000Y-106553000D03*
X50865000Y-105283000D03*
%TD*%
D12*
%TO.C,C68*%
X155342500Y-82550000D03*
X153267500Y-82550000D03*
%TD*%
D14*
%TO.C,R6*%
X59214000Y-96773000D03*
X61214000Y-96773000D03*
%TD*%
%TO.C,R103*%
X105045000Y-74295000D03*
X107045000Y-74295000D03*
%TD*%
%TO.C,R3*%
X59198000Y-110236000D03*
X61198000Y-110236000D03*
%TD*%
D12*
%TO.C,C69*%
X204872500Y-100330000D03*
X202797500Y-100330000D03*
%TD*%
%TO.C,C47*%
X82952500Y-69850000D03*
X80877500Y-69850000D03*
%TD*%
D10*
%TO.C,C18*%
X147320000Y-108182500D03*
X147320000Y-110257500D03*
%TD*%
D13*
%TO.C,C44*%
X66294000Y-54520500D03*
X66294000Y-52445500D03*
%TD*%
D15*
%TO.C,C70*%
X181715500Y-82550000D03*
X183790500Y-82550000D03*
%TD*%
D14*
%TO.C,R106*%
X152035000Y-74295000D03*
X154035000Y-74295000D03*
%TD*%
D12*
%TO.C,C48*%
X82952500Y-67310000D03*
X80877500Y-67310000D03*
%TD*%
%TO.C,C63*%
X156612500Y-100330000D03*
X154537500Y-100330000D03*
%TD*%
%TO.C,C41*%
X223795500Y-112268000D03*
X221720500Y-112268000D03*
%TD*%
%TO.C,C27*%
X223033500Y-83566000D03*
X220958500Y-83566000D03*
%TD*%
D15*
%TO.C,C50*%
X155807500Y-114300000D03*
X157882500Y-114300000D03*
%TD*%
%TO.C,C45*%
X108182500Y-111760000D03*
X110257500Y-111760000D03*
%TD*%
M02*
