%TF.GenerationSoftware,KiCad,Pcbnew,8.0.8*%
%TF.CreationDate,2025-03-11T11:39:27+03:00*%
%TF.ProjectId,Adapter,41646170-7465-4722-9e6b-696361645f70,rev?*%
%TF.SameCoordinates,Original*%
%TF.FileFunction,Copper,L6,Bot*%
%TF.FilePolarity,Positive*%
%FSLAX46Y46*%
G04 Gerber Fmt 4.6, Leading zero omitted, Abs format (unit mm)*
G04 Created by KiCad (PCBNEW 8.0.8) date 2025-03-11 11:39:27*
%MOMM*%
%LPD*%
G01*
G04 APERTURE LIST*
G04 Aperture macros list*
%AMRoundRect*
0 Rectangle with rounded corners*
0 $1 Rounding radius*
0 $2 $3 $4 $5 $6 $7 $8 $9 X,Y pos of 4 corners*
0 Add a 4 corners polygon primitive as box body*
4,1,4,$2,$3,$4,$5,$6,$7,$8,$9,$2,$3,0*
0 Add four circle primitives for the rounded corners*
1,1,$1+$1,$2,$3*
1,1,$1+$1,$4,$5*
1,1,$1+$1,$6,$7*
1,1,$1+$1,$8,$9*
0 Add four rect primitives between the rounded corners*
20,1,$1+$1,$2,$3,$4,$5,0*
20,1,$1+$1,$4,$5,$6,$7,0*
20,1,$1+$1,$6,$7,$8,$9,0*
20,1,$1+$1,$8,$9,$2,$3,0*%
G04 Aperture macros list end*
%TA.AperFunction,ComponentPad*%
%ADD10C,1.000000*%
%TD*%
%TA.AperFunction,ComponentPad*%
%ADD11RoundRect,0.250001X0.499999X0.499999X-0.499999X0.499999X-0.499999X-0.499999X0.499999X-0.499999X0*%
%TD*%
%TA.AperFunction,ComponentPad*%
%ADD12C,1.500000*%
%TD*%
%TA.AperFunction,ComponentPad*%
%ADD13O,2.300000X1.600000*%
%TD*%
%TA.AperFunction,WasherPad*%
%ADD14C,5.500000*%
%TD*%
%TA.AperFunction,ComponentPad*%
%ADD15C,2.500000*%
%TD*%
%TA.AperFunction,ComponentPad*%
%ADD16O,2.500000X1.800000*%
%TD*%
%TA.AperFunction,SMDPad,CuDef*%
%ADD17RoundRect,0.250000X0.337500X0.475000X-0.337500X0.475000X-0.337500X-0.475000X0.337500X-0.475000X0*%
%TD*%
%TA.AperFunction,SMDPad,CuDef*%
%ADD18RoundRect,0.250000X-0.412500X-1.100000X0.412500X-1.100000X0.412500X1.100000X-0.412500X1.100000X0*%
%TD*%
%TA.AperFunction,SMDPad,CuDef*%
%ADD19RoundRect,0.250000X0.450000X-0.350000X0.450000X0.350000X-0.450000X0.350000X-0.450000X-0.350000X0*%
%TD*%
%TA.AperFunction,SMDPad,CuDef*%
%ADD20RoundRect,0.250000X0.412500X1.100000X-0.412500X1.100000X-0.412500X-1.100000X0.412500X-1.100000X0*%
%TD*%
%TA.AperFunction,SMDPad,CuDef*%
%ADD21RoundRect,0.250000X-0.337500X-0.475000X0.337500X-0.475000X0.337500X0.475000X-0.337500X0.475000X0*%
%TD*%
%TA.AperFunction,SMDPad,CuDef*%
%ADD22RoundRect,0.250000X-0.450000X0.350000X-0.450000X-0.350000X0.450000X-0.350000X0.450000X0.350000X0*%
%TD*%
%TA.AperFunction,SMDPad,CuDef*%
%ADD23RoundRect,0.250000X-0.475000X0.337500X-0.475000X-0.337500X0.475000X-0.337500X0.475000X0.337500X0*%
%TD*%
%TA.AperFunction,SMDPad,CuDef*%
%ADD24RoundRect,0.250000X0.475000X-0.337500X0.475000X0.337500X-0.475000X0.337500X-0.475000X-0.337500X0*%
%TD*%
%TA.AperFunction,SMDPad,CuDef*%
%ADD25RoundRect,0.375000X-0.625000X-0.375000X0.625000X-0.375000X0.625000X0.375000X-0.625000X0.375000X0*%
%TD*%
%TA.AperFunction,SMDPad,CuDef*%
%ADD26RoundRect,0.500000X-0.500000X-1.400000X0.500000X-1.400000X0.500000X1.400000X-0.500000X1.400000X0*%
%TD*%
%TA.AperFunction,ViaPad*%
%ADD27C,0.800000*%
%TD*%
%TA.AperFunction,Conductor*%
%ADD28C,0.500000*%
%TD*%
%TA.AperFunction,Conductor*%
%ADD29C,1.000000*%
%TD*%
%TA.AperFunction,Conductor*%
%ADD30C,0.300000*%
%TD*%
G04 APERTURE END LIST*
D10*
%TO.P,D15,1,+Vcc*%
%TO.N,+5V*%
X202330785Y-138980000D03*
%TO.P,D15,2,0V*%
%TO.N,GND*%
X202330785Y-140250000D03*
%TO.P,D15,3,Output*%
%TO.N,Net-(D15-Output)*%
X202330785Y-141520000D03*
%TD*%
D11*
%TO.P,J4,1,Pin_1*%
%TO.N,+15V*%
X202692000Y-63134000D03*
D12*
%TO.P,J4,2,Pin_2*%
%TO.N,PWM3_L_N*%
X199692000Y-63134000D03*
%TO.P,J4,3,Pin_3*%
%TO.N,Temp_C_P*%
X196692000Y-63134000D03*
%TO.P,J4,4,Pin_4*%
%TO.N,~{RST}*%
X193692000Y-63134000D03*
%TO.P,J4,5,Pin_5*%
%TO.N,PWM3_H_N*%
X190692000Y-63134000D03*
%TO.P,J4,6,Pin_6*%
%TO.N,ERR_C_P*%
X187692000Y-63134000D03*
%TO.P,J4,7,Pin_7*%
%TO.N,GND*%
X202692000Y-60134000D03*
%TO.P,J4,8,Pin_8*%
%TO.N,PWM3_L_P*%
X199692000Y-60134000D03*
%TO.P,J4,9,Pin_9*%
%TO.N,Temp_C_N*%
X196692000Y-60134000D03*
%TO.P,J4,10,Pin_10*%
%TO.N,Current_C_out*%
X193692000Y-60134000D03*
%TO.P,J4,11,Pin_11*%
%TO.N,PWM3_H_P*%
X190692000Y-60134000D03*
%TO.P,J4,12,Pin_12*%
%TO.N,ERR_C_N*%
X187692000Y-60134000D03*
%TD*%
D13*
%TO.P,D4,1,GND*%
%TO.N,GND*%
X131028005Y-74929995D03*
%TO.P,D4,2,Vin*%
%TO.N,Net-(D4-Vin)*%
X131028005Y-77469995D03*
%TO.P,D4,3,Ctrl*%
%TO.N,unconnected-(D4-Ctrl-Pad3)*%
X131028005Y-80009995D03*
%TO.P,D4,5*%
%TO.N,N/C*%
X131028005Y-85089995D03*
%TO.P,D4,6,+Vo*%
%TO.N,+15V_H2*%
X131028005Y-87629995D03*
%TO.P,D4,7,0V*%
%TO.N,E3*%
X131028005Y-90169995D03*
%TO.P,D4,8,-Vo*%
%TO.N,-15V_H2*%
X131028005Y-92709995D03*
%TD*%
%TO.P,D17,1,GND*%
%TO.N,GND*%
X160528000Y-116332000D03*
%TO.P,D17,2,Vin*%
%TO.N,Net-(D17-Vin)*%
X160528000Y-113792000D03*
%TO.P,D17,3,Ctrl*%
%TO.N,unconnected-(D17-Ctrl-Pad3)*%
X160528000Y-111252000D03*
%TO.P,D17,5*%
%TO.N,N/C*%
X160528000Y-106172000D03*
%TO.P,D17,6,+Vo*%
%TO.N,+15V_L2*%
X160528000Y-103632000D03*
%TO.P,D17,7,0V*%
%TO.N,E4*%
X160528000Y-101092000D03*
%TO.P,D17,8,-Vo*%
%TO.N,-15V_L2*%
X160528000Y-98552000D03*
%TD*%
%TO.P,D16,1,GND*%
%TO.N,GND*%
X113538000Y-116332000D03*
%TO.P,D16,2,Vin*%
%TO.N,Net-(D16-Vin)*%
X113538000Y-113792000D03*
%TO.P,D16,3,Ctrl*%
%TO.N,unconnected-(D16-Ctrl-Pad3)*%
X113538000Y-111252000D03*
%TO.P,D16,5*%
%TO.N,N/C*%
X113538000Y-106172000D03*
%TO.P,D16,6,+Vo*%
%TO.N,+15V_L1*%
X113538000Y-103632000D03*
%TO.P,D16,7,0V*%
%TO.N,E2*%
X113538000Y-101092000D03*
%TO.P,D16,8,-Vo*%
%TO.N,-15V_L1*%
X113538000Y-98552000D03*
%TD*%
%TO.P,D18,1,GND*%
%TO.N,GND*%
X207553995Y-116332005D03*
%TO.P,D18,2,Vin*%
%TO.N,Net-(D18-Vin)*%
X207553995Y-113792005D03*
%TO.P,D18,3,Ctrl*%
%TO.N,unconnected-(D18-Ctrl-Pad3)*%
X207553995Y-111252005D03*
%TO.P,D18,5*%
%TO.N,N/C*%
X207553995Y-106172005D03*
%TO.P,D18,6,+Vo*%
%TO.N,+15V_L3*%
X207553995Y-103632005D03*
%TO.P,D18,7,0V*%
%TO.N,E6*%
X207553995Y-101092005D03*
%TO.P,D18,8,-Vo*%
%TO.N,-15V_L3*%
X207553995Y-98552005D03*
%TD*%
D10*
%TO.P,D11,1,+Vcc*%
%TO.N,+5V*%
X108300000Y-138980000D03*
%TO.P,D11,2,0V*%
%TO.N,GND*%
X108300000Y-140250000D03*
%TO.P,D11,3,Output*%
%TO.N,Net-(D11-Output)*%
X108300000Y-141520000D03*
%TD*%
D13*
%TO.P,D43,1,GND*%
%TO.N,GND*%
X84038005Y-74929995D03*
%TO.P,D43,2,Vin*%
%TO.N,Net-(D43-Vin)*%
X84038005Y-77469995D03*
%TO.P,D43,3,Ctrl*%
%TO.N,unconnected-(D43-Ctrl-Pad3)*%
X84038005Y-80009995D03*
%TO.P,D43,5*%
%TO.N,N/C*%
X84038005Y-85089995D03*
%TO.P,D43,6,+Vo*%
%TO.N,+15V_H1*%
X84038005Y-87629995D03*
%TO.P,D43,7,0V*%
%TO.N,E1*%
X84038005Y-90169995D03*
%TO.P,D43,8,-Vo*%
%TO.N,-15V_H1*%
X84038005Y-92709995D03*
%TD*%
D11*
%TO.P,J3,1,Pin_1*%
%TO.N,+15V*%
X109862000Y-63134000D03*
D12*
%TO.P,J3,2,Pin_2*%
%TO.N,PWM1_L_N*%
X106862000Y-63134000D03*
%TO.P,J3,3,Pin_3*%
%TO.N,Temp_A_P*%
X103862000Y-63134000D03*
%TO.P,J3,4,Pin_4*%
%TO.N,~{RST}*%
X100862000Y-63134000D03*
%TO.P,J3,5,Pin_5*%
%TO.N,PWM1_H_N*%
X97862000Y-63134000D03*
%TO.P,J3,6,Pin_6*%
%TO.N,ERR_A_P*%
X94862000Y-63134000D03*
%TO.P,J3,7,Pin_7*%
%TO.N,GND*%
X109862000Y-60134000D03*
%TO.P,J3,8,Pin_8*%
%TO.N,PWM1_L_P*%
X106862000Y-60134000D03*
%TO.P,J3,9,Pin_9*%
%TO.N,Temp_A_N*%
X103862000Y-60134000D03*
%TO.P,J3,10,Pin_10*%
%TO.N,Current_A_out*%
X100862000Y-60134000D03*
%TO.P,J3,11,Pin_11*%
%TO.N,PWM1_H_P*%
X97862000Y-60134000D03*
%TO.P,J3,12,Pin_12*%
%TO.N,ERR_A_N*%
X94862000Y-60134000D03*
%TD*%
D11*
%TO.P,J5,1,Pin_1*%
%TO.N,+15V*%
X157782000Y-63134000D03*
D12*
%TO.P,J5,2,Pin_2*%
%TO.N,PWM2_L_N*%
X154782000Y-63134000D03*
%TO.P,J5,3,Pin_3*%
%TO.N,Temp_B_P*%
X151782000Y-63134000D03*
%TO.P,J5,4,Pin_4*%
%TO.N,~{RST}*%
X148782000Y-63134000D03*
%TO.P,J5,5,Pin_5*%
%TO.N,PWM2_H_N*%
X145782000Y-63134000D03*
%TO.P,J5,6,Pin_6*%
%TO.N,ERR_B_P*%
X142782000Y-63134000D03*
%TO.P,J5,7,Pin_7*%
%TO.N,GND*%
X157782000Y-60134000D03*
%TO.P,J5,8,Pin_8*%
%TO.N,PWM2_L_P*%
X154782000Y-60134000D03*
%TO.P,J5,9,Pin_9*%
%TO.N,Temp_B_N*%
X151782000Y-60134000D03*
%TO.P,J5,10,Pin_10*%
%TO.N,Current_B_out*%
X148782000Y-60134000D03*
%TO.P,J5,11,Pin_11*%
%TO.N,PWM2_H_P*%
X145782000Y-60134000D03*
%TO.P,J5,12,Pin_12*%
%TO.N,ERR_B_N*%
X142782000Y-60134000D03*
%TD*%
D13*
%TO.P,D10,1,GND*%
%TO.N,GND*%
X178054000Y-74930000D03*
%TO.P,D10,2,Vin*%
%TO.N,Net-(D10-Vin)*%
X178054000Y-77470000D03*
%TO.P,D10,3,Ctrl*%
%TO.N,unconnected-(D10-Ctrl-Pad3)*%
X178054000Y-80010000D03*
%TO.P,D10,5*%
%TO.N,N/C*%
X178054000Y-85090000D03*
%TO.P,D10,6,+Vo*%
%TO.N,+15V_H3*%
X178054000Y-87630000D03*
%TO.P,D10,7,0V*%
%TO.N,E5*%
X178054000Y-90170000D03*
%TO.P,D10,8,-Vo*%
%TO.N,-15V_H3*%
X178054000Y-92710000D03*
%TD*%
D14*
%TO.P,J1,*%
%TO.N,*%
X76750000Y-60500000D03*
X76750000Y-126600000D03*
X127350000Y-60500000D03*
X127350000Y-126600000D03*
X174650000Y-60500000D03*
X174650000Y-126600000D03*
X225250000Y-60500000D03*
X225250000Y-126600000D03*
D15*
%TO.P,J1,1,Pin_1*%
%TO.N,C1*%
X121950000Y-122350000D03*
%TO.P,J1,2,Pin_2*%
%TO.N,C2*%
X87800000Y-71350000D03*
%TO.P,J1,3,Pin_3*%
%TO.N,E1*%
X93800000Y-119650000D03*
%TO.P,J1,4,Pin_4*%
%TO.N,E2*%
X104000000Y-71350000D03*
%TO.P,J1,5,Pin_5*%
%TO.N,G1*%
X89750000Y-119650000D03*
%TO.P,J1,6,Pin_6*%
%TO.N,G2*%
X108050000Y-71350000D03*
%TO.P,J1,7,Pin_7*%
%TO.N,T1*%
X123350000Y-104350000D03*
%TO.P,J1,8,Pin_8*%
%TO.N,T2*%
X123350000Y-111850000D03*
%TO.P,J1,9,Pin_9*%
%TO.N,C3*%
X168950000Y-122350000D03*
%TO.P,J1,10,Pin_10*%
%TO.N,C4*%
X134800000Y-71350000D03*
%TO.P,J1,11,Pin_11*%
%TO.N,E3*%
X140800000Y-119650000D03*
%TO.P,J1,12,Pin_12*%
%TO.N,E4*%
X151000000Y-71350000D03*
%TO.P,J1,13,Pin_13*%
%TO.N,G3*%
X136750000Y-119650000D03*
%TO.P,J1,14,Pin_14*%
%TO.N,G4*%
X155050000Y-71350000D03*
%TO.P,J1,15,Pin_15*%
%TO.N,T3*%
X170350000Y-104350000D03*
%TO.P,J1,16,Pin_16*%
%TO.N,T4*%
X170350000Y-111850000D03*
%TO.P,J1,17,Pin_17*%
%TO.N,C5*%
X215950000Y-122350000D03*
%TO.P,J1,18,Pin_18*%
%TO.N,C6*%
X181800000Y-71350000D03*
%TO.P,J1,19,Pin_19*%
%TO.N,E5*%
X187800000Y-119650000D03*
%TO.P,J1,20,Pin_20*%
%TO.N,E6*%
X198000000Y-71350000D03*
%TO.P,J1,21,Pin_21*%
%TO.N,G5*%
X183750000Y-119650000D03*
%TO.P,J1,22,Pin_22*%
%TO.N,G6*%
X202050000Y-71350000D03*
%TO.P,J1,23,Pin_23*%
%TO.N,T5*%
X217350000Y-104350000D03*
%TO.P,J1,24,Pin_24*%
%TO.N,T6*%
X217350000Y-111850000D03*
%TD*%
D10*
%TO.P,D14,1,+Vcc*%
%TO.N,+5V*%
X155330785Y-138980000D03*
%TO.P,D14,2,0V*%
%TO.N,GND*%
X155330785Y-140250000D03*
%TO.P,D14,3,Output*%
%TO.N,Net-(D14-Output)*%
X155330785Y-141520000D03*
%TD*%
D16*
%TO.P,U1,1,Vin*%
%TO.N,+15V*%
X220726000Y-73279000D03*
%TO.P,U1,2,GND*%
%TO.N,GND*%
X220726000Y-70739000D03*
%TO.P,U1,3,+Vo*%
%TO.N,+5V*%
X220726000Y-68199000D03*
%TD*%
D17*
%TO.P,C6,1*%
%TO.N,+5V*%
X129561500Y-100330000D03*
%TO.P,C6,2*%
%TO.N,GND*%
X127486500Y-100330000D03*
%TD*%
%TO.P,C83,1*%
%TO.N,FLT_B*%
X141515500Y-72136000D03*
%TO.P,C83,2*%
%TO.N,GND*%
X139440500Y-72136000D03*
%TD*%
D18*
%TO.P,C49,1*%
%TO.N,E6*%
X203034500Y-86614000D03*
%TO.P,C49,2*%
%TO.N,-15V_L3*%
X206159500Y-86614000D03*
%TD*%
D19*
%TO.P,R3,1*%
%TO.N,Net-(D14-Output)*%
X153416000Y-141208000D03*
%TO.P,R3,2*%
%TO.N,Current_B_out*%
X153416000Y-139208000D03*
%TD*%
D20*
%TO.P,C14,1*%
%TO.N,E3*%
X135674500Y-104394000D03*
%TO.P,C14,2*%
%TO.N,-15V_H2*%
X132549500Y-104394000D03*
%TD*%
D21*
%TO.P,C1,1*%
%TO.N,+5V*%
X86211500Y-64008000D03*
%TO.P,C1,2*%
%TO.N,GND*%
X88286500Y-64008000D03*
%TD*%
D22*
%TO.P,R37,1*%
%TO.N,Net-(D12-A)*%
X115443000Y-60595000D03*
%TO.P,R37,2*%
%TO.N,+5V*%
X115443000Y-62595000D03*
%TD*%
D21*
%TO.P,C89,1*%
%TO.N,+5V*%
X179429500Y-64008000D03*
%TO.P,C89,2*%
%TO.N,GND*%
X181504500Y-64008000D03*
%TD*%
D23*
%TO.P,C22,1*%
%TO.N,Current_A_out*%
X104140000Y-139170500D03*
%TO.P,C22,2*%
%TO.N,GND*%
X104140000Y-141245500D03*
%TD*%
D22*
%TO.P,R94,1*%
%TO.N,Net-(D49-A)*%
X212090000Y-60468000D03*
%TO.P,R94,2*%
%TO.N,RDY_C*%
X212090000Y-62468000D03*
%TD*%
D18*
%TO.P,C44,1*%
%TO.N,+15V_L3*%
X197954500Y-86614000D03*
%TO.P,C44,2*%
%TO.N,E6*%
X201079500Y-86614000D03*
%TD*%
%TO.P,C15,1*%
%TO.N,+15V_L2*%
X151091500Y-86614000D03*
%TO.P,C15,2*%
%TO.N,E4*%
X154216500Y-86614000D03*
%TD*%
D20*
%TO.P,C31,1*%
%TO.N,+15V_H1*%
X94272500Y-104394000D03*
%TO.P,C31,2*%
%TO.N,E1*%
X91147500Y-104394000D03*
%TD*%
D23*
%TO.P,C76,1*%
%TO.N,+5V*%
X112522000Y-122152500D03*
%TO.P,C76,2*%
%TO.N,GND*%
X112522000Y-124227500D03*
%TD*%
D17*
%TO.P,C86,1*%
%TO.N,RDY_C*%
X188108500Y-69977000D03*
%TO.P,C86,2*%
%TO.N,GND*%
X186033500Y-69977000D03*
%TD*%
D19*
%TO.P,R4,1*%
%TO.N,Net-(D15-Output)*%
X200406000Y-141208000D03*
%TO.P,R4,2*%
%TO.N,Current_C_out*%
X200406000Y-139208000D03*
%TD*%
D21*
%TO.P,C5,1*%
%TO.N,+5V*%
X163808500Y-90678000D03*
%TO.P,C5,2*%
%TO.N,GND*%
X165883500Y-90678000D03*
%TD*%
D23*
%TO.P,C21,1*%
%TO.N,+5V*%
X110236000Y-139170500D03*
%TO.P,C21,2*%
%TO.N,GND*%
X110236000Y-141245500D03*
%TD*%
D17*
%TO.P,C46,1*%
%TO.N,RDY_A*%
X94255500Y-69977000D03*
%TO.P,C46,2*%
%TO.N,GND*%
X92180500Y-69977000D03*
%TD*%
D24*
%TO.P,C28,1*%
%TO.N,+5V_C*%
X194818000Y-127275500D03*
%TO.P,C28,2*%
%TO.N,-15V_L3*%
X194818000Y-125200500D03*
%TD*%
D22*
%TO.P,R96,1*%
%TO.N,Net-(D50-A)*%
X214884000Y-60468000D03*
%TO.P,R96,2*%
%TO.N,+15V*%
X214884000Y-62468000D03*
%TD*%
D21*
%TO.P,C35,1*%
%TO.N,+5V*%
X116564500Y-90678000D03*
%TO.P,C35,2*%
%TO.N,GND*%
X118639500Y-90678000D03*
%TD*%
D20*
%TO.P,C11,1*%
%TO.N,+15V_H2*%
X141008500Y-104394000D03*
%TO.P,C11,2*%
%TO.N,E3*%
X137883500Y-104394000D03*
%TD*%
D25*
%TO.P,U7,1,GND*%
%TO.N,-15V_L1*%
X116738000Y-110250000D03*
%TO.P,U7,2,VO*%
%TO.N,+5V_A*%
X116738000Y-107950000D03*
%TO.P,U7,3,VI*%
%TO.N,E2*%
X116738000Y-105650000D03*
D26*
%TO.P,U7,4*%
%TO.N,N/C*%
X123038000Y-107950000D03*
%TD*%
D21*
%TO.P,C55,1*%
%TO.N,E4*%
X163554500Y-103124000D03*
%TO.P,C55,2*%
%TO.N,-15V_L2*%
X165629500Y-103124000D03*
%TD*%
D18*
%TO.P,C43,1*%
%TO.N,E4*%
X156171500Y-86614000D03*
%TO.P,C43,2*%
%TO.N,-15V_L2*%
X159296500Y-86614000D03*
%TD*%
D23*
%TO.P,C42,1*%
%TO.N,+5V*%
X205994000Y-122406500D03*
%TO.P,C42,2*%
%TO.N,GND*%
X205994000Y-124481500D03*
%TD*%
%TO.P,C24,1*%
%TO.N,Current_B_out*%
X151130000Y-139170500D03*
%TO.P,C24,2*%
%TO.N,GND*%
X151130000Y-141245500D03*
%TD*%
D25*
%TO.P,U2,1,GND*%
%TO.N,-15V_L3*%
X210718000Y-110250000D03*
%TO.P,U2,2,VO*%
%TO.N,+5V_C*%
X210718000Y-107950000D03*
%TO.P,U2,3,VI*%
%TO.N,E6*%
X210718000Y-105650000D03*
D26*
%TO.P,U2,4*%
%TO.N,N/C*%
X217018000Y-107950000D03*
%TD*%
D17*
%TO.P,C8,1*%
%TO.N,+5V*%
X176297500Y-100330000D03*
%TO.P,C8,2*%
%TO.N,GND*%
X174222500Y-100330000D03*
%TD*%
D22*
%TO.P,R90,1*%
%TO.N,Net-(D30-A)*%
X209296000Y-60468000D03*
%TO.P,R90,2*%
%TO.N,+5V*%
X209296000Y-62468000D03*
%TD*%
%TO.P,R88,1*%
%TO.N,Net-(D28-A)*%
X166624000Y-60468000D03*
%TO.P,R88,2*%
%TO.N,RDY_B*%
X166624000Y-62468000D03*
%TD*%
D23*
%TO.P,C25,1*%
%TO.N,+5V*%
X204216000Y-139170500D03*
%TO.P,C25,2*%
%TO.N,GND*%
X204216000Y-141245500D03*
%TD*%
D19*
%TO.P,R2,1*%
%TO.N,Net-(D11-Output)*%
X106426000Y-141224000D03*
%TO.P,R2,2*%
%TO.N,Current_A_out*%
X106426000Y-139224000D03*
%TD*%
D21*
%TO.P,C84,1*%
%TO.N,+5V*%
X145139500Y-70612000D03*
%TO.P,C84,2*%
%TO.N,GND*%
X147214500Y-70612000D03*
%TD*%
D23*
%TO.P,C26,1*%
%TO.N,Current_C_out*%
X198120000Y-139170500D03*
%TO.P,C26,2*%
%TO.N,GND*%
X198120000Y-141245500D03*
%TD*%
D24*
%TO.P,C75,1*%
%TO.N,+5V_A*%
X101092000Y-127275500D03*
%TO.P,C75,2*%
%TO.N,-15V_L1*%
X101092000Y-125200500D03*
%TD*%
D22*
%TO.P,R87,1*%
%TO.N,Net-(D27-A)*%
X163830000Y-60468000D03*
%TO.P,R87,2*%
%TO.N,+5V*%
X163830000Y-62468000D03*
%TD*%
D17*
%TO.P,C34,1*%
%TO.N,+5V*%
X82825500Y-100330000D03*
%TO.P,C34,2*%
%TO.N,GND*%
X80750500Y-100330000D03*
%TD*%
D25*
%TO.P,U3,1,GND*%
%TO.N,-15V_L2*%
X163982000Y-110250000D03*
%TO.P,U3,2,VO*%
%TO.N,+5V_B*%
X163982000Y-107950000D03*
%TO.P,U3,3,VI*%
%TO.N,E4*%
X163982000Y-105650000D03*
D26*
%TO.P,U3,4*%
%TO.N,N/C*%
X170282000Y-107950000D03*
%TD*%
D21*
%TO.P,C7,1*%
%TO.N,+5V*%
X210544500Y-90678000D03*
%TO.P,C7,2*%
%TO.N,GND*%
X212619500Y-90678000D03*
%TD*%
%TO.P,C2,1*%
%TO.N,+5V*%
X98149500Y-70739000D03*
%TO.P,C2,2*%
%TO.N,GND*%
X100224500Y-70739000D03*
%TD*%
D22*
%TO.P,R89,1*%
%TO.N,Net-(D29-A)*%
X169418000Y-60468000D03*
%TO.P,R89,2*%
%TO.N,+15V*%
X169418000Y-62468000D03*
%TD*%
D20*
%TO.P,C20,1*%
%TO.N,E5*%
X182410500Y-104394000D03*
%TO.P,C20,2*%
%TO.N,-15V_H3*%
X179285500Y-104394000D03*
%TD*%
D22*
%TO.P,R38,1*%
%TO.N,Net-(D13-A)*%
X118237000Y-60579000D03*
%TO.P,R38,2*%
%TO.N,RDY_A*%
X118237000Y-62579000D03*
%TD*%
D21*
%TO.P,C88,1*%
%TO.N,+5V*%
X192129500Y-70612000D03*
%TO.P,C88,2*%
%TO.N,GND*%
X194204500Y-70612000D03*
%TD*%
D20*
%TO.P,C36,1*%
%TO.N,E1*%
X88977000Y-104394000D03*
%TO.P,C36,2*%
%TO.N,-15V_H1*%
X85852000Y-104394000D03*
%TD*%
D23*
%TO.P,C51,1*%
%TO.N,+5V*%
X159258000Y-122152500D03*
%TO.P,C51,2*%
%TO.N,GND*%
X159258000Y-124227500D03*
%TD*%
%TO.P,C23,1*%
%TO.N,+5V*%
X157226000Y-139170500D03*
%TO.P,C23,2*%
%TO.N,GND*%
X157226000Y-141245500D03*
%TD*%
D18*
%TO.P,C3,1*%
%TO.N,+15V_L1*%
X104317000Y-86614000D03*
%TO.P,C3,2*%
%TO.N,E2*%
X107442000Y-86614000D03*
%TD*%
D20*
%TO.P,C17,1*%
%TO.N,+15V_H3*%
X187744500Y-104394000D03*
%TO.P,C17,2*%
%TO.N,E5*%
X184619500Y-104394000D03*
%TD*%
D22*
%TO.P,R55,1*%
%TO.N,Net-(D19-A)*%
X121031000Y-60579000D03*
%TO.P,R55,2*%
%TO.N,+15V*%
X121031000Y-62579000D03*
%TD*%
D18*
%TO.P,C10,1*%
%TO.N,E2*%
X109397000Y-86614000D03*
%TO.P,C10,2*%
%TO.N,-15V_L1*%
X112522000Y-86614000D03*
%TD*%
D17*
%TO.P,C87,1*%
%TO.N,FLT_C*%
X188108500Y-72136000D03*
%TO.P,C87,2*%
%TO.N,GND*%
X186033500Y-72136000D03*
%TD*%
D21*
%TO.P,C80,1*%
%TO.N,E2*%
X116310500Y-103124000D03*
%TO.P,C80,2*%
%TO.N,-15V_L1*%
X118385500Y-103124000D03*
%TD*%
%TO.P,C85,1*%
%TO.N,+5V*%
X133963500Y-64008000D03*
%TO.P,C85,2*%
%TO.N,GND*%
X136038500Y-64008000D03*
%TD*%
%TO.P,C27,1*%
%TO.N,E6*%
X210290500Y-103124000D03*
%TO.P,C27,2*%
%TO.N,-15V_L3*%
X212365500Y-103124000D03*
%TD*%
D24*
%TO.P,C50,1*%
%TO.N,+5V_B*%
X147828000Y-127275500D03*
%TO.P,C50,2*%
%TO.N,-15V_L2*%
X147828000Y-125200500D03*
%TD*%
D17*
%TO.P,C82,1*%
%TO.N,RDY_B*%
X141499500Y-69977000D03*
%TO.P,C82,2*%
%TO.N,GND*%
X139424500Y-69977000D03*
%TD*%
%TO.P,C45,1*%
%TO.N,FLT_A*%
X94255500Y-72136000D03*
%TO.P,C45,2*%
%TO.N,GND*%
X92180500Y-72136000D03*
%TD*%
D27*
%TO.N,C2*%
X97536000Y-83566000D03*
%TO.N,E1*%
X89408000Y-107188000D03*
X91059000Y-101727000D03*
%TO.N,E2*%
X108458000Y-84179589D03*
X106553000Y-89320000D03*
%TO.N,G1*%
X96139000Y-101727000D03*
%TO.N,G2*%
X101473000Y-89281000D03*
%TO.N,T1*%
X102108000Y-119888000D03*
X98994000Y-125288000D03*
%TO.N,T2*%
X105664000Y-121158000D03*
%TO.N,C4*%
X144526000Y-83566000D03*
%TO.N,E3*%
X138049000Y-101600000D03*
X136652000Y-107188000D03*
%TO.N,E4*%
X153543000Y-89281000D03*
X155194000Y-84582000D03*
%TO.N,G3*%
X143129000Y-101600000D03*
%TO.N,G4*%
X148463000Y-89408000D03*
%TO.N,T3*%
X148844000Y-120269000D03*
X145730000Y-125415000D03*
%TO.N,T4*%
X152400000Y-121158000D03*
%TO.N,C6*%
X191516000Y-83439000D03*
%TO.N,E5*%
X185039000Y-101600000D03*
X183642000Y-107188000D03*
%TO.N,E6*%
X202184000Y-84582000D03*
X200533000Y-89154000D03*
%TO.N,G5*%
X190119000Y-101600000D03*
%TO.N,G6*%
X195453000Y-89408000D03*
%TO.N,T5*%
X195834000Y-120396000D03*
X192532000Y-125222000D03*
%TO.N,T6*%
X199390000Y-121158000D03*
%TO.N,GND*%
X227203000Y-72898000D03*
X199136000Y-118237000D03*
X200152000Y-118237000D03*
X141507541Y-74578541D03*
X119634000Y-90678000D03*
X165862000Y-94996000D03*
X198120000Y-142240000D03*
X164338000Y-131064000D03*
X100203000Y-102997000D03*
X94488000Y-75692000D03*
X194818000Y-72009000D03*
X227203000Y-70866000D03*
X77724000Y-99314000D03*
X207137000Y-124968000D03*
X151257000Y-118237000D03*
X213614000Y-63754000D03*
X188468000Y-75819000D03*
X124372000Y-99060000D03*
X211074000Y-131064000D03*
X160401000Y-125095000D03*
X171200000Y-98806000D03*
X135128000Y-84836000D03*
X141478000Y-75565000D03*
X105156000Y-118237000D03*
X104140000Y-118237000D03*
X173355000Y-100330000D03*
X212598000Y-95250000D03*
X89154000Y-62865000D03*
X126492000Y-100457000D03*
X136906000Y-62865000D03*
X188468000Y-74803000D03*
X191389000Y-89408000D03*
X118618000Y-95250000D03*
X104140000Y-142240000D03*
X168021000Y-63754000D03*
X118872000Y-130048000D03*
X186055000Y-68677000D03*
X91900000Y-51800000D03*
X161986000Y-55306000D03*
X156464000Y-105918000D03*
X119779000Y-63881000D03*
X92202000Y-68677000D03*
X147955000Y-72009000D03*
X144399000Y-89408000D03*
X144600000Y-51800000D03*
X166751000Y-90678000D03*
X151130000Y-142240000D03*
X152500000Y-51800000D03*
X109474000Y-106426000D03*
X227203000Y-69850000D03*
X189400000Y-51900000D03*
X198120000Y-118237000D03*
X97409000Y-89281000D03*
X221869000Y-81280000D03*
X100838000Y-72136000D03*
X203454000Y-106045000D03*
X227203000Y-68834000D03*
X94488000Y-74549000D03*
X194183000Y-103124000D03*
X147193000Y-102870000D03*
X139446000Y-68580000D03*
X197500000Y-51900000D03*
X182372000Y-62865000D03*
X106172000Y-118237000D03*
X213487000Y-90678000D03*
X104600000Y-51800000D03*
X152273000Y-118237000D03*
X79756000Y-100330000D03*
X114234000Y-55306000D03*
X206944000Y-55306000D03*
X227203000Y-71882000D03*
X88138000Y-84836000D03*
X153289000Y-118237000D03*
X182096500Y-84836000D03*
X113538000Y-125095000D03*
%TO.N,+5V*%
X153416000Y-103505000D03*
X106426000Y-103505000D03*
X91366959Y-88318959D03*
X160366554Y-121881826D03*
X116332000Y-55372000D03*
X212598000Y-96520000D03*
X118618000Y-96520000D03*
X191600000Y-51900000D03*
X200533000Y-103505000D03*
X178562000Y-62865000D03*
X227203000Y-67183000D03*
X138303000Y-88392000D03*
X115570000Y-90678000D03*
X177165000Y-100330000D03*
X117602000Y-126746000D03*
X221869000Y-79121000D03*
X185166000Y-88138000D03*
X154700000Y-51800000D03*
X209042000Y-55372000D03*
X106800000Y-51800000D03*
X164084000Y-55372000D03*
X227203000Y-66294000D03*
X144272000Y-69215000D03*
X94200000Y-51800000D03*
X191516000Y-69215000D03*
X209677000Y-90678000D03*
X146900000Y-51800000D03*
X162530000Y-62820000D03*
X164338000Y-127000000D03*
X199700000Y-51900000D03*
X90993000Y-69977000D03*
X165862000Y-96266000D03*
X124372000Y-98044000D03*
X85344000Y-62865000D03*
X114161280Y-63120621D03*
X162941000Y-90678000D03*
X113566439Y-121961330D03*
X207996397Y-62864448D03*
X133096000Y-62865000D03*
X207010000Y-121920000D03*
X184846000Y-69977000D03*
X130429000Y-100457000D03*
X227203000Y-65405000D03*
X211074000Y-126746000D03*
X83820000Y-100330000D03*
X138176000Y-69977000D03*
X77724000Y-98298000D03*
X97583000Y-69389000D03*
X171196000Y-97790000D03*
%TO.N,Net-(U11-+)*%
X193548000Y-123952000D03*
X196596000Y-124460000D03*
%TO.N,Net-(U5-VIA)*%
X195951702Y-128409283D03*
X199136000Y-123444000D03*
%TO.N,+15V*%
X169418000Y-63668000D03*
X150622000Y-110490000D03*
X227203000Y-75692000D03*
X103632000Y-111379000D03*
X197612000Y-111125000D03*
X197612000Y-112141000D03*
X150622000Y-111506000D03*
X227203000Y-74676000D03*
X214884000Y-63668000D03*
X141528800Y-79451200D03*
X103632000Y-109347000D03*
X94488000Y-79502000D03*
X121031000Y-63804000D03*
X141528800Y-78486000D03*
X188468000Y-78536800D03*
X94488000Y-78486000D03*
X103632000Y-110363000D03*
X150622000Y-109474000D03*
X188468000Y-79552800D03*
X197612000Y-110109000D03*
X227203000Y-76708000D03*
%TO.N,+5V_C*%
X199390000Y-129286000D03*
X192024000Y-120142000D03*
X209296000Y-111760000D03*
X192532000Y-127254000D03*
%TO.N,Net-(D31-DESAT)*%
X114808000Y-84328000D03*
X101596303Y-88138000D03*
%TO.N,PWM2_H_P*%
X126619000Y-105410000D03*
%TO.N,PWM2_H_N*%
X130429000Y-105410000D03*
%TO.N,PWM2_L_P*%
X166878000Y-85598000D03*
%TO.N,PWM2_L_N*%
X162814000Y-85598000D03*
%TO.N,PWM1_L_P*%
X119634000Y-85598000D03*
%TO.N,PWM1_L_N*%
X115570000Y-85598000D03*
%TO.N,PWM3_H_P*%
X173355000Y-105410000D03*
%TO.N,PWM3_H_N*%
X177165000Y-105410000D03*
%TO.N,PWM1_H_P*%
X79502000Y-105410000D03*
%TO.N,PWM1_H_N*%
X84074000Y-105410000D03*
%TO.N,PWM3_L_P*%
X213614000Y-85598000D03*
%TO.N,PWM3_L_N*%
X209550000Y-85598000D03*
%TO.N,Temp_A_P*%
X118491000Y-124206000D03*
%TO.N,Temp_A_N*%
X118491000Y-122174000D03*
%TO.N,Net-(D12-A)*%
X115443000Y-59563000D03*
%TO.N,Net-(D13-A)*%
X118237000Y-59563000D03*
%TO.N,-15V_L1*%
X108986934Y-89387066D03*
X100076000Y-120269000D03*
X103355669Y-126215669D03*
X100203000Y-89281000D03*
X105410000Y-131339500D03*
X113792000Y-86614000D03*
X116738000Y-111658000D03*
%TO.N,+15V_L1*%
X104394000Y-84144000D03*
X104013000Y-89281000D03*
%TO.N,+15V_H1*%
X93726000Y-102108000D03*
X93472000Y-107188000D03*
%TO.N,-15V_H1*%
X97409000Y-101727000D03*
X85852000Y-106172000D03*
X85852000Y-102362000D03*
%TO.N,+15V_H2*%
X140462000Y-106426000D03*
X140589000Y-101600000D03*
%TO.N,-15V_H2*%
X144399000Y-101600000D03*
X135382000Y-101600000D03*
X132588000Y-106172000D03*
%TO.N,+15V_H3*%
X187706000Y-106426000D03*
X187452000Y-101600000D03*
%TO.N,-15V_H3*%
X179324000Y-106426000D03*
X191389000Y-101600000D03*
X182372000Y-101600000D03*
%TO.N,PWM_L1*%
X115570000Y-95250000D03*
X94869000Y-89408000D03*
%TO.N,PWM_H1*%
X102616000Y-101600000D03*
X83693000Y-96139000D03*
%TO.N,PWM_L2*%
X162941000Y-95250000D03*
X141859000Y-89408000D03*
%TO.N,PWM_H2*%
X149733000Y-101600000D03*
X130429000Y-96139000D03*
%TO.N,PWM_L3*%
X209677000Y-95123000D03*
X188849000Y-89408000D03*
%TO.N,PWM_H3*%
X196723000Y-101727000D03*
X177165000Y-96012000D03*
%TO.N,Net-(D38-DESAT)*%
X161544000Y-84328000D03*
X148336000Y-88011000D03*
%TO.N,Net-(D44-DESAT)*%
X208534000Y-84328000D03*
X195453000Y-88011000D03*
%TO.N,FLT_A*%
X104902000Y-101600000D03*
X92725997Y-89408000D03*
X95631000Y-72136000D03*
X115443000Y-63795000D03*
%TO.N,RDY_A*%
X116205000Y-65405000D03*
X95631000Y-70866000D03*
X118280000Y-63838000D03*
X103886000Y-101600000D03*
X93726000Y-89408000D03*
%TO.N,Current_A_out*%
X102870000Y-139192000D03*
%TO.N,+15V_L2*%
X151003000Y-89281000D03*
X151130000Y-84494000D03*
%TO.N,+5V_B*%
X145731000Y-127315000D03*
X162532000Y-111760000D03*
X152400000Y-129264500D03*
X145288000Y-120269000D03*
%TO.N,Net-(U6-VIA)*%
X152208000Y-123190000D03*
X148906000Y-128397000D03*
%TO.N,+15V_L3*%
X197993000Y-89281000D03*
X198120000Y-84582000D03*
%TO.N,Net-(D19-A)*%
X121031000Y-59563000D03*
%TO.N,Current_B_out*%
X149860000Y-139192000D03*
%TO.N,Current_C_out*%
X196850000Y-139192000D03*
%TO.N,Net-(U4-+)*%
X146810714Y-124204301D03*
X149230458Y-124483173D03*
%TO.N,+5V_A*%
X105410000Y-129286000D03*
X115316000Y-111760000D03*
X98044000Y-120269000D03*
X98994000Y-127188000D03*
%TO.N,Net-(U8-+)*%
X102559458Y-124483173D03*
X100076000Y-124079000D03*
%TO.N,Net-(U9-VIA)*%
X102235000Y-128397000D03*
X105537000Y-123190000D03*
%TO.N,~{RST}*%
X116078000Y-67818000D03*
X163576000Y-67818000D03*
%TO.N,Temp_B_P*%
X165162000Y-124206000D03*
%TO.N,Temp_B_N*%
X165162000Y-122174000D03*
%TO.N,RDY_B*%
X151003000Y-101600000D03*
X164465000Y-65317000D03*
X142875000Y-70739000D03*
X166624000Y-63668000D03*
X140589000Y-89408000D03*
%TO.N,FLT_B*%
X142748000Y-72136000D03*
X152002846Y-101582414D03*
X139593756Y-89505409D03*
X163830000Y-63668000D03*
%TO.N,RDY_C*%
X189484000Y-70612000D03*
X187579000Y-89408000D03*
X197993000Y-101727000D03*
X212090000Y-63668000D03*
X209931000Y-65278000D03*
%TO.N,FLT_C*%
X209296000Y-63668000D03*
X189484000Y-72009000D03*
X199136000Y-101600000D03*
X186436000Y-89408000D03*
%TO.N,Net-(D27-A)*%
X163830000Y-59436000D03*
%TO.N,Net-(D28-A)*%
X166624000Y-59436000D03*
%TO.N,Net-(D29-A)*%
X169418000Y-59436000D03*
%TO.N,Net-(D30-A)*%
X209296000Y-59436000D03*
%TO.N,Net-(D49-A)*%
X212090000Y-59436000D03*
%TO.N,Net-(D50-A)*%
X214884000Y-59436000D03*
%TO.N,Temp_C_P*%
X211836000Y-124206000D03*
%TO.N,Temp_C_N*%
X211907821Y-122192969D03*
%TO.N,-15V_L3*%
X207264000Y-86614000D03*
X193802000Y-120142000D03*
X196850000Y-126238000D03*
X194183000Y-89408000D03*
X203073000Y-89281000D03*
X210718000Y-111608000D03*
X199390000Y-131318000D03*
%TO.N,-15V_L2*%
X149924959Y-126175959D03*
X146812000Y-120269000D03*
X163982000Y-111608000D03*
X152421500Y-131339500D03*
X147193000Y-89408000D03*
X156083000Y-89200132D03*
X160528000Y-86614000D03*
%TO.N,~{RST_B}*%
X169672000Y-67818000D03*
X150368000Y-106045000D03*
X141224000Y-85090000D03*
X165354000Y-52070000D03*
%TO.N,~{RST_A}*%
X120904000Y-67818000D03*
X94234000Y-84836000D03*
X103378000Y-106172000D03*
X117602000Y-52086000D03*
%TO.N,~{RST_C}*%
X197374000Y-105934000D03*
X210312000Y-52070000D03*
X188214000Y-84836000D03*
X214884000Y-67818000D03*
%TD*%
D28*
%TO.N,E1*%
X91147500Y-101815500D02*
X91059000Y-101727000D01*
X91147500Y-104394000D02*
X91147500Y-101815500D01*
X90932000Y-101854000D02*
X91059000Y-101727000D01*
X88977000Y-104394000D02*
X88977000Y-106757000D01*
X88977000Y-106757000D02*
X89408000Y-107188000D01*
X88977000Y-104394000D02*
X91147500Y-104394000D01*
%TO.N,E2*%
X109397000Y-85118589D02*
X109397000Y-86614000D01*
X115697000Y-101092000D02*
X116310500Y-101705500D01*
X116310500Y-101705500D02*
X116310500Y-103124000D01*
X116738000Y-103551500D02*
X116310500Y-103124000D01*
X116738000Y-105650000D02*
X116738000Y-103551500D01*
X107442000Y-86614000D02*
X107442000Y-88431000D01*
X109397000Y-86614000D02*
X107442000Y-86614000D01*
X107442000Y-88431000D02*
X106553000Y-89320000D01*
X113538000Y-101092000D02*
X115697000Y-101092000D01*
X108458000Y-84179589D02*
X109397000Y-85118589D01*
%TO.N,G1*%
X96139000Y-101727000D02*
X96139000Y-113261000D01*
X96139000Y-113261000D02*
X89750000Y-119650000D01*
%TO.N,G2*%
X100584000Y-78740000D02*
X107974000Y-71350000D01*
X100584000Y-88392000D02*
X100584000Y-78740000D01*
X107974000Y-71350000D02*
X108050000Y-71350000D01*
X101473000Y-89281000D02*
X100584000Y-88392000D01*
%TO.N,E3*%
X137883500Y-105956500D02*
X136652000Y-107188000D01*
X137883500Y-104394000D02*
X137883500Y-105956500D01*
X138049000Y-101600000D02*
X138049000Y-104101500D01*
X135547500Y-104140000D02*
X135801500Y-104394000D01*
X138049000Y-104101500D02*
X137756500Y-104394000D01*
D29*
X137756500Y-104394000D02*
X135801500Y-104394000D01*
D28*
%TO.N,E4*%
X154216500Y-88607500D02*
X153543000Y-89281000D01*
X156171500Y-86614000D02*
X154216500Y-86614000D01*
X163554500Y-105222500D02*
X163982000Y-105650000D01*
X160528000Y-101092000D02*
X161522500Y-101092000D01*
X154216500Y-86614000D02*
X154216500Y-88607500D01*
X163554500Y-103124000D02*
X163554500Y-105222500D01*
X154216500Y-85559500D02*
X155194000Y-84582000D01*
X161522500Y-101092000D02*
X163554500Y-103124000D01*
X154216500Y-86614000D02*
X154216500Y-85559500D01*
%TO.N,G3*%
X145376000Y-111024000D02*
X145376000Y-103787918D01*
X145376000Y-103787918D02*
X143188082Y-101600000D01*
X136750000Y-119650000D02*
X145376000Y-111024000D01*
X143188082Y-101600000D02*
X143129000Y-101600000D01*
%TO.N,G4*%
X147320000Y-84455000D02*
X155050000Y-76725000D01*
X148463000Y-89408000D02*
X147320000Y-88265000D01*
X147320000Y-88265000D02*
X147320000Y-84455000D01*
X155050000Y-76725000D02*
X155050000Y-71350000D01*
%TO.N,E5*%
X184619500Y-106210500D02*
X183642000Y-107188000D01*
X184619500Y-102654500D02*
X184619500Y-104394000D01*
X185039000Y-102235000D02*
X184619500Y-102654500D01*
X184619500Y-104394000D02*
X184619500Y-106210500D01*
X185039000Y-101600000D02*
X185039000Y-102235000D01*
X182410500Y-104394000D02*
X184619500Y-104394000D01*
%TO.N,E6*%
X203034500Y-86614000D02*
X201079500Y-86614000D01*
X201079500Y-86614000D02*
X201079500Y-85686500D01*
X208258505Y-101092005D02*
X210290500Y-103124000D01*
X201079500Y-85686500D02*
X202184000Y-84582000D01*
X210290500Y-103124000D02*
X210290500Y-105222500D01*
X210290500Y-105222500D02*
X210718000Y-105650000D01*
X207553995Y-101092005D02*
X208258505Y-101092005D01*
%TO.N,G5*%
X192366000Y-103847000D02*
X192366000Y-111034000D01*
X192366000Y-111034000D02*
X183750000Y-119650000D01*
X190119000Y-101600000D02*
X192366000Y-103847000D01*
%TO.N,G6*%
X194310000Y-84709000D02*
X202050000Y-76969000D01*
X195453000Y-89408000D02*
X194310000Y-88265000D01*
X194310000Y-88265000D02*
X194310000Y-84709000D01*
X202050000Y-76969000D02*
X202050000Y-71350000D01*
%TO.N,GND*%
X127486500Y-100330000D02*
X127486500Y-99546500D01*
X212619500Y-95228500D02*
X212598000Y-95250000D01*
D30*
X113538000Y-125095000D02*
X113389500Y-125095000D01*
D28*
X165883500Y-90678000D02*
X165883500Y-94974500D01*
X127359500Y-100457000D02*
X127486500Y-100330000D01*
X104140000Y-141245500D02*
X104140000Y-142240000D01*
X139424500Y-72120000D02*
X139440500Y-72136000D01*
X118639500Y-95228500D02*
X118618000Y-95250000D01*
X174222500Y-99292500D02*
X173736000Y-98806000D01*
X194204500Y-71395500D02*
X194818000Y-72009000D01*
X155330785Y-140250000D02*
X156230500Y-140250000D01*
X181504500Y-64008000D02*
X181504500Y-63732500D01*
X89154000Y-63140500D02*
X88286500Y-64008000D01*
X202330785Y-140250000D02*
X203220500Y-140250000D01*
X174222500Y-100330000D02*
X174222500Y-99292500D01*
X212619500Y-90678000D02*
X212619500Y-95228500D01*
X127000000Y-99060000D02*
X124372000Y-99060000D01*
X203220500Y-140250000D02*
X204216000Y-141245500D01*
X212619500Y-90678000D02*
X213487000Y-90678000D01*
X147214500Y-70612000D02*
X147214500Y-71268500D01*
D30*
X113389500Y-125095000D02*
X112522000Y-124227500D01*
D28*
X139424500Y-69977000D02*
X139424500Y-72120000D01*
X80518000Y-99314000D02*
X77724000Y-99314000D01*
X80750500Y-100330000D02*
X79756000Y-100330000D01*
X80750500Y-100330000D02*
X80750500Y-100054500D01*
D30*
X92180500Y-68698500D02*
X92202000Y-68677000D01*
D28*
X186033500Y-69977000D02*
X186033500Y-68698500D01*
X118639500Y-90678000D02*
X119634000Y-90678000D01*
D30*
X206480500Y-124968000D02*
X205994000Y-124481500D01*
D28*
X109240500Y-140250000D02*
X110236000Y-141245500D01*
X186033500Y-72136000D02*
X186033500Y-69977000D01*
X139424500Y-69977000D02*
X139424500Y-68601500D01*
X194204500Y-70612000D02*
X194204500Y-71395500D01*
X181504500Y-63732500D02*
X182372000Y-62865000D01*
X136038500Y-64008000D02*
X136038500Y-63732500D01*
X173736000Y-98806000D02*
X171200000Y-98806000D01*
X100838000Y-71352500D02*
X100224500Y-70739000D01*
X174222500Y-100330000D02*
X173355000Y-100330000D01*
X151130000Y-141245500D02*
X151130000Y-142240000D01*
X108300000Y-140250000D02*
X109240500Y-140250000D01*
X127486500Y-99546500D02*
X127000000Y-99060000D01*
X147214500Y-71268500D02*
X147955000Y-72009000D01*
X186033500Y-68698500D02*
X186055000Y-68677000D01*
X139424500Y-68601500D02*
X139446000Y-68580000D01*
X165883500Y-90678000D02*
X166751000Y-90678000D01*
D30*
X207137000Y-124968000D02*
X206480500Y-124968000D01*
D28*
X80750500Y-99546500D02*
X80518000Y-99314000D01*
X156230500Y-140250000D02*
X157226000Y-141245500D01*
D30*
X160125500Y-125095000D02*
X159258000Y-124227500D01*
D28*
X118639500Y-90678000D02*
X118639500Y-95228500D01*
X92180500Y-72136000D02*
X92180500Y-69977000D01*
X126492000Y-100457000D02*
X127359500Y-100457000D01*
X100838000Y-72136000D02*
X100838000Y-71352500D01*
X136038500Y-63732500D02*
X136906000Y-62865000D01*
X198120000Y-141245500D02*
X198120000Y-142240000D01*
X165883500Y-94974500D02*
X165862000Y-94996000D01*
X80750500Y-100330000D02*
X80750500Y-99546500D01*
X92202000Y-69955500D02*
X92180500Y-69977000D01*
D30*
X160401000Y-125095000D02*
X160125500Y-125095000D01*
D28*
X92202000Y-68677000D02*
X92202000Y-69955500D01*
X89154000Y-62865000D02*
X89154000Y-63140500D01*
%TO.N,+5V*%
X162941000Y-90678000D02*
X163808500Y-90678000D01*
X210544500Y-94466500D02*
X212598000Y-96520000D01*
D30*
X159528674Y-121881826D02*
X159258000Y-122152500D01*
D28*
X133963500Y-63732500D02*
X133096000Y-62865000D01*
X145139500Y-70082500D02*
X144272000Y-69215000D01*
X163830000Y-62468000D02*
X162882000Y-62468000D01*
X202330785Y-138980000D02*
X204025500Y-138980000D01*
X129561500Y-100330000D02*
X129561500Y-98827500D01*
X133963500Y-64008000D02*
X133963500Y-63732500D01*
X176297500Y-100330000D02*
X176297500Y-98827500D01*
X128778000Y-98044000D02*
X124372000Y-98044000D01*
X204025500Y-138980000D02*
X204216000Y-139170500D01*
X116564500Y-90678000D02*
X116564500Y-94466500D01*
X210544500Y-90678000D02*
X209677000Y-90678000D01*
X85344000Y-62865000D02*
X85344000Y-63140500D01*
X110045500Y-138980000D02*
X110236000Y-139170500D01*
X209296000Y-62468000D02*
X208392845Y-62468000D01*
X176297500Y-100330000D02*
X177165000Y-100330000D01*
X82825500Y-99081500D02*
X82042000Y-98298000D01*
X97583000Y-70172500D02*
X98149500Y-70739000D01*
X97583000Y-69389000D02*
X97583000Y-70172500D01*
X208392845Y-62468000D02*
X207996397Y-62864448D01*
X145139500Y-70612000D02*
X145139500Y-70082500D01*
X163808500Y-94212500D02*
X163808500Y-90678000D01*
X115443000Y-62595000D02*
X114686901Y-62595000D01*
X157035500Y-138980000D02*
X157226000Y-139170500D01*
D30*
X206480500Y-121920000D02*
X205994000Y-122406500D01*
D28*
X162882000Y-62468000D02*
X162530000Y-62820000D01*
X176297500Y-98827500D02*
X175260000Y-97790000D01*
X82825500Y-100330000D02*
X83820000Y-100330000D01*
X192129500Y-70612000D02*
X192129500Y-69828500D01*
X129688500Y-100457000D02*
X129561500Y-100330000D01*
X129561500Y-98827500D02*
X128778000Y-98044000D01*
D30*
X112713170Y-121961330D02*
X112522000Y-122152500D01*
D28*
X210544500Y-90678000D02*
X210544500Y-94466500D01*
X179429500Y-64008000D02*
X179136500Y-63715000D01*
X192129500Y-69828500D02*
X191516000Y-69215000D01*
X175260000Y-97790000D02*
X171196000Y-97790000D01*
X116564500Y-94466500D02*
X118618000Y-96520000D01*
X179429500Y-63732500D02*
X178562000Y-62865000D01*
D30*
X113566439Y-121961330D02*
X112713170Y-121961330D01*
X160366554Y-121881826D02*
X159528674Y-121881826D01*
D28*
X85344000Y-63140500D02*
X86211500Y-64008000D01*
D30*
X207010000Y-121920000D02*
X206480500Y-121920000D01*
D28*
X165862000Y-96266000D02*
X163808500Y-94212500D01*
X179429500Y-64008000D02*
X179429500Y-63732500D01*
X82042000Y-98298000D02*
X77724000Y-98298000D01*
X114686901Y-62595000D02*
X114161280Y-63120621D01*
X108300000Y-138980000D02*
X110045500Y-138980000D01*
X116564500Y-90678000D02*
X115570000Y-90678000D01*
X155330785Y-138980000D02*
X157035500Y-138980000D01*
X82825500Y-100330000D02*
X82825500Y-99081500D01*
X130429000Y-100457000D02*
X129688500Y-100457000D01*
%TO.N,+15V*%
X214884000Y-62468000D02*
X214884000Y-63668000D01*
X169418000Y-62468000D02*
X169418000Y-63668000D01*
X121031000Y-63831082D02*
X121031000Y-63804000D01*
X121031000Y-62579000D02*
X121031000Y-63804000D01*
D30*
%TO.N,+5V_C*%
X194818000Y-127275500D02*
X192553500Y-127275500D01*
X192553500Y-127275500D02*
X192532000Y-127254000D01*
D28*
X210718000Y-107950000D02*
X209268000Y-109400000D01*
X209268000Y-111732000D02*
X209296000Y-111760000D01*
X209268000Y-109400000D02*
X209268000Y-111732000D01*
%TO.N,Net-(D31-DESAT)*%
X102108000Y-88138000D02*
X101596303Y-88138000D01*
X114808000Y-84328000D02*
X114808000Y-83312000D01*
X102616000Y-87630000D02*
X102108000Y-88138000D01*
X103632000Y-82296000D02*
X102616000Y-83312000D01*
X114808000Y-83312000D02*
X113792000Y-82296000D01*
X102616000Y-83312000D02*
X102616000Y-87630000D01*
X113792000Y-82296000D02*
X103632000Y-82296000D01*
%TO.N,Temp_A_P*%
X117741000Y-121721918D02*
X117741000Y-114138668D01*
X119894000Y-111985668D02*
X119894000Y-95094668D01*
X117741000Y-114138668D02*
X119894000Y-111985668D01*
X117641000Y-121821918D02*
X117741000Y-121721918D01*
X106364943Y-64334000D02*
X105662000Y-63631057D01*
X120783000Y-94205668D02*
X120783000Y-78115661D01*
X117741000Y-123456000D02*
X117741000Y-122626082D01*
X117741000Y-122626082D02*
X117641000Y-122526082D01*
X119894000Y-95094668D02*
X120783000Y-94205668D01*
X107001339Y-64334000D02*
X106364943Y-64334000D01*
X117641000Y-122526082D02*
X117641000Y-121821918D01*
X105662000Y-63134000D02*
X103862000Y-63134000D01*
X105662000Y-63631057D02*
X105662000Y-63134000D01*
X120783000Y-78115661D02*
X107001339Y-64334000D01*
X118491000Y-124206000D02*
X117741000Y-123456000D01*
%TO.N,Temp_A_N*%
X120644000Y-112296332D02*
X120644000Y-95405332D01*
X118491000Y-122174000D02*
X118491000Y-114449332D01*
X107359057Y-61934000D02*
X106364943Y-61934000D01*
X120644000Y-95405332D02*
X121533000Y-94516332D01*
X121533000Y-77805000D02*
X108062000Y-64334000D01*
X108062000Y-64334000D02*
X108062000Y-62636943D01*
X108062000Y-62636943D02*
X107359057Y-61934000D01*
X106013471Y-62285471D02*
X103862000Y-60134000D01*
X121533000Y-94516332D02*
X121533000Y-77805000D01*
X106364943Y-61934000D02*
X106013471Y-62285471D01*
X118491000Y-114449332D02*
X120644000Y-112296332D01*
%TO.N,Net-(D12-A)*%
X115443000Y-59563000D02*
X115443000Y-60595000D01*
%TO.N,Net-(D13-A)*%
X118237000Y-59563000D02*
X118237000Y-60579000D01*
%TO.N,-15V_L1*%
X108986934Y-89387066D02*
X111780934Y-89387066D01*
D30*
X103355669Y-126215669D02*
X102107169Y-126215669D01*
D28*
X108204000Y-90170000D02*
X101092000Y-90170000D01*
X111780934Y-89387066D02*
X112522000Y-88646000D01*
X112522000Y-88646000D02*
X112522000Y-86614000D01*
D30*
X102107169Y-126215669D02*
X101092000Y-125200500D01*
D28*
X115824000Y-98552000D02*
X118385500Y-101113500D01*
X112522000Y-86614000D02*
X113792000Y-86614000D01*
X118385500Y-103124000D02*
X118385500Y-108602500D01*
X118385500Y-101113500D02*
X118385500Y-103124000D01*
X101092000Y-90170000D02*
X100203000Y-89281000D01*
X108986934Y-89387066D02*
X108204000Y-90170000D01*
X116738000Y-111658000D02*
X116738000Y-110250000D01*
X118385500Y-108602500D02*
X116738000Y-110250000D01*
X113538000Y-98552000D02*
X115824000Y-98552000D01*
%TO.N,+15V_L1*%
X104013000Y-89281000D02*
X104317000Y-88977000D01*
X104317000Y-88977000D02*
X104317000Y-86614000D01*
X104317000Y-84221000D02*
X104394000Y-84144000D01*
X104317000Y-86614000D02*
X104317000Y-84221000D01*
%TO.N,+15V_H1*%
X94272500Y-106387500D02*
X94272500Y-104394000D01*
X94272500Y-104394000D02*
X94272500Y-102654500D01*
X93472000Y-107188000D02*
X94272500Y-106387500D01*
X94272500Y-102654500D02*
X93726000Y-102108000D01*
%TO.N,-15V_H1*%
X85852000Y-104394000D02*
X85852000Y-106172000D01*
X96520000Y-100838000D02*
X87376000Y-100838000D01*
X97409000Y-101727000D02*
X96520000Y-100838000D01*
X85852000Y-104394000D02*
X85852000Y-102362000D01*
X87376000Y-100838000D02*
X85852000Y-102362000D01*
%TO.N,+15V_H2*%
X141008500Y-105879500D02*
X141008500Y-104394000D01*
X140462000Y-106426000D02*
X141008500Y-105879500D01*
X141008500Y-102019500D02*
X140589000Y-101600000D01*
X141008500Y-104394000D02*
X141008500Y-102019500D01*
%TO.N,-15V_H2*%
X136232000Y-100750000D02*
X136398000Y-100750000D01*
X143549000Y-100750000D02*
X144399000Y-101600000D01*
X132549500Y-102400500D02*
X132549500Y-104394000D01*
X132715000Y-104228500D02*
X132549500Y-104394000D01*
X132676500Y-106083500D02*
X132588000Y-106172000D01*
X135382000Y-101600000D02*
X136232000Y-100750000D01*
X136398000Y-100750000D02*
X143549000Y-100750000D01*
X132588000Y-104432500D02*
X132549500Y-104394000D01*
X135382000Y-101600000D02*
X133350000Y-101600000D01*
X133350000Y-101600000D02*
X132549500Y-102400500D01*
X132588000Y-106172000D02*
X132588000Y-104432500D01*
%TO.N,+15V_H3*%
X187706000Y-104355500D02*
X187706000Y-101854000D01*
X187744500Y-106387500D02*
X187706000Y-106426000D01*
X187744500Y-104394000D02*
X187706000Y-104355500D01*
X187706000Y-101854000D02*
X187452000Y-101600000D01*
X187744500Y-104394000D02*
X187744500Y-106387500D01*
%TO.N,-15V_H3*%
X183222000Y-100750000D02*
X182372000Y-101600000D01*
X180340000Y-101600000D02*
X182372000Y-101600000D01*
X179285500Y-102654500D02*
X180340000Y-101600000D01*
X179285500Y-106387500D02*
X179324000Y-106426000D01*
X179285500Y-104394000D02*
X179285500Y-106387500D01*
X179285500Y-104394000D02*
X179285500Y-102654500D01*
X190539000Y-100750000D02*
X183222000Y-100750000D01*
X191389000Y-101600000D02*
X190539000Y-100750000D01*
%TO.N,PWM_L1*%
X96393000Y-90932000D02*
X94869000Y-89408000D01*
X115570000Y-95250000D02*
X115570000Y-94488000D01*
X112014000Y-90932000D02*
X96393000Y-90932000D01*
X115570000Y-94488000D02*
X112014000Y-90932000D01*
%TO.N,PWM_H1*%
X83693000Y-96901000D02*
X86868000Y-100076000D01*
X101092000Y-100076000D02*
X102616000Y-101600000D01*
X86868000Y-100076000D02*
X101092000Y-100076000D01*
X83693000Y-96139000D02*
X83693000Y-96901000D01*
%TO.N,PWM_L2*%
X158877000Y-91186000D02*
X162941000Y-95250000D01*
X143637000Y-91186000D02*
X158877000Y-91186000D01*
X141859000Y-89408000D02*
X143637000Y-91186000D01*
%TO.N,PWM_H2*%
X134340000Y-100050000D02*
X148183000Y-100050000D01*
X130429000Y-96139000D02*
X134340000Y-100050000D01*
X148183000Y-100050000D02*
X149733000Y-101600000D01*
%TO.N,PWM_L3*%
X188849000Y-89408000D02*
X190399000Y-90958000D01*
X190399000Y-90958000D02*
X205512000Y-90958000D01*
X205512000Y-90958000D02*
X209677000Y-95123000D01*
%TO.N,PWM_H3*%
X182906050Y-100076000D02*
X182932050Y-100050000D01*
X181369723Y-100076000D02*
X182906050Y-100076000D01*
X177165000Y-96012000D02*
X177305723Y-96012000D01*
X177305723Y-96012000D02*
X181369723Y-100076000D01*
X195046000Y-100050000D02*
X196723000Y-101727000D01*
X182932050Y-100050000D02*
X195046000Y-100050000D01*
%TO.N,Net-(D38-DESAT)*%
X161544000Y-83566000D02*
X161544000Y-84328000D01*
X149606000Y-87376000D02*
X149606000Y-83820000D01*
X160782000Y-82804000D02*
X161544000Y-83566000D01*
X149606000Y-83820000D02*
X150622000Y-82804000D01*
X148336000Y-88011000D02*
X148971000Y-88011000D01*
X148971000Y-88011000D02*
X149606000Y-87376000D01*
X150622000Y-82804000D02*
X160782000Y-82804000D01*
%TO.N,Net-(D44-DESAT)*%
X195961000Y-88011000D02*
X196342000Y-87630000D01*
X196342000Y-87630000D02*
X196342000Y-84328000D01*
X196342000Y-84328000D02*
X197866000Y-82804000D01*
X208534000Y-83566000D02*
X208534000Y-84328000D01*
X195453000Y-88011000D02*
X195961000Y-88011000D01*
X197866000Y-82804000D02*
X207772000Y-82804000D01*
X207772000Y-82804000D02*
X208534000Y-83566000D01*
%TO.N,FLT_A*%
X95631000Y-72136000D02*
X94255500Y-72136000D01*
D30*
%TO.N,RDY_A*%
X118237000Y-63795000D02*
X118280000Y-63838000D01*
X118237000Y-62579000D02*
X118237000Y-63795000D01*
D28*
X94255500Y-69977000D02*
X94742000Y-69977000D01*
X94742000Y-69977000D02*
X95631000Y-70866000D01*
%TO.N,Current_A_out*%
X102891500Y-139170500D02*
X102870000Y-139192000D01*
X104140000Y-139170500D02*
X102891500Y-139170500D01*
X104193500Y-139224000D02*
X104140000Y-139170500D01*
X106426000Y-139224000D02*
X104193500Y-139224000D01*
%TO.N,Net-(D11-Output)*%
X106722000Y-141520000D02*
X106426000Y-141224000D01*
X108300000Y-141520000D02*
X106722000Y-141520000D01*
%TO.N,Net-(D14-Output)*%
X155330785Y-141520000D02*
X153728000Y-141520000D01*
X153728000Y-141520000D02*
X153416000Y-141208000D01*
%TO.N,Net-(D15-Output)*%
X202330785Y-141520000D02*
X200718000Y-141520000D01*
X200718000Y-141520000D02*
X200406000Y-141208000D01*
%TO.N,+15V_L2*%
X151091500Y-86614000D02*
X151091500Y-89192500D01*
X151091500Y-86614000D02*
X151091500Y-84532500D01*
X151091500Y-89192500D02*
X151003000Y-89281000D01*
X151091500Y-84532500D02*
X151130000Y-84494000D01*
D30*
%TO.N,+5V_B*%
X145731000Y-127315000D02*
X147788500Y-127315000D01*
D28*
X162532000Y-111760000D02*
X162532000Y-109400000D01*
X162532000Y-109400000D02*
X163982000Y-107950000D01*
D30*
X147788500Y-127315000D02*
X147828000Y-127275500D01*
D28*
%TO.N,+15V_L3*%
X197993000Y-86652500D02*
X197954500Y-86614000D01*
X197954500Y-86614000D02*
X197954500Y-84747500D01*
X197993000Y-89281000D02*
X197993000Y-86652500D01*
X197954500Y-84747500D02*
X198120000Y-84582000D01*
%TO.N,Net-(D19-A)*%
X121031000Y-60579000D02*
X121031000Y-59563000D01*
%TO.N,Current_B_out*%
X149881500Y-139170500D02*
X149860000Y-139192000D01*
X153416000Y-139208000D02*
X151167500Y-139208000D01*
X151167500Y-139208000D02*
X151130000Y-139170500D01*
X151130000Y-139170500D02*
X149881500Y-139170500D01*
%TO.N,Current_C_out*%
X196871500Y-139170500D02*
X196850000Y-139192000D01*
X200406000Y-139208000D02*
X198157500Y-139208000D01*
X198120000Y-139170500D02*
X196871500Y-139170500D01*
X198157500Y-139208000D02*
X198120000Y-139170500D01*
D30*
%TO.N,+5V_A*%
X101092000Y-127275500D02*
X99081500Y-127275500D01*
X99081500Y-127275500D02*
X98994000Y-127188000D01*
D28*
X115288000Y-109400000D02*
X115288000Y-111732000D01*
X116738000Y-107950000D02*
X115288000Y-109400000D01*
X115288000Y-111732000D02*
X115316000Y-111760000D01*
%TO.N,~{RST}*%
X137922000Y-65786000D02*
X136906000Y-66802000D01*
X125476000Y-69596000D02*
X118110000Y-69596000D01*
X118110000Y-69596000D02*
X116332000Y-67818000D01*
X183883359Y-65024000D02*
X191802000Y-65024000D01*
X174752000Y-66802000D02*
X182105359Y-66802000D01*
X128270000Y-66802000D02*
X125476000Y-69596000D01*
X148782000Y-63134000D02*
X146130000Y-65786000D01*
X172212000Y-69342000D02*
X174752000Y-66802000D01*
X116332000Y-67818000D02*
X116078000Y-67818000D01*
X182105359Y-66802000D02*
X183883359Y-65024000D01*
X165100000Y-69342000D02*
X172212000Y-69342000D01*
X136906000Y-66802000D02*
X128270000Y-66802000D01*
X191802000Y-65024000D02*
X193692000Y-63134000D01*
X146130000Y-65786000D02*
X137922000Y-65786000D01*
X163576000Y-67818000D02*
X165100000Y-69342000D01*
%TO.N,Temp_B_P*%
X165162000Y-124206000D02*
X164412000Y-123456000D01*
X164412000Y-122626082D02*
X164312000Y-122526082D01*
X167728000Y-85245918D02*
X167163400Y-84681318D01*
X164412000Y-121721918D02*
X164412000Y-113898868D01*
X164412000Y-113898868D02*
X167163400Y-111147468D01*
X151782000Y-65181813D02*
X151782000Y-63134000D01*
X167163400Y-77930132D02*
X155851468Y-66618200D01*
X164312000Y-122526082D02*
X164312000Y-121821918D01*
X167728000Y-90903082D02*
X167728000Y-85245918D01*
X155851468Y-66618200D02*
X153218387Y-66618200D01*
X153218387Y-66618200D02*
X151782000Y-65181813D01*
X164412000Y-123456000D02*
X164412000Y-122626082D01*
X164312000Y-121821918D02*
X164412000Y-121721918D01*
X167163400Y-84681318D02*
X167163400Y-77930132D01*
X167163400Y-91467682D02*
X167728000Y-90903082D01*
X167163400Y-111147468D02*
X167163400Y-91467682D01*
%TO.N,Temp_B_N*%
X167913400Y-91778314D02*
X168477980Y-91213734D01*
X156079932Y-65786000D02*
X154178000Y-65786000D01*
X167913400Y-111458132D02*
X167913400Y-91778314D01*
X167913400Y-77619468D02*
X156079932Y-65786000D01*
X167913400Y-84370686D02*
X167913400Y-77619468D01*
X168477980Y-84935266D02*
X167913400Y-84370686D01*
X154178000Y-65786000D02*
X153162000Y-64770000D01*
X153162000Y-64770000D02*
X153162000Y-61514000D01*
X165162000Y-114209532D02*
X167913400Y-111458132D01*
X165162000Y-122174000D02*
X165162000Y-114209532D01*
X168477980Y-91213734D02*
X168477980Y-84935266D01*
X153162000Y-61514000D02*
X151782000Y-60134000D01*
%TO.N,RDY_B*%
X141499500Y-69977000D02*
X142113000Y-69977000D01*
X166624000Y-62468000D02*
X166624000Y-63668000D01*
X142113000Y-69977000D02*
X142875000Y-70739000D01*
%TO.N,FLT_B*%
X142748000Y-72136000D02*
X141515500Y-72136000D01*
%TO.N,RDY_C*%
X212090000Y-62468000D02*
X212090000Y-63668000D01*
X188108500Y-69977000D02*
X188849000Y-69977000D01*
X188849000Y-69977000D02*
X189484000Y-70612000D01*
%TO.N,FLT_C*%
X189484000Y-72009000D02*
X188235500Y-72009000D01*
X188235500Y-72009000D02*
X188108500Y-72136000D01*
%TO.N,Net-(D27-A)*%
X163830000Y-60468000D02*
X163830000Y-59436000D01*
%TO.N,Net-(D28-A)*%
X166624000Y-60468000D02*
X166624000Y-59436000D01*
%TO.N,Net-(D29-A)*%
X169418000Y-60468000D02*
X169418000Y-59436000D01*
%TO.N,Net-(D30-A)*%
X209296000Y-60468000D02*
X209296000Y-59436000D01*
%TO.N,Net-(D49-A)*%
X212090000Y-60468000D02*
X212090000Y-59436000D01*
%TO.N,Net-(D50-A)*%
X214884000Y-60468000D02*
X214884000Y-59436000D01*
%TO.N,Temp_C_P*%
X210986000Y-122780082D02*
X210986000Y-122075918D01*
X211086000Y-122880082D02*
X210986000Y-122780082D01*
X198430387Y-66415000D02*
X196692000Y-64676613D01*
X211086000Y-117059668D02*
X214001000Y-114144668D01*
X196692000Y-64676613D02*
X196692000Y-63134000D01*
X211086000Y-123456000D02*
X211086000Y-122880082D01*
X210986000Y-122075918D02*
X211086000Y-121975918D01*
X214509000Y-77879332D02*
X203044668Y-66415000D01*
X214001000Y-114144668D02*
X214001000Y-93570668D01*
X211086000Y-121975918D02*
X211086000Y-117059668D01*
X211836000Y-124206000D02*
X211086000Y-123456000D01*
X214001000Y-93570668D02*
X214509000Y-93062668D01*
X214509000Y-93062668D02*
X214509000Y-77879332D01*
X203044668Y-66415000D02*
X198430387Y-66415000D01*
%TO.N,Temp_C_N*%
X203355332Y-65665000D02*
X198741051Y-65665000D01*
X211836000Y-122121148D02*
X211836000Y-117370332D01*
X214751000Y-93881332D02*
X215259000Y-93373332D01*
X215259000Y-77568668D02*
X203355332Y-65665000D01*
X198058031Y-64981980D02*
X198058031Y-61500031D01*
X215259000Y-93373332D02*
X215259000Y-77568668D01*
X211836000Y-117370332D02*
X214751000Y-114455332D01*
X198741051Y-65665000D02*
X198058031Y-64981980D01*
X214751000Y-114455332D02*
X214751000Y-93881332D01*
X198058031Y-61500031D02*
X196692000Y-60134000D01*
X211907821Y-122192969D02*
X211836000Y-122121148D01*
%TO.N,-15V_L3*%
X203708000Y-88646000D02*
X205740000Y-88646000D01*
D30*
X195812500Y-125200500D02*
X196850000Y-126238000D01*
D28*
X195033000Y-90258000D02*
X202096000Y-90258000D01*
X205740000Y-88646000D02*
X206159500Y-88226500D01*
X202096000Y-90258000D02*
X203073000Y-89281000D01*
D30*
X194818000Y-125200500D02*
X195812500Y-125200500D01*
D28*
X212365500Y-103124000D02*
X212725000Y-103483500D01*
X206159500Y-86614000D02*
X207264000Y-86614000D01*
X212725000Y-109220000D02*
X211695000Y-110250000D01*
X207553995Y-98552005D02*
X207793505Y-98552005D01*
X206159500Y-88226500D02*
X206159500Y-86614000D01*
X212725000Y-103483500D02*
X212725000Y-109220000D01*
X207793505Y-98552005D02*
X212365500Y-103124000D01*
X203073000Y-89281000D02*
X203708000Y-88646000D01*
X211695000Y-110250000D02*
X210718000Y-110250000D01*
X210718000Y-111608000D02*
X210718000Y-110250000D01*
X194183000Y-89408000D02*
X195033000Y-90258000D01*
%TO.N,-15V_L2*%
X160528000Y-98552000D02*
X161057500Y-98552000D01*
X147193000Y-89408000D02*
X148209000Y-90424000D01*
X156383132Y-88900000D02*
X159004000Y-88900000D01*
X156083000Y-89200132D02*
X156383132Y-88900000D01*
X165629500Y-103124000D02*
X166000000Y-103494500D01*
X148209000Y-90424000D02*
X154859132Y-90424000D01*
X166000000Y-109000000D02*
X164750000Y-110250000D01*
X159296500Y-86614000D02*
X160528000Y-86614000D01*
X159004000Y-88900000D02*
X159296500Y-88607500D01*
X154859132Y-90424000D02*
X156083000Y-89200132D01*
X159296500Y-88607500D02*
X159296500Y-86614000D01*
D30*
X148803459Y-126175959D02*
X147828000Y-125200500D01*
D28*
X163982000Y-111608000D02*
X163982000Y-110250000D01*
X164750000Y-110250000D02*
X163982000Y-110250000D01*
X161057500Y-98552000D02*
X165629500Y-103124000D01*
X166000000Y-103494500D02*
X166000000Y-109000000D01*
D30*
X149924959Y-126175959D02*
X148803459Y-126175959D01*
D28*
%TO.N,~{RST_B}*%
X165354000Y-52070000D02*
X170942000Y-57658000D01*
X170942000Y-57658000D02*
X170942000Y-66548000D01*
X170942000Y-66548000D02*
X169672000Y-67818000D01*
%TO.N,~{RST_A}*%
X120904000Y-67818000D02*
X122682000Y-66040000D01*
X122682000Y-57166000D02*
X117602000Y-52086000D01*
X122682000Y-66040000D02*
X122682000Y-57166000D01*
%TO.N,~{RST_C}*%
X216408000Y-66294000D02*
X214884000Y-67818000D01*
X210312000Y-52070000D02*
X216408000Y-58166000D01*
X216408000Y-58166000D02*
X216408000Y-66294000D01*
%TD*%
M02*
