M48
; DRILL file {KiCad 8.0.8} date 2025-03-11T11:39:31+0300
; FORMAT={-:-/ absolute / inch / decimal}
; #@! TF.CreationDate,2025-03-11T11:39:31+03:00
; #@! TF.GenerationSoftware,Kicad,Pcbnew,8.0.8
; #@! TF.FileFunction,Plated,1,6,PTH
FMAT,2
INCH
; #@! TA.AperFunction,Plated,PTH,ViaDrill
T1C0.0157
; #@! TA.AperFunction,Plated,PTH,ComponentDrill
T2C0.0197
; #@! TA.AperFunction,Plated,PTH,ComponentDrill
T3C0.0394
; #@! TA.AperFunction,Plated,PTH,ComponentDrill
T4C0.0402
; #@! TA.AperFunction,Plated,PTH,ComponentDrill
T5C0.0472
; #@! TA.AperFunction,Plated,PTH,ComponentDrill
T6C0.0591
%
G90
G05
T1
X3.06Y-3.87
X3.06Y-3.91
X3.13Y-4.15
X3.14Y-3.95
X3.295Y-3.785
X3.3Y-3.95
X3.31Y-4.15
X3.36Y-2.475
X3.38Y-4.03
X3.38Y-4.18
X3.47Y-3.34
X3.51Y-2.475
X3.52Y-4.22
X3.5824Y-2.755
X3.585Y-4.005
X3.5971Y-3.4771
X3.6181Y-2.0394
X3.63Y-2.7038
X3.6506Y-3.52
X3.68Y-4.22
X3.69Y-3.52
X3.69Y-4.02
X3.7087Y-2.0394
X3.71Y-3.34
X3.72Y-2.935
X3.72Y-2.98
X3.72Y-3.09
X3.72Y-3.13
X3.735Y-3.52
X3.765Y-2.79
X3.765Y-2.84
X3.785Y-4.005
X3.835Y-3.515
X3.835Y-4.005
X3.84Y-3.29
X3.8419Y-2.7319
X3.86Y-4.735
X3.8974Y-4.9326
X3.8974Y-5.0074
X3.94Y-4.735
X3.94Y-4.885
X3.945Y-3.515
X3.945Y-4.055
X3.97Y-2.84
X3.995Y-3.515
X3.9999Y-3.47
X4.02Y-4.72
X4.025Y-5.055
X4.0378Y-4.9009
X4.04Y-4.0
X4.05Y-5.48
X4.0691Y-4.9691
X4.07Y-4.18
X4.08Y-4.305
X4.08Y-4.345
X4.08Y-4.385
X4.09Y-4.0
X4.095Y-3.515
X4.1Y-4.655
X4.1Y-5.6
X4.11Y-3.3128
X4.1181Y-2.0394
X4.13Y-4.0
X4.14Y-4.655
X4.15Y-5.09
X4.15Y-5.1708
X4.155Y-4.85
X4.16Y-4.77
X4.18Y-4.655
X4.19Y-4.075
X4.195Y-3.5165
X4.2047Y-2.0394
X4.27Y-3.3142
X4.2908Y-3.5192
X4.31Y-4.19
X4.47Y-4.925
X4.4711Y-4.8016
X4.48Y-3.41
X4.4945Y-2.4851
X4.4974Y-2.1774
X4.52Y-3.32
X4.54Y-4.4
X4.545Y-2.345
X4.545Y-2.5116
X4.55Y-3.37
X4.55Y-3.57
X4.55Y-3.75
X4.57Y-2.67
X4.575Y-2.575
X4.58Y-2.18
X4.596Y-4.396
X4.63Y-2.0506
X4.63Y-4.99
X4.655Y-2.345
X4.6567Y-2.5133
X4.665Y-4.81
X4.665Y-4.89
X4.67Y-3.75
X4.67Y-3.8
X4.68Y-5.12
X4.71Y-3.37
X4.71Y-3.57
X4.7157Y-2.515
X4.76Y-2.67
X4.765Y-2.345
X4.765Y-2.512
X4.8965Y-3.86
X4.8965Y-3.9
X4.98Y-3.955
X4.985Y-4.15
X5.135Y-3.785
X5.135Y-3.955
X5.135Y-4.15
X5.22Y-4.18
X5.24Y-2.475
X5.32Y-3.34
X5.33Y-4.0
X5.38Y-4.22
X5.39Y-2.475
X5.435Y-4.0
X5.44Y-2.755
X5.445Y-3.48
X5.49Y-2.7
X5.4958Y-3.5238
X5.53Y-4.19
X5.535Y-3.52
X5.535Y-4.0
X5.56Y-3.35
X5.57Y-2.975
X5.5712Y-2.9362
X5.572Y-3.09
X5.572Y-3.128
X5.585Y-3.52
X5.62Y-2.84
X5.625Y-2.785
X5.635Y-4.0
X5.68Y-2.725
X5.685Y-3.52
X5.685Y-4.0
X5.69Y-3.29
X5.6929Y-2.0394
X5.72Y-4.735
X5.7374Y-4.9376
X5.7374Y-5.0124
X5.7799Y-4.8899
X5.78Y-4.735
X5.7835Y-2.0394
X5.795Y-3.52
X5.795Y-4.05
X5.825Y-2.835
X5.84Y-3.465
X5.845Y-3.52
X5.86Y-4.735
X5.8624Y-5.055
X5.8752Y-4.9009
X5.895Y-4.0
X5.9Y-5.48
X5.9026Y-4.9676
X5.92Y-4.175
X5.93Y-4.31
X5.93Y-4.35
X5.93Y-4.39
X5.945Y-3.515
X5.945Y-4.0
X5.95Y-3.3265
X5.95Y-5.6
X5.955Y-4.655
X5.9844Y-3.9993
X5.9924Y-4.85
X5.995Y-4.655
X6.0Y-4.77
X6.0Y-5.0892
X6.0008Y-5.1708
X6.0039Y-2.0394
X6.035Y-4.655
X6.04Y-4.075
X6.045Y-3.515
X6.0906Y-2.0394
X6.11Y-3.33
X6.145Y-3.5118
X6.16Y-4.17
X6.3136Y-4.7985
X6.315Y-4.925
X6.32Y-3.41
X6.36Y-3.32
X6.3774Y-2.1774
X6.3988Y-2.4732
X6.3989Y-4.4
X6.41Y-3.37
X6.415Y-3.57
X6.415Y-3.75
X6.44Y-2.67
X6.45Y-2.34
X6.45Y-2.5066
X6.456Y-4.394
X6.46Y-2.18
X6.47Y-5.0
X6.47Y-5.16
X6.475Y-2.5715
X6.5024Y-4.81
X6.5024Y-4.89
X6.51Y-2.05
X6.53Y-3.74
X6.53Y-3.79
X6.56Y-2.34
X6.56Y-2.5066
X6.565Y-3.57
X6.57Y-3.37
X6.615Y-2.51
X6.67Y-2.34
X6.67Y-2.5066
X6.68Y-2.67
X6.74Y-3.85
X6.7402Y-3.89
X6.825Y-3.95
X6.825Y-4.15
X6.975Y-3.78
X6.975Y-3.95
X6.975Y-4.15
X7.03Y-2.475
X7.06Y-4.19
X7.1692Y-3.34
X7.18Y-2.475
X7.18Y-4.0
X7.23Y-4.22
X7.2774Y-2.755
X7.285Y-4.0
X7.29Y-3.47
X7.325Y-2.7038
X7.34Y-3.52
X7.38Y-4.0
X7.385Y-3.52
X7.39Y-4.19
X7.41Y-3.34
X7.42Y-2.945
X7.42Y-2.985
X7.42Y-3.092
X7.42Y-3.132
X7.435Y-3.52
X7.4567Y-2.0433
X7.46Y-2.78
X7.46Y-2.835
X7.485Y-4.0
X7.535Y-3.52
X7.535Y-4.0
X7.54Y-2.725
X7.54Y-3.285
X7.5433Y-2.0433
X7.56Y-4.73
X7.58Y-4.93
X7.58Y-5.01
X7.62Y-4.88
X7.63Y-4.73
X7.645Y-3.52
X7.645Y-4.06
X7.67Y-2.835
X7.695Y-3.465
X7.695Y-3.52
X7.71Y-4.74
X7.7146Y-5.0555
X7.74Y-4.9
X7.745Y-4.005
X7.75Y-4.97
X7.75Y-5.48
X7.7706Y-4.1706
X7.7756Y-2.0433
X7.78Y-4.335
X7.78Y-4.375
X7.78Y-4.415
X7.795Y-3.515
X7.795Y-4.005
X7.8Y-3.33
X7.8Y-4.655
X7.8Y-5.6
X7.84Y-4.0
X7.84Y-4.655
X7.84Y-4.86
X7.85Y-4.77
X7.85Y-5.09
X7.85Y-5.17
X7.8622Y-2.0433
X7.88Y-4.655
X7.895Y-3.51
X7.895Y-4.075
X7.96Y-3.33
X7.995Y-3.515
X8.01Y-4.175
X8.1474Y-2.1774
X8.15Y-4.8
X8.155Y-4.92
X8.16Y-3.41
X8.1888Y-2.475
X8.21Y-3.32
X8.23Y-2.18
X8.24Y-2.34
X8.24Y-2.5066
X8.24Y-4.4
X8.25Y-3.37
X8.255Y-3.57
X8.255Y-3.745
X8.265Y-2.57
X8.28Y-2.05
X8.296Y-4.394
X8.31Y-4.99
X8.31Y-5.16
X8.34Y-4.89
X8.3428Y-4.8107
X8.35Y-2.34
X8.35Y-2.5066
X8.37Y-3.75
X8.37Y-3.8
X8.405Y-3.57
X8.41Y-2.51
X8.41Y-3.37
X8.46Y-2.34
X8.46Y-2.5066
X8.46Y-2.67
X8.735Y-3.115
X8.735Y-3.2
X8.945Y-2.575
X8.945Y-2.61
X8.945Y-2.645
X8.945Y-2.71
X8.945Y-2.75
X8.945Y-2.79
X8.945Y-2.83
X8.945Y-2.87
X8.945Y-2.94
X8.945Y-2.98
X8.945Y-3.02
T2
X4.2638Y-5.4717
X4.2638Y-5.5217
X4.2638Y-5.5717
X6.1154Y-5.4717
X6.1154Y-5.5217
X6.1154Y-5.5717
X7.9658Y-5.4717
X7.9658Y-5.5217
X7.9658Y-5.5717
T3
X3.3086Y-2.95
X3.3086Y-3.05
X3.3086Y-3.15
X3.3086Y-3.35
X3.3086Y-3.45
X3.3086Y-3.55
X3.3086Y-3.65
X4.47Y-3.88
X4.47Y-3.98
X4.47Y-4.08
X4.47Y-4.18
X4.47Y-4.38
X4.47Y-4.48
X4.47Y-4.58
X5.1586Y-2.95
X5.1586Y-3.05
X5.1586Y-3.15
X5.1586Y-3.35
X5.1586Y-3.45
X5.1586Y-3.55
X5.1586Y-3.65
X6.32Y-3.88
X6.32Y-3.98
X6.32Y-4.08
X6.32Y-4.18
X6.32Y-4.38
X6.32Y-4.48
X6.32Y-4.58
X7.01Y-2.95
X7.01Y-3.05
X7.01Y-3.15
X7.01Y-3.35
X7.01Y-3.45
X7.01Y-3.55
X7.01Y-3.65
X8.1714Y-3.88
X8.1714Y-3.98
X8.1714Y-4.08
X8.1714Y-4.18
X8.1714Y-4.38
X8.1714Y-4.48
X8.1714Y-4.58
T4
X3.7347Y-2.3675
X3.7347Y-2.4856
X3.8528Y-2.3675
X3.8528Y-2.4856
X3.9709Y-2.3675
X3.9709Y-2.4856
X4.0891Y-2.3675
X4.0891Y-2.4856
X4.2072Y-2.3675
X4.2072Y-2.4856
X4.3253Y-2.3675
X4.3253Y-2.4856
X5.6213Y-2.3675
X5.6213Y-2.4856
X5.7394Y-2.3675
X5.7394Y-2.4856
X5.8576Y-2.3675
X5.8576Y-2.4856
X5.9757Y-2.3675
X5.9757Y-2.4856
X6.0938Y-2.3675
X6.0938Y-2.4856
X6.2119Y-2.3675
X6.2119Y-2.4856
X7.3894Y-2.3675
X7.3894Y-2.4856
X7.5076Y-2.3675
X7.5076Y-2.4856
X7.6257Y-2.3675
X7.6257Y-2.4856
X7.7438Y-2.3675
X7.7438Y-2.4856
X7.8619Y-2.3675
X7.8619Y-2.4856
X7.98Y-2.3675
X7.98Y-2.4856
T5
X8.69Y-2.685
X8.69Y-2.785
X8.69Y-2.885
T6
X3.4567Y-2.8091
X3.5335Y-4.7106
X3.6929Y-4.7106
X4.0945Y-2.8091
X4.2539Y-2.8091
X4.8012Y-4.8169
X4.8563Y-4.1083
X4.8563Y-4.4035
X5.3071Y-2.8091
X5.3839Y-4.7106
X5.5433Y-4.7106
X5.9449Y-2.8091
X6.1043Y-2.8091
X6.6516Y-4.8169
X6.7067Y-4.1083
X6.7067Y-4.4035
X7.1575Y-2.8091
X7.2343Y-4.7106
X7.3937Y-4.7106
X7.7953Y-2.8091
X7.9547Y-2.8091
X8.502Y-4.8169
X8.5571Y-4.1083
X8.5571Y-4.4035
M30
