%TF.GenerationSoftware,KiCad,Pcbnew,8.0.5-8.0.5-0~ubuntu24.04.1*%
%TF.CreationDate,2024-10-22T13:11:47+03:00*%
%TF.ProjectId,Adapter,41646170-7465-4722-9e6b-696361645f70,rev?*%
%TF.SameCoordinates,Original*%
%TF.FileFunction,Paste,Bot*%
%TF.FilePolarity,Positive*%
%FSLAX46Y46*%
G04 Gerber Fmt 4.6, Leading zero omitted, Abs format (unit mm)*
G04 Created by KiCad (PCBNEW 8.0.5-8.0.5-0~ubuntu24.04.1) date 2024-10-22 13:11:47*
%MOMM*%
%LPD*%
G01*
G04 APERTURE LIST*
G04 Aperture macros list*
%AMRoundRect*
0 Rectangle with rounded corners*
0 $1 Rounding radius*
0 $2 $3 $4 $5 $6 $7 $8 $9 X,Y pos of 4 corners*
0 Add a 4 corners polygon primitive as box body*
4,1,4,$2,$3,$4,$5,$6,$7,$8,$9,$2,$3,0*
0 Add four circle primitives for the rounded corners*
1,1,$1+$1,$2,$3*
1,1,$1+$1,$4,$5*
1,1,$1+$1,$6,$7*
1,1,$1+$1,$8,$9*
0 Add four rect primitives between the rounded corners*
20,1,$1+$1,$2,$3,$4,$5,0*
20,1,$1+$1,$4,$5,$6,$7,0*
20,1,$1+$1,$6,$7,$8,$9,0*
20,1,$1+$1,$8,$9,$2,$3,0*%
G04 Aperture macros list end*
%ADD10RoundRect,0.250000X0.337500X0.475000X-0.337500X0.475000X-0.337500X-0.475000X0.337500X-0.475000X0*%
%ADD11RoundRect,0.250000X0.350000X0.450000X-0.350000X0.450000X-0.350000X-0.450000X0.350000X-0.450000X0*%
%ADD12RoundRect,0.250000X-0.337500X-0.475000X0.337500X-0.475000X0.337500X0.475000X-0.337500X0.475000X0*%
%ADD13RoundRect,0.250000X-0.450000X0.350000X-0.450000X-0.350000X0.450000X-0.350000X0.450000X0.350000X0*%
%ADD14RoundRect,0.250000X-0.475000X0.337500X-0.475000X-0.337500X0.475000X-0.337500X0.475000X0.337500X0*%
%ADD15RoundRect,0.250000X0.475000X-0.337500X0.475000X0.337500X-0.475000X0.337500X-0.475000X-0.337500X0*%
%ADD16RoundRect,0.225000X0.225000X0.375000X-0.225000X0.375000X-0.225000X-0.375000X0.225000X-0.375000X0*%
%ADD17RoundRect,0.250000X-0.350000X-0.450000X0.350000X-0.450000X0.350000X0.450000X-0.350000X0.450000X0*%
%ADD18RoundRect,0.375000X-0.625000X-0.375000X0.625000X-0.375000X0.625000X0.375000X-0.625000X0.375000X0*%
%ADD19RoundRect,0.500000X-0.500000X-1.400000X0.500000X-1.400000X0.500000X1.400000X-0.500000X1.400000X0*%
%ADD20RoundRect,0.225000X-0.225000X-0.375000X0.225000X-0.375000X0.225000X0.375000X-0.225000X0.375000X0*%
G04 APERTURE END LIST*
D10*
%TO.C,C6*%
X129561500Y-100330000D03*
X127486500Y-100330000D03*
%TD*%
%TO.C,C83*%
X141515500Y-72136000D03*
X139440500Y-72136000D03*
%TD*%
D11*
%TO.C,R105*%
X139938000Y-122174000D03*
X137938000Y-122174000D03*
%TD*%
D10*
%TO.C,C62*%
X107717500Y-87630000D03*
X105642500Y-87630000D03*
%TD*%
D12*
%TO.C,C1*%
X86211500Y-64008000D03*
X88286500Y-64008000D03*
%TD*%
D13*
%TO.C,R37*%
X115443000Y-60595000D03*
X115443000Y-62595000D03*
%TD*%
D12*
%TO.C,C67*%
X136884500Y-103124000D03*
X138959500Y-103124000D03*
%TD*%
%TO.C,C89*%
X179429500Y-64008000D03*
X181504500Y-64008000D03*
%TD*%
D13*
%TO.C,R94*%
X212090000Y-60468000D03*
X212090000Y-62468000D03*
%TD*%
D14*
%TO.C,C77*%
X109982000Y-127994500D03*
X109982000Y-130069500D03*
%TD*%
%TO.C,C76*%
X112522000Y-122152500D03*
X112522000Y-124227500D03*
%TD*%
D10*
%TO.C,C86*%
X188108500Y-69977000D03*
X186033500Y-69977000D03*
%TD*%
D12*
%TO.C,C5*%
X163808500Y-90678000D03*
X165883500Y-90678000D03*
%TD*%
D14*
%TO.C,C21*%
X110236000Y-139170500D03*
X110236000Y-141245500D03*
%TD*%
D10*
%TO.C,C46*%
X94255500Y-69977000D03*
X92180500Y-69977000D03*
%TD*%
D15*
%TO.C,C28*%
X194818000Y-127529500D03*
X194818000Y-125454500D03*
%TD*%
D12*
%TO.C,C73*%
X183747500Y-103124000D03*
X185822500Y-103124000D03*
%TD*%
D16*
%TO.C,D46*%
X201802000Y-85344000D03*
X198502000Y-85344000D03*
%TD*%
D13*
%TO.C,R96*%
X214884000Y-60468000D03*
X214884000Y-62468000D03*
%TD*%
D12*
%TO.C,C35*%
X116564500Y-90678000D03*
X118639500Y-90678000D03*
%TD*%
D14*
%TO.C,C40*%
X203454000Y-127994500D03*
X203454000Y-130069500D03*
%TD*%
D17*
%TO.C,R108*%
X199152000Y-68834000D03*
X201152000Y-68834000D03*
%TD*%
D14*
%TO.C,C78*%
X115062000Y-127994500D03*
X115062000Y-130069500D03*
%TD*%
D11*
%TO.C,R107*%
X186674000Y-122174000D03*
X184674000Y-122174000D03*
%TD*%
D18*
%TO.C,U7*%
X116738000Y-110250000D03*
X116738000Y-107950000D03*
X116738000Y-105650000D03*
D19*
X123038000Y-107950000D03*
%TD*%
D12*
%TO.C,C55*%
X163554500Y-103124000D03*
X165629500Y-103124000D03*
%TD*%
D14*
%TO.C,C42*%
X205994000Y-122406500D03*
X205994000Y-124481500D03*
%TD*%
D16*
%TO.C,D40*%
X155066000Y-85344000D03*
X151766000Y-85344000D03*
%TD*%
D20*
%TO.C,D45*%
X183621500Y-105410000D03*
X186921500Y-105410000D03*
%TD*%
D18*
%TO.C,U2*%
X210718000Y-110250000D03*
X210718000Y-107950000D03*
X210718000Y-105650000D03*
D19*
X217018000Y-107950000D03*
%TD*%
D10*
%TO.C,C8*%
X176297500Y-100330000D03*
X174222500Y-100330000D03*
%TD*%
D13*
%TO.C,R90*%
X209296000Y-60468000D03*
X209296000Y-62468000D03*
%TD*%
D11*
%TO.C,R104*%
X92948000Y-122174000D03*
X90948000Y-122174000D03*
%TD*%
D14*
%TO.C,C52*%
X156718000Y-127994500D03*
X156718000Y-130069500D03*
%TD*%
D16*
%TO.C,D34*%
X107822000Y-85344000D03*
X104522000Y-85344000D03*
%TD*%
D13*
%TO.C,R88*%
X166624000Y-60468000D03*
X166624000Y-62468000D03*
%TD*%
D14*
%TO.C,C25*%
X204216000Y-139170500D03*
X204216000Y-141245500D03*
%TD*%
D20*
%TO.C,D39*%
X136780000Y-105410000D03*
X140080000Y-105410000D03*
%TD*%
D12*
%TO.C,C84*%
X145139500Y-70612000D03*
X147214500Y-70612000D03*
%TD*%
D15*
%TO.C,C75*%
X101092000Y-127275500D03*
X101092000Y-125200500D03*
%TD*%
D13*
%TO.C,R87*%
X163830000Y-60468000D03*
X163830000Y-62468000D03*
%TD*%
D10*
%TO.C,C34*%
X82825500Y-100330000D03*
X80750500Y-100330000D03*
%TD*%
D18*
%TO.C,U3*%
X163982000Y-110250000D03*
X163982000Y-107950000D03*
X163982000Y-105650000D03*
D19*
X170282000Y-107950000D03*
%TD*%
D12*
%TO.C,C61*%
X89894500Y-103124000D03*
X91969500Y-103124000D03*
%TD*%
%TO.C,C7*%
X210544500Y-90678000D03*
X212619500Y-90678000D03*
%TD*%
%TO.C,C2*%
X98149500Y-70739000D03*
X100224500Y-70739000D03*
%TD*%
D13*
%TO.C,R89*%
X169418000Y-60468000D03*
X169418000Y-62468000D03*
%TD*%
%TO.C,R38*%
X118237000Y-60579000D03*
X118237000Y-62579000D03*
%TD*%
D12*
%TO.C,C88*%
X192129500Y-70612000D03*
X194204500Y-70612000D03*
%TD*%
D14*
%TO.C,C51*%
X159258000Y-122152500D03*
X159258000Y-124227500D03*
%TD*%
D10*
%TO.C,C74*%
X201697500Y-87630000D03*
X199622500Y-87630000D03*
%TD*%
%TO.C,C68*%
X154961500Y-87630000D03*
X152886500Y-87630000D03*
%TD*%
D14*
%TO.C,C23*%
X157226000Y-139170500D03*
X157226000Y-141245500D03*
%TD*%
D20*
%TO.C,D33*%
X89790000Y-105410000D03*
X93090000Y-105410000D03*
%TD*%
D17*
%TO.C,R103*%
X105172000Y-68834000D03*
X107172000Y-68834000D03*
%TD*%
D13*
%TO.C,R55*%
X121031000Y-60579000D03*
X121031000Y-62579000D03*
%TD*%
D10*
%TO.C,C87*%
X188108500Y-72136000D03*
X186033500Y-72136000D03*
%TD*%
D12*
%TO.C,C80*%
X116310500Y-103124000D03*
X118385500Y-103124000D03*
%TD*%
%TO.C,C85*%
X133963500Y-64008000D03*
X136038500Y-64008000D03*
%TD*%
D17*
%TO.C,R106*%
X152416000Y-68834000D03*
X154416000Y-68834000D03*
%TD*%
D14*
%TO.C,C41*%
X208534000Y-127994500D03*
X208534000Y-130069500D03*
%TD*%
%TO.C,C53*%
X161798000Y-127994500D03*
X161798000Y-130069500D03*
%TD*%
D12*
%TO.C,C27*%
X210290500Y-103124000D03*
X212365500Y-103124000D03*
%TD*%
D15*
%TO.C,C50*%
X147828000Y-127275500D03*
X147828000Y-125200500D03*
%TD*%
D10*
%TO.C,C82*%
X141499500Y-69977000D03*
X139424500Y-69977000D03*
%TD*%
%TO.C,C45*%
X94255500Y-72136000D03*
X92180500Y-72136000D03*
%TD*%
M02*
