M48
; DRILL file {KiCad 8.0.5-8.0.5-0~ubuntu24.04.1} date 2024-10-22T13:12:23+0300
; FORMAT={-:-/ absolute / metric / decimal}
; #@! TF.CreationDate,2024-10-22T13:12:23+03:00
; #@! TF.GenerationSoftware,Kicad,Pcbnew,8.0.5-8.0.5-0~ubuntu24.04.1
; #@! TF.FileFunction,Plated,1,6,PTH
FMAT,2
METRIC
; #@! TA.AperFunction,Plated,PTH,ViaDrill
T1C0.400
; #@! TA.AperFunction,Plated,PTH,ComponentDrill
T2C0.500
; #@! TA.AperFunction,Plated,PTH,ComponentDrill
T3C1.000
; #@! TA.AperFunction,Plated,PTH,ComponentDrill
T4C1.020
; #@! TA.AperFunction,Plated,PTH,ComponentDrill
T5C1.200
; #@! TA.AperFunction,Plated,PTH,ComponentDrill
T6C1.500
%
G90
G05
T1
X79.502Y-105.41
X79.756Y-100.33
X83.693Y-96.139
X83.82Y-100.33
X84.074Y-105.41
X85.344Y-62.865
X85.852Y-102.362
X87.63Y-104.394
X88.138Y-84.836
X89.154Y-62.865
X89.789Y-101.727
X90.993Y-69.977
X91.059Y-101.727
X91.367Y-88.319
X92.202Y-68.677
X92.726Y-89.408
X93.726Y-89.408
X93.98Y-107.53
X94.234Y-84.836
X94.488Y-74.549
X94.488Y-75.692
X94.488Y-78.486
X94.488Y-79.502
X94.869Y-89.408
X95.631Y-70.866
X95.631Y-72.136
X96.139Y-101.727
X97.409Y-89.281
X97.409Y-101.727
X97.536Y-83.566
X97.536Y-104.267
X97.583Y-69.389
X98.044Y-120.269
X98.994Y-125.288
X98.994Y-127.188
X100.076Y-101.6
X100.076Y-120.269
X100.076Y-124.079
X100.203Y-89.281
X100.838Y-72.136
X101.346Y-108.204
X101.473Y-89.281
X101.596Y-88.138
X102.108Y-120.269
X102.235Y-128.397
X102.559Y-124.483
X102.616Y-101.6
X103.356Y-126.216
X103.378Y-106.172
X103.632Y-109.347
X103.632Y-110.363
X103.632Y-111.379
X103.886Y-101.6
X104.14Y-118.237
X104.394Y-120.269
X104.672Y-84.144
X104.902Y-101.6
X105.156Y-118.237
X105.537Y-123.19
X106.172Y-118.237
X106.426Y-103.505
X106.553Y-89.027
X107.823Y-89.027
X109.474Y-106.426
X110.236Y-86.614
X111.379Y-127.127
X111.379Y-130.937
X111.76Y-133.35
X111.76Y-135.366
X112.268Y-88.646
X113.538Y-121.285
X113.538Y-125.095
X113.665Y-127.127
X113.665Y-130.937
X114.161Y-63.121
X114.234Y-55.306
X115.316Y-107.95
X115.443Y-59.563
X115.443Y-63.795
X115.57Y-85.598
X115.57Y-90.678
X115.57Y-95.25
X116.205Y-65.405
X116.332Y-55.372
X117.602Y-52.086
X118.237Y-59.563
X118.28Y-63.838
X118.491Y-122.174
X118.491Y-124.206
X119.634Y-85.598
X119.634Y-90.678
X119.779Y-63.881
X121.031Y-59.563
X121.031Y-63.804
X126.492Y-100.457
X126.619Y-105.41
X130.429Y-96.139
X130.429Y-100.457
X130.429Y-105.41
X132.715Y-102.362
X133.096Y-62.865
X134.747Y-104.394
X135.128Y-84.836
X136.779Y-101.6
X136.906Y-62.865
X138.049Y-101.6
X138.176Y-69.977
X138.303Y-88.392
X139.446Y-68.58
X139.594Y-89.505
X140.589Y-89.408
X140.716Y-107.569
X141.224Y-85.09
X141.478Y-75.565
X141.508Y-74.579
X141.529Y-78.486
X141.529Y-79.451
X141.859Y-89.408
X142.875Y-70.739
X142.875Y-72.009
X143.129Y-101.6
X144.272Y-69.215
X144.399Y-89.408
X144.399Y-101.6
X144.526Y-83.566
X144.526Y-104.14
X144.78Y-120.269
X145.73Y-125.415
X145.731Y-127.315
X146.811Y-124.204
X146.812Y-120.269
X147.193Y-89.408
X147.193Y-101.6
X147.955Y-72.009
X148.336Y-88.011
X148.336Y-108.458
X148.463Y-89.408
X148.844Y-120.269
X148.906Y-128.397
X149.23Y-124.483
X149.733Y-101.6
X149.925Y-126.176
X150.368Y-106.045
X150.622Y-109.474
X150.622Y-110.49
X150.622Y-111.506
X151.003Y-101.6
X151.13Y-120.269
X151.257Y-118.237
X151.407Y-84.155
X152.003Y-101.582
X152.208Y-123.19
X152.273Y-118.237
X153.289Y-118.237
X153.416Y-103.505
X153.543Y-89.281
X154.813Y-89.281
X156.464Y-105.918
X157.226Y-86.614
X157.988Y-130.937
X158.05Y-127.127
X158.623Y-133.35
X158.623Y-135.382
X159.258Y-88.519
X160.401Y-121.285
X160.401Y-125.095
X160.401Y-127.127
X160.401Y-130.937
X161.986Y-55.306
X162.5Y-108.0
X162.53Y-62.82
X162.814Y-85.598
X162.941Y-90.678
X162.941Y-95.25
X163.83Y-59.436
X163.83Y-63.668
X164.084Y-55.372
X164.465Y-65.317
X165.162Y-122.174
X165.162Y-124.206
X165.354Y-52.07
X166.624Y-59.436
X166.624Y-63.668
X166.751Y-90.678
X166.878Y-85.598
X168.021Y-63.754
X169.418Y-59.436
X169.418Y-63.668
X173.355Y-100.33
X173.355Y-105.41
X177.165Y-96.012
X177.165Y-100.33
X177.165Y-105.41
X178.562Y-62.865
X179.451Y-102.362
X181.356Y-104.394
X182.096Y-84.836
X182.372Y-62.865
X183.769Y-101.6
X184.846Y-69.977
X185.039Y-101.6
X185.166Y-88.138
X186.055Y-68.677
X186.436Y-89.408
X187.579Y-89.408
X187.833Y-107.442
X188.214Y-84.836
X188.468Y-74.803
X188.468Y-75.819
X188.468Y-78.537
X188.468Y-79.553
X188.849Y-89.408
X189.484Y-70.612
X189.484Y-72.009
X190.119Y-101.6
X191.262Y-104.013
X191.389Y-89.408
X191.389Y-101.6
X191.516Y-69.215
X191.516Y-83.439
X191.77Y-120.396
X192.786Y-125.476
X192.786Y-127.508
X193.802Y-120.396
X193.802Y-124.46
X194.183Y-89.408
X194.183Y-101.727
X194.818Y-72.009
X195.326Y-108.331
X195.453Y-88.011
X195.453Y-89.408
X195.834Y-120.396
X195.952Y-128.409
X196.469Y-124.714
X196.723Y-101.727
X197.104Y-126.492
X197.374Y-105.934
X197.612Y-110.109
X197.612Y-111.125
X197.612Y-112.141
X197.993Y-101.727
X198.12Y-118.237
X198.12Y-120.396
X198.374Y-83.693
X199.136Y-101.6
X199.136Y-118.237
X199.136Y-123.444
X200.152Y-118.237
X200.533Y-89.408
X200.533Y-103.505
X201.803Y-89.408
X203.454Y-106.045
X204.089Y-86.614
X204.724Y-127.127
X204.724Y-130.937
X205.613Y-135.382
X205.74Y-133.35
X206.159Y-88.48
X206.905Y-127.105
X206.917Y-130.971
X206.944Y-55.306
X207.137Y-121.539
X207.137Y-125.349
X207.996Y-62.864
X209.042Y-55.372
X209.169Y-107.95
X209.296Y-59.436
X209.296Y-63.668
X209.55Y-85.598
X209.677Y-90.678
X209.677Y-95.123
X209.931Y-65.278
X210.312Y-52.07
X211.836Y-122.428
X211.836Y-124.46
X212.09Y-59.436
X212.09Y-63.668
X213.487Y-90.678
X213.614Y-63.754
X213.614Y-85.598
X214.884Y-59.436
X214.884Y-63.668
X221.869Y-79.121
X221.869Y-81.28
X227.203Y-65.405
X227.203Y-66.294
X227.203Y-67.183
X227.203Y-68.834
X227.203Y-69.85
X227.203Y-70.866
X227.203Y-71.882
X227.203Y-72.898
X227.203Y-74.676
X227.203Y-75.692
X227.203Y-76.708
T2
X108.3Y-138.98
X108.3Y-140.25
X108.3Y-141.52
X155.331Y-138.98
X155.331Y-140.25
X155.331Y-141.52
X202.331Y-138.98
X202.331Y-140.25
X202.331Y-141.52
T3
X84.038Y-74.93
X84.038Y-77.47
X84.038Y-80.01
X84.038Y-85.09
X84.038Y-87.63
X84.038Y-90.17
X84.038Y-92.71
X113.538Y-98.552
X113.538Y-101.092
X113.538Y-103.632
X113.538Y-106.172
X113.538Y-111.252
X113.538Y-113.792
X113.538Y-116.332
X131.028Y-74.93
X131.028Y-77.47
X131.028Y-80.01
X131.028Y-85.09
X131.028Y-87.63
X131.028Y-90.17
X131.028Y-92.71
X160.528Y-98.552
X160.528Y-101.092
X160.528Y-103.632
X160.528Y-106.172
X160.528Y-111.252
X160.528Y-113.792
X160.528Y-116.332
X178.054Y-74.93
X178.054Y-77.47
X178.054Y-80.01
X178.054Y-85.09
X178.054Y-87.63
X178.054Y-90.17
X178.054Y-92.71
X207.554Y-98.552
X207.554Y-101.092
X207.554Y-103.632
X207.554Y-106.172
X207.554Y-111.252
X207.554Y-113.792
X207.554Y-116.332
T4
X94.862Y-60.134
X94.862Y-63.134
X97.862Y-60.134
X97.862Y-63.134
X100.862Y-60.134
X100.862Y-63.134
X103.862Y-60.134
X103.862Y-63.134
X106.862Y-60.134
X106.862Y-63.134
X109.862Y-60.134
X109.862Y-63.134
X142.782Y-60.134
X142.782Y-63.134
X145.782Y-60.134
X145.782Y-63.134
X148.782Y-60.134
X148.782Y-63.134
X151.782Y-60.134
X151.782Y-63.134
X154.782Y-60.134
X154.782Y-63.134
X157.782Y-60.134
X157.782Y-63.134
X187.692Y-60.134
X187.692Y-63.134
X190.692Y-60.134
X190.692Y-63.134
X193.692Y-60.134
X193.692Y-63.134
X196.692Y-60.134
X196.692Y-63.134
X199.692Y-60.134
X199.692Y-63.134
X202.692Y-60.134
X202.692Y-63.134
T5
X220.726Y-68.199
X220.726Y-70.739
X220.726Y-73.279
T6
X87.8Y-71.35
X89.75Y-119.65
X93.8Y-119.65
X104.0Y-71.35
X108.05Y-71.35
X121.95Y-122.35
X123.35Y-104.35
X123.35Y-111.85
X134.8Y-71.35
X136.75Y-119.65
X140.8Y-119.65
X151.0Y-71.35
X155.05Y-71.35
X168.95Y-122.35
X170.35Y-104.35
X170.35Y-111.85
X181.8Y-71.35
X183.75Y-119.65
X187.8Y-119.65
X198.0Y-71.35
X202.05Y-71.35
X215.95Y-122.35
X217.35Y-104.35
X217.35Y-111.85
M30
