M48
METRIC,TZ
T1C0.400
T2C0.500
T3C1.000
T4C1.020
T5C1.200
T6C1.500
%
G90
G05
T1
X79502Y-105410
X79756Y-100330
X83693Y-96139
X83820Y-100330
X84074Y-105410
X85344Y-62865
X85852Y-102362
X87630Y-104394
X88138Y-84836
X89154Y-62865
X89789Y-101727
X90993Y-69977
X91059Y-101727
X91367Y-88319
X91900Y-51800
X92202Y-68677
X92726Y-89408
X93726Y-89408
X93980Y-107530
X94200Y-51800
X94234Y-84836
X94488Y-74549
X94488Y-75692
X94488Y-78486
X94488Y-79502
X94869Y-89408
X95631Y-70866
X95631Y-72136
X96139Y-101727
X97409Y-89281
X97409Y-101727
X97536Y-83566
X97536Y-104267
X97583Y-69389
X98044Y-120269
X98994Y-125288
X98994Y-127188
X100076Y-101600
X100076Y-120269
X100076Y-124079
X100203Y-89281
X100838Y-72136
X101346Y-108204
X101473Y-89281
X101596Y-88138
X102108Y-120269
X102235Y-128397
X102559Y-124483
X102616Y-101600
X103356Y-126216
X103378Y-106172
X103632Y-109347
X103632Y-110363
X103632Y-111379
X103886Y-101600
X104140Y-118237
X104394Y-120269
X104600Y-51800
X104672Y-84144
X104902Y-101600
X105156Y-118237
X105537Y-123190
X106172Y-118237
X106426Y-103505
X106553Y-89027
X106800Y-51800
X107823Y-89027
X109474Y-106426
X110236Y-86614
X111379Y-127127
X111379Y-130937
X111760Y-133350
X111760Y-135366
X112268Y-88646
X113538Y-121285
X113538Y-125095
X113665Y-127127
X113665Y-130937
X114161Y-63121
X114234Y-55306
X115316Y-107950
X115443Y-59563
X115443Y-63795
X115570Y-85598
X115570Y-90678
X115570Y-95250
X116205Y-65405
X116332Y-55372
X117602Y-52086
X118237Y-59563
X118280Y-63838
X118491Y-122174
X118491Y-124206
X119634Y-85598
X119634Y-90678
X119779Y-63881
X121031Y-59563
X121031Y-63804
X126492Y-100457
X126619Y-105410
X130429Y-96139
X130429Y-100457
X130429Y-105410
X132715Y-102362
X133096Y-62865
X134747Y-104394
X135128Y-84836
X136779Y-101600
X136906Y-62865
X138049Y-101600
X138176Y-69977
X138303Y-88392
X139446Y-68580
X139594Y-89505
X140589Y-89408
X140716Y-107569
X141224Y-85090
X141478Y-75565
X141508Y-74579
X141529Y-78486
X141529Y-79451
X141859Y-89408
X142875Y-70739
X142875Y-72009
X143129Y-101600
X144272Y-69215
X144399Y-89408
X144399Y-101600
X144526Y-83566
X144526Y-104140
X144600Y-51800
X144780Y-120269
X145730Y-125415
X145731Y-127315
X146811Y-124204
X146812Y-120269
X146900Y-51800
X147193Y-89408
X147193Y-101600
X147955Y-72009
X148336Y-88011
X148336Y-108458
X148463Y-89408
X148844Y-120269
X148906Y-128397
X149230Y-124483
X149733Y-101600
X149925Y-126176
X150368Y-106045
X150622Y-109474
X150622Y-110490
X150622Y-111506
X151003Y-101600
X151130Y-120269
X151257Y-118237
X151407Y-84155
X152003Y-101582
X152208Y-123190
X152273Y-118237
X152500Y-51800
X153289Y-118237
X153416Y-103505
X153543Y-89281
X154700Y-51800
X154813Y-89281
X156464Y-105918
X157226Y-86614
X157988Y-130937
X158050Y-127127
X158623Y-133350
X158623Y-135382
X159258Y-88519
X160401Y-121285
X160401Y-125095
X160401Y-127127
X160401Y-130937
X161986Y-55306
X162500Y-108000
X162530Y-62820
X162814Y-85598
X162941Y-90678
X162941Y-95250
X163830Y-59436
X163830Y-63668
X164084Y-55372
X164465Y-65317
X165162Y-122174
X165162Y-124206
X165354Y-52070
X166624Y-59436
X166624Y-63668
X166751Y-90678
X166878Y-85598
X168021Y-63754
X169418Y-59436
X169418Y-63668
X173355Y-100330
X173355Y-105410
X177165Y-96012
X177165Y-100330
X177165Y-105410
X178562Y-62865
X179451Y-102362
X181356Y-104394
X182096Y-84836
X182372Y-62865
X183769Y-101600
X184846Y-69977
X185039Y-101600
X185166Y-88138
X186055Y-68677
X186436Y-89408
X187579Y-89408
X187833Y-107442
X188214Y-84836
X188468Y-74803
X188468Y-75819
X188468Y-78537
X188468Y-79553
X188849Y-89408
X189400Y-51900
X189484Y-70612
X189484Y-72009
X190119Y-101600
X191262Y-104013
X191389Y-89408
X191389Y-101600
X191516Y-69215
X191516Y-83439
X191600Y-51900
X191770Y-120396
X192786Y-125476
X192786Y-127508
X193802Y-120396
X193802Y-124460
X194183Y-89408
X194183Y-101727
X194818Y-72009
X195326Y-108331
X195453Y-88011
X195453Y-89408
X195834Y-120396
X195952Y-128409
X196469Y-124714
X196723Y-101727
X197104Y-126492
X197374Y-105934
X197500Y-51900
X197612Y-110109
X197612Y-111125
X197612Y-112141
X197993Y-101727
X198120Y-118237
X198120Y-120396
X198374Y-83693
X199136Y-101600
X199136Y-118237
X199136Y-123444
X199700Y-51900
X200152Y-118237
X200533Y-89408
X200533Y-103505
X201803Y-89408
X203454Y-106045
X204089Y-86614
X204724Y-127127
X204724Y-130937
X205613Y-135382
X205740Y-133350
X206159Y-88481
X206905Y-127105
X206917Y-130971
X206944Y-55306
X207137Y-121539
X207137Y-125349
X207996Y-62864
X209042Y-55372
X209169Y-107950
X209296Y-59436
X209296Y-63668
X209550Y-85598
X209677Y-90678
X209677Y-95123
X209931Y-65278
X210312Y-52070
X211836Y-122428
X211836Y-124460
X212090Y-59436
X212090Y-63668
X213487Y-90678
X213614Y-63754
X213614Y-85598
X214884Y-59436
X214884Y-63668
X221869Y-79121
X221869Y-81280
X227203Y-65405
X227203Y-66294
X227203Y-67183
X227203Y-68834
X227203Y-69850
X227203Y-70866
X227203Y-71882
X227203Y-72898
X227203Y-74676
X227203Y-75692
X227203Y-76708
T2
X108300Y-138980
X108300Y-140250
X108300Y-141520
X155331Y-138980
X155331Y-140250
X155331Y-141520
X202331Y-138980
X202331Y-140250
X202331Y-141520
T3
X84038Y-74930
X84038Y-77470
X84038Y-80010
X84038Y-85090
X84038Y-87630
X84038Y-90170
X84038Y-92710
X113538Y-98552
X113538Y-101092
X113538Y-103632
X113538Y-106172
X113538Y-111252
X113538Y-113792
X113538Y-116332
X131028Y-74930
X131028Y-77470
X131028Y-80010
X131028Y-85090
X131028Y-87630
X131028Y-90170
X131028Y-92710
X160528Y-98552
X160528Y-101092
X160528Y-103632
X160528Y-106172
X160528Y-111252
X160528Y-113792
X160528Y-116332
X178054Y-74930
X178054Y-77470
X178054Y-80010
X178054Y-85090
X178054Y-87630
X178054Y-90170
X178054Y-92710
X207554Y-98552
X207554Y-101092
X207554Y-103632
X207554Y-106172
X207554Y-111252
X207554Y-113792
X207554Y-116332
T4
X94862Y-60134
X94862Y-63134
X97862Y-60134
X97862Y-63134
X100862Y-60134
X100862Y-63134
X103862Y-60134
X103862Y-63134
X106862Y-60134
X106862Y-63134
X109862Y-60134
X109862Y-63134
X142782Y-60134
X142782Y-63134
X145782Y-60134
X145782Y-63134
X148782Y-60134
X148782Y-63134
X151782Y-60134
X151782Y-63134
X154782Y-60134
X154782Y-63134
X157782Y-60134
X157782Y-63134
X187692Y-60134
X187692Y-63134
X190692Y-60134
X190692Y-63134
X193692Y-60134
X193692Y-63134
X196692Y-60134
X196692Y-63134
X199692Y-60134
X199692Y-63134
X202692Y-60134
X202692Y-63134
T5
X220726Y-68199
X220726Y-70739
X220726Y-73279
T6
X87800Y-71350
X89750Y-119650
X93800Y-119650
X104000Y-71350
X108050Y-71350
X121950Y-122350
X123350Y-104350
X123350Y-111850
X134800Y-71350
X136750Y-119650
X140800Y-119650
X151000Y-71350
X155050Y-71350
X168950Y-122350
X170350Y-104350
X170350Y-111850
X181800Y-71350
X183750Y-119650
X187800Y-119650
X198000Y-71350
X202050Y-71350
X215950Y-122350
X217350Y-104350
X217350Y-111850
M30
