M48
METRIC,TZ
T1C1.020
T2C3.500
T3C5.500
T4C6.000
T5C16.000
%
G90
G05
T1
X91862Y-59194
X112862Y-59194
X139782Y-59194
X160782Y-59194
X184692Y-59194
X205692Y-59194
T2
X76750Y-60500
X76750Y-126600
X127350Y-60500
X127350Y-126600
X174650Y-60500
X174650Y-126600
X225250Y-60500
X225250Y-126600
T3
X100000Y-52500
X187000Y-134500
T4
X94660Y-142875
X94660Y-158625
X121940Y-142875
X121940Y-158625
X141691Y-142875
X141691Y-158625
X168971Y-142875
X168971Y-158625
X188691Y-142875
X188691Y-158625
X215971Y-142875
X215971Y-158625
T5
X108300Y-150750
X155331Y-150750
X202331Y-150750
M30
